<svg width="3780" height="2268" xmlns="http://www.w3.org/2000/svg" xmlns:xlink="http://www.w3.org/1999/xlink" overflow="hidden"><defs><clipPath id="clip0"><rect x="0" y="0" width="3780" height="2268"/></clipPath></defs><g clip-path="url(#clip0)"><rect x="0" y="0" width="3780" height="2268.03" fill="#FFFFFF"/><rect x="226.5" y="418.506" width="837" height="401.006" stroke="#575454" stroke-width="3.33377" stroke-miterlimit="8" stroke-dasharray="26.6702 10.0013" fill="none"/><text font-family="Arial,Arial_MSFontService,sans-serif" font-weight="700" font-size="32" transform="matrix(1 0 0 1.00001 235.989 454)">DiCon</text><rect x="226.5" y="830.512" width="1699" height="700.01" stroke="#575454" stroke-width="3.33377" stroke-miterlimit="8" stroke-dasharray="26.6702 10.0013" fill="none"/><text font-family="Arial,Arial_MSFontService,sans-serif" font-weight="700" font-size="32" transform="matrix(1 0 0 1.00001 235.989 866)">UNOCS</text><rect x="1081.5" y="418.506" width="844" height="399.006" stroke="#575454" stroke-width="3.33377" stroke-miterlimit="8" stroke-dasharray="26.6702 10.0013" fill="none"/><text font-family="Arial,Arial_MSFontService,sans-serif" font-weight="700" font-size="32" transform="matrix(1 0 0 1.00001 1090.84 454)">OCQA</text><path d="M489.5 763.011C489.5 758.869 492.858 755.511 497 755.511L705 755.511C709.142 755.511 712.5 758.869 712.5 763.011L712.5 793.012C712.5 797.154 709.142 800.512 705 800.512L497 800.512C492.858 800.512 489.5 797.154 489.5 793.012Z" stroke="#FFFFFF" stroke-width="0.666755" stroke-miterlimit="8" fill="#575454" fill-rule="evenodd"/><text fill="#FFFFFF" font-family="Arial,Arial_MSFontService,sans-serif" font-weight="400" font-size="32" transform="matrix(1 0 0 1.00001 516.05 789)">dica:Person</text><path d="M263.5 673.177C263.5 668.942 266.933 665.51 271.167 665.51L529.833 665.51C534.067 665.51 537.5 668.942 537.5 673.177L537.5 703.843C537.5 708.078 534.067 711.51 529.833 711.51L271.167 711.51C266.933 711.51 263.5 708.078 263.5 703.843Z" stroke="#FFFFFF" stroke-width="0.666755" stroke-miterlimit="8" fill="#575454" fill-rule="evenodd"/><text fill="#FFFFFF" font-family="Arial,Arial_MSFontService,sans-serif" font-weight="400" font-size="32" transform="matrix(1 0 0 1.00001 275.758 700)">dice:Organization</text><path d="M488.888 778.938 480.896 778.57 480.988 776.571 488.98 776.94ZM474.858 777.785 472.17 777.421 466.926 776.257 467.359 774.304 472.563 775.459 472.48 775.445 475.127 775.803ZM461.052 774.703 455.948 773.132 453.401 772.126 454.135 770.266 456.646 771.257 456.573 771.231 461.64 772.791ZM447.763 769.86 440.783 766.469 440.51 766.31 441.518 764.582 441.758 764.722 441.691 764.686 448.637 768.061ZM435.327 763.285 433.757 762.37 428.609 758.806 429.747 757.161 434.864 760.703 434.799 760.662 436.335 761.558ZM423.819 755.066 421.144 752.877 417.822 749.653 419.215 748.217 422.507 751.412 422.443 751.356 425.086 753.518ZM413.657 745.215 410.879 741.975 408.686 738.831 410.327 737.687 412.491 740.79 412.43 740.711 415.176 743.912ZM405.454 733.654 403.488 730.036 402.025 726.305 403.887 725.575 405.328 729.248 405.276 729.136 407.212 732.699ZM400.322 720.399 399.782 717.841 401.739 717.428 402.279 719.986ZM394.289 719.72 400 711.01 407.537 718.199Z"/><path d="M687.5 707.011C687.5 702.868 690.858 699.51 695 699.51L936 699.51C940.142 699.51 943.5 702.868 943.5 707.011L943.5 737.01C943.5 741.153 940.142 744.511 936 744.511L695 744.511C690.858 744.511 687.5 741.153 687.5 737.01Z" stroke="#FFFFFF" stroke-width="0.666755" stroke-miterlimit="8" fill="#575454" fill-rule="evenodd"/><text fill="#FFFFFF" font-family="Arial,Arial_MSFontService,sans-serif" font-weight="400" font-size="32" transform="matrix(1 0 0 1.00001 730.538 733)">dicp:Activity</text><path d="M1394 1096.93 1378.11 1096.65 1362.23 1095.85 1346.41 1094.53 1330.69 1092.71 1315.09 1090.41 1299.64 1087.64 1284.39 1084.43 1269.35 1080.79 1254.56 1076.73 1240.05 1072.28 1225.84 1067.45 1211.98 1062.26 1198.5 1056.72 1185.41 1050.86 1172.76 1044.69 1160.57 1038.22 1148.88 1031.48 1137.72 1024.48 1127.11 1017.23 1117.09 1009.76 1107.69 1002.08 1098.94 994.205 1090.88 986.155 1083.52 977.945 1076.91 969.591 1071.07 961.11 1066.04 952.517 1061.86 943.829 1058.54 935.062 1056.13 926.234 1054.66 917.363 1054.17 908.515 1053.52 890.954 1053.53 891.024 1051.65 873.61 1051.66 873.677 1048.63 856.538 1048.65 856.602 1044.55 839.874 1044.57 839.936 1039.49 823.758 1039.51 823.818 1033.53 808.327 1033.55 808.387 1026.75 793.719 1026.78 793.78 1019.24 780.073 1019.27 780.137 1011.07 767.528 1011.12 767.594 1002.34 756.221 1002.39 756.272 997.807 751.092 997.84 751.127 993.149 746.307 993.186 746.344 988.392 741.901 988.434 741.938 983.547 737.891 983.595 737.927 978.626 734.292 978.68 734.329 973.64 731.122 973.701 731.158 968.599 728.398 968.667 728.432 963.514 726.135 963.591 726.165 958.397 724.349 958.482 724.375 953.257 723.056 953.373 723.078 949.514 722.576 949.772 720.592 953.689 721.102 959.015 722.446 964.291 724.291 969.517 726.62 974.684 729.415 979.781 732.658 984.8 736.331 989.731 740.415 994.564 744.894 999.29 749.749 1003.91 754.972 1012.73 766.404 1020.97 779.077 1028.55 792.846 1035.38 807.575 1041.39 823.128 1046.49 839.367 1050.6 856.158 1053.64 873.363 1055.52 890.845 1056.16 908.432 1056.16 908.413 1056.65 917.197 1056.64 917.089 1058.1 925.856 1058.07 925.756 1060.46 934.489 1060.43 934.399 1063.71 943.08 1063.68 942.999 1067.83 951.612 1067.79 951.541 1072.78 960.068 1072.74 960.006 1078.54 968.43 1078.5 968.376 1085.07 976.68 1085.03 976.633 1092.35 984.8 1092.31 984.759 1100.34 992.771 1100.3 992.736 1109.01 1000.58 1108.98 1000.54 1118.34 1008.2 1118.31 1008.17 1128.29 1015.61 1128.26 1015.59 1138.83 1022.81 1138.8 1022.79 1149.93 1029.77 1149.9 1029.75 1161.56 1036.48 1161.53 1036.46 1173.68 1042.91 1173.65 1042.9 1186.27 1049.06 1186.24 1049.04 1199.3 1054.89 1199.27 1054.88 1212.73 1060.4 1212.7 1060.39 1226.53 1065.57 1226.5 1065.56 1240.67 1070.38 1240.65 1070.37 1255.13 1074.81 1255.1 1074.8 1269.86 1078.85 1269.83 1078.84 1284.84 1082.48 1284.81 1082.47 1300.04 1085.68 1300.01 1085.67 1315.42 1088.43 1315.39 1088.43 1330.96 1090.73 1330.93 1090.72 1346.62 1092.54 1346.59 1092.54 1362.38 1093.85 1362.35 1093.85 1378.19 1094.66 1378.16 1094.65 1394.04 1094.93ZM950.398 728.341 943 721.011 951.545 715.055Z"/><path d="M638.5 453.007C638.5 448.865 641.858 445.507 646 445.507L953 445.507C957.142 445.507 960.5 448.865 960.5 453.007L960.5 483.007C960.5 487.149 957.142 490.507 953 490.507L646 490.507C641.858 490.507 638.5 487.149 638.5 483.007Z" stroke="#FFFFFF" stroke-width="0.666755" stroke-miterlimit="8" fill="#575454" fill-rule="evenodd"/><text fill="#FFFFFF" font-family="Arial,Arial_MSFontService,sans-serif" font-weight="400" font-size="32" transform="matrix(1 0 0 1.00001 661.661 480)">dice:BuildingObject</text><path d="M0.00937266-1.00009 8.01008-0.925107 7.99133 1.07507-0.00937266 1.00009ZM14.0106-0.868871 19.4355-0.81803 22.0284-0.747127 21.9738 1.25239 19.3898 1.18173 19.4078 1.18206 13.9919 1.13131ZM28.027-0.583099 36.0251-0.364395 35.9704 1.63512 27.9723 1.41642ZM42.0353-0.149075 47.2541 0.0640567 50.0379 0.203909 49.9376 2.20165 47.1584 2.06204 47.1677 2.06246 41.9537 1.84952ZM56.0411 0.507253 64.0229 0.988901 64.0388 0.990037 63.896 2.9852 63.8857 2.98446 63.8969 2.9852 55.9206 2.50389ZM70.0243 1.41854 71.6468 1.5347 78.0114 2.07318 77.8428 4.06633 71.4846 3.52839 71.4975 3.52939 69.8815 3.4137ZM83.9987 2.66389 84.9963 2.76403 90.5729 3.4364 91.9861 3.64599 91.6926 5.62461 90.2929 5.41702 90.3199 5.42065 84.7667 4.7511 84.7866 4.75329 83.7989 4.65416ZM97.9441 4.63971 99.175 4.8739 102.09 5.64276 104.132 6.52567 104.886 7.4831 105.483 8.24166 105.094 7.94234 105.141 7.96261 104.348 9.79865 104.068 9.67794 103.314 8.72051 102.717 7.96196 103.106 8.26127 101.365 7.50865 101.507 7.55769 98.6986 6.81693 98.7668 6.83238 97.5703 6.60472ZM110.663 9.60503 113.233 10.0942 113.193 10.0874 117.908 10.7866 117.881 10.783 118.494 10.8569 118.255 12.8428 117.628 12.7672 112.879 12.063 110.289 11.57ZM124.434 11.5527 129.73 12.0843 129.714 12.0828 132.384 12.3087 132.215 14.3018 129.538 14.0753 124.235 13.543ZM138.352 12.7923 144.315 13.2192 144.304 13.2184 146.323 13.3403 146.202 15.3369 144.178 15.2147 138.209 14.7874ZM152.313 13.7017 152.449 13.7099 152.439 13.7094 160.294 14.104 160.193 16.1017 152.334 15.7069 152.192 15.6983ZM166.28 14.3554 170.017 14.5081 170.004 14.5076 174.263 14.6241 174.208 16.6236 169.942 16.5069 166.198 16.354ZM180.261 14.7881 188.259 15.0068 188.204 17.0063 180.206 16.7876ZM194.242 15.0726 201.543 15.141 201.524 17.1412 194.223 17.0728ZM200.262 9.46138 208.201 16.2036 200.137 22.7959Z" transform="matrix(-1.83697e-16 -1.00001 -1 1.837e-16 815.204 698.211)"/><path d="M378.5 446.173C378.5 441.939 381.933 438.506 386.167 438.506L609.833 438.506C614.067 438.506 617.5 441.939 617.5 446.173L617.5 476.84C617.5 481.074 614.067 484.507 609.833 484.507L386.167 484.507C381.933 484.507 378.5 481.074 378.5 476.84Z" stroke="#FFFFFF" stroke-width="0.666755" stroke-miterlimit="8" fill="#575454" fill-rule="evenodd"/><text fill="#FFFFFF" font-family="Arial,Arial_MSFontService,sans-serif" font-weight="400" font-size="32" transform="matrix(1 0 0 1.00001 402.851 473)">dice:Location</text><path d="M269.5 556.175C269.5 551.941 272.932 548.508 277.167 548.508L475.833 548.508C480.067 548.508 483.5 551.941 483.5 556.175L483.5 586.842C483.5 591.076 480.067 594.509 475.833 594.509L277.167 594.509C272.932 594.509 269.5 591.076 269.5 586.842Z" stroke="#FFFFFF" stroke-width="0.666755" stroke-miterlimit="8" fill="#575454" fill-rule="evenodd"/><text fill="#FFFFFF" font-family="Arial,Arial_MSFontService,sans-serif" font-weight="400" font-size="32" transform="matrix(1 0 0 1.00001 300.616 583)">dice:Agent</text><path d="M0-28 211.833-28 211.833 7-5.08626e-06 7Z" fill="#FFFFFF" fill-rule="evenodd" transform="matrix(1 0 0 1.00001 694.07 535.373)"/><text font-family="Arial,Arial_MSFontService,sans-serif" font-weight="400" font-size="32" transform="matrix(1 0 0 1.00001 694.07 535)">dicp:hasObject</text><path d="M943.053 720.524 947.953 720.327 947.876 720.333 950.952 719.97 951.186 721.956 948.072 722.324 943.133 722.522ZM956.725 718.834 962.086 717.599 961.953 717.64 964.288 716.746 965.003 718.614 962.603 719.533 957.175 720.783ZM969.892 714.6 970.795 714.255 970.668 714.314 976.82 710.904 977.79 712.654 971.576 716.097 970.607 716.469ZM981.733 707.675 982.015 707.474 981.95 707.525 985.125 704.839 985.058 704.901 987.511 702.41 988.936 703.813 986.451 706.337 983.21 709.079 982.894 709.304ZM990.997 697.813 991.995 696.213 991.931 696.332 993.343 693.194 993.291 693.339 993.999 690.761 995.928 691.29 995.199 693.944 993.728 697.214 992.694 698.872ZM994.289 685.133 994.216 684.057 994.233 684.183 993.602 680.995 993.632 681.11 992.615 677.972 992.654 678.073 992.501 677.733 994.325 676.912 994.501 677.303 995.553 680.549 996.208 683.858 996.285 684.999ZM989.719 672.602 987.628 669.342 987.737 669.483 984.927 666.458 986.393 665.096 989.263 668.187 991.402 671.522ZM980.626 662.547 977.326 660.009 977.467 660.1 974.077 658.299 975.015 656.532 978.479 658.373 981.845 660.961ZM968.76 655.985 964.446 654.606 964.589 654.64 961.162 654.079 961.486 652.105 964.985 652.678 969.369 654.08ZM955.262 653.702 954.039 653.611 950.404 652.815 947.275 651.692 947.951 649.81 951.018 650.91 950.895 650.875 954.398 651.642 954.259 651.622 955.411 651.707ZM941.78 648.794 940.033 647.679 936.825 645.161 935.374 643.669 936.807 642.274 938.212 643.718 938.113 643.629 941.229 646.076 941.15 646.019 942.856 647.108ZM931.189 639.368 931.012 639.185 926.497 632.688 928.14 631.547 932.607 637.976 932.503 637.849 932.623 637.973ZM923.734 627.191 922.313 624.23 920.903 620.037 920.784 619.548 922.728 619.077 922.837 619.524 922.813 619.441 924.189 623.534 924.143 623.42 925.537 626.325ZM914.122 615.607 920 607.009 927.397 614.341Z"/><path d="M686.778 722.559 681.095 722.121 678.708 721.581 679.15 719.63 681.465 720.154 681.322 720.132 686.932 720.564ZM672.829 719.881 669.796 718.757 665.45 716.524 666.364 714.745 670.657 716.95 670.547 716.902 673.524 718.006ZM660.282 713.277 659.09 712.491 654.064 708.416 653.855 708.212 655.25 706.779 655.427 706.951 655.359 706.891 660.311 710.906 660.232 710.848 661.383 711.607ZM649.556 704.025 649.312 703.787 644.876 698.661 644.257 697.815 645.871 696.633 646.466 697.447 646.416 697.383 650.797 702.446 650.739 702.384 650.952 702.592ZM640.68 692.9 637.122 687.135 636.525 685.974 638.304 685.06 638.883 686.186 638.845 686.118 642.382 691.849ZM633.769 680.556 631.145 674.274 630.75 673.062 632.652 672.443 633.034 673.616 633.006 673.54 635.615 679.785ZM628.884 667.271 627.296 660.511 627.133 659.377 629.114 659.094 629.27 660.184 629.253 660.097 630.831 666.814ZM626.277 653.344 625.935 646.334 625.935 646.344 625.877 645.363 627.874 645.245 627.932 646.231 628.275 653.246ZM625.144 639.532 625.123 639.41 625.147 639.514 624.135 636.008 624.167 636.102 622.772 632.615 622.83 632.735 622.598 632.324 624.34 631.341 624.605 631.811 626.043 635.405 627.084 639.011 627.115 639.187ZM619.649 627.098 618.947 625.853 619.03 625.978 614.982 620.801 616.557 619.569 620.652 624.805 621.391 626.115ZM610.993 616.497 607.34 612.856 607.416 612.925 605.207 611.135 606.467 609.581 608.716 611.403 612.405 615.08ZM600.545 607.357 599.738 606.704 599.809 606.756 594.036 602.862 595.155 601.204 600.964 605.122 601.804 605.803ZM589.028 599.705 582.073 595.75 583.061 594.011 590.017 597.966ZM576.748 593.138 570.996 590.37 571.054 590.396 569.555 589.788 570.306 587.934 571.835 588.554 577.615 591.335ZM563.994 587.533 559.792 585.829 559.848 585.85 556.563 584.741 557.203 582.846 560.516 583.964 564.745 585.679ZM550.877 582.822 547.953 581.834 548.008 581.851 543.269 580.55 543.798 578.621 548.565 579.93 551.517 580.926ZM537.482 578.962 535.586 578.442 535.641 578.456 529.74 577.193 530.158 575.237 536.088 576.505 538.011 577.033ZM523.872 575.938 522.798 575.708 522.854 575.718 516.033 574.666 516.338 572.689 523.188 573.746 524.29 573.982ZM510.102 573.751 509.694 573.688 509.753 573.695 502.198 572.984 502.386 570.992 509.97 571.706 510.407 571.774ZM496.285 572.435 489.632 572.222 489.696 570.222 496.349 570.436ZM490.783 577.929 483 571.008 491.21 564.6Z"/><path d="M784.5 569.175C784.5 564.941 787.933 561.508 792.167 561.508L1048.83 561.508C1053.07 561.508 1056.5 564.941 1056.5 569.175L1056.5 599.842C1056.5 604.076 1053.07 607.509 1048.83 607.509L792.167 607.509C787.933 607.509 784.5 604.076 784.5 599.842Z" stroke="#FFFFFF" stroke-width="0.666755" stroke-miterlimit="8" fill="#575454" fill-rule="evenodd"/><text fill="#FFFFFF" font-family="Arial,Arial_MSFontService,sans-serif" font-weight="400" font-size="32" transform="matrix(1 0 0 1.00001 809.278 596)">dice:Equipment</text><path d="M0-28 272.5-28 272.5 7 0 7Z" fill="#FFFFFF" fill-rule="evenodd" transform="matrix(1 0 0 1.00001 831.149 665.073)"/><text font-family="Arial,Arial_MSFontService,sans-serif" font-weight="400" font-size="32" transform="matrix(1 0 0 1.00001 831.149 665)">dicp:hasEquipment</text><path d="M0.0391259-0.999367 5.96013-0.767555 8.09774-0.519528 7.86719 1.46741 5.76754 1.22378 5.84369 1.22968-0.0391259 0.999367ZM14.1065 0.342885 17.8246 1.05343 21.9676 2.15046 21.4556 4.08409 17.3465 2.99602 17.4147 3.01156 13.731 2.30759ZM27.7509 3.97614 29.5341 4.57799 35.255 6.92182 34.4967 8.77277 28.8051 6.44095 28.8644 6.46308 27.1112 5.87136ZM40.7166 9.54953 40.9959 9.68409 46.617 12.7988 47.7849 13.5744 46.6783 15.2407 45.5438 14.4873 45.6124 14.5289 40.0514 11.4475 40.102 11.4738 39.8484 11.3516ZM52.7837 16.8943 57.5263 20.0439 59.3901 21.5666 58.1247 23.1156 56.299 21.6242 56.3785 21.6828 51.6771 18.5606ZM64.0373 25.363 67.9747 28.5796 70.1216 30.6863 68.7206 32.114 66.6062 30.0392 66.674 30.0999 62.7719 26.9121ZM74.4047 34.8892 77.8609 38.2807 79.9747 40.7415 78.4573 42.0449 76.3713 39.6164 76.4295 39.6785 73.0037 36.3169ZM83.8848 45.2936 87.0947 49.0305 88.9502 51.5834 87.3322 52.7594 85.5005 50.2394 85.5509 50.303 82.3674 46.5969ZM92.4783 56.4375 95.5858 60.7129 97.0456 63.0958 95.34 64.1408 93.9007 61.7915 93.9445 61.857 90.8603 57.6135ZM100.18 68.2127 103.243 73.2121 104.25 75.1863 102.468 76.0951 101.479 74.1557 101.517 74.2237 98.4748 69.2576ZM106.977 80.5319 109.976 86.4123 110.542 87.7782 108.694 88.5443 108.143 87.2148 108.176 87.2861 105.195 81.4407ZM112.84 93.3214 115.692 100.198 115.888 100.804 113.984 101.42 113.801 100.852 113.829 100.927 110.993 94.0875ZM117.733 106.514 120.194 114.128 118.29 114.743 115.83 107.13ZM121.603 120.046 123.419 127.838 121.471 128.292 119.655 120.5ZM124.386 133.845 125.512 141.767 123.532 142.048 122.405 134.127ZM126.008 147.834 126.394 155.826 124.397 155.923 124.01 147.931ZM126.644 161.835 126.92 169.831 124.921 169.9 124.645 161.904ZM127.262 175.753 128.07 183.713 126.08 183.915 125.272 175.955ZM128.747 189.609 130.06 197.502 128.087 197.83 126.774 189.937ZM131.065 203.354 132.862 211.151 130.913 211.6 129.116 203.804ZM134.21 216.996 134.21 216.998 134.195 216.941 136.463 224.612 134.545 225.179 132.268 217.48 132.261 217.45ZM138.165 230.367 138.25 230.653 138.231 230.595 140.863 237.833 138.984 238.517 136.34 231.25 136.247 230.934ZM142.915 243.472 143.007 243.726 142.984 243.667 146.079 250.752 144.246 251.553 141.138 244.439 141.035 244.156ZM148.463 256.186 152.145 263.289 150.37 264.21 146.687 257.107ZM154.939 268.517 159.119 275.339 157.413 276.384 153.234 269.562ZM162.377 280.279 167.081 286.751 165.463 287.927 160.759 281.455ZM170.877 291.278 175.227 296.261 175.155 296.187 176.17 297.131 174.806 298.595 173.755 297.616 169.37 292.593ZM180.561 301.221 182.883 303.383 182.815 303.325 186.628 306.287 185.401 307.867 181.552 304.877 179.198 302.685ZM191.514 309.521 194.762 311.386 194.692 311.349 198.538 313.17 197.683 314.978 193.8 313.14 190.518 311.255ZM204.022 315.105 206.954 315.891 206.814 315.864 208.566 316.074 208.329 318.06 206.505 317.842 203.504 317.038ZM207.823 310.296 215.078 317.769 206.42 323.557Z" transform="matrix(-1.83697e-16 -1.00001 -1 1.837e-16 814.769 699.088)"/><path d="M0-28 240.5-28 240.5 7 0 7Z" fill="#FFFFFF" fill-rule="evenodd" transform="matrix(1 0 0 1.00001 428.918 526.249)"/><text font-family="Arial,Arial_MSFontService,sans-serif" font-weight="400" font-size="32" transform="matrix(1 0 0 1.00001 428.918 526)">dicp:hasLocation</text><path d="M0-28 203-28 203 7 0 7Z" fill="#FFFFFF" fill-rule="evenodd" transform="matrix(1 0 0 1.00001 499.83 629.777)"/><text font-family="Arial,Arial_MSFontService,sans-serif" font-weight="400" font-size="32" transform="matrix(1 0 0 1.00001 499.83 630)">dicp:hasAgent</text><path d="M0.0617958-0.998221 10.517-0.350981 20.9442 1.54542 31.1981 4.60196 41.1978 8.73407 50.863 13.8579 60.1135 19.8903 68.8692 26.7486 77.0498 34.3508 84.5747 42.6151 91.363 51.46 97.3336 60.8044 102.405 70.5673 106.494 80.6675 109.519 91.024 111.395 101.555 112.037 112.132 112.325 122.651 112.322 122.599 113.159 133.019 113.154 132.969 114.505 143.225 114.497 143.176 116.325 153.186 116.315 153.137 118.583 162.819 118.57 162.77 121.241 172.04 121.225 171.99 124.263 180.768 124.243 180.715 127.611 188.917 127.586 188.86 131.248 196.405 131.215 196.343 135.133 203.149 135.089 203.079 139.227 209.063 139.166 208.984 143.488 214.064 143.402 213.974 147.87 218.069 147.746 217.972 152.325 220.998 152.087 220.883 154.948 221.829 154.32 223.728 151.333 222.74 146.577 219.597 142.005 215.407 137.61 210.242 133.42 204.182 129.464 197.31 125.773 189.706 122.382 181.448 119.326 172.619 116.641 163.299 114.362 153.57 112.525 143.511 111.168 133.205 110.326 122.733 110.038 112.203 110.039 112.237 109.402 101.734 109.416 101.849 107.559 91.428 107.584 91.5329 104.588 81.2766 104.621 81.3715 100.568 71.3617 100.608 71.4474 95.5791 61.7662 95.6239 61.8437 89.7006 52.5733 89.75 52.6437 83.0135 43.8662 83.0673 43.9307 75.5989 35.7283 75.6576 35.7876 67.5385 28.2426 67.6026 28.2973 58.9142 21.4917 58.9846 21.5421 49.8083 15.5581 49.8861 15.604 40.3032 10.5238 40.3897 10.5645 30.4814 6.47014 30.5777 6.50427 20.4254 3.47803 20.5322 3.50357 10.2173 1.62758 10.3344 1.64181-0.0617958 0.998221ZM154.912 215.984 161.113 224.352 151.765 228.943Z" transform="matrix(-1.83697e-16 -1.00001 -1 1.837e-16 600.352 755.124)"/><path d="M391.013 876.633 391.634 872.895 393.487 869.097 396.415 865.437 400.319 861.916 405.12 858.541 410.745 855.326 417.122 852.293 424.176 849.464 431.835 846.865 440.023 844.523 448.666 842.464 457.689 840.718 467.017 839.31 476.574 838.27 486.285 837.625 496.051 837.404 505.795 837.184 505.752 837.186 515.42 836.544 515.378 836.548 524.893 835.512 524.852 835.517 534.139 834.116 534.098 834.123 543.08 832.384 543.039 832.393 551.64 830.345 551.596 830.357 559.74 828.027 559.693 828.042 567.303 825.459 567.252 825.478 574.252 822.671 574.195 822.696 580.509 819.692 580.443 819.727 585.994 816.554 585.915 816.604 590.629 813.291 590.468 813.432 593.716 809.899 595.189 811.253 591.867 814.865 587.027 818.268 581.402 821.482 575.026 824.516 567.972 827.345 560.313 829.944 552.125 832.286 543.481 834.344 534.458 836.091 525.13 837.498 515.573 838.539 505.862 839.183 496.096 839.404 486.352 839.624 486.396 839.622 476.728 840.265 476.77 840.261 467.254 841.297 467.295 841.291 458.008 842.693 458.049 842.686 449.067 844.424 449.109 844.415 440.508 846.463 440.551 846.452 432.408 848.781 432.454 848.767 424.844 851.349 424.895 851.33 417.895 854.137 417.953 854.112 411.639 857.116 411.705 857.082 406.153 860.254 406.232 860.204 401.519 863.518 401.614 863.442 397.815 866.868 397.926 866.75 395.119 870.26 395.236 870.074 393.496 873.641 393.584 873.366 392.987 876.961ZM587.951 808.586 600.148 800.012 599.689 814.914Z"/><path d="M0-28 192.333-28 192.333 7-5.08626e-06 7Z" fill="#FFFFFF" fill-rule="evenodd" transform="matrix(1 0 0 1.00001 262.965 763.028)"/><path d="M0-28 10.6667-28 10.6667 7 3.17891e-07 7Z" fill="#FFFFFF" fill-rule="evenodd" transform="matrix(1 0 0 1.00001 455.324 763.028)"/><path d="M0-28 177.833-28 177.833 7-5.08626e-06 7Z" fill="#FFFFFF" fill-rule="evenodd" transform="matrix(1 0 0 1.00001 262.965 802.029)"/><text font-family="Arial,Arial_MSFontService,sans-serif" font-weight="400" font-size="32" transform="matrix(1 0 0 1.00001 262.965 763)">Dica:isOrgani</text><text font-family="Arial,Arial_MSFontService,sans-serif" font-weight="400" font-size="32" transform="matrix(1 0 0 1.00001 455.324 763)">-</text><text font-family="Arial,Arial_MSFontService,sans-serif" font-weight="400" font-size="32" transform="matrix(1 0 0 1.00001 262.965 802)">zationPartOf</text><path d="M1095.5 472.341C1095.5 465.253 1101.25 459.507 1108.33 459.507L1362.67 459.507C1369.75 459.507 1375.5 465.253 1375.5 472.341L1375.5 523.674C1375.5 530.762 1369.75 536.508 1362.67 536.508L1108.33 536.508C1101.25 536.508 1095.5 530.762 1095.5 523.674Z" stroke="#FFFFFF" stroke-width="0.666755" stroke-miterlimit="8" fill="#575454" fill-rule="evenodd"/><text fill="#FFFFFF" font-family="Arial,Arial_MSFontService,sans-serif" font-weight="400" font-size="32" transform="matrix(1 0 0 1.00001 1123.03 490)">ocqa:Inspection</text><text fill="#FFFFFF" font-family="Arial,Arial_MSFontService,sans-serif" font-weight="400" font-size="32" transform="matrix(1 0 0 1.00001 1203.12 529)">Plan</text><path d="M1114.5 681.177C1114.5 676.943 1117.93 673.51 1122.17 673.51L1395.83 673.51C1400.07 673.51 1403.5 676.943 1403.5 681.177L1403.5 711.844C1403.5 716.078 1400.07 719.511 1395.83 719.511L1122.17 719.511C1117.93 719.511 1114.5 716.078 1114.5 711.844Z" stroke="#FFFFFF" stroke-width="0.666755" stroke-miterlimit="8" fill="#575454" fill-rule="evenodd"/><text fill="#FFFFFF" font-family="Arial,Arial_MSFontService,sans-serif" font-weight="400" font-size="32" transform="matrix(1 0 0 1.00001 1146.33 708)">ocqa:Inspection</text><path d="M0.0204249-0.999924 8.01981-0.836525 7.97896 1.16332-0.0204249 0.999924ZM14.0566-0.666019 22.0435-0.190007 21.9245 1.80671 13.9376 1.3307ZM28.0641 0.277811 36.0263 1.06631 35.8291 3.05684 27.867 2.26834ZM42.011 1.82374 42.3424 1.86733 47.3903 2.65498 49.9564 3.12819 49.5937 5.09529 47.0411 4.62458 47.0683 4.62921 42.0459 3.84553 42.0696 3.84895 41.7501 3.80693ZM55.8647 4.34916 56.2437 4.43208 59.9549 5.40733 63.1304 6.43383 63.6998 6.66997 62.9335 8.51764 62.4013 8.29693 62.4768 8.32474 59.3661 7.31919 59.4195 7.33483 55.7554 6.37195 55.7959 6.38168 55.4372 6.30321ZM69.2838 10.3591 69.6279 11.3115 70.022 12.4024 69.7672 12.0143 70.9159 13.0966 70.7285 12.9575 72.5815 14.0228 72.4662 13.966 74.4178 14.7754 73.6515 16.623 71.6404 15.789 69.6297 14.633 68.2218 13.3064 67.7466 11.9911 67.4025 11.0387ZM80.0154 16.5092 81.6191 16.9307 81.5786 16.9209 85.7458 17.8326 85.7134 17.8261 87.7561 18.2028 87.3934 20.1699 85.3344 19.7902 81.1308 18.8705 79.507 18.4438ZM93.6459 19.1945 95.3286 19.4571 95.3048 19.4537 100.679 20.1605 100.648 20.1569 101.52 20.2433 101.323 22.2338 100.434 22.1458 95.0321 21.4353 93.3375 21.1709ZM107.492 20.8347 112.252 21.3061 112.213 21.303 115.425 21.4944 115.306 23.4911 112.074 23.2985 107.295 22.8252ZM121.415 21.8514 124.622 22.0425 124.583 22.041 129.37 22.1388 129.33 24.1386 124.523 24.0404 121.296 23.8481ZM129.511 16.4731 137.374 23.3026 129.239 29.8054Z" transform="matrix(1.83697e-16 1.00001 1 -1.837e-16 1235 536.008)"/><path d="M0.0177311-0.999975 16.0391-0.715891 31.5705 0.0876403 38.9971 0.661494 46.1063 1.33721 52.84 2.10599 59.1363 2.95883 64.9338 3.88686 70.1716 4.88159 74.7906 5.93528 78.7349 7.04208 81.9559 8.2016 84.4232 9.43294 86.1387 10.836 86.7272 12.2503 87.2195 13.4332 86.9293 13.0433 88.3643 14.217 88.1777 14.0963 90.4924 15.2515 90.3846 15.2053 93.5164 16.3328 93.4478 16.3108 97.3337 17.4012 97.2859 17.3891 101.863 18.4332 101.827 18.4257 107.033 19.4144 107.004 19.4094 112.776 20.3332 112.752 20.3297 119.026 21.1795 119.005 21.1769 125.719 21.9434 125.7 21.9415 132.791 22.6154 132.773 22.6139 140.179 23.1861 140.153 23.1845 155.655 23.9865 155.621 23.9853 164.959 24.1509 164.923 26.1508 155.569 25.985 140.037 25.1814 132.611 24.6076 125.501 23.9319 118.768 23.1631 112.471 22.3102 106.674 21.3822 101.436 20.3875 96.817 19.3338 92.8727 18.227 89.6518 17.0675 87.1844 15.8361 85.469 14.433 84.8805 13.0188 84.3882 11.8358 84.6784 12.2257 83.2434 11.0521 83.43 11.1728 81.1152 10.0176 81.2231 10.0637 78.0913 8.9363 78.1599 8.95823 74.274 7.86782 74.3217 7.87997 69.7446 6.83583 69.7804 6.84331 64.5748 5.8547 64.6033 5.85969 58.8321 4.93585 58.8559 4.93937 52.5819 4.08957 52.6027 4.09216 45.8888 3.32564 45.9076 3.3276 38.8167 2.65362 38.8342 2.65513 31.429 2.08294 31.4544 2.08458 15.9528 1.28258 15.9867 1.28376-0.0177311 0.999975ZM163.726 18.4607 171.608 25.2691 163.49 31.7937Z" transform="matrix(-1 1.22466e-16 1.22465e-16 1.00001 1114.61 696.01)"/><path d="M0-28 276-28 276 7 0 7Z" fill="#FFFFFF" fill-rule="evenodd" transform="matrix(1 0 0 1.00001 1090.92 594.135)"/><text font-family="Arial,Arial_MSFontService,sans-serif" font-weight="400" font-size="32" transform="matrix(1 0 0 1.00001 1090.92 594)">ocqa:hasInspection</text><path d="M1477.5 466.34C1477.5 462.014 1481.01 458.507 1485.33 458.507L1797.67 458.507C1801.99 458.507 1805.5 462.014 1805.5 466.34L1805.5 497.674C1805.5 502 1801.99 505.507 1797.67 505.507L1485.33 505.507C1481.01 505.507 1477.5 502 1477.5 497.674Z" stroke="#FFFFFF" stroke-width="0.666755" stroke-miterlimit="8" fill="#575454" fill-rule="evenodd"/><text fill="#FFFFFF" font-family="Arial,Arial_MSFontService,sans-serif" font-weight="400" font-size="32" transform="matrix(1 0 0 1.00001 1503.63 493)">ocqa:Characteristic</text><path d="M1258 673.737 1258.28 669.715 1259.13 665.64 1259.15 665.576 1261.04 666.224 1261.04 666.228 1261.08 666.108 1260.26 670.055 1260.27 669.922 1260 673.877ZM1261.33 659.872 1262.41 657.591 1264.8 653.631 1265.42 652.791 1267.03 653.974 1266.44 654.778 1266.49 654.704 1264.15 658.581 1264.2 658.493 1263.14 660.729ZM1269.15 648 1270.98 645.876 1274.69 642.135 1276.11 643.544 1272.43 647.259 1272.47 647.208 1270.67 649.305ZM1279.27 638.082 1283.47 634.734 1285.65 633.172 1286.82 634.797 1284.66 636.345 1284.7 636.315 1280.52 639.647ZM1290.63 629.742 1293.75 627.703 1297.51 625.56 1298.5 627.299 1294.77 629.426 1294.82 629.395 1291.72 631.417ZM1302.73 622.59 1305.4 621.067 1309.9 618.906 1310.77 620.709 1306.3 622.855 1306.36 622.822 1303.72 624.328ZM1315.31 616.309 1318.32 614.867 1322.7 613.086 1323.45 614.939 1319.1 616.709 1319.15 616.684 1316.18 618.112ZM1328.26 610.828 1332.34 609.168 1335.8 607.986 1336.44 609.879 1333.02 611.051 1333.07 611.032 1329.01 612.681ZM1341.47 606.042 1347.35 604.03 1349.12 603.525 1349.67 605.449 1347.92 605.947 1347.97 605.931 1342.12 607.935ZM1354.89 601.88 1362.59 599.687 1363.14 601.61 1355.44 603.804ZM1368.47 598.29 1376.27 596.484 1376.72 598.432 1368.92 600.239ZM1382.19 595.237 1390.06 593.815 1390.42 595.784 1382.54 597.206ZM1395.96 592.748 1396.84 592.591 1403.94 591.665 1404.2 593.649 1397.12 594.572 1397.17 594.564 1396.32 594.717ZM1409.89 590.89 1414.36 590.308 1417.89 590.027 1418.05 592.021 1414.54 592.3 1414.59 592.295 1410.15 592.873ZM1423.88 589.551 1431.85 588.917 1432.01 590.911 1424.03 591.545ZM1437.9 588.737 1445.9 588.521 1445.95 590.52 1437.96 590.737ZM1451.9 588.358 1459.9 588.142 1459.95 590.141 1451.95 590.358ZM1465.9 587.979 1467.97 587.923 1467.92 587.926 1473.82 587.457 1473.98 589.451 1468.06 589.922 1465.95 589.979ZM1479.81 586.981 1485.68 586.514 1485.63 586.52 1487.72 586.247 1487.98 588.23 1485.86 588.506 1479.97 588.975ZM1493.67 585.471 1501.61 584.437 1501.86 586.421 1493.93 587.455ZM1507.47 583.451 1515.35 582.029 1515.7 583.997 1507.83 585.42ZM1521.19 580.916 1528.99 579.11 1529.44 581.058 1521.64 582.865ZM1534.83 577.755 1536.55 577.357 1536.5 577.37 1542.5 575.659 1543.05 577.583 1537.03 579.3 1535.29 579.704ZM1548.27 574.014 1552.29 572.868 1552.24 572.883 1555.86 571.646 1556.51 573.538 1552.87 574.784 1548.82 575.938ZM1561.53 569.702 1567.2 567.763 1567.15 567.782 1569.01 567.024 1569.77 568.877 1567.87 569.646 1562.18 571.594ZM1574.57 564.766 1581.12 562.106 1581.06 562.131 1581.91 561.726 1582.77 563.53 1581.9 563.947 1575.32 566.619ZM1587.31 559.129 1593.92 555.959 1593.86 555.992 1594.44 555.657 1595.43 557.395 1594.81 557.747 1588.18 560.932ZM1599.66 552.687 1605.45 549.388 1605.4 549.419 1606.52 548.69 1607.61 550.365 1606.47 551.111 1600.65 554.425ZM1611.48 545.398 1615.56 542.47 1615.52 542.5 1617.85 540.642 1619.09 542.206 1616.74 544.08 1612.65 547.023ZM1622.39 536.804 1624.13 535.251 1624.08 535.294 1627.79 531.555 1627.74 531.606 1628.01 531.301 1629.52 532.607 1629.24 532.939 1625.48 536.724 1623.72 538.297ZM1631.79 526.749 1633.78 524.036 1633.73 524.111 1636.07 520.233 1636.02 520.322 1636.07 520.224 1637.88 521.081 1637.81 521.224 1635.42 525.183 1633.4 527.931ZM1638.31 514.849 1639.34 511.332 1641.26 511.891 1640.24 515.408ZM1633.51 512.012 1641.22 505.007 1646.72 513.852Z"/><path d="M0-28 276-28 276 7 0 7Z" fill="#FFFFFF" fill-rule="evenodd" transform="matrix(1 0 0 1.00001 1419.72 585.326)"/><path d="M0-28 195.833-28 195.833 7-5.08626e-06 7Z" fill="#FFFFFF" fill-rule="evenodd" transform="matrix(1 0 0 1.00001 1459.81 624.327)"/><text font-family="Arial,Arial_MSFontService,sans-serif" font-weight="400" font-size="32" transform="matrix(1 0 0 1.00001 1419.72 585)">ocqa:hasInspection</text><text font-family="Arial,Arial_MSFontService,sans-serif" font-weight="400" font-size="32" transform="matrix(1 0 0 1.00001 1459.81 624)">Characteristic</text><path d="M1394.5 1071.35C1394.5 1064.26 1400.25 1058.52 1407.33 1058.52L1679.67 1058.52C1686.75 1058.52 1692.5 1064.26 1692.5 1071.35L1692.5 1122.68C1692.5 1129.77 1686.75 1135.52 1679.67 1135.52L1407.33 1135.52C1400.25 1135.52 1394.5 1129.77 1394.5 1122.68Z" stroke="#FFFFFF" stroke-width="0.666755" stroke-miterlimit="8" fill="#575454" fill-rule="evenodd"/><text fill="#FFFFFF" font-family="Arial,Arial_MSFontService,sans-serif" font-style="italic" font-weight="400" font-size="32" transform="matrix(1 0 0 1.00001 1444.28 1089)">unocs:Control</text><text fill="#FFFFFF" font-family="Arial,Arial_MSFontService,sans-serif" font-style="italic" font-weight="400" font-size="32" transform="matrix(1 0 0 1.00001 1498.62 1128)">Action</text><path d="M661.5 899.013C661.5 894.871 664.858 891.513 669 891.513L959 891.513C963.142 891.513 966.5 894.871 966.5 899.013L966.5 929.013C966.5 933.156 963.142 936.514 959 936.514L669 936.514C664.858 936.514 661.5 933.156 661.5 929.013Z" stroke="#FFFFFF" stroke-width="0.666755" stroke-miterlimit="8" fill="#575454" fill-rule="evenodd"/><text fill="#FFFFFF" font-family="Arial,Arial_MSFontService,sans-serif" font-style="italic" font-weight="400" font-size="32" transform="matrix(1 0 0 1.00001 714.509 925)">unocs:Hazard</text><path d="M281.5 1084.35C281.5 1080.02 285.007 1076.52 289.333 1076.52L510.667 1076.52C514.993 1076.52 518.5 1080.02 518.5 1084.35L518.5 1115.68C518.5 1120.01 514.993 1123.52 510.667 1123.52L289.333 1123.52C285.007 1123.52 281.5 1120.01 281.5 1115.68Z" stroke="#FFFFFF" stroke-width="0.666755" stroke-miterlimit="8" fill="#575454" fill-rule="evenodd"/><text fill="#FFFFFF" font-family="Arial,Arial_MSFontService,sans-serif" font-weight="400" font-size="32" transform="matrix(1 0 0 1.00001 295.782 1111)">unocs:Incident</text><path d="M280.055 1100.68 276.877 1100.08 273.638 1098.27 272.446 1097.18 273.795 1095.7 274.902 1096.71 274.714 1096.58 277.709 1098.25 277.409 1098.14 280.428 1098.71ZM268.321 1092.63 267.58 1091.69 264.744 1087.08 264.028 1085.65 265.817 1084.76 266.513 1086.15 266.47 1086.07 269.253 1090.59 269.187 1090.5 269.891 1091.39ZM261.415 1080.18 259.497 1075.57 258.48 1072.67 260.368 1072.01 261.375 1074.88 261.354 1074.83 263.262 1079.41ZM256.567 1066.94 254.94 1061.46 254.373 1059.2 256.314 1058.71 256.875 1060.95 256.863 1060.91 258.484 1066.37ZM252.917 1053.34 251.284 1045.5 253.242 1045.09 254.875 1052.93ZM250.268 1039.55 249.777 1036.66 249.2 1031.57 251.188 1031.34 251.762 1036.4 251.754 1036.35 252.24 1039.22ZM248.523 1025.61 247.724 1018.56 247.668 1017.6 249.665 1017.48 249.719 1018.42 249.715 1018.36 250.511 1025.38ZM247.32 1011.61 247.182 1009.24 247.07 1003.57 249.07 1003.53 249.182 1009.18 249.18 1009.14 249.317 1011.49ZM247.064 997.524 247.295 989.526 249.295 989.584 249.063 997.582ZM247.469 983.527 247.537 981.175 248.017 975.492 250.01 975.661 249.533 981.316 249.536 981.261 249.468 983.585ZM248.522 969.513 249.065 963.089 249.265 961.506 251.249 961.756 251.052 963.319 251.056 963.278 250.515 969.681ZM250.016 955.552 250.156 954.438 251.215 947.613 253.192 947.92 252.135 954.731 252.139 954.703 252 955.802ZM252.277 941.676 252.903 938.314 253.9 933.808 255.853 934.24 254.86 938.73 254.867 938.697 254.243 942.043ZM255.32 927.94 256.291 924.224 257.536 920.207 259.447 920.8 258.208 924.794 258.221 924.751 257.255 928.446ZM259.535 914.492 260.19 912.732 262.298 908.13 262.925 907.064 264.649 908.078 264.049 909.1 264.096 909.01 262.024 913.532 262.052 913.464 261.409 915.19ZM261.608 899.313 272 900.013 269.437 910.108Z"/><path d="M398.001 1075.99 398.383 1068.3 398.441 1067.91 400.42 1068.2 400.369 1068.55 400.378 1068.45 399.999 1076.09ZM399.316 1061.97 399.519 1060.59 401.097 1054.08 403.041 1054.55 401.474 1061.01 401.492 1060.92 401.294 1062.26ZM402.936 1048.28 403.946 1045.28 405.879 1040.76 407.718 1041.55 405.8 1046.03 405.829 1045.95 404.832 1048.92ZM408.458 1035.27 411.073 1030.23 412.325 1028.19 414.032 1029.23 412.798 1031.25 412.832 1031.19 410.232 1036.19ZM415.455 1023.07 415.586 1022.85 420.081 1016.46 421.717 1017.61 417.241 1023.98 417.276 1023.92 417.162 1024.11ZM423.804 1011.68 426.389 1008.43 428.986 1005.52 430.48 1006.85 427.901 1009.74 427.937 1009.7 425.369 1012.93ZM433.033 1001.02 438.654 995.322 440.077 996.728 434.456 1002.42ZM443.071 991.191 446.666 987.885 449.088 985.852 450.374 987.384 447.969 989.403 448.003 989.373 444.425 992.663ZM453.685 981.994 454.414 981.381 460.036 977.059 461.255 978.645 455.65 982.954 455.684 982.927 454.971 983.526ZM464.893 973.468 471.252 968.98 471.467 968.84 472.556 970.517 472.357 970.647 472.389 970.625 466.047 975.102ZM476.5 965.572 480.293 963.11 483.312 961.307 484.338 963.024 481.334 964.818 481.366 964.798 477.589 967.25ZM488.464 958.23 489.717 957.482 495.483 954.316 496.446 956.069 490.696 959.227 490.727 959.209 489.49 959.948ZM500.824 951.47 508.029 947.991 508.899 949.793 501.693 953.271ZM513.433 945.382 520.05 942.188 520.719 941.919 521.465 943.775 520.827 944.031 520.889 944.004 514.303 947.184ZM526.287 939.681 533.711 936.697 534.457 938.553 527.033 941.537ZM539.279 934.46 541.75 933.466 546.887 931.788 547.508 933.689 542.403 935.358 542.465 935.335 540.025 936.316ZM552.591 929.924 560.196 927.439 560.818 929.341 553.212 931.826ZM565.971 925.638 573.69 923.533 574.216 925.463 566.497 927.567ZM579.542 922.063 587.327 920.217 587.788 922.164 580.003 924.009ZM593.239 919.008 599.782 917.689 601.124 917.466 601.452 919.439 600.126 919.659 600.16 919.653 593.634 920.969ZM607.044 916.483 611.845 915.686 614.988 915.276 615.246 917.26 612.121 917.667 612.156 917.662 607.372 918.456ZM620.938 914.501 624.006 914.102 628.928 913.639 629.115 915.63 624.211 916.091 624.247 916.087 621.197 916.485ZM634.902 913.077 636.239 912.951 642.923 912.57 643.037 914.567 636.372 914.947 636.408 914.945 635.089 915.069ZM648.953 912.242 654.144 912.142 654.182 914.142 648.991 914.242ZM652.701 906.501 660.829 913.013 652.958 919.834Z"/><path d="M272.5 885.013C272.5 880.871 275.858 877.513 280 877.513L506 877.513C510.142 877.513 513.5 880.871 513.5 885.013L513.5 915.013C513.5 919.156 510.142 922.513 506 922.513L280 922.513C275.858 922.513 272.5 919.156 272.5 915.013Z" stroke="#FFFFFF" stroke-width="0.666755" stroke-miterlimit="8" fill="#575454" fill-rule="evenodd"/><text fill="#FFFFFF" font-family="Arial,Arial_MSFontService,sans-serif" font-weight="400" font-size="32" transform="matrix(1 0 0 1.00001 302.025 912)">unocs:Victim</text><path d="M0-28 232.587-28 232.587 7 3.25521e-06 7Z" fill="#FFFFFF" fill-rule="evenodd" transform="matrix(1 0 0 1.00001 237.119 965.378)"/><text font-family="Arial,Arial_MSFontService,sans-serif" font-weight="400" font-size="32" transform="matrix(1 0 0 1.00001 237.119 965)">unocs:hasVictim</text><path d="M1622.5 925.181C1622.5 917.632 1628.62 911.513 1636.17 911.513L1838.83 911.513C1846.38 911.513 1852.5 917.632 1852.5 925.181L1852.5 979.847C1852.5 987.396 1846.38 993.515 1838.83 993.515L1636.17 993.515C1628.62 993.515 1622.5 987.396 1622.5 979.847Z" stroke="#FFFFFF" stroke-width="0.666755" stroke-miterlimit="8" fill="#575454" fill-rule="evenodd"/><text fill="#FFFFFF" font-family="Arial,Arial_MSFontService,sans-serif" font-weight="400" font-size="32" transform="matrix(1 0 0 1.00001 1644.48 945)">unocs:Safety</text><text fill="#FFFFFF" font-family="Arial,Arial_MSFontService,sans-serif" font-weight="400" font-size="32" transform="matrix(1 0 0 1.00001 1663.98 984)">Inspection</text><path d="M0.0768323-0.997177 4.65155-0.644696 9.28186 0.412642 13.8764 2.14065 18.4252 4.51116 22.9209 7.4974 27.3571 11.0743 31.7279 15.2182 36.027 19.9064 40.2477 25.1168 44.383 30.8275 48.4253 37.0169 52.3669 43.6635 56.1998 50.7457 59.9159 58.2419 63.5067 66.1305 66.9666 74.3963 73.4435 91.9341 79.2857 110.702 84.4214 130.519 88.7807 151.21 92.2938 172.603 94.8903 194.522 96.5 216.793 97.0517 239.216 97.6028 261.616 97.6005 261.569 99.2068 283.793 99.2025 283.747 101.794 305.621 101.787 305.577 105.293 326.925 105.285 326.881 109.635 347.529 109.625 347.484 114.748 367.255 114.735 367.209 120.563 385.929 120.546 385.879 127.006 403.373 126.991 403.333 130.436 411.565 130.424 411.537 134.002 419.396 133.988 419.367 137.688 426.832 137.672 426.8 141.487 433.849 141.468 433.815 145.388 440.426 145.365 440.389 149.383 446.541 149.355 446.501 153.46 452.17 153.428 452.127 157.612 457.293 157.572 457.246 161.827 461.886 161.778 461.836 166.094 465.929 166.034 465.876 170.403 469.399 170.328 469.344 174.741 472.275 174.65 472.222 179.098 474.54 178.988 474.49 183.463 476.173 183.289 476.125 185.681 476.558 185.325 478.526 182.843 478.077 178.227 476.341 173.679 473.971 169.183 470.985 164.747 467.408 160.376 463.264 156.077 458.576 151.856 453.365 147.721 447.655 143.679 441.465 139.737 434.819 135.904 427.736 132.188 420.24 128.597 412.352 125.137 404.086 118.66 386.548 112.818 367.78 107.682 347.963 103.323 327.272 99.81 305.879 97.2134 283.96 95.6037 261.689 95.052 239.266 94.501 216.866 94.5033 216.913 92.8969 194.689 92.9013 194.735 90.31 172.861 90.3163 172.905 86.8105 151.557 86.8188 151.601 82.4688 130.954 82.4793 130.998 77.3555 111.227 77.3687 111.273 71.5413 92.5534 71.5581 92.6026 65.0976 75.1093 65.1132 75.149 61.6675 66.917 61.6798 66.9452 58.1022 59.0856 58.1164 59.1155 54.4156 51.6502 54.4321 51.682 50.6171 44.6328 50.6364 44.6669 46.7159 38.0558 46.7387 38.0926 42.7214 31.9414 42.7487 31.9811 38.6435 26.3119 38.6764 26.3548 34.492 21.1893 34.532 21.2357 30.2773 16.5959 30.3263 16.6457 26.01 12.5535 26.0703 12.6063 21.7013 9.08353 21.7757 9.13804 17.3626 6.20667 17.4538 6.2605 13.0056 3.94242 13.1157 3.99161 8.64111 2.30871 8.77053 2.34763 4.27834 1.32183 4.42416 1.34398-0.0768323 0.997177ZM185.122 470.753 192.104 478.482 183.243 483.955Z" transform="matrix(-1.83697e-16 -1.00001 -1 1.837e-16 1737.48 911.117)"/><path d="M1403.01 695.01 1411.01 695.104 1410.99 697.104 1402.99 697.01ZM1417.01 695.174 1425 695.268 1425.04 695.27 1424.97 697.269 1424.94 697.268 1424.96 697.268 1416.99 697.175ZM1431.03 695.476 1439.03 695.752 1438.96 697.751 1430.96 697.475ZM1445.03 695.959 1446.82 696.021 1453.04 696.372 1452.93 698.369 1446.72 698.018 1446.74 698.019 1444.96 697.958ZM1459.03 696.711 1467.02 697.162 1466.91 699.159 1458.92 698.708ZM1473.02 697.605 1481 698.23 1480.84 700.224 1472.87 699.599ZM1486.98 698.698 1489.26 698.876 1494.97 699.451 1494.77 701.441 1489.07 700.868 1489.09 700.87 1486.83 700.692ZM1500.94 700.051 1508.9 700.851 1508.7 702.841 1500.74 702.041ZM1514.88 701.575 1522.82 702.557 1522.58 704.542 1514.64 703.56ZM1528.78 703.293 1528.95 703.315 1536.72 704.468 1536.42 706.446 1528.67 705.295 1528.69 705.298 1528.53 705.278ZM1542.65 705.349 1547.34 706.045 1550.58 706.616 1550.23 708.586 1547.01 708.017 1547.03 708.022 1542.36 707.328ZM1556.49 707.657 1564.37 709.045 1564.02 711.015 1556.14 709.627ZM1570.28 710.221 1572.62 710.689 1578.12 711.884 1577.7 713.838 1572.2 712.645 1572.22 712.649 1569.88 712.183ZM1583.99 713.228 1587.69 714.103 1591.77 715.158 1591.27 717.095 1587.2 716.042 1587.21 716.047 1583.53 715.175ZM1597.59 716.732 1601.13 717.734 1605.28 719.027 1604.68 720.937 1600.55 719.648 1600.57 719.656 1597.04 718.657ZM1611 720.938 1612.78 721.554 1617.89 723.527 1618.55 723.816 1617.75 725.648 1617.11 725.368 1617.15 725.385 1612.08 723.427 1612.11 723.439 1610.34 722.829ZM1624.05 726.328 1626.55 727.584 1630.07 729.669 1631.1 730.409 1629.94 732.033 1628.94 731.319 1629.02 731.368 1625.56 729.323 1625.62 729.356 1623.16 728.115ZM1639.74 730.746 1637.67 740.955 1628 737.085Z"/><path d="M1477.5 748.844C1477.5 744.794 1480.78 741.511 1484.83 741.511L1791.17 741.511C1795.22 741.511 1798.5 744.794 1798.5 748.844L1798.5 778.178C1798.5 782.228 1795.22 785.512 1791.17 785.512L1484.83 785.512C1480.78 785.512 1477.5 782.228 1477.5 778.178Z" stroke="#FFFFFF" stroke-width="0.666755" stroke-miterlimit="8" fill="#575454" fill-rule="evenodd"/><text fill="#FFFFFF" font-family="Arial,Arial_MSFontService,sans-serif" font-style="italic" font-weight="400" font-size="32" transform="matrix(1 0 0 1.00001 1491.27 775)">ocqa:NonConformity</text><path d="M1737.85 993.197 1737.27 996.355 1735.51 999.575 1734.4 1000.82 1732.91 999.491 1733.94 998.33 1733.81 998.517 1735.43 995.539 1735.33 995.835 1735.88 992.832ZM1729.88 1004.99 1729.12 1005.6 1724.64 1008.43 1722.92 1009.31 1722.01 1007.53 1723.69 1006.67 1723.61 1006.71 1728 1003.94 1727.91 1004.01 1728.62 1003.43ZM1717.45 1011.94 1713.46 1013.65 1709.96 1014.9 1709.29 1013.02 1712.76 1011.77 1712.7 1011.8 1716.67 1010.1ZM1704.23 1016.82 1699.76 1018.18 1696.49 1019.02 1695.99 1017.08 1699.24 1016.25 1699.2 1016.26 1703.64 1014.91ZM1690.62 1020.46 1684.08 1021.85 1682.75 1022.09 1682.41 1020.11 1683.72 1019.89 1683.68 1019.89 1690.2 1018.5ZM1676.84 1023.11 1675.67 1023.31 1668.84 1024.11 1668.61 1022.12 1675.41 1021.33 1675.35 1021.34 1676.49 1021.14ZM1662.88 1024.8 1658.1 1025.36 1654.86 1025.55 1654.74 1023.55 1657.95 1023.36 1657.9 1023.37 1662.65 1022.81ZM1648.83 1025.9 1640.83 1026.06 1640.79 1024.06 1648.79 1023.9ZM1634.83 1026.18 1630.88 1026.26 1630.92 1026.26 1626.88 1026.5 1626.76 1024.51 1630.82 1024.26 1634.79 1024.18ZM1620.95 1026.91 1613 1027.84 1612.77 1025.85 1620.72 1024.93ZM1607.04 1028.53 1604.46 1028.83 1604.51 1028.82 1599.19 1029.74 1598.85 1027.77 1604.2 1026.85 1606.81 1026.54ZM1593.34 1030.87 1588.17 1031.98 1588.21 1031.97 1585.58 1032.64 1585.08 1030.7 1587.74 1030.02 1592.92 1028.92ZM1579.82 1034.16 1573.58 1036.06 1573.63 1036.04 1572.24 1036.54 1571.56 1034.66 1572.98 1034.15 1579.24 1032.25ZM1566.66 1038.58 1561.28 1040.87 1561.35 1040.84 1559.43 1041.83 1558.51 1040.05 1560.47 1039.05 1565.87 1036.74ZM1554.27 1044.7 1551.86 1046.22 1551.96 1046.15 1548.42 1049.01 1548.61 1048.81 1548.26 1049.31 1546.62 1048.15 1547.06 1047.54 1550.75 1044.56 1553.2 1043.01ZM1552.39 1052.65 1543 1057.15 1540.27 1047.09Z"/><path d="M0-28 211.833-28 211.833 7-5.08626e-06 7Z" fill="#FFFFFF" fill-rule="evenodd" transform="matrix(1 0 0 1.00001 1672.34 1028.07)"/><text font-family="Arial,Arial_MSFontService,sans-serif" font-style="italic" font-weight="400" font-size="32" transform="matrix(1 0 0 1.00001 1672.34 1028)">unocs:inspects</text><path d="M0-28 181.5-28 181.5 7 0 7Z" fill="#FFFFFF" fill-rule="evenodd" transform="matrix(1 0 0 1.00001 1472.32 693.453)"/><text font-family="Arial,Arial_MSFontService,sans-serif" font-style="italic" font-weight="400" font-size="32" transform="matrix(1 0 0 1.00001 1472.32 693)">ocqa:detects</text><path d="M812 890.421 812.019 876.766 812.073 863.538 812.156 851.167 812.208 845.437 812.265 840.083 812.327 835.157 812.393 830.713 812.463 826.803 812.536 823.482 812.612 820.802 812.69 818.809 812.773 817.511 812.864 817.031 812.943 816.611 812.928 816.732 813.007 815.508 813.006 815.533 813.083 813.558 813.083 813.569 813.158 810.897 813.158 810.903 813.231 807.588 813.231 807.592 813.301 803.687 813.367 799.249 813.429 794.327 813.486 788.976 813.537 783.25 813.621 770.884 813.675 757.661 813.684 750.677 815.685 750.68 815.675 757.67 815.621 770.898 815.538 783.268 815.486 788.998 815.429 794.352 815.367 799.279 815.301 803.723 815.231 807.63 815.158 810.951 815.082 813.631 815.004 815.624 814.92 816.922 814.83 817.402 814.75 817.822 814.766 817.701 814.687 818.925 814.688 818.9 814.611 820.875 814.611 820.864 814.536 823.536 814.536 823.53 814.463 826.845 814.463 826.841 814.393 830.743 814.327 835.182 814.265 840.104 814.208 845.455 814.156 851.181 814.073 863.546 814.019 876.769 814 890.424ZM808.015 752.003 814.694 744.011 821.35 752.021Z"/><path d="M530.5 1180.68C530.5 1173.41 536.395 1167.52 543.667 1167.52L828.333 1167.52C835.605 1167.52 841.5 1173.41 841.5 1180.68L841.5 1233.35C841.5 1240.62 835.605 1246.52 828.333 1246.52L543.667 1246.52C536.395 1246.52 530.5 1240.62 530.5 1233.35Z" stroke="#FFFFFF" stroke-width="0.666755" stroke-miterlimit="8" fill="#575454" fill-rule="evenodd"/><text fill="#FFFFFF" font-family="Arial,Arial_MSFontService,sans-serif" font-style="italic" font-weight="400" font-size="32" transform="matrix(1 0 0 1.00001 592.927 1199)">unocs:Safety</text><text fill="#FFFFFF" font-family="Arial,Arial_MSFontService,sans-serif" font-style="italic" font-weight="400" font-size="32" transform="matrix(1 0 0 1.00001 608.763 1238)">Regulation</text><path d="M757.5 1401.52C757.5 1396 761.977 1391.52 767.5 1391.52L1062.5 1391.52C1068.02 1391.52 1072.5 1396 1072.5 1401.52L1072.5 1441.52C1072.5 1447.04 1068.02 1451.52 1062.5 1451.52L767.5 1451.52C761.977 1451.52 757.5 1447.04 757.5 1441.52Z" stroke="#FFFFFF" stroke-width="0.666755" stroke-miterlimit="8" fill="#575454" fill-rule="evenodd"/><text fill="#FFFFFF" font-family="Arial,Arial_MSFontService,sans-serif" font-style="italic" font-weight="400" font-size="32" transform="matrix(1 0 0 1.00001 775.11 1433)">unocs:Requirement</text><path d="M814.641 936.062 814.305 943.043 814.152 944.135 812.172 943.858 812.318 942.811 812.31 942.901 812.643 935.966ZM813.28 950.162 811.869 956.222 811.271 957.999 809.375 957.361 809.958 955.63 809.932 955.722 811.331 949.708ZM809.109 963.712 807.637 966.832 805.04 970.637 804.847 970.835 803.414 969.439 803.547 969.303 803.437 969.438 805.941 965.77 805.862 965.907 807.3 962.859ZM799.274 974.139 798.973 974.185 797.585 974.399 797.845 974.322 796.468 974.943 796.651 974.836 795.296 975.839 795.418 975.733 794.095 977.09 794.205 976.956 793.528 977.948 791.876 976.82 792.602 975.757 794.041 974.279 795.547 973.165 797.146 972.442 798.669 972.208 798.97 972.162ZM790.602 982.983 789.536 985.243 789.579 985.136 787.823 990.35 785.927 989.712 787.702 984.442 788.793 982.13ZM786.448 996.091 786.248 996.953 786.266 996.851 785.393 1003.85 783.408 1003.6 784.288 996.551 784.5 995.638ZM791.136 1002.79 784 1010.38 777.825 1001.99Z"/><path d="M841.078 1206.02 844.578 1206.29 848.136 1207.11 849.187 1207.51 848.477 1209.38 847.49 1209.01 847.62 1209.05 844.201 1208.26 844.348 1208.28 840.922 1208.01ZM854.737 1210.07 855.15 1210.29 858.591 1212.6 861.373 1214.87 860.109 1216.42 857.364 1214.18 857.438 1214.24 854.079 1211.98 854.17 1212.04 853.805 1211.84ZM865.819 1219.11 868.606 1222.18 871.054 1225.24 869.494 1226.49 867.064 1223.46 867.104 1223.51 864.338 1220.46ZM874.634 1230.12 874.988 1230.61 878.899 1236.97 877.196 1238.02 873.302 1231.69 873.341 1231.75 873.008 1231.29ZM881.953 1242.22 885.602 1249.34 883.821 1250.26 880.173 1243.14ZM888.166 1254.84 891.338 1262.18 889.502 1262.98 886.33 1255.63ZM893.532 1267.83 896.278 1275.34 894.4 1276.03 891.653 1268.52ZM898.181 1281.09 900.536 1288.73 898.624 1289.32 896.269 1281.68ZM902.201 1294.55 904.188 1302.3 902.251 1302.79 900.264 1295.04ZM905.654 1308.16 907.287 1316 905.329 1316.4 903.696 1308.57ZM908.512 1321.87 908.81 1323.3 909.866 1329.8 907.892 1330.12 906.839 1323.64 906.847 1323.69 906.554 1322.28ZM910.828 1335.72 911.485 1339.77 911.945 1343.69 909.958 1343.92 909.501 1340.02 909.507 1340.06 908.854 1336.04ZM912.644 1349.65 913.463 1356.64 913.535 1357.64 911.54 1357.79 911.469 1356.8 911.474 1356.85 910.657 1349.88ZM913.963 1363.63 914.534 1371.61 912.538 1371.75 911.968 1363.77ZM914.783 1377.65 914.947 1384.37 912.947 1384.42 912.783 1377.7ZM920.58 1382.9 914.109 1391.06 907.249 1383.22Z"/><path d="M1393.95 1097.08 1385.95 1096.74 1386.04 1094.74 1394.03 1095.09ZM1379.89 1096.34 1371.95 1095.35 1372.2 1093.36 1380.14 1094.36ZM1365.96 1094.32 1358.12 1092.71 1358.53 1090.75 1366.36 1092.36ZM1352.26 1091.11 1345.46 1089.17 1344.52 1088.83 1345.21 1086.95 1346.11 1087.28 1346.04 1087.26 1352.81 1089.19ZM1338.89 1086.77 1334.06 1085 1331.38 1083.8 1332.21 1081.97 1334.85 1083.16 1334.78 1083.13 1339.57 1084.89ZM1325.91 1081.33 1323.14 1080.09 1318.71 1077.69 1319.66 1075.93 1324.06 1078.31 1323.99 1078.28 1326.73 1079.51ZM1313.43 1074.84 1312.8 1074.5 1306.61 1070.53 1307.69 1068.84 1313.85 1072.8 1313.78 1072.76 1314.38 1073.08ZM1301.58 1067.12 1295.2 1062.29 1296.41 1060.69 1302.78 1065.53ZM1290.61 1058.3 1286.2 1054.34 1284.73 1052.75 1286.2 1051.39 1287.64 1052.95 1287.58 1052.88 1291.95 1056.81ZM1280.65 1048.34 1279.13 1046.7 1275.61 1042.02 1277.2 1040.81 1280.7 1045.46 1280.64 1045.38 1282.12 1046.99ZM1272.12 1037 1268.27 1030.44 1268.06 1029.96 1269.9 1029.18 1270.08 1029.6 1270.02 1029.49 1273.84 1035.99ZM1265.72 1024.43 1264.67 1021.94 1263.31 1016.67 1265.24 1016.17 1266.59 1021.37 1266.54 1021.23 1267.56 1023.65ZM1262.09 1010.68 1261.86 1008.93 1261.67 1004.59 1261.67 1004.65 1261.48 1002.68 1263.47 1002.48 1263.67 1004.48 1263.86 1008.79 1263.85 1008.71 1264.08 1010.42ZM1260.24 997.027 1260.01 996.264 1260.07 996.419 1257.98 992.154 1258.05 992.276 1256.67 990.242 1258.33 989.12 1259.75 991.212 1261.9 995.614 1262.15 996.458ZM1253.07 985.606 1251.61 983.924 1251.68 983.994 1247.5 980.007 1248.88 978.559 1253.1 982.58 1254.58 984.298ZM1242.91 976.266 1242.3 975.77 1242.35 975.811 1236.6 971.756 1236.65 971.788 1236.5 971.695 1237.55 969.997 1237.73 970.105 1243.53 974.195 1244.17 974.712ZM1231.4 968.524 1230.24 967.8 1230.28 967.825 1224.49 964.6 1225.46 962.852 1231.28 966.089 1232.46 966.826ZM1219.19 961.875 1215.66 960.104 1215.7 960.12 1212.01 958.439 1212.84 956.619 1216.54 958.308 1220.09 960.087ZM1206.56 955.996 1199.18 952.923 1199.94 951.077 1207.33 954.149ZM1193.6 950.787 1189.56 949.246 1189.58 949.256 1186.12 948.042 1186.78 946.154 1190.26 947.372 1194.31 948.917ZM1180.45 946.061 1179.84 945.846 1179.86 945.854 1172.86 943.603 1173.48 941.699 1180.49 943.954 1181.11 944.173ZM1167.16 941.832 1159.48 939.561 1160.05 937.643 1167.72 939.914ZM1153.72 937.981 1148 936.427 1148.02 936.432 1146.01 935.927 1146.49 933.987 1148.52 934.494 1154.24 936.051ZM1140.18 934.473 1136.59 933.576 1136.61 933.58 1132.42 932.621 1132.87 930.671 1137.07 931.633 1140.67 932.532ZM1126.57 931.282 1124.83 930.883 1124.86 930.889 1118.76 929.675 1119.15 927.714 1125.26 928.93 1127.02 929.332ZM1112.88 928.503 1105.03 926.94 1105.42 924.979 1113.27 926.541ZM1099.17 925.818 1091.28 924.539 1091.6 922.564 1099.49 923.843ZM1085.35 923.58 1077.45 922.301 1077.77 920.327 1085.67 921.605ZM1071.55 921.461 1063.61 920.459 1063.86 918.474 1071.8 919.476ZM1057.66 919.708 1049.72 918.706 1049.97 916.721 1057.91 917.723ZM1043.78 918.117 1035.81 917.392 1036 915.4 1043.96 916.125ZM1029.84 916.848 1021.87 916.122 1022.05 914.13 1030.02 914.856ZM1015.92 915.77 1007.93 915.326 1008.04 913.329 1016.03 913.773ZM1001.93 914.994 993.946 914.55 994.057 912.553 1002.05 912.996ZM987.983 914.429 979.984 914.278 980.022 912.278 988.021 912.43ZM973.984 914.165 972.648 914.139 972.685 912.14 974.022 912.165ZM973.874 919.831 966 913.013 974.126 906.498Z"/><path d="M0-28 222.5-28 222.5 7 0 7Z" fill="#FFFFFF" fill-rule="evenodd" transform="matrix(1 0 0 1.00001 1156.15 1002.69)"/><path d="M0-28 8.83333-28 8.83333 7-3.17891e-07 7Z" fill="#FFFFFF" fill-rule="evenodd" transform="matrix(1 0 0 1.00001 1378.68 1002.69)"/><path d="M0-28 103.333-28 103.333 7 2.54313e-06 7Z" fill="#FFFFFF" fill-rule="evenodd" transform="matrix(1 0 0 1.00001 1215.74 1041.69)"/><text font-family="Arial,Arial_MSFontService,sans-serif" font-weight="400" font-size="32" transform="matrix(1 0 0 1.00001 1156.15 1003)">unocs:mitigates</text><text font-family="Arial,Arial_MSFontService,sans-serif" font-weight="400" font-size="32" transform="matrix(1 0 0 1.00001 1378.68 1003)"></text><text font-family="Arial,Arial_MSFontService,sans-serif" font-weight="400" font-size="32" transform="matrix(1 0 0 1.00001 1215.74 1042)">Hazard</text><path d="M1314.5 1262.52C1314.5 1254.79 1320.77 1248.52 1328.5 1248.52L1625.5 1248.52C1633.23 1248.52 1639.5 1254.79 1639.5 1262.52L1639.5 1318.52C1639.5 1326.25 1633.23 1332.52 1625.5 1332.52L1328.5 1332.52C1320.77 1332.52 1314.5 1326.25 1314.5 1318.52Z" stroke="#FFFFFF" stroke-width="0.666755" stroke-miterlimit="8" fill="#575454" fill-rule="evenodd"/><text fill="#FFFFFF" font-family="Arial,Arial_MSFontService,sans-serif" font-style="italic" font-weight="400" font-size="32" transform="matrix(1 0 0 1.00001 1337.85 1302)">unocs:ControlEntity</text><path d="M0.24 0.970909-2.00736 1.52644-1.65967 1.36478-3.88946 2.98408-3.71141 2.81818-5.59637 5.06176-7.12786 3.77506-5.16404 1.43762-2.67699-0.368507-0.24-0.970909ZM-8.50178 10.0023-9.98094 13.1334-9.9516 13.0648-11.5786 17.3012-13.4459 16.5841-11.8055 12.3128-10.3104 9.14789ZM-13.4408 22.9441-13.7945 24.0504-13.7814 24.0061-15.5366 30.5187-15.5271 30.4809-15.5482 30.5731-17.4984 30.1284-17.473 30.0171-15.7068 23.4633-15.346 22.335ZM-16.8823 36.4237-17.1416 37.5609-17.1346 37.5273-18.4246 44.2391-20.389 43.8616-19.0956 37.1329-18.8325 35.979ZM-19.3945 50.129-19.8659 53.0749-19.8617 53.0459-20.5089 58.0216-22.4925 57.7636-21.8433 52.7734-21.3696 49.8129ZM-21.169 63.9419-21.8633 71.9128-23.856 71.7393-23.1617 63.7684ZM-22.384 77.891-22.4678 78.8534-22.4645 78.7965-22.6744 85.8283-24.6738 85.7686-24.463 78.7083-24.3767 77.7174ZM-22.8535 91.8264-23.0036 96.857-23.0044 96.7784-22.8595 99.7431-24.8574 99.8407-25.0042 96.8367-24.8528 91.7668ZM-22.5667 105.737-22.5615 105.844-22.5705 105.751-21.4491 113.564-23.429 113.848-24.5571 105.989-24.5646 105.834ZM-20.1952 119.338-19.2135 123.512-19.2362 123.431-18.0848 126.961-19.9865 127.582-21.151 124.011-22.1423 119.796ZM-16.2051 132.573-13.1172 139.954-14.9625 140.726-18.0504 133.345ZM-10.4357 145.233-8.86658 148.282-8.90514 148.214-6.5013 152.103-8.20275 153.154-10.6272 149.232-12.2142 146.148ZM-3.28114 157.068 0.925851 162.804 0.875131 162.741 1.45606 163.411-0.0555167 164.721-0.663105 164.02-4.89416 158.251ZM5.38617 167.946 6.51945 169.254 6.46096 169.192 10.9562 173.564 9.56163 174.997 5.0358 170.596 3.8746 169.256ZM15.422 177.426 18.8124 180.171 18.7329 180.113 21.7723 182.113 20.6725 183.784 17.592 181.756 14.1633 178.98ZM26.7819 185.203 32.1898 187.978 32.0804 187.929 33.8838 188.597 33.1895 190.473 31.3299 189.785 25.8688 186.983ZM39.3798 190.578 46.7476 192.072 46.3502 194.032 38.9825 192.539ZM45.8232 186.291 53.1892 193.654 44.6185 199.572Z" transform="matrix(-1 0 0 1.00001 1692.19 1096.02)"/><path d="M1067.5 856.179C1067.5 851.945 1070.93 848.512 1075.17 848.512L1427.83 848.512C1432.07 848.512 1435.5 851.945 1435.5 856.179L1435.5 886.846C1435.5 891.081 1432.07 894.513 1427.83 894.513L1075.17 894.513C1070.93 894.513 1067.5 891.081 1067.5 886.846Z" stroke="#FFFFFF" stroke-width="0.666755" stroke-miterlimit="8" fill="#575454" fill-rule="evenodd"/><text fill="#FFFFFF" font-family="Arial,Arial_MSFontService,sans-serif" font-style="italic" font-weight="400" font-size="32" transform="matrix(1 0 0 1.00001 1103.49 883)">unocs:MitigationPlan</text><path d="M1435.05 870.014 1440.15 870.288 1443.11 870.759 1442.8 872.734 1439.89 872.271 1439.99 872.282 1434.95 872.012ZM1449.06 872.092 1450.4 872.444 1455.47 874.285 1456.74 874.871 1455.9 876.687 1454.67 876.119 1454.75 876.151 1449.76 874.34 1449.85 874.367 1448.55 874.027ZM1462.19 877.56 1465.46 879.399 1469.06 881.778 1467.96 883.448 1464.39 881.088 1464.45 881.125 1461.21 879.304ZM1473.95 885.365 1475.18 886.297 1479.92 890.371 1480.16 890.599 1478.77 892.04 1478.55 891.832 1478.59 891.869 1473.9 887.834 1473.95 887.872 1472.74 886.958ZM1484.48 894.759 1484.56 894.837 1489.1 899.679 1489.98 900.708 1488.45 902.005 1487.59 900.994 1487.62 901.03 1483.12 896.224 1483.16 896.261 1483.09 896.201ZM1493.88 905.352 1498.65 911.773 1497.05 912.966 1492.27 906.545ZM1502.25 916.674 1506.5 923.454 1504.8 924.516 1500.55 917.736ZM1509.68 928.539 1509.92 928.921 1513.49 935.656 1511.73 936.593 1508.17 929.89 1508.21 929.953 1507.99 929.601ZM1516.3 940.958 1517.2 942.65 1519.71 948.268 1517.88 949.084 1515.39 943.497 1515.42 943.557 1514.54 941.895ZM1522.16 953.747 1523.76 957.335 1525.2 961.211 1523.33 961.908 1521.9 958.062 1521.92 958.122 1520.33 954.563ZM1527.3 966.835 1529.53 972.841 1530.01 974.426 1528.09 975.005 1527.62 973.45 1527.64 973.509 1525.42 967.532ZM1531.75 980.17 1534.06 987.828 1532.15 988.407 1529.83 980.749ZM1535.53 993.709 1537.36 1001.5 1535.42 1001.96 1533.58 994.168ZM1538.65 1007.42 1539.99 1015.31 1538.02 1015.64 1536.68 1007.76ZM1541 1021.22 1541.29 1022.92 1541.94 1029.23 1539.95 1029.44 1539.3 1023.16 1539.31 1023.23 1539.03 1021.56ZM1542.56 1035.2 1543.1 1040.35 1543.2 1043.24 1541.2 1043.31 1541.1 1040.46 1541.1 1040.52 1540.57 1035.41ZM1543.41 1049.24 1543.48 1051.22 1541.48 1051.29 1541.41 1049.31ZM1549.1 1049.69 1542.72 1057.92 1535.77 1050.16Z"/><path d="M0-28 146-28 146 7 0 7Z" fill="#FFFFFF" fill-rule="evenodd" transform="matrix(1 0 0 1.00001 1353.01 923.293)"/><path d="M0-28 192.333-28 192.333 7-5.08626e-06 7Z" fill="#FFFFFF" fill-rule="evenodd" transform="matrix(1 0 0 1.00001 1353.01 962.293)"/><text font-family="Arial,Arial_MSFontService,sans-serif" font-weight="400" font-size="32" transform="matrix(1 0 0 1.00001 1353.01 923)">unocs:has</text><text font-family="Arial,Arial_MSFontService,sans-serif" font-weight="400" font-size="32" transform="matrix(1 0 0 1.00001 1353.01 962)">ControlAction</text><rect x="250" y="1255.02" width="470" height="256.004" stroke="#042433" stroke-width="2.00026" stroke-miterlimit="8" fill="#E8E8E8"/><text font-family="Arial,Arial_MSFontService,sans-serif" font-weight="700" font-size="32" transform="matrix(1 0 0 1.00001 259.676 1291)">Legend</text><path d="M0 34 57 34 114 34 114 37 57 37 0 37Z" fill-rule="evenodd" transform="matrix(1 0 0 1.00001 259.676 1260.28)"/><path d="M270 1328.02 368.3 1328.02 368.3 1330.02 270 1330.02ZM366.966 1322.35 380.301 1329.02 366.966 1335.69Z"/><path d="M272 1367.02 280.001 1367.02 280.001 1369.02 272 1369.02ZM286.002 1367.02 294.003 1367.02 294.003 1369.02 286.002 1369.02ZM300.004 1367.02 308.005 1367.02 308.005 1369.02 300.004 1369.02ZM314.006 1367.02 322.007 1367.02 322.007 1369.02 314.006 1369.02ZM328.007 1367.02 336.008 1367.02 336.008 1369.02 328.007 1369.02ZM342.009 1367.02 350.01 1367.02 350.01 1369.02 342.009 1369.02ZM356.011 1367.02 364.012 1367.02 364.012 1369.02 356.011 1369.02ZM370.013 1367.02 370.299 1367.02 370.299 1369.02 370.013 1369.02ZM368.966 1361.35 382.301 1368.02 368.966 1374.69Z"/><text font-family="Arial,Arial_MSFontService,sans-serif" font-weight="400" font-size="32" transform="matrix(1 0 0 1.00001 398.758 1331)">rdfs:subClassOf</text><text font-family="Arial,Arial_MSFontService,sans-serif" font-weight="400" font-size="32" transform="matrix(1 0 0 1.00001 398.758 1370)">owl:ObjectProperty</text><text font-family="Arial,Arial_MSFontService,sans-serif" font-weight="400" font-size="32" transform="matrix(1 0 0 1.00001 398.758 1408)">owl:DatatypeProperty</text><text font-family="Arial,Arial_MSFontService,sans-serif" font-weight="400" font-size="32" transform="matrix(1 0 0 1.00001 398.758 1446)">rdfs:Class</text><text font-family="Arial,Arial_MSFontService,sans-serif" font-weight="400" font-size="32" transform="matrix(1 0 0 1.00001 398.758 1485)">rdfs:Literal</text><path d="M272 1403.02 280.001 1403.02 280.001 1405.02 272 1405.02ZM286.002 1403.02 288.002 1403.02 288.002 1405.02 286.002 1405.02ZM294.003 1403.02 302.004 1403.02 302.004 1405.02 294.003 1405.02ZM308.005 1403.02 310.005 1403.02 310.005 1405.02 308.005 1405.02ZM316.006 1403.02 324.007 1403.02 324.007 1405.02 316.006 1405.02ZM330.008 1403.02 332.008 1403.02 332.008 1405.02 330.008 1405.02ZM338.009 1403.02 346.01 1403.02 346.01 1405.02 338.009 1405.02ZM352.011 1403.02 354.011 1403.02 354.011 1405.02 352.011 1405.02ZM360.012 1403.02 368.013 1403.02 368.013 1405.02 360.012 1405.02ZM368.966 1397.35 382.301 1404.02 368.966 1410.69Z"/><path d="M272.5 1423.02C272.5 1419.43 275.41 1416.52 279 1416.52L380 1416.52C383.59 1416.52 386.5 1419.43 386.5 1423.02L386.5 1449.02C386.5 1452.61 383.59 1455.52 380 1455.52L279 1455.52C275.41 1455.52 272.5 1452.61 272.5 1449.02Z" stroke="#FFFFFF" stroke-width="0.666755" stroke-miterlimit="8" fill="#575454" fill-rule="evenodd"/><text fill="#FFFFFF" font-family="Arial,Arial_MSFontService,sans-serif" font-style="italic" font-weight="400" font-size="32" transform="matrix(1 0 0 1.00001 288.811 1447)">Class</text><rect x="272.5" y="1457.52" width="115" height="38.0005" stroke="#000000" stroke-width="0.666755" stroke-miterlimit="8" fill="#FFFFFF"/><text font-family="Arial,Arial_MSFontService,sans-serif" font-weight="400" font-size="32" transform="matrix(1 0 0 1.00001 285.607 1488)">Literal</text><rect x="314.5" y="1190.52" width="157" height="40.0005" stroke="#000000" stroke-width="0.666755" stroke-miterlimit="8" fill="#FFFFFF"/><text font-family="Arial,Arial_MSFontService,sans-serif" font-weight="400" font-size="32" transform="matrix(1 0 0 1.00001 353.325 1222)">string</text><path d="M399.55 1123.03 399.476 1129.29 399.415 1131.05 397.416 1130.98 397.476 1129.23 397.476 1129.25 397.549 1123ZM399.17 1137.07 398.943 1141.04 398.61 1145.08 396.616 1144.91 396.948 1140.89 396.947 1140.91 397.173 1136.95ZM397.912 1151.12 397.455 1153.85 396.819 1156.13 396.335 1157.02 395.806 1157.35 395.499 1157.55 395.847 1157.18 395.543 1157.74 395.627 1157.53 395.337 1158.57 393.41 1158.03 393.731 1156.88 394.215 1155.99 394.744 1155.66 395.05 1155.47 394.703 1155.84 395.007 1155.28 394.922 1155.49 395.514 1153.36 395.491 1153.46 395.939 1150.79ZM394.337 1164.32 394.017 1167.09 394.02 1167.05 393.601 1172.12 393.603 1172.1 393.596 1172.23 391.599 1172.11 391.607 1171.97 392.028 1166.87 392.35 1164.09ZM393.267 1178.19 393.111 1183.36 391.112 1183.3 391.268 1178.13ZM398.8 1182.11 392 1190 385.467 1181.89Z"/><path d="M0-28 261.667-28 261.667 7-1.01725e-05 7Z" fill="#FFFFFF" fill-rule="evenodd" transform="matrix(1 0 0 1.00001 261.646 1174.46)"/><text font-family="Arial,Arial_MSFontService,sans-serif" font-weight="400" font-size="32" transform="matrix(1 0 0 1.00001 261.646 1174)">unocs:hasSeverity</text><path d="M0-28 217.333-28 217.333 7-5.08626e-06 7Z" fill="#FFFFFF" fill-rule="evenodd" transform="matrix(1 0 0 1.00001 1647.66 1230.51)"/><path d="M0-28 8.83333-28 8.83333 7-3.17891e-07 7Z" fill="#FFFFFF" fill-rule="evenodd" transform="matrix(1 0 0 1.00001 1865.02 1230.51)"/><path d="M0-28 183.333-28 183.333 7-5.08626e-06 7Z" fill="#FFFFFF" fill-rule="evenodd" transform="matrix(1 0 0 1.00001 1681.67 1269.51)"/><text font-family="Arial,Arial_MSFontService,sans-serif" font-weight="400" font-size="32" transform="matrix(1 0 0 1.00001 1647.66 1231)">unocs:engages</text><text font-family="Arial,Arial_MSFontService,sans-serif" font-weight="400" font-size="32" transform="matrix(1 0 0 1.00001 1865.02 1231)"></text><text font-family="Arial,Arial_MSFontService,sans-serif" font-weight="400" font-size="32" transform="matrix(1 0 0 1.00001 1681.67 1270)">ControlEntity</text><path d="M936.199 1032.04 939.186 1032.64 942.233 1034.46 943.65 1035.85 942.251 1037.28 940.918 1035.97 941.105 1036.12 938.307 1034.45 938.621 1034.57 935.801 1034ZM947.557 1040.59 947.899 1041.06 950.547 1045.67 951.522 1047.76 949.71 1048.6 948.753 1046.55 948.792 1046.63 946.192 1042.1 946.254 1042.2 945.946 1041.78ZM953.943 1053.32 955.447 1057.19 956.662 1060.9 954.761 1061.52 953.555 1057.83 953.573 1057.89 952.078 1054.04ZM958.42 1066.68 959.702 1071.3 960.44 1074.46 958.492 1074.92 957.759 1071.78 957.769 1071.82 956.493 1067.21ZM961.77 1080.35 963.152 1087.46 963.277 1088.24 961.301 1088.56 961.179 1087.79 961.185 1087.82 959.807 1080.73ZM964.214 1094.17 964.523 1096.12 965.163 1102.17 963.174 1102.38 962.537 1096.36 962.543 1096.41 962.239 1094.48ZM965.795 1108.13 966.441 1114.24 966.511 1116.17 964.512 1116.24 964.444 1114.35 964.449 1114.42 963.806 1108.34ZM966.729 1122.17 967.019 1130.16 965.02 1130.23 964.73 1122.24ZM967.237 1136.16 967.527 1144.15 965.528 1144.23 965.238 1136.23ZM967.745 1150.15 967.796 1151.55 967.791 1151.48 968.486 1158.05 966.496 1158.26 965.798 1151.66 965.746 1150.22ZM969.117 1164.01 969.703 1169.54 969.696 1169.49 970.078 1171.9 968.102 1172.22 967.716 1169.78 967.128 1164.22ZM971.015 1177.83 971.06 1178.11 971.054 1178.08 972.527 1185.65 970.564 1186.03 969.087 1178.44 969.04 1178.14ZM973.859 1191.46 974.48 1194.12 974.47 1194.08 975.879 1199.16 973.951 1199.7 972.537 1194.6 971.911 1191.92ZM977.632 1204.85 978.685 1208.07 978.667 1208.01 980.34 1212.32 978.476 1213.04 976.792 1208.71 975.731 1205.47ZM982.738 1217.74 983.487 1219.35 983.448 1219.27 986.047 1223.8 985.985 1223.7 986.586 1224.52 984.976 1225.71 984.341 1224.84 981.692 1220.23 980.926 1218.59ZM990.45 1228.65 990.929 1229.01 989.72 1230.6 989.242 1230.24ZM992.219 1223.28 996.239 1232.88 986.064 1235.11Z"/><path d="M631.5 1018.18C631.5 1013.95 634.932 1010.51 639.167 1010.51L928.833 1010.51C933.068 1010.51 936.5 1013.95 936.5 1018.18L936.5 1048.85C936.5 1053.08 933.068 1056.52 928.833 1056.52L639.167 1056.52C634.932 1056.52 631.5 1053.08 631.5 1048.85Z" stroke="#FFFFFF" stroke-width="0.666755" stroke-miterlimit="8" fill="#575454" fill-rule="evenodd"/><text fill="#FFFFFF" font-family="Arial,Arial_MSFontService,sans-serif" font-style="italic" font-weight="400" font-size="32" transform="matrix(1 0 0 1.00001 650.466 1045)">unocs:HazardType</text><path d="M784.273 1056.07 783.988 1061.34 783.546 1064.13 781.57 1063.82 782.005 1061.08 781.994 1061.18 782.276 1055.96ZM782.251 1070.08 781.801 1071.81 779.978 1076.87 779.552 1077.79 777.736 1076.95 778.144 1076.07 778.111 1076.15 779.904 1071.18 779.877 1071.26 780.315 1069.58ZM776.87 1083.25 775.044 1086.46 772.397 1090.02 770.793 1088.82 773.403 1085.32 773.336 1085.42 775.131 1082.26ZM768.813 1094.83 768.684 1095 765.019 1098.83 762.995 1100.61 761.674 1099.11 763.665 1097.35 763.604 1097.41 767.197 1093.66 767.117 1093.76 767.209 1093.63ZM758.223 1104.38 756.973 1105.3 752.647 1107.87 751.182 1108.55 750.34 1106.74 751.759 1106.08 751.668 1106.13 755.909 1103.6 755.829 1103.66 757.041 1102.77ZM745.523 1110.84 743.562 1111.5 738.873 1112.45 737.476 1112.55 737.337 1110.56 738.668 1110.46 738.538 1110.48 743.102 1109.55 742.985 1109.58 744.888 1108.94ZM731.489 1112.97 729.606 1113.1 729.737 1113.08 725.172 1114.01 725.289 1113.98 723.91 1114.44 723.275 1112.55 724.712 1112.07 729.401 1111.11 731.35 1110.97ZM718.436 1116.59 716.516 1117.48 716.606 1117.43 712.366 1119.96 712.445 1119.91 711.68 1120.47 710.498 1118.85 711.301 1118.26 715.627 1115.69 717.593 1114.78ZM707.016 1124.09 704.609 1126.21 704.671 1126.15 701.353 1129.61 699.909 1128.23 703.256 1124.73 705.694 1122.59ZM697.811 1134.3 694.871 1138.25 694.939 1138.14 693.417 1140.82 691.678 1139.83 693.23 1137.1 696.207 1133.1ZM690.77 1146.11 690.131 1147.49 690.164 1147.41 688.37 1152.39 688.397 1152.3 688.099 1153.45 686.163 1152.94 686.473 1151.75 688.297 1146.69 688.955 1145.27ZM686.839 1159.18 686.589 1161.04 684.607 1160.77 684.857 1158.91ZM692.358 1160.18 685 1167.55 679.077 1158.98Z"/><path d="M0-28 318.733-28 318.733 7 4.06901e-06 7Z" fill="#FFFFFF" fill-rule="evenodd" transform="matrix(1 0 0 1.00001 657.734 987.62)"/><text font-family="Arial,Arial_MSFontService,sans-serif" font-weight="400" font-size="32" transform="matrix(1 0 0 1.00001 657.734 988)">unocs:hasHazardType</text><path d="M0.219793 0.975682-2.02758 1.48195-1.6954 1.34029-3.9252 2.81601-3.74184 2.65989-5.79119 4.88284-7.26185 3.52703-5.13029 1.21491-2.64626-0.42907-0.219793-0.975682ZM-8.80871 9.74682-9.99734 12.0398-9.96362 11.9679-11.9473 16.6752-11.9252 16.6179-12.0279 16.9105-13.9154 16.2484-13.8025 15.9267-11.7915 11.1546-10.5846 8.82627ZM-13.9688 22.5353-15.5432 27.8591-15.532 27.8183-16.1266 30.1943-18.067 29.7088-17.4673 27.3122-15.887 21.968ZM-17.5094 35.9944-18.5944 41.1388-18.5879 41.1053-19.0624 43.8075-21.0325 43.4616-20.5551 40.7426-19.4666 35.5816ZM-20.0527 49.693-20.9504 55.9817-20.9449 55.9355-21.1017 57.5766-23.0929 57.3863-22.9339 55.7221-22.0329 49.4103ZM-21.6726 63.5502-22.4339 71.515-24.4251 71.3247-23.6638 63.3599ZM-22.6491 77.4487-22.911 85.4454-24.9102 85.38-24.6482 77.3832ZM-22.9027 91.3785-22.6481 99.3755-24.6473 99.4392-24.902 91.4422ZM-22.4181 105.31-21.6779 113.277-23.6696 113.462-24.4098 105.495ZM-21.1227 119.252-21.0021 120.55-21.0073 120.505-20.0868 127.139-22.0681 127.414-22.9917 120.758-23.1144 119.437ZM-19.1125 133.028-18.7105 135.383-18.7166 135.35-17.5894 140.848-19.5489 141.25-20.6795 135.736-21.0842 133.364ZM-16.23 146.655-15.7394 148.671-15.75 148.631-14.1129 154.326-16.0353 154.879-17.6781 149.164-18.1736 147.127ZM-12.2179 159.905-10.3252 164.525-10.3576 164.454-9.00371 167.14-10.79 168.04-12.1614 165.319-14.0688 160.663ZM-5.94333 171.974-4.27634 173.834-4.4583 173.675-2.29062 175.15-2.62767 175.003-0.442907 175.509-0.791629 175.491-0.158093 175.412 0.0877968 177.397-0.721716 177.498-3.26156 176.909-5.68463 175.26-7.4329 173.309ZM5.4631 174.238 7.55953 173.48 7.38457 173.563 11.3268 171.196 11.1856 171.298 12.0711 170.528 13.3834 172.038 12.4318 172.865 8.33096 175.328 6.143 176.119ZM16.1842 166.42 17.5863 164.714 17.4892 164.855 19.7908 160.8 19.6946 161.034 19.9876 159.943 21.9194 160.462 21.5934 161.676 19.1864 165.917 17.7297 167.69ZM14.4771 158.915 22.6659 152.48 27.5193 161.695Z" transform="matrix(-6.12323e-17 -1.00001 -1 6.12332e-17 783.48 1055.68)"/><path d="M0-28 194.167-28 194.167 7 5.08626e-06 7Z" fill="#FFFFFF" fill-rule="evenodd" transform="matrix(1 0 0 1.00001 523.821 1088.13)"/><text font-family="Arial,Arial_MSFontService,sans-serif" font-weight="400" font-size="32" transform="matrix(1 0 0 1.00001 523.821 1088)">unocs:implies</text><path d="M996.5 1205.52C996.5 1197.79 1002.77 1191.52 1010.5 1191.52L1279.5 1191.52C1287.23 1191.52 1293.5 1197.79 1293.5 1205.52L1293.5 1261.52C1293.5 1269.25 1287.23 1275.52 1279.5 1275.52L1010.5 1275.52C1002.77 1275.52 996.5 1269.25 996.5 1261.52Z" stroke="#FFFFFF" stroke-width="0.666755" stroke-miterlimit="8" fill="#575454" fill-rule="evenodd"/><text fill="#FFFFFF" font-family="Arial,Arial_MSFontService,sans-serif" font-style="italic" font-weight="400" font-size="32" transform="matrix(1 0 0 1.00001 1046.05 1225)">unocs:Control</text><text fill="#FFFFFF" font-family="Arial,Arial_MSFontService,sans-serif" font-style="italic" font-weight="400" font-size="32" transform="matrix(1 0 0 1.00001 1026.46 1265)">ActionProcedure</text><path d="M0.0829647-0.996685 4.86515-0.598613 8.12846 0.199431 7.65329 2.14244 4.46631 1.36306 4.62093 1.38824-0.0829647 0.996685ZM13.8988 2.27022 14.3951 2.46916 18.9824 5.01801 20.983 6.44411 19.822 8.07291 17.8671 6.67939 17.9618 6.73924 13.4787 4.24828 13.5924 4.30238 13.1546 4.12689ZM25.7563 10.2323 27.6292 11.8746 31.4861 15.9368 30.0355 17.3141 26.2101 13.285 26.2761 13.3484 24.4375 11.7362ZM35.3009 20.6772 35.3459 20.7335 38.769 25.7884 39.7507 27.5085 38.0135 28.5 37.0508 26.8133 37.0912 26.8783 33.712 21.888 33.7593 21.9522 33.7392 21.9271ZM42.6408 32.8489 44.5669 36.9023 45.8599 40.2495 43.994 40.9703 42.7145 37.6581 42.7441 37.7269 40.8341 33.7074ZM47.8138 45.9992 48.7254 49.0269 49.7693 53.8326 47.8146 54.2572 46.7791 49.4899 46.7988 49.566 45.8985 46.576ZM50.6937 59.841 50.9492 61.769 51.226 67.9057 49.2278 67.9958 48.9529 61.9024 48.9605 61.9887 48.7107 60.1038ZM51.4964 73.9004 51.5276 74.592 51.5199 74.5056 52.3601 80.8455 52.346 80.7646 52.5399 81.6573 50.5852 82.0819 50.3826 81.149 49.5313 74.7254 49.4982 73.9905ZM53.8342 87.4349 55.5154 93.0183 55.4907 92.9463 56.2726 94.9705 54.4068 95.6913 53.6111 93.6315 51.9189 88.0116ZM58.5332 100.444 60.4164 104.407 60.3817 104.341 62.1728 107.479 60.4356 108.471 58.6259 105.3 56.7265 101.303ZM65.3322 112.485 66.7684 114.606 66.7212 114.542 70.12 118.789 68.5582 120.039 65.1345 115.761 63.6759 113.607ZM74.1681 123.102 74.2703 123.209 74.2044 123.146 78.3564 126.787 78.2775 126.724 80.1753 128.077 79.0142 129.706 77.0754 128.324 72.8513 124.62 72.7176 124.479ZM85.1468 131.215 87.0018 132.246 86.8881 132.192 91.4816 134.033 91.3047 133.981 92.2171 134.162 91.8267 136.124 90.8234 135.924 86.0854 134.025 84.1753 132.964ZM93.5469 128.723 100.48 136.494 91.5859 141.913Z" transform="matrix(-1 1.22466e-16 1.22465e-16 1.00001 1393.48 1096.02)"/><path d="M0-28 249.333-28 249.333 7-5.08626e-06 7Z" fill="#FFFFFF" fill-rule="evenodd" transform="matrix(1 0 0 1.00001 1326.34 1171.66)"/><path d="M0-28 8.83333-28 8.83333 7-3.17891e-07 7Z" fill="#FFFFFF" fill-rule="evenodd" transform="matrix(1 0 0 1.00001 1575.71 1171.66)"/><path d="M0-28 236.833-28 236.833 7-5.08626e-06 7Z" fill="#FFFFFF" fill-rule="evenodd" transform="matrix(1 0 0 1.00001 1326.34 1210.66)"/><text font-family="Arial,Arial_MSFontService,sans-serif" font-weight="400" font-size="32" transform="matrix(1 0 0 1.00001 1326.34 1172)">unocs:hasControl</text><text font-family="Arial,Arial_MSFontService,sans-serif" font-weight="400" font-size="32" transform="matrix(1 0 0 1.00001 1575.71 1172)"></text><text font-family="Arial,Arial_MSFontService,sans-serif" font-weight="400" font-size="32" transform="matrix(1 0 0 1.00001 1326.34 1211)">ActionProcedure</text><path d="M0-28 284.833-28 284.833 7 1.01725e-05 7Z" fill="#FFFFFF" fill-rule="evenodd" transform="matrix(1 0 0 1.00001 959.774 1130.25)"/><path d="M0-28 251.167-28 251.167 7 5.08626e-06 7Z" fill="#FFFFFF" fill-rule="evenodd" transform="matrix(1 0 0 1.00001 959.774 1169.25)"/><text font-family="Arial,Arial_MSFontService,sans-serif" font-weight="400" font-size="32" transform="matrix(1 0 0 1.00001 959.774 1130)">unocs:isMitigatedBy</text><text font-family="Arial,Arial_MSFontService,sans-serif" font-weight="400" font-size="32" transform="matrix(1 0 0 1.00001 959.774 1169)">ControlProcedure</text><path d="M0-28 229.667-28 229.667 7 5.08626e-06 7Z" fill="#FFFFFF" fill-rule="evenodd" transform="matrix(1 0 0 1.00001 721.515 1117.45)"/><path d="M0-28 190.667-28 190.667 7 5.08626e-06 7Z" fill="#FFFFFF" fill-rule="evenodd" transform="matrix(1 0 0 1.00001 721.515 1156.45)"/><text font-family="Arial,Arial_MSFontService,sans-serif" font-weight="400" font-size="32" transform="matrix(1 0 0 1.00001 721.515 1117)">unocs:IsDefined</text><text font-family="Arial,Arial_MSFontService,sans-serif" font-weight="400" font-size="32" transform="matrix(1 0 0 1.00001 721.515 1156)">ByRegulation</text><path d="M0-28 210.167-28 210.167 7 5.08626e-06 7Z" fill="#FFFFFF" fill-rule="evenodd" transform="matrix(1 0 0 1.00001 759.398 1360.26)"/><text font-family="Arial,Arial_MSFontService,sans-serif" font-weight="400" font-size="32" transform="matrix(1 0 0 1.00001 759.398 1360)">unocs:requires</text><path d="M1414.5 1383.69C1414.5 1376.97 1419.95 1371.52 1426.67 1371.52L1751.33 1371.52C1758.05 1371.52 1763.5 1376.97 1763.5 1383.69L1763.5 1432.35C1763.5 1439.07 1758.05 1444.52 1751.33 1444.52L1426.67 1444.52C1419.95 1444.52 1414.5 1439.07 1414.5 1432.35Z" stroke="#FFFFFF" stroke-width="0.666755" stroke-miterlimit="8" fill="#575454" fill-rule="evenodd"/><text fill="#FFFFFF" font-family="Arial,Arial_MSFontService,sans-serif" font-style="italic" font-weight="400" font-size="32" transform="matrix(1 0 0 1.00001 1476.13 1400)">unocs:Required</text><text fill="#FFFFFF" font-family="Arial,Arial_MSFontService,sans-serif" font-style="italic" font-weight="400" font-size="32" transform="matrix(1 0 0 1.00001 1490.46 1439)">Characteristic</text><path d="M0.00475205-1.00012 8.00572-0.962105 7.99621 1.03814-0.00475205 1.00012ZM14.0064-0.933592 22.0074-0.895576 21.9979 1.10467 13.9969 1.06665ZM28.0081-0.867064 31.9332-0.848414 36.0158-0.800883 35.9925 1.19925 31.9134 1.15176 31.9203 1.15181 27.9986 1.13318ZM42.0162-0.731023 47.588-0.666152 50.021-0.626885 49.9887 1.37312 47.558 1.33389 47.5625 1.33395 41.9929 1.26911ZM56.021-0.530048 62.8656-0.419579 64.0255-0.395562 63.9841 1.60427 62.8265 1.5803 62.831 1.58039 55.9888 1.46996ZM70.025-0.271337 77.6419-0.113623 78.0291-0.103761 77.9782 1.89586 77.5933 1.88605 77.5981 1.88616 69.9836 1.7285ZM84.0279 0.049032 91.7916 0.246776 92.0315 0.254114 91.9703 2.25344 91.733 2.24618 91.7381 2.24633 83.977 2.04865ZM98.0295 0.437619 105.19 0.656681 106.032 0.687268 105.96 2.68622 105.12 2.65573 105.126 2.65592 97.9683 2.43695ZM112.029 0.904936 117.711 1.11117 120.031 1.21069 119.945 3.20912 117.628 3.10973 117.635 3.10999 111.957 2.90388ZM126.026 1.46787 129.23 1.60532 134.026 1.84938 133.924 3.84706 129.133 3.6032 129.141 3.60357 125.94 3.46629ZM140.029 2.15904 148.015 2.64724 147.893 4.64378 139.907 4.15558ZM154.019 3.07707 156.534 3.2773 159.865 3.57755 162.011 3.79999 161.805 5.78959 159.666 5.56784 159.679 5.56914 156.36 5.26996 156.37 5.27084 153.86 5.07102ZM168.039 4.61302 169.192 4.83047 170.502 5.17298 171.54 5.6196 171.945 6.13687 172.193 6.4533 171.802 6.15169 172.536 6.46754 172.393 6.41857 173.597 6.73318 173.53 6.71801 175.188 7.03077 175.149 7.02421 175.43 7.06574 175.137 9.04446 174.837 9.00005 173.125 8.67721 171.814 8.33474 170.777 7.88818 170.371 7.3709 170.123 7.0544 170.515 7.35604 169.781 7.04015 169.923 7.08914 168.719 6.7745 168.787 6.78967 167.668 6.57863ZM181.34 7.80386 182.651 7.93974 182.638 7.93844 185.957 8.2376 185.947 8.23672 189.286 8.50261 189.128 10.4966 185.783 10.2303 182.451 9.93003 181.134 9.79347ZM195.255 8.91455 202.81 9.3764 202.8 9.37583 203.231 9.39776 203.129 11.3954 202.693 11.3733 195.132 10.9111ZM209.224 9.70274 213.184 9.90427 213.176 9.9039 217.208 10.0769 217.122 12.0753 213.086 11.9022 209.122 11.7004ZM223.203 10.334 224.688 10.3977 224.682 10.3975 231.192 10.6338 231.12 12.6327 224.606 12.3963 223.118 12.3325ZM237.189 10.8514 237.197 10.8517 237.191 10.8515 245.181 11.0959 245.119 13.0953 237.127 12.8508 237.116 12.8504ZM251.174 11.2763 259.172 11.48 259.121 13.4796 251.123 13.2759ZM265.166 11.6305 273.165 11.7962 273.124 13.796 265.125 13.6304ZM279.165 11.9204 279.49 11.9271 279.486 11.927 287.16 12.0509 287.128 14.0509 279.451 13.927 279.124 13.9202ZM293.16 12.1477 294.759 12.1735 294.754 12.1735 301.156 12.248 301.133 14.2481 294.729 14.1736 293.128 14.1477ZM307.157 12.3179 310.403 12.3556 310.396 12.3556 315.151 12.3782 315.141 14.3784 310.383 14.3558 307.133 14.318ZM321.151 12.4067 329.152 12.4447 329.143 14.445 321.142 14.4069ZM335.153 12.4732 335.654 12.4756 335.644 14.4758 335.144 14.4735ZM334.347 6.80191 342.317 13.5074 334.284 20.1369Z" transform="matrix(1 0 0 -1.00001 1072 1420.53)"/><path d="M0-28 265.333-28 265.333 7 1.01725e-05 7Z" fill="#FFFFFF" fill-rule="evenodd" transform="matrix(1 0 0 1.00001 320.312 1036.98)"/><text font-family="Arial,Arial_MSFontService,sans-serif" font-style="italic" font-weight="400" font-size="32" transform="matrix(1 0 0 1.00001 320.312 1037)">unocs:isCausedBy</text><path d="M1043.11 918.835C1044.04 911.994 1050.34 907.2 1057.18 908.127 1064.02 909.054 1068.81 915.351 1067.89 922.192 1067.87 922.318 1067.85 922.443 1067.83 922.569L1055.5 920.513Z" fill="#FFFFFF" fill-rule="evenodd"/><path d="M1043.11 918.835C1044.04 911.994 1050.34 907.2 1057.18 908.127 1064.02 909.054 1068.81 915.351 1067.89 922.192 1067.87 922.318 1067.85 922.443 1067.83 922.569" stroke="#000000" stroke-width="2.00029" stroke-miterlimit="8" stroke-dasharray="8.00118 6.00088" fill="none" fill-rule="evenodd"/><text font-family="Arial,Arial_MSFontService,sans-serif" font-weight="400" font-size="32" transform="matrix(1 0 0 1.00001 1105.52 1452)">unocs:hasAssigned</text><text font-family="Arial,Arial_MSFontService,sans-serif" font-weight="400" font-size="32" transform="matrix(1 0 0 1.00001 1187.53 1491)">Characteristic</text></g></svg>