<svg width="1767" height="832" xmlns="http://www.w3.org/2000/svg" xmlns:xlink="http://www.w3.org/1999/xlink" xml:space="preserve" overflow="hidden"><defs><clipPath id="clip0"><rect x="895" y="403" width="1767" height="832"/></clipPath></defs><g clip-path="url(#clip0)" transform="translate(-895 -403)"><path d="M0 0 3775.3 0 3775.3 2265.21 0 2265.21Z" fill="#FFFFFF" transform="matrix(1.0009 0 0 1 0.201659 0.862891)"/><path d="M1728.35 920.034C1728.35 915.805 1731.77 912.376 1736.01 912.376L2025.31 912.376C2029.54 912.376 2032.97 915.805 2032.97 920.034L2032.97 950.663C2032.97 954.892 2029.54 958.32 2025.31 958.32L1736.01 958.32C1731.77 958.32 1728.35 954.892 1728.35 950.663Z" stroke="#FFFFFF" stroke-width="0.665926" stroke-miterlimit="8" fill="#575454" fill-rule="evenodd" transform="matrix(1.0009 0 0 1 0.201659 0.862891)"/><text fill="#FFFFFF" font-family="Arial,Arial_MSFontService,sans-serif" font-style="italic" font-weight="400" font-size="32" transform="matrix(0.999659 0 0 0.998766 1783.09 948)">unocs</text><text fill="#FFFFFF" font-family="Arial,Arial_MSFontService,sans-serif" font-style="italic" font-weight="400" font-size="32" transform="matrix(0.999659 0 0 0.998766 1868.06 948)">:</text><text fill="#FFFFFF" font-family="Arial,Arial_MSFontService,sans-serif" font-style="italic" font-weight="400" font-size="32" transform="matrix(0.999659 0 0 0.998766 1877.06 948)">Hazard</text><path d="M1465.67 709.128C1465.67 704.99 1469.03 701.636 1473.16 701.636L1762.8 701.636C1766.94 701.636 1770.29 704.99 1770.29 709.128L1770.29 739.09C1770.29 743.227 1766.94 746.581 1762.8 746.581L1473.16 746.581C1469.03 746.581 1465.67 743.227 1465.67 739.09Z" stroke="#FFFFFF" stroke-width="0.665926" stroke-miterlimit="8" fill="#575454" fill-rule="evenodd" transform="matrix(1.0009 0 0 1 0.201659 0.862891)"/><text fill="#FFFFFF" font-family="Arial,Arial_MSFontService,sans-serif" font-weight="400" font-size="32" transform="matrix(0.999659 0 0 0.998766 1515.45 737)">unocs</text><text fill="#FFFFFF" font-family="Arial,Arial_MSFontService,sans-serif" font-weight="400" font-size="32" transform="matrix(0.999659 0 0 0.998766 1600.43 737)">:</text><text fill="#FFFFFF" font-family="Arial,Arial_MSFontService,sans-serif" font-weight="400" font-size="32" transform="matrix(0.999659 0 0 0.998766 1609.42 737)">Incident</text><path d="M0.0359449-0.998252 8.02196-0.710693 7.95007 1.28581-0.0359449 0.998252ZM14.0115-0.495023 17.7092-0.361876 22.0454 0.096836 21.8352 2.08355 17.5335 1.62849 17.6026 1.63338 13.9396 1.50147ZM28.0055 0.727337 35.2772 1.49658 36.0114 1.62388 35.6701 3.59231 34.9686 3.47067 35.0341 3.47981 27.7954 2.71405ZM41.9167 2.64775 49.7904 4.01291 49.4491 5.98134 41.5754 4.61618ZM55.7169 5.25145 63.4868 7.11896 63.0198 9.06143 55.2499 7.19392ZM69.3142 8.51959 69.4387 8.54955 77.013 10.8851 76.4244 12.7942 68.8803 10.468 68.9411 10.4846 68.8472 10.4621ZM82.7404 12.6512 85.758 13.5816 90.3364 15.3183 89.628 17.1862 85.0791 15.4608 85.139 15.4814 82.1517 14.5602ZM95.9403 17.4437 101.387 19.5097 103.417 20.4347 102.588 22.2526 100.588 21.3411 100.648 21.3661 95.2317 19.3117ZM108.87 22.9195 116.142 26.2327 115.315 28.0507 108.043 24.7375ZM121.477 29.1119 128.506 32.9117 127.556 34.6693 120.527 30.8694ZM133.683 36.069 140.417 40.371 139.342 42.0545 132.607 37.7527ZM145.384 43.8567 151.753 48.6834 150.547 50.2757 144.178 45.4489ZM156.461 52.4942 159.498 55.1306 162.402 57.9064 161.021 59.3506 158.135 56.5913 158.171 56.6235 155.151 54.003ZM166.65 62.2037 168.878 64.5653 171.974 68.2345 170.446 69.5225 167.369 65.8746 167.406 65.916 165.197 63.5748ZM175.664 73.0301 176.675 74.3862 179.935 79.4182 180.147 79.8047 178.398 80.7687 178.202 80.4133 178.239 80.4745 175.016 75.4999 175.054 75.5535 174.062 74.2237ZM183.029 85.1459 185.086 89.6783 186.125 92.5966 184.243 93.2668 183.218 90.3879 183.25 90.4657 181.21 85.9716ZM187.715 98.4987 187.74 98.6167 185.786 99.034 185.76 98.9159ZM193.18 96.6017 188.39 110.701 179.985 98.41Z" transform="matrix(1.83861e-16 1 1.00089 -1.83698e-16 1618.65 746.945)"/><path d="M0-27.9654 265.006-27.9654 265.006 6.99136 1.01599e-05 6.99136Z" fill="#FFFFFF" fill-rule="evenodd" transform="matrix(1.00089 0 0 1 1571.58 870.798)"/><text font-family="Arial,Arial_MSFontService,sans-serif" font-weight="400" font-size="32" transform="matrix(0.999659 0 0 0.998766 1571.58 871)">unocs</text><text font-family="Arial,Arial_MSFontService,sans-serif" font-weight="400" font-size="32" transform="matrix(0.999659 0 0 0.998766 1656.56 871)">:</text><text font-family="Arial,Arial_MSFontService,sans-serif" font-weight="400" font-size="32" transform="matrix(0.999659 0 0 0.998766 1665.55 871)">isCausedBy</text><path d="M1215.99 1148.42C1215.99 1143.83 1219.71 1140.1 1224.3 1140.1L1512.29 1140.1C1516.88 1140.1 1520.61 1143.83 1520.61 1148.42L1520.61 1181.71C1520.61 1186.31 1516.88 1190.04 1512.29 1190.04L1224.3 1190.04C1219.71 1190.04 1215.99 1186.31 1215.99 1181.71Z" stroke="#FFFFFF" stroke-width="0.665926" stroke-miterlimit="8" fill="#575454" fill-rule="evenodd" transform="matrix(1.0009 0 0 1 0.201659 0.862891)"/><text fill="#FFFFFF" font-family="Arial,Arial_MSFontService,sans-serif" font-style="italic" font-weight="400" font-size="32" transform="matrix(0.999659 0 0 0.998766 1245.86 1177)">unocs</text><text fill="#FFFFFF" font-family="Arial,Arial_MSFontService,sans-serif" font-style="italic" font-weight="400" font-size="32" transform="matrix(0.999659 0 0 0.998766 1330.83 1177)">:</text><text fill="#FFFFFF" font-family="Arial,Arial_MSFontService,sans-serif" font-style="italic" font-weight="400" font-size="32" transform="matrix(0.999659 0 0 0.998766 1339.82 1177)">Regulation</text><path d="M1790.27 1100.65C1790.27 1096.5 1793.63 1093.16 1797.76 1093.16L2087.4 1093.16C2091.53 1093.16 2094.89 1096.5 2094.89 1100.65L2094.89 1130.61C2094.89 1134.75 2091.53 1138.1 2087.4 1138.1L1797.76 1138.1C1793.63 1138.1 1790.27 1134.75 1790.27 1130.61Z" stroke="#FFFFFF" stroke-width="0.665926" stroke-miterlimit="8" fill="#575454" fill-rule="evenodd" transform="matrix(1.0009 0 0 1 0.201659 0.862891)"/><text fill="#FFFFFF" font-family="Arial,Arial_MSFontService,sans-serif" font-style="italic" font-weight="400" font-size="32" transform="matrix(0.999659 0 0 0.998766 1806.51 1127)">unocs</text><text fill="#FFFFFF" font-family="Arial,Arial_MSFontService,sans-serif" font-style="italic" font-weight="400" font-size="32" transform="matrix(0.999659 0 0 0.998766 1891.49 1127)">:</text><text fill="#FFFFFF" font-family="Arial,Arial_MSFontService,sans-serif" font-style="italic" font-weight="400" font-size="32" transform="matrix(0.999659 0 0 0.998766 1900.48 1127)">HazardType</text><path d="M0.0976516-0.994114 6.00931-0.413411 8.15612 0.206129 7.60219 2.12559 5.54346 1.53148 5.72278 1.56586-0.0976516 0.994114ZM13.9439 2.24415 15.7498 3.09836 14.8957 4.90433 13.0897 4.05013ZM21.0291 6.19099 23.4239 7.76122 27.4388 11.1385 26.1528 12.6673 22.1834 9.32835 22.2787 9.39929 19.9337 7.86168ZM31.8073 15.3811 33.1957 16.8176 31.7591 18.206 30.3708 16.7694ZM37.0961 21.4817 38.9971 23.8444 41.826 28.0159 40.1726 29.1372 37.3665 24.9995 37.415 25.065 35.5396 22.734ZM45.0456 33.1546 46.0399 34.8874 44.3072 35.8817 43.3128 34.1489ZM48.901 40.2296 51.6056 45.8213 52.2957 47.535 50.4425 48.2812 49.765 46.5989 49.7924 46.6607 47.1025 41.0995ZM54.5343 53.0946 54.9468 54.119 55.2454 55.0312 53.3468 55.6527 53.0585 54.772 53.0812 54.8344 52.6811 53.8408ZM57.11 60.7272 57.7829 62.7825 59.2403 68.4945 57.3046 68.9885 55.8553 63.3087 55.8739 63.3725 55.2114 61.3487ZM60.5593 74.4069 60.9209 76.3716 58.9562 76.7333 58.5945 74.7685ZM61.9187 82.3498 62.8056 90.2479 62.8101 90.3648 60.8138 90.4411 60.8107 90.3609 60.8163 90.4342 59.9333 82.5728ZM68.5147 91.4133 62.1656 99.6531 55.2058 91.9221Z" transform="matrix(1.00089 0 0 -1 2034.51 935.489)"/><path d="M0-27.9654 145.82-27.9654 145.82 6.99136 0 6.99136Z" fill="#FFFFFF" fill-rule="evenodd" transform="matrix(1.00089 0 0 1 1930.26 867.395)"/><path d="M0-27.9654 8.82243-27.9654 8.82243 6.99136-3.17499e-07 6.99136Z" fill="#FFFFFF" fill-rule="evenodd" transform="matrix(1.00089 0 0 1 2076.23 867.395)"/><path d="M0-27.9654 177.78-27.9654 177.78 6.99136 0 6.99136Z" fill="#FFFFFF" fill-rule="evenodd" transform="matrix(1.00089 0 0 1 1914.27 906.348)"/><text font-family="Arial,Arial_MSFontService,sans-serif" font-weight="400" font-size="32" transform="matrix(0.999659 0 0 0.998766 1930.26 868)">unocs</text><text font-family="Arial,Arial_MSFontService,sans-serif" font-weight="400" font-size="32" transform="matrix(0.999659 0 0 0.998766 2015.23 868)">:</text><text font-family="Arial,Arial_MSFontService,sans-serif" font-weight="400" font-size="32" transform="matrix(0.999659 0 0 0.998766 2024.23 868)">has</text><text font-family="Arial,Arial_MSFontService,sans-serif" font-weight="400" font-size="32" transform="matrix(0.999659 0 0 0.998766 1914.27 907)">HazardState</text><path d="M2021.98 775.545 2167.8 775.545 2167.8 835.471 2021.98 835.471Z" stroke="#000000" stroke-width="0.665926" stroke-miterlimit="8" fill="#FFFFFF" transform="matrix(1.0009 0 0 1 0.201659 0.862891)"/><text font-family="Arial,Arial_MSFontService,sans-serif" font-weight="400" font-size="32" transform="matrix(0.999659 0 0 0.998766 2057.4 818)">string</text><path d="M1454.69 455.939 1700.38 455.939 1700.38 508.874 1454.69 508.874Z" stroke="#000000" stroke-width="0.665926" stroke-miterlimit="8" fill="#FFFFFF" transform="matrix(1.0009 0 0 1 0.201659 0.862891)"/><text font-family="Arial,Arial_MSFontService,sans-serif" font-weight="400" font-size="32" transform="matrix(0.999659 0 0 0.998766 1509.88 494)">DateTime</text><path d="M0.00106521-0.998896 7.99224-0.990375 7.99012 1.00742-0.00106521 0.998896ZM13.9856-0.983984 15.9835-0.981854 15.9813 1.01594 13.9835 1.01381ZM21.9768-0.975463 27.8989-0.969148 29.9696-0.963738 29.9643 1.03405 27.8968 1.02865 21.9746 1.02234ZM35.9629-0.948078 37.9607-0.942858 37.9555 1.05493 35.9577 1.04971ZM43.9551-0.924793 51.9462-0.895848 51.9389 1.10194 43.9478 1.07299ZM57.9405-0.871043 59.9383-0.861759 59.9291 1.13602 57.9312 1.12673ZM65.9316-0.833909 67.8323-0.825076 73.9238-0.790256 73.9124 1.20751 67.823 1.1727 65.9223 1.16386ZM79.9171-0.755996 80.1938-0.754414 81.916-0.74259 81.9022 1.25516 80.1824 1.24335 79.9057 1.24177ZM87.9092-0.701439 91.8981-0.674049 95.9014-0.641439 95.8851 1.35629 91.8845 1.3237 87.8955 1.29631ZM101.895-0.592619 102.836-0.584951 103.894-0.574768 103.875 1.42293 102.82 1.41277 101.878 1.40511ZM109.887-0.517071 112.897-0.488089 117.879-0.431188 117.856 1.56647 112.879 1.50961 109.867 1.48063ZM123.875-0.358347 125.872-0.330941 125.845 1.66667 123.847 1.63926ZM131.868-0.242645 136.733-0.160541 139.863-0.0927892 139.819 1.90454 136.692 1.83684 136.697 1.83693 131.834 1.75486ZM145.866 0.0666396 146.246 0.0792715 147.707 0.141147 147.887 0.151647 147.769 2.14602 147.599 2.13599 147.616 2.13681 146.166 2.07548 146.175 2.07582 145.799 2.06333ZM153.826 0.601954 154.793 0.634042 154.787 0.633866 156.989 0.694106 156.984 0.693968 161.803 0.79831 161.76 2.79564 156.937 2.69123 154.73 2.63084 153.76 2.59865ZM167.792 0.902389 169.212 0.926355 169.785 0.934226 169.758 2.93184 169.178 2.92387 167.758 2.8999ZM175.779 1.01643 177.187 1.03576 183.767 1.11091 183.744 3.10857 177.16 3.03337 175.751 3.01405ZM189.759 1.17305 191.756 1.19228 191.736 3.18998 189.739 3.17075ZM197.748 1.24784 205.739 1.31293 205.722 3.31066 197.731 3.24557ZM211.73 1.356 213.728 1.36973 213.714 3.36747 211.716 3.35376ZM219.721 1.40999 227.712 1.45566 227.7 3.45342 219.709 3.40775ZM233.703 1.48736 235.701 1.49664 235.692 3.49441 233.694 3.48513ZM241.694 1.5245 244.22 1.53623 249.684 1.55602 249.677 3.5538 244.211 3.534 241.685 3.52227ZM255.678 1.57773 257.566 1.58457 257.675 1.58485 257.67 3.58264 257.559 3.58235 255.671 3.57551ZM263.668 1.60051 271.24 1.6203 271.657 1.62074 271.655 3.61854 271.235 3.61809 263.663 3.5983ZM277.651 1.62713 279.648 1.62927 279.646 3.62706 277.649 3.62493ZM285.642 1.63565 287.149 1.63726 287.147 3.63506 285.64 3.63345ZM285.824-4.02458 299.135 2.64894 285.81 9.29406Z" transform="matrix(-1.00089 1.22465e-16 1.22574e-16 1 2001.02 479.274)"/><path d="M2272.67 688.652 2517.36 688.652 2517.36 741.587 2272.67 741.587Z" stroke="#000000" stroke-width="0.665926" stroke-miterlimit="8" fill="#FFFFFF" transform="matrix(1.0009 0 0 1 0.201659 0.862891)"/><text font-family="Arial,Arial_MSFontService,sans-serif" font-weight="400" font-size="32" transform="matrix(0.999659 0 0 0.998766 2328.28 727)">DateTime</text><path d="M2422.41 613.287 2422.11 620.318 2421.98 621.345 2420.01 621.099 2420.13 620.114 2420.12 620.193 2420.41 613.203ZM2421.22 627.37 2420.82 629.326 2418.87 628.925 2419.27 626.967ZM2419.45 635.245 2418.23 639.348 2416.76 642.87 2414.92 642.102 2416.37 638.628 2416.33 638.727 2417.54 634.675ZM2413.65 648.341 2412.58 649.585 2412.19 649.919 2410.91 648.387 2411.24 648.107 2411.13 648.221 2412.15 647.038ZM2406.57 652.271 2406.2 652.456 2406.39 652.332 2405.18 653.343 2405.3 653.229 2404.13 654.598 2404.23 654.462 2402.05 658.064 2400.34 657.033 2402.56 653.358 2403.85 651.864 2405.19 650.728 2405.65 650.493ZM2399.9 663.383 2399.33 665.297 2397.41 664.728 2397.98 662.812ZM2397.87 671.016 2397.13 674.644 2397.14 674.552 2396.67 678.814 2394.69 678.595 2395.17 674.287 2395.92 670.614ZM2402.09 680.573 2395.02 688.205 2388.78 679.875Z" transform="matrix(1.0009 0 0 1 0.201659 0.862891)"/><path d="M0-27.9654 176.115-27.9654 176.115 6.99136-5.07998e-06 6.99136Z" fill="#FFFFFF" fill-rule="evenodd" transform="matrix(1.00089 0 0 1 2142.34 660.195)"/><text font-family="Arial,Arial_MSFontService,sans-serif" font-weight="400" font-size="32" transform="matrix(0.999659 0 0 0.998766 2142.34 660)">dicp</text><text font-family="Arial,Arial_MSFontService,sans-serif" font-weight="400" font-size="32" transform="matrix(0.999659 0 0 0.998766 2199.32 660)">:</text><text font-family="Arial,Arial_MSFontService,sans-serif" font-weight="400" font-size="32" transform="matrix(0.999659 0 0 0.998766 2208.32 660)">hasEnd</text><path d="M1844.2 655.194C1844.2 650.505 1848.01 646.704 1852.69 646.704L2111.37 646.704C2116.05 646.704 2119.86 650.505 2119.86 655.194L2119.86 689.152C2119.86 693.841 2116.05 697.641 2111.37 697.641L1852.69 697.641C1848.01 697.641 1844.2 693.841 1844.2 689.152Z" stroke="#FFFFFF" stroke-width="0.665926" stroke-miterlimit="8" fill="#575454" fill-rule="evenodd" transform="matrix(1.0009 0 0 1 0.201659 0.862891)"/><text fill="#FFFFFF" font-family="Arial,Arial_MSFontService,sans-serif" font-weight="400" font-size="32" transform="matrix(0.999659 0 0 0.998766 1862.02 684)">dice</text><text fill="#FFFFFF" font-family="Arial,Arial_MSFontService,sans-serif" font-weight="400" font-size="32" transform="matrix(0.999659 0 0 0.998766 1919 684)">:</text><text fill="#FFFFFF" font-family="Arial,Arial_MSFontService,sans-serif" font-weight="400" font-size="32" transform="matrix(0.999659 0 0 0.998766 1927.99 684)">TimeInterval</text><path d="M1878.66 911.856 1878.89 903.868 1880.89 903.926 1880.66 911.914ZM1879.29 897.835 1879.8 891.746 1880.07 889.83 1882.05 890.105 1881.79 891.996 1881.8 891.942 1881.28 898.003ZM1880.9 883.894 1881.18 881.878 1882.32 875.979 1884.27 876.357 1883.14 882.23 1883.15 882.178 1882.87 884.169ZM1883.57 870.067 1885.34 862.927 1885.54 862.269 1887.46 862.851 1887.26 863.484 1887.28 863.433 1885.51 870.548ZM1887.29 856.535 1888.06 854.002 1889.92 848.932 1891.79 849.619 1889.95 854.662 1889.97 854.61 1889.2 857.117ZM1892.12 843.303 1894.58 837.64 1895.45 835.965 1897.23 836.876 1896.38 838.523 1896.41 838.465 1893.96 844.098ZM1898.18 830.631 1898.32 830.357 1902.32 823.776 1902.4 823.666 1904.02 824.845 1903.96 824.92 1904.01 824.85 1900.04 831.364 1900.08 831.301 1899.95 831.543ZM1905.95 818.827 1906.56 817.973 1911.01 813.026 1911.4 812.695 1912.71 814.204 1912.37 814.495 1912.46 814.409 1908.08 819.271 1908.15 819.193 1907.55 820.005ZM1916.09 808.733 1920.42 806.027 1923.29 804.928 1924.01 806.794 1921.22 807.859 1921.4 807.772 1917.15 810.426ZM1929.35 803.631 1930.19 803.523 1934.93 802.907 1934.7 802.964 1936.91 802.121 1937.63 803.986 1935.3 804.872 1930.45 805.504 1929.61 805.612ZM1942.05 799.492 1943.87 798.359 1943.74 798.45 1948.16 794.617 1949.47 796.126 1944.99 800.01 1943.11 801.186ZM1952.09 790.259 1952.55 789.756 1952.48 789.834 1956.66 784.106 1956.62 784.176 1956.73 783.988 1958.44 785.026 1958.3 785.251 1954.07 791.054 1953.58 791.594ZM1959.85 778.868 1960.58 777.662 1960.55 777.726 1963.55 771.87 1965.33 772.782 1962.31 778.67 1961.56 779.906ZM1966 766.473 1967.63 762.711 1967.61 762.766 1968.95 759.112 1970.83 759.799 1969.48 763.48 1967.83 767.268ZM1970.93 753.519 1973.26 745.875 1975.18 746.457 1972.85 754.102ZM1974.71 740.113 1975.65 736.328 1975.64 736.378 1976.41 732.361 1978.38 732.739 1977.6 736.782 1976.65 740.593ZM1977.52 726.525 1978.63 718.61 1980.6 718.885 1979.5 726.801ZM1979.2 712.701 1979.68 707.11 1979.68 707.166 1979.75 704.786 1981.74 704.844 1981.68 707.252 1981.2 712.87ZM1974.08 704.937 1980.97 697.142 1987.39 705.322Z" transform="matrix(1.0009 0 0 1 0.201659 0.862891)"/><path d="M1427.72 1059.2 1527.6 1059.2 1527.6 1102.15 1427.72 1102.15Z" stroke="#000000" stroke-width="0.665926" stroke-miterlimit="8" fill="#FFFFFF" transform="matrix(1.0009 0 0 1 0.201659 0.862891)"/><text font-family="Arial,Arial_MSFontService,sans-serif" font-weight="400" font-size="32" transform="matrix(0.999659 0 0 0.998766 1448.59 1094)">float</text><path d="M1880.9 957.91 1880.38 963.752 1879.8 965.971 1877.86 965.462 1878.43 963.325 1878.4 963.491 1878.91 957.733ZM1877.9 971.797 1877.1 973.631 1875.27 972.836 1876.06 971.003ZM1874.19 979.005 1872.81 981.305 1869.51 985.609 1867.92 984.395 1871.19 980.135 1871.13 980.228 1872.48 977.977ZM1865.5 990.18 1864.14 991.643 1862.67 990.282 1864.04 988.819ZM1859.73 995.825 1857.08 998.259 1853.59 1001.03 1852.35 999.465 1855.81 996.717 1855.76 996.762 1858.39 994.351ZM1848.8 1004.72 1847.16 1005.87 1846.01 1004.23 1847.65 1003.08ZM1842.21 1009.33 1835.43 1013.58 1834.38 1011.89 1841.14 1007.63ZM1830.22 1016.61 1828.48 1017.6 1827.49 1015.86 1829.23 1014.88ZM1823.19 1020.5 1816.09 1024.15 1815.17 1022.39 1822.28 1018.73ZM1810.64 1026.75 1808.84 1027.6 1807.99 1025.79 1809.8 1024.94ZM1803.36 1030.12 1796.02 1033.27 1795.23 1031.44 1802.57 1028.28ZM1790.44 1035.55 1788.58 1036.29 1787.85 1034.43 1789.71 1033.69ZM1783.01 1038.49 1782.15 1038.83 1775.49 1041.25 1774.8 1039.38 1781.45 1036.96 1781.42 1036.97 1782.28 1036.63ZM1769.83 1043.3 1767.93 1043.93 1767.3 1042.04 1769.2 1041.4ZM1762.24 1045.83 1757.3 1047.49 1754.62 1048.3 1754.04 1046.4 1756.7 1045.58 1756.68 1045.59 1761.62 1043.94ZM1748.89 1050.07 1746.98 1050.65 1746.39 1048.74 1748.3 1048.15ZM1741.21 1052.35 1733.52 1054.53 1732.98 1052.6 1740.67 1050.43ZM1727.72 1056.09 1725.78 1056.59 1725.28 1054.66 1727.22 1054.16ZM1719.98 1058.09 1716.49 1058.99 1712.2 1060.01 1711.74 1058.06 1716.02 1057.05 1716 1057.05 1719.48 1056.15ZM1706.36 1061.38 1704.42 1061.84 1703.96 1059.9 1705.91 1059.44ZM1698.55 1063.15 1690.73 1064.82 1690.31 1062.87 1698.13 1061.2ZM1684.83 1066.01 1682.86 1066.37 1682.5 1064.4 1684.47 1064.04ZM1676.97 1067.45 1669.11 1068.88 1668.75 1066.92 1676.61 1065.48ZM1663.22 1069.96 1661.25 1070.32 1660.89 1068.35 1662.86 1067.99ZM1655.31 1071.35 1647.4 1072.47 1647.11 1070.5 1655.03 1069.37ZM1641.47 1073.31 1639.49 1073.6 1639.2 1071.63 1641.18 1071.34ZM1633.55 1074.44 1625.64 1075.57 1625.36 1073.59 1633.27 1072.46ZM1619.64 1076.2 1617.65 1076.41 1617.45 1074.42 1619.43 1074.21ZM1611.69 1077.02 1603.74 1077.84 1603.53 1075.85 1611.48 1075.03ZM1597.78 1078.45 1595.79 1078.66 1595.58 1076.67 1597.57 1076.46ZM1589.78 1079.15 1581.8 1079.65 1581.68 1077.65 1589.65 1077.15ZM1575.83 1080.01 1573.83 1080.14 1573.7 1078.15 1575.7 1078.03ZM1567.85 1080.51 1560.18 1081 1559.83 1081 1559.79 1079.01 1560.11 1079.01 1560.07 1079.01 1567.72 1078.53ZM1553.83 1081.13 1551.84 1081.17 1551.8 1079.18 1553.79 1079.14ZM1545.84 1081.3 1539.1 1081.45 1539.06 1079.46 1545.8 1079.31ZM1540.55 1087.08 1527.1 1080.7 1540.27 1073.76Z" transform="matrix(1.0009 0 0 1 0.201659 0.862891)"/><path d="M0-27.9654 215.234-27.9654 215.234 6.99136 0 6.99136Z" fill="#FFFFFF" fill-rule="evenodd" transform="matrix(1.00089 0 0 1 1632.2 1041.71)"/><text font-family="Arial,Arial_MSFontService,sans-serif" font-weight="400" font-size="32" transform="matrix(0.999659 0 0 0.998766 1632.2 1042)">unocs</text><text font-family="Arial,Arial_MSFontService,sans-serif" font-weight="400" font-size="32" transform="matrix(0.999659 0 0 0.998766 1717.18 1042)">:</text><text font-family="Arial,Arial_MSFontService,sans-serif" font-weight="400" font-size="32" transform="matrix(0.999659 0 0 0.998766 1726.17 1042)">hasRisik</text><path d="M1572.54 553.651C1572.54 548.779 1576.49 544.829 1581.36 544.829L1931.26 544.829C1936.14 544.829 1940.08 548.779 1940.08 553.651L1940.08 588.941C1940.08 593.814 1936.14 597.764 1931.26 597.764L1581.36 597.764C1576.49 597.764 1572.54 593.814 1572.54 588.941Z" stroke="#FFFFFF" stroke-width="0.665926" stroke-miterlimit="8" fill="#575454" fill-rule="evenodd" transform="matrix(1.0009 0 0 1 0.201659 0.862891)"/><text fill="#FFFFFF" font-family="Arial,Arial_MSFontService,sans-serif" font-weight="400" font-size="32" transform="matrix(0.999659 0 0 0.998766 1622.3 583)">unocs</text><text fill="#FFFFFF" font-family="Arial,Arial_MSFontService,sans-serif" font-weight="400" font-size="32" transform="matrix(0.999659 0 0 0.998766 1707.27 583)">:</text><text fill="#FFFFFF" font-family="Arial,Arial_MSFontService,sans-serif" font-weight="400" font-size="32" transform="matrix(0.999659 0 0 0.998766 1716.27 583)">HazardZone</text><path d="M0.0241218-0.998607 8.01298-0.805633 7.96473 1.19158-0.0241218 0.998607ZM14.0046-0.660902 14.7969-0.641765 22.0241-0.128884 21.8827 1.8639 14.6788 1.35267 14.7253 1.35489 13.9564 1.33631ZM28.0024 0.295373 29.4766 0.399991 35.9908 1.15768 35.76 3.1421 29.2681 2.387 29.3128 2.39119 27.861 2.28816ZM41.9441 1.8501 43.924 2.0804 49.889 3.04216 49.5709 5.01448 43.6278 4.05623 43.6713 4.06227 41.7133 3.83452ZM55.8059 3.9962 58.0247 4.35395 63.6925 5.52637 63.2878 7.48274 57.6416 6.3148 57.6849 6.32277 55.4879 5.96853ZM69.5616 6.74043 71.664 7.17532 77.3716 8.62762 76.879 10.5637 71.1932 9.11698 71.2373 9.12712 69.157 8.69681ZM83.1799 10.1055 84.7276 10.4993 90.8879 12.3822 90.3039 14.2927 84.1663 12.4169 84.212 12.4296 82.6872 12.0416ZM96.6195 14.134 97.1012 14.2813 104.188 16.8511 103.507 18.7293 96.4442 16.1681 96.4928 16.1843 96.0356 16.0446ZM109.849 18.9815 117.194 22.1293 116.408 23.9655 109.062 20.8179ZM122.659 24.7378 128.944 27.9328 129.814 28.464 128.773 30.169 127.936 29.6581 128.004 29.696 121.755 26.5186ZM134.929 31.5877 137.422 33.1101 141.552 36.213 140.353 37.8103 136.261 34.7362 136.34 34.79 133.888 33.2927ZM146.289 40.019 147.744 41.3287 150.491 44.1732 151.905 45.8963 150.362 47.1642 148.972 45.4722 149.026 45.5321 146.331 42.7416 146.381 42.79 144.953 41.5036ZM155.384 51.0044 156.432 52.9774 157.586 55.9915 158.217 58.7083 156.272 59.1608 155.656 56.511 155.696 56.642 154.588 53.7492 154.638 53.8601 153.619 51.9409ZM158.749 64.8255 158.757 64.9308 158.734 64.7827 159.409 67.6869 159.369 67.5558 160.477 70.4486 160.427 70.3377 161.274 71.9329 159.509 72.8696 158.633 71.2203 157.478 68.2063 156.771 65.162 156.756 64.9817ZM164.471 76.7502 166.093 78.7256 166.039 78.6657 168.734 81.4562 168.684 81.4077 169.84 82.4488 168.503 83.9335 167.321 82.869 164.574 80.0245 162.927 78.0181ZM174.419 86.1672 178.805 89.4615 178.725 89.4076 180.865 90.7139 179.823 92.4189 177.644 91.0877 173.219 87.7646ZM185.979 93.8375 187.129 94.5396 187.061 94.5016 192.984 97.5128 192.079 99.2937 186.121 96.2648 184.938 95.5425ZM198.32 100.087 205.666 103.235 204.879 105.071 197.533 101.924ZM211.213 105.344 218.621 108.03 218.572 108.014 218.679 108.045 218.095 109.956 217.964 109.916 210.532 107.222ZM224.411 109.797 230.899 111.781 230.853 111.768 232.022 112.066 231.53 114.001 230.337 113.699 223.826 111.708ZM237.831 113.544 243.872 115.081 243.828 115.071 245.549 115.426 245.144 117.383 243.401 117.022 237.338 115.479ZM251.418 116.641 257.423 117.882 257.38 117.874 259.215 118.171 258.897 120.143 257.04 119.844 251.014 118.596ZM265.132 119.125 271.438 120.142 271.394 120.136 272.988 120.32 272.757 122.305 271.141 122.117 264.814 121.097ZM278.94 121.013 285.797 121.81 285.752 121.806 286.839 121.883 286.697 123.876 285.588 123.798 278.71 122.998ZM292.816 122.308 300.386 122.845 300.34 122.842 300.742 122.852 300.693 124.85 300.268 124.84 292.675 124.3ZM301.911 117.218 315.065 124.198 301.589 130.534Z" transform="matrix(-1.83861e-16 -1 -1.00089 1.83698e-16 1881.91 913.194)"/><path d="M0-27.9654 240.203-27.9654 240.203 6.99136 0 6.99136Z" fill="#FFFFFF" fill-rule="evenodd" transform="matrix(1.00089 0 0 1 1570.35 668.891)"/><text font-family="Arial,Arial_MSFontService,sans-serif" font-weight="400" font-size="32" transform="matrix(0.999659 0 0 0.998766 1570.35 669)">dicp</text><text font-family="Arial,Arial_MSFontService,sans-serif" font-weight="400" font-size="32" transform="matrix(0.999659 0 0 0.998766 1627.33 669)">:</text><text font-family="Arial,Arial_MSFontService,sans-serif" font-weight="400" font-size="32" transform="matrix(0.999659 0 0 0.998766 1636.32 669)">hasLocation</text><path d="M1571.71 571.634 1553.57 571.507 1536 571.148 1527.6 570.891 1519.56 570.588 1511.94 570.245 1504.83 569.863 1498.27 569.449 1492.36 569.004 1487.16 568.535 1482.73 568.043 1479.14 567.532 1476.43 566.998 1474.53 566.383 1473.81 565.697 1473.25 565.167 1473.63 565.394 1472.01 564.867 1472.13 564.897 1469.5 564.379 1469.55 564.388 1466 563.884 1466.03 563.887 1461.63 563.398 1461.65 563.4 1456.47 562.933 1456.49 562.934 1450.58 562.49 1450.59 562.491 1444.06 562.078 1444.07 562.078 1436.96 561.697 1436.97 561.697 1429.36 561.355 1429.37 561.355 1421.33 561.052 1421.34 561.053 1412.95 560.796 1412.96 560.796 1395.4 560.437 1395.41 560.438 1389.26 560.394 1389.28 558.396 1395.43 558.439 1413.01 558.799 1421.41 559.056 1429.45 559.358 1437.06 559.702 1444.18 560.083 1450.73 560.498 1456.64 560.942 1461.84 561.412 1466.27 561.903 1469.86 562.414 1472.57 562.949 1474.46 563.563 1475.19 564.249 1475.74 564.779 1475.36 564.553 1476.99 565.079 1476.88 565.049 1479.5 565.566 1479.45 565.558 1482.99 566.063 1482.96 566.059 1487.37 566.548 1487.35 566.546 1492.53 567.014 1492.52 567.013 1498.41 567.456 1498.4 567.455 1504.95 567.869 1504.94 567.869 1512.05 568.249 1512.04 568.249 1519.64 568.592 1519.64 568.592 1527.67 568.894 1527.66 568.893 1536.05 569.15 1536.04 569.15 1553.6 569.51 1553.59 569.509 1571.72 569.636ZM1390.56 566.064 1377.28 559.311 1390.65 552.745Z" transform="matrix(1.0009 0 0 1 0.201659 0.862891)"/><path d="M1009.24 531.845C1009.24 524.123 1015.51 517.863 1023.23 517.863L1363.8 517.863C1371.52 517.863 1377.78 524.123 1377.78 531.845L1377.78 587.776C1377.78 595.499 1371.52 601.759 1363.8 601.759L1023.23 601.759C1015.51 601.759 1009.24 595.499 1009.24 587.776Z" stroke="#FFFFFF" stroke-width="0.665926" stroke-miterlimit="8" fill="#575454" fill-rule="evenodd" transform="matrix(1.0009 0 0 1 0.201659 0.862891)"/><text fill="#FFFFFF" font-family="Arial,Arial_MSFontService,sans-serif" font-weight="400" font-size="32" transform="matrix(0.999659 0 0 0.998766 1123.27 553)">bot</text><text fill="#FFFFFF" font-family="Arial,Arial_MSFontService,sans-serif" font-weight="400" font-size="32" transform="matrix(0.999659 0 0 0.998766 1166.25 553)">:</text><text fill="#FFFFFF" font-family="Arial,Arial_MSFontService,sans-serif" font-weight="400" font-size="32" transform="matrix(0.999659 0 0 0.998766 1175.25 553)">ZONE</text><text fill="#FFFFFF" font-family="Arial,Arial_MSFontService,sans-serif" font-weight="400" font-size="32" transform="matrix(0.999659 0 0 0.998766 1088.44 592)">ifc</text><text fill="#FFFFFF" font-family="Arial,Arial_MSFontService,sans-serif" font-weight="400" font-size="32" transform="matrix(0.999659 0 0 0.998766 1121.43 592)">:</text><text fill="#FFFFFF" font-family="Arial,Arial_MSFontService,sans-serif" font-weight="400" font-size="32" transform="matrix(0.999659 0 0 0.998766 1130.43 592)">SpatialZone</text><path d="M0.209242 0.976737-0.914144 1.2174-0.587982 1.08395-1.70918 1.79579-1.52266 1.64288-2.63946 2.81071-2.53927 2.68773-3.64949 4.29634-3.5932 4.20457-4.51874 5.91388-6.27553 4.96265-5.32433 3.20592-4.1383 1.48745-2.88254 0.174325-1.50767-0.698581-0.209242-0.976737ZM-6.7749 11.3176-6.80685 11.4018-6.79217 11.3604-7.8541 14.5802-7.83963 14.5322-9.03641 18.8814-10.9627 18.3513-9.75919 13.9781-8.68254 10.7138-8.6428 10.609ZM-10.4876 24.6447-11.8781 30.8603-11.8709 30.8251-12.1679 32.4196-14.1319 32.0539-13.8316 30.4417-12.4372 24.2086ZM-13.2652 38.3118-13.7467 40.8973-13.7419 40.8693-14.5734 46.1657-16.5471 45.8558-15.7134 40.5455-15.2293 37.946ZM-15.4983 52.0633-16.5504 59.9849-18.5309 59.7219-17.4787 51.8003ZM-17.3006 65.9102-18.1898 73.8517-20.1752 73.6295-19.2861 65.6879ZM-18.8049 79.7946-19.5465 87.7513-21.5357 87.5659-20.794 79.6092ZM-20.0511 93.7058-20.655 101.674-22.647 101.524-22.0433 93.5549ZM-21.0648 107.637-21.536 115.614-23.5303 115.496-23.0591 107.519ZM-21.8612 121.582-22.2014 129.566-24.1973 129.481-23.8571 121.497ZM-22.4442 135.529-22.5831 143.519-24.5806 143.485-24.4417 135.495ZM-22.6873 149.511-22.8262 157.501-24.8237 157.466-24.6848 149.476ZM-22.9305 163.494-22.9746 166.037-22.9745 166.008-22.9137 171.456-24.9113 171.478-24.9723 166.016-24.9279 163.459ZM-22.8467 177.449-22.7574 185.44-24.755 185.462-24.8444 177.472ZM-22.6904 191.432-22.6284 196.975-22.6287 196.959-22.5617 199.407-24.5588 199.461-24.6261 197.005-24.6881 191.454ZM-22.3976 205.397-22.2131 212.137-22.2135 212.127-22.166 213.374-24.1624 213.45-24.21 212.198-24.3947 205.452ZM-21.9387 219.364-21.651 226.942-21.6514 226.931-21.6317 227.338-23.6271 227.435-23.6472 227.022-23.935 219.44ZM-21.34 233.325-20.9536 241.259-20.9543 241.248-20.9514 241.295-22.9456 241.415-22.9488 241.362-23.3355 233.422ZM-20.593 247.277-20.1323 254.968-20.133 254.956-20.1124 255.243-22.1051 255.385-22.1262 255.093-22.5872 247.397ZM-19.6823 261.22-19.1983 267.946-19.1993 267.933-19.0931 269.176-21.0836 269.346-21.1904 268.096-21.6749 261.364ZM-18.5832 275.148-18.1629 280.072-18.1643 280.057-17.8582 283.09-19.8459 283.291-20.1528 280.25-20.5739 275.318ZM-17.2566 289.054-17.0376 291.223-17.0396 291.205-16.349 296.974-18.3326 297.212-19.0244 291.433-19.2442 289.255ZM-15.6008 302.897-14.5636 310.11-14.5687 310.078-14.4461 310.771-16.4134 311.119-16.5388 310.41-17.5783 303.181ZM-13.4023 316.673-13.2389 317.597-13.2453 317.564-12.5628 320.784-12.5696 320.754-11.8771 323.594-11.8873 323.555-11.6563 324.361-13.5766 324.912-13.8133 324.087-14.5141 321.212-15.2032 317.961-15.3696 317.021ZM-9.67767 329.715-9.15634 330.563-9.30536 330.375-8.58472 331.087-8.97085 330.85-8.23714 331.094-7.27726 331.44-6.31161 332.473-5.50399 333.896-4.75147 335.733-4.7204 335.829-6.62237 336.44-6.64153 336.381-6.61488 336.454-7.32846 334.712-7.27281 334.827-7.99064 333.563-7.85159 333.752-8.57223 332.981-8.18165 333.238-8.9037 332.978-8.88049 332.986-9.82319 332.672-10.7952 331.711-11.3796 330.76ZM-3.08652 341.685-2.61171 343.793-1.92434 347.304-1.53187 349.573-3.50043 349.914-3.89103 347.655-3.88703 347.677-4.56958 344.192-4.56379 344.219-5.03551 342.124ZM-0.581912 355.531 0.470094 363.452-1.51031 363.716-2.56232 355.793ZM1.16715 369.427 1.89597 376.018 2.02366 377.389 0.0344822 377.574-0.0924083 376.213-0.0906681 376.23-0.818547 369.646ZM2.57977 383.356 3.02411 388.124 3.27698 391.331 1.28536 391.488 1.03306 388.288 1.03428 388.303 0.590599 383.542ZM3.74812 397.306 4.06156 401.281 4.3279 405.288 2.33451 405.421 2.06857 401.42 2.06946 401.432 1.7565 397.463ZM4.72538 411.269 4.99718 415.358 5.21287 419.256 3.21812 419.366 3.00273 415.474 3.00341 415.485 2.73198 411.401ZM5.544 425.241 5.81974 430.223 5.95503 433.231 3.95925 433.321 3.82419 430.318 3.8247 430.328 3.54925 425.35ZM6.22436 439.218 6.51803 445.746 6.5694 447.211 4.57283 447.282 4.52163 445.821 4.52202 445.831 4.22858 439.308ZM6.77942 453.202 7.05944 461.188 5.06287 461.258 4.78285 453.272ZM7.21717 467.189 7.41923 475.178 5.42207 475.228 5.22002 467.24ZM7.52714 481.184 7.60963 489.176 5.61194 489.197 5.52945 481.205ZM7.67149 495.168 7.71922 499.792 5.72153 499.813 5.6738 495.189ZM13.3656 498.402 6.8441 511.789 0.0476611 498.54Z" transform="matrix(-6.1287e-17 -1 -1.00089 6.12326e-17 1881.98 958.537)"/><path d="M0-27.9654 227.719-27.9654 227.719 6.99136 0 6.99136Z" fill="#FFFFFF" fill-rule="evenodd" transform="matrix(1.00089 0 0 1 1398.64 997.611)"/><path d="M0-27.9654 117.188-27.9654 117.188 6.99136 2.53999e-06 6.99136Z" fill="#FFFFFF" fill-rule="evenodd" transform="matrix(1.00089 0 0 1 1453.97 1036.56)"/><text font-family="Arial,Arial_MSFontService,sans-serif" font-weight="400" font-size="32" transform="matrix(0.999659 0 0 0.998766 1398.64 998)">unocs</text><text font-family="Arial,Arial_MSFontService,sans-serif" font-weight="400" font-size="32" transform="matrix(0.999659 0 0 0.998766 1483.61 998)">:</text><text font-family="Arial,Arial_MSFontService,sans-serif" font-weight="400" font-size="32" transform="matrix(0.999659 0 0 0.998766 1492.61 998)">isCaused</text><text font-family="Arial,Arial_MSFontService,sans-serif" font-weight="400" font-size="32" transform="matrix(0.999659 0 0 0.998766 1453.97 1037)">ByEntity</text><path d="M1009.24 932.02C1009.24 926.688 1013.57 922.365 1018.9 922.365L1359.14 922.365C1364.47 922.365 1368.79 926.688 1368.79 932.02L1368.79 970.638C1368.79 975.97 1364.47 980.293 1359.14 980.293L1018.9 980.293C1013.57 980.293 1009.24 975.97 1009.24 970.638Z" stroke="#FFFFFF" stroke-width="0.665926" stroke-miterlimit="8" fill="#575454" fill-rule="evenodd" transform="matrix(1.0009 0 0 1 0.201659 0.862891)"/><text fill="#FFFFFF" font-family="Arial,Arial_MSFontService,sans-serif" font-weight="400" font-size="32" transform="matrix(0.999659 0 0 0.998766 1116.02 964)">dice</text><text fill="#FFFFFF" font-family="Arial,Arial_MSFontService,sans-serif" font-weight="400" font-size="32" transform="matrix(0.999659 0 0 0.998766 1173 964)">:</text><text fill="#FFFFFF" font-family="Arial,Arial_MSFontService,sans-serif" font-weight="400" font-size="32" transform="matrix(0.999659 0 0 0.998766 1182 964)">Entity</text><path d="M1009.24 823.82C1009.24 818.671 1013.42 814.497 1018.56 814.497L1359.48 814.497C1364.62 814.497 1368.79 818.671 1368.79 823.82L1368.79 861.106C1368.79 866.255 1364.62 870.429 1359.48 870.429L1018.56 870.429C1013.42 870.429 1009.24 866.255 1009.24 861.106Z" stroke="#FFFFFF" stroke-width="0.665926" stroke-miterlimit="8" fill="#575454" fill-rule="evenodd" transform="matrix(1.0009 0 0 1 0.201659 0.862891)"/><text fill="#FFFFFF" font-family="Arial,Arial_MSFontService,sans-serif" font-style="italic" font-weight="400" font-size="32" transform="matrix(0.999659 0 0 0.998766 1104.92 855)">dicp</text><text fill="#FFFFFF" font-family="Arial,Arial_MSFontService,sans-serif" font-style="italic" font-weight="400" font-size="32" transform="matrix(0.999659 0 0 0.998766 1163.9 855)">:</text><text fill="#FFFFFF" font-family="Arial,Arial_MSFontService,sans-serif" font-style="italic" font-weight="400" font-size="32" transform="matrix(0.999659 0 0 0.998766 1172.9 855)">Activity</text><path d="M0.209376 0.976708-0.913988 1.21753-0.587706 1.08394-1.70888 1.79625-1.52239 1.64326-2.63917 2.81186-2.53904 2.68885-3.64924 4.29851-3.593 4.20675-4.69443 6.24228-4.6606 6.1736-5.75106 8.61978-5.72938 8.56717-6.80668 11.4088-6.79201 11.3674-7.85394 14.5893-7.83949 14.5414-9.90848 22.065-9.89679 22.0181-11.878 30.88-11.8708 30.8449-13.7466 40.9236-13.7418 40.8957-15.4949 52.0695-15.4915 52.0462-17.1039 64.1934-17.1015 64.173-18.5559 77.1719-18.554 77.1535-19.8329 90.8825-19.8314 90.8652-20.9172 105.203-20.9161 105.186-21.7911 120.01-21.7902 119.994-22.437 135.183-22.4362 135.158-22.9747 166.144-22.9749 166.101-22.5739 181.656-22.5765 181.606-21.4077 197.038-21.4125 196.991-19.5273 212.18-19.5342 212.133-16.9835 226.958-16.9925 226.912-13.8277 241.249-13.8391 241.202-10.1113 254.931-10.1256 254.883-5.88596 267.882-5.90403 267.831-1.20369 279.979-1.22686 279.924 3.88293 291.097 3.85252 291.036 9.32061 301.115 9.27948 301.046 15.0547 309.908 14.9972 309.829 21.0283 317.353 20.9692 317.285 24.0648 320.507 24.0147 320.458 27.155 323.301 27.094 323.25 30.2727 325.696 30.1984 325.644 33.409 327.679 33.319 327.628 36.5553 329.238 36.448 329.192 39.7034 330.361 39.5787 330.325 42.8471 331.037 42.7075 331.017 45.9853 331.258 49.3389 331.525 52.7491 332.33 56.1269 333.644 59.4648 335.443 62.7582 337.704 66.0034 340.409 69.1974 343.54 72.3363 347.079 75.4159 351.01 78.4379 355.325 84.2508 364.988 89.7507 375.969 94.8841 388.129 99.6023 401.338 103.856 415.467 107.595 430.383 110.768 445.958 113.326 462.059 115.217 478.557 116.388 495.319 116.504 500.209 114.508 500.256 114.392 495.39 114.394 495.436 113.225 478.718 113.229 478.762 111.343 462.308 111.349 462.351 108.799 446.293 108.807 446.335 105.641 430.804 105.651 430.848 101.924 415.975 101.936 416.02 97.6966 401.938 97.7125 401.986 93.0121 388.828 93.0325 388.88 87.9228 376.776 87.9499 376.834 82.4818 365.917 82.519 365.985 76.7439 356.385 76.7816 356.443 73.7949 352.178 73.8268 352.221 70.7824 348.336 70.8215 348.383 67.7259 344.892 67.7739 344.943 64.6337 341.865 64.6934 341.919 61.5147 339.269 61.5888 339.325 58.3781 337.119 58.4698 337.175 55.2336 335.432 55.3453 335.483 52.0898 334.217 52.2224 334.259 48.9541 333.487 49.1043 333.511 45.8297 333.249 45.8358 333.25 42.4906 333.005 39.0898 332.262 35.718 331.053 32.3831 329.394 29.0903 327.307 25.8441 324.809 22.6483 321.916 19.4976 318.637 13.4077 311.041 7.58378 302.104 2.08027 291.959-3.0561 280.727-7.77693 268.527-12.0327 255.479-15.7734 241.702-18.9484 227.319-21.507 212.448-23.3981 197.212-24.5704 181.731-24.9725 166.131-24.4335 135.11-23.7858 119.901-22.9099 105.06-21.8228 90.7057-20.5423 76.959-19.0857 63.9406-17.4703 51.7715-15.7133 40.5721-13.8316 30.4617-11.8412 21.5586-9.75915 13.9876-8.68252 10.7212-7.58736 7.83236-6.46972 5.32521-5.32441 3.2086-4.13844 1.48908-2.88275 0.175147-1.50786-0.698353-0.209376-0.976708ZM122.131 498.743 115.791 512.216 108.817 499.059Z" transform="matrix(-6.1287e-17 -1 -1.00089 6.12326e-17 1882.41 958.618)"/><path d="M2281.66 564.639C2281.66 559.214 2286.05 554.817 2291.48 554.817L2551.49 554.817C2556.92 554.817 2561.31 559.214 2561.31 564.639L2561.31 603.923C2561.31 609.347 2556.92 613.744 2551.49 613.744L2291.48 613.744C2286.05 613.744 2281.66 609.347 2281.66 603.923Z" stroke="#FFFFFF" stroke-width="0.665926" stroke-miterlimit="8" fill="#575454" fill-rule="evenodd" transform="matrix(1.0009 0 0 1 0.201659 0.862891)"/><text fill="#FFFFFF" font-family="Arial,Arial_MSFontService,sans-serif" font-weight="400" font-size="32" transform="matrix(0.999659 0 0 0.998766 2306.7 596)">dice</text><text fill="#FFFFFF" font-family="Arial,Arial_MSFontService,sans-serif" font-weight="400" font-size="32" transform="matrix(0.999659 0 0 0.998766 2363.68 596)">:</text><text fill="#FFFFFF" font-family="Arial,Arial_MSFontService,sans-serif" font-weight="400" font-size="32" transform="matrix(0.999659 0 0 0.998766 2372.68 596)">TimeInstant</text><path d="M1980.54 646.31 1981 643.263 1982.38 640.134 1983.55 638.541 1985.16 639.717 1984.06 641.224 1984.17 641.04 1982.88 643.948 1982.95 643.691 1982.52 646.604ZM1987.8 633.96 1991.38 631.187 1994.38 629.268 1995.45 630.951 1992.49 632.845 1992.57 632.793 1989.03 635.538ZM1999.64 626.262 2001.06 625.49 2006.87 622.739 2007.73 624.545 2001.94 627.284 2001.99 627.259 2000.6 628.017ZM2012.44 620.408 2013.44 619.989 2019.95 617.56 2020.65 619.431 2014.16 621.854 2014.2 621.84 2013.21 622.252ZM2025.66 615.615 2028.34 614.709 2033.3 613.193 2033.88 615.104 2028.94 616.616 2028.96 616.607 2026.29 617.508ZM2039.07 611.492 2045.53 609.688 2046.79 609.365 2047.29 611.301 2046.03 611.621 2046.06 611.615 2039.61 613.416ZM2052.6 607.88 2054.92 607.288 2060.38 606.003 2060.84 607.948 2055.39 609.23 2055.4 609.225 2053.09 609.815ZM2066.25 604.655 2074.06 602.968 2074.48 604.92 2066.67 606.607ZM2079.95 601.779 2085.93 600.59 2087.81 600.248 2088.17 602.213 2086.3 602.554 2086.31 602.551 2080.34 603.739ZM2093.7 599.171 2097.13 598.545 2101.59 597.797 2101.92 599.767 2097.47 600.514 2097.48 600.512 2094.06 601.136ZM2107.49 596.806 2108.71 596.603 2115.41 595.573 2115.71 597.548 2109.02 598.576 2109.03 598.573 2107.83 598.776ZM2121.36 594.674 2129.28 593.615 2129.54 595.595 2121.62 596.654ZM2135.21 592.821 2143.14 591.762 2143.4 593.742 2135.48 594.801ZM2149.11 591.054 2157.05 590.191 2157.27 592.176 2149.32 593.04ZM2163.02 589.543 2170.96 588.68 2171.18 590.665 2163.23 591.529ZM2176.95 588.16 2184.92 587.486 2185.09 589.477 2177.12 590.152ZM2190.89 586.98 2198.23 586.359 2198.87 586.319 2199 588.313 2198.36 588.352 2198.38 588.35 2191.06 588.971ZM2204.85 585.953 2212.83 585.466 2212.95 587.46 2204.98 587.948ZM2218.82 585.1 2225.7 584.68 2226.82 584.638 2226.89 586.634 2225.79 586.675 2225.81 586.674 2218.94 587.095ZM2232.81 584.415 2240.79 584.117 2240.87 586.114 2232.88 586.412ZM2246.78 583.894 2253.61 583.639 2254.79 583.624 2254.81 585.622 2253.65 585.637 2253.67 585.635 2246.85 585.89ZM2260.78 583.548 2268.77 583.446 2268.8 585.444 2260.81 585.546ZM2268.34 577.791 2281.75 584.281 2268.51 591.109Z" transform="matrix(1.0009 0 0 1 0.201659 0.862891)"/><path d="M1999.01 459.767C1999.01 454.343 2003.4 449.947 2008.83 449.947L2300.8 449.947C2306.23 449.947 2310.62 454.343 2310.62 459.767L2310.62 499.052C2310.62 504.477 2306.23 508.874 2300.8 508.874L2008.83 508.874C2003.4 508.874 1999.01 504.477 1999.01 499.052Z" stroke="#FFFFFF" stroke-width="0.665926" stroke-miterlimit="8" fill="#575454" fill-rule="evenodd" transform="matrix(1.0009 0 0 1 0.201659 0.862891)"/><text fill="#FFFFFF" font-family="Arial,Arial_MSFontService,sans-serif" font-weight="400" font-size="32" transform="matrix(0.999659 0 0 0.998766 2040 491)">dice</text><text fill="#FFFFFF" font-family="Arial,Arial_MSFontService,sans-serif" font-weight="400" font-size="32" transform="matrix(0.999659 0 0 0.998766 2096.99 491)">:</text><text fill="#FFFFFF" font-family="Arial,Arial_MSFontService,sans-serif" font-weight="400" font-size="32" transform="matrix(0.999659 0 0 0.998766 2105.98 491)">TimeInstant</text><path d="M1980.53 646.188 1981.04 639.66 1981.39 638.109 1983.34 638.551 1983 640.03 1983.02 639.886 1982.53 646.341ZM1982.87 632.173 1984.9 626.697 1985.94 624.678 1987.71 625.591 1986.71 627.557 1986.76 627.448 1984.75 632.868ZM1988.85 619.325 1992.1 614.408 1993.49 612.7 1995.03 613.958 1993.68 615.628 1993.74 615.548 1990.52 620.424ZM1997.37 608.027 2002.1 603.179 2003.08 602.324 2004.39 603.835 2003.43 604.662 2003.5 604.603 1998.81 609.421ZM2007.62 598.403 2007.99 598.083 2014.11 593.605 2015.29 595.217 2009.21 599.671 2009.27 599.62 2008.93 599.914ZM2019.26 590.394 2021.24 589.174 2026.36 586.549 2027.26 588.326 2022.19 590.933 2022.26 590.895 2020.31 592.094ZM2031.88 584.039 2036.02 582.307 2039.43 581.201 2040.05 583.101 2036.68 584.194 2036.76 584.166 2032.65 585.883ZM2045.24 579.436 2051.84 577.885 2053.12 577.702 2053.41 579.68 2052.17 579.857 2052.26 579.841 2045.69 581.382ZM2059.06 576.852 2059.98 576.72 2067.12 576.371 2067.22 578.367 2060.13 578.712 2060.22 578.704 2059.34 578.83ZM2073.11 576.079 2076.26 575.926 2076.17 575.935 2080.96 575.249 2081.24 577.227 2076.4 577.919 2073.21 578.075ZM2086.76 574.183 2092.05 572.938 2091.97 572.961 2094.4 572.173 2095.02 574.073 2092.55 574.874 2087.21 576.127ZM2100.01 570.316 2107.12 567.35 2107.05 567.383 2107.3 567.249 2108.21 569.026 2107.92 569.179 2100.78 572.159ZM2112.64 564.512 2114.21 563.706 2114.14 563.744 2119.44 560.475 2120.49 562.176 2115.16 565.465 2113.55 566.289ZM2124.28 557.094 2127.19 554.968 2127.13 555.019 2130.45 552.146 2131.75 553.657 2128.4 556.556 2125.46 558.706ZM2134.76 548.118 2138.16 544.641 2138.1 544.708 2140.06 542.273 2141.62 543.533 2139.61 546.003 2136.19 549.513ZM2143.64 537.595 2146.59 533.14 2146.53 533.234 2147.74 530.873 2149.52 531.787 2148.28 534.195 2145.31 538.695ZM2150.17 525.581 2152.06 519.902 2153.96 520.533 2152.07 526.211ZM2146.23 520.505 2154.87 508.375 2159.39 522.562Z" transform="matrix(1.0009 0 0 1 0.201659 0.862891)"/><path d="M0-27.9654 196.884-27.9654 196.884 6.99136-3.45439e-06 6.99136Z" fill="#FFFFFF" fill-rule="evenodd" transform="matrix(1.00089 0 0 1 1786.5 488.913)"/><text font-family="Arial,Arial_MSFontService,sans-serif" font-weight="400" font-size="32" transform="matrix(0.999659 0 0 0.998766 1786.5 489)">dicv</text><text font-family="Arial,Arial_MSFontService,sans-serif" font-weight="400" font-size="32" transform="matrix(0.999659 0 0 0.998766 1841.48 489)">:</text><text font-family="Arial,Arial_MSFontService,sans-serif" font-weight="400" font-size="32" transform="matrix(0.999659 0 0 0.998766 1850.48 489)">hasValue</text><path d="M0-27.9654 196.884-27.9654 196.884 6.99136-3.45439e-06 6.99136Z" fill="#FFFFFF" fill-rule="evenodd" transform="matrix(1.00089 0 0 1 2405.7 668.046)"/><text font-family="Arial,Arial_MSFontService,sans-serif" font-weight="400" font-size="32" transform="matrix(0.999659 0 0 0.998766 2405.7 668)">dicv</text><text font-family="Arial,Arial_MSFontService,sans-serif" font-weight="400" font-size="32" transform="matrix(0.999659 0 0 0.998766 2460.68 668)">:</text><text font-family="Arial,Arial_MSFontService,sans-serif" font-weight="400" font-size="32" transform="matrix(0.999659 0 0 0.998766 2469.68 668)">hasValue</text><path d="M0-27.9654 375.849-27.9654 375.849 6.99136-9.34717e-06 6.99136Z" fill="#FFFFFF" fill-rule="evenodd" transform="matrix(1.00089 0 0 1 1823.61 758.222)"/><text font-family="Arial,Arial_MSFontService,sans-serif" font-weight="400" font-size="32" transform="matrix(0.999659 0 0 0.998766 1823.61 758)">dicp</text><text font-family="Arial,Arial_MSFontService,sans-serif" font-weight="400" font-size="32" transform="matrix(0.999659 0 0 0.998766 1880.59 758)">:</text><text font-family="Arial,Arial_MSFontService,sans-serif" font-weight="400" font-size="32" transform="matrix(0.999659 0 0 0.998766 1889.59 758)">occupiesTimeInverval</text><path d="M2153.32 952.827 2622.73 952.827 2622.73 1208.51 2153.32 1208.51Z" stroke="#042433" stroke-width="1.99777" stroke-miterlimit="8" fill="#E8E8E8" transform="matrix(1.0009 0 0 1 0.201659 0.862891)"/><text font-family="Arial,Arial_MSFontService,sans-serif" font-weight="700" font-size="32" transform="matrix(0.999659 0 0 0.998766 2165.31 990)">Legend</text><path d="M0 33.958 56.9297 33.958 113.859 33.958 113.859 36.9543 56.9297 36.9543 0 36.9543Z" fill-rule="evenodd" transform="matrix(1.00089 0 0 1 2165.31 958.635)"/><path d="M2173.29 1025.74 2276.79 1025.74 2276.79 1027.74 2173.29 1027.74ZM2275.47 1020.08 2283.46 1026.74 2275.47 1033.39Z" transform="matrix(1.0009 0 0 1 0.201659 0.862891)"/><path d="M2175.29 1064.69 2183.28 1064.69 2183.28 1066.69 2175.29 1066.69ZM2189.27 1064.69 2197.26 1064.69 2197.26 1066.69 2189.27 1066.69ZM2203.26 1064.69 2211.25 1064.69 2211.25 1066.69 2203.26 1066.69ZM2217.25 1064.69 2225.24 1064.69 2225.24 1066.69 2217.25 1066.69ZM2231.23 1064.69 2239.22 1064.69 2239.22 1066.69 2231.23 1066.69ZM2245.21 1064.69 2253.2 1064.69 2253.2 1066.69 2245.21 1066.69ZM2259.2 1064.69 2267.19 1064.69 2267.19 1066.69 2259.2 1066.69ZM2273.18 1064.69 2278.79 1064.69 2278.79 1066.69 2273.18 1066.69ZM2277.46 1059.03 2285.45 1065.69 2277.46 1072.34Z" transform="matrix(1.0009 0 0 1 0.201659 0.862891)"/><text font-family="Arial,Arial_MSFontService,sans-serif" font-weight="400" font-size="32" transform="matrix(0.999659 0 0 0.998766 2304.34 1029)">rdfs</text><text font-family="Arial,Arial_MSFontService,sans-serif" font-weight="400" font-size="32" transform="matrix(0.999659 0 0 0.998766 2358.33 1029)">:</text><text font-family="Arial,Arial_MSFontService,sans-serif" font-weight="400" font-size="32" transform="matrix(0.999659 0 0 0.998766 2367.32 1029)">subClassOf</text><text font-family="Arial,Arial_MSFontService,sans-serif" font-weight="400" font-size="32" transform="matrix(0.999659 0 0 0.998766 2304.34 1068)">owl</text><text font-family="Arial,Arial_MSFontService,sans-serif" font-weight="400" font-size="32" transform="matrix(0.999659 0 0 0.998766 2351.33 1068)">:</text><text font-family="Arial,Arial_MSFontService,sans-serif" font-weight="400" font-size="32" transform="matrix(0.999659 0 0 0.998766 2360.33 1068)">ObjectProperty</text><text font-family="Arial,Arial_MSFontService,sans-serif" font-weight="400" font-size="32" transform="matrix(0.999659 0 0 0.998766 2304.34 1105)">owl</text><text font-family="Arial,Arial_MSFontService,sans-serif" font-weight="400" font-size="32" transform="matrix(0.999659 0 0 0.998766 2351.33 1105)">:</text><text font-family="Arial,Arial_MSFontService,sans-serif" font-weight="400" font-size="32" transform="matrix(0.999659 0 0 0.998766 2360.33 1105)">DatatypeProperty</text><text font-family="Arial,Arial_MSFontService,sans-serif" font-weight="400" font-size="32" transform="matrix(0.999659 0 0 0.998766 2304.34 1143)">rdfs</text><text font-family="Arial,Arial_MSFontService,sans-serif" font-weight="400" font-size="32" transform="matrix(0.999659 0 0 0.998766 2358.33 1143)">:</text><text font-family="Arial,Arial_MSFontService,sans-serif" font-weight="400" font-size="32" transform="matrix(0.999659 0 0 0.998766 2367.32 1143)">Class</text><text font-family="Arial,Arial_MSFontService,sans-serif" font-weight="400" font-size="32" transform="matrix(0.999659 0 0 0.998766 2304.34 1182)">rdfs</text><text font-family="Arial,Arial_MSFontService,sans-serif" font-weight="400" font-size="32" transform="matrix(0.999659 0 0 0.998766 2358.33 1182)">:</text><text font-family="Arial,Arial_MSFontService,sans-serif" font-weight="400" font-size="32" transform="matrix(0.999659 0 0 0.998766 2367.32 1182)">Literal</text><path d="M2175.29 1100.65 2183.28 1100.65 2183.28 1102.65 2175.29 1102.65ZM2189.27 1100.65 2191.27 1100.65 2191.27 1102.65 2189.27 1102.65ZM2197.26 1100.65 2205.25 1100.65 2205.25 1102.65 2197.26 1102.65ZM2211.25 1100.65 2213.25 1100.65 2213.25 1102.65 2211.25 1102.65ZM2219.25 1100.65 2227.24 1100.65 2227.24 1102.65 2219.25 1102.65ZM2233.23 1100.65 2235.23 1100.65 2235.23 1102.65 2233.23 1102.65ZM2241.22 1100.65 2249.21 1100.65 2249.21 1102.65 2241.22 1102.65ZM2255.2 1100.65 2257.2 1100.65 2257.2 1102.65 2255.2 1102.65ZM2263.19 1100.65 2271.18 1100.65 2271.18 1102.65 2263.19 1102.65ZM2277.17 1100.65 2278.79 1100.65 2278.79 1102.65 2277.17 1102.65ZM2277.46 1094.99 2285.45 1101.65 2277.46 1108.3Z" transform="matrix(1.0009 0 0 1 0.201659 0.862891)"/><path d="M2175.79 1120.62C2175.79 1117.04 2178.7 1114.13 2182.28 1114.13L2283.16 1114.13C2286.74 1114.13 2289.65 1117.04 2289.65 1120.62L2289.65 1146.59C2289.65 1150.18 2286.74 1153.08 2283.16 1153.08L2182.28 1153.08C2178.7 1153.08 2175.79 1150.18 2175.79 1146.59Z" stroke="#FFFFFF" stroke-width="0.665926" stroke-miterlimit="8" fill="#575454" fill-rule="evenodd" transform="matrix(1.0009 0 0 1 0.201659 0.862891)"/><text fill="#FFFFFF" font-family="Arial,Arial_MSFontService,sans-serif" font-style="italic" font-weight="400" font-size="32" transform="matrix(0.999659 0 0 0.998766 2194.44 1145)">Class</text><path d="M2175.79 1155.08 2290.65 1155.08 2290.65 1193.03 2175.79 1193.03Z" stroke="#000000" stroke-width="0.665926" stroke-miterlimit="8" fill="#FFFFFF" transform="matrix(1.0009 0 0 1 0.201659 0.862891)"/><text font-family="Arial,Arial_MSFontService,sans-serif" font-weight="400" font-size="32" transform="matrix(0.999659 0 0 0.998766 2191.23 1186)">Literal</text><path d="M0-27.9654 186.602-27.9654 186.602 6.99136-5.07998e-06 6.99136Z" fill="#FFFFFF" fill-rule="evenodd" transform="matrix(1.00089 0 0 1 2003.16 559.724)"/><text font-family="Arial,Arial_MSFontService,sans-serif" font-weight="400" font-size="32" transform="matrix(0.999659 0 0 0.998766 2003.16 560)">dicp</text><text font-family="Arial,Arial_MSFontService,sans-serif" font-weight="400" font-size="32" transform="matrix(0.999659 0 0 0.998766 2060.14 560)">:</text><text font-family="Arial,Arial_MSFontService,sans-serif" font-weight="400" font-size="32" transform="matrix(0.999659 0 0 0.998766 2069.14 560)">hasStart</text><path d="M0.00192117-0.998896 9.5416-0.980548 13.9338-0.959483 17.8685-0.932163 21.1971-0.899811 23.7664-0.863661 25.4426-0.824482 26.0484-0.783171 26.632-0.743345 26.5873-0.745391 28.2365-0.706828 28.2272-0.707001 30.7898-0.670946 30.7854-0.670997 34.1091-0.638697 38.0388-0.611425 38.0353-0.611442 39.9775-0.604872 39.9707 1.39291 38.0267 1.38634 34.0897 1.359 30.7638 1.32668 28.1945 1.29054 26.5183 1.25133 25.9125 1.20999 25.329 1.1702 25.3735 1.17225 23.7244 1.1337 23.7337 1.13387 21.1711 1.09781 21.1755 1.09787 17.8546 1.06558 13.9242 1.03829 9.53776 1.01724-0.00192117 0.998896ZM38.6604-6.26892 51.9608 0.426826 38.624 7.04967Z" transform="matrix(1.83861e-16 1 1.00089 -1.83698e-16 1189.8 870.792)"/><path d="M0.104986-0.993366 2.88744-0.699295 5.74319 0.195197 8.55216 1.64431 11.3112 3.61654 14.022 6.08638 16.6861 9.03284 19.304 12.4374 21.8748 16.2828 24.3961 20.5519 26.8645 25.2279 29.2764 30.2936 31.6306 35.7387 36.1295 47.6561 40.332 60.8632 44.195 75.2111 47.6779 90.5582 50.7396 106.763 53.3383 123.682 55.4326 141.176 56.9805 159.097 57.94 177.308 58.2692 195.662 57.9477 214.017 57.0105 232.226 55.4986 250.148 53.4533 267.639 50.915 284.558 47.9247 300.762 44.5229 316.109 40.7498 330.457 36.6454 343.662 32.2514 355.58 29.9522 361.024 27.5965 366.09 25.1856 370.765 22.7232 375.034 20.2122 378.879 17.6551 382.284 15.0043 385.285 12.6776 386.898 11.5395 385.256 13.7667 383.712 13.587 383.872 16.1315 380.991 16.0814 381.052 18.5951 377.705 18.5575 377.759 21.0353 373.965 21.0064 374.012 23.4433 369.787 23.4208 369.828 25.8116 365.192 25.7936 365.229 28.1332 360.198 28.1188 360.23 30.402 354.824 30.385 354.867 34.762 342.996 34.7454 343.045 38.8355 329.884 38.8234 329.926 42.5859 315.62 42.5767 315.658 45.9704 300.348 45.9633 300.383 48.9473 284.213 48.9417 284.246 51.4751 267.36 51.4708 267.392 53.5125 249.932 53.5093 249.964 55.0183 232.074 55.0161 232.107 55.9517 213.931 55.9505 213.965 56.2714 195.645 56.2715 195.68 55.9429 177.361 55.9441 177.396 54.9863 159.219 54.9887 159.253 53.4436 141.363 53.447 141.396 51.3566 123.937 51.3611 123.97 48.7675 107.083 48.7733 107.117 45.7182 90.947 45.7257 90.9826 42.2511 75.6726 42.2607 75.7113 38.4086 61.4043 38.4213 61.4475 34.2338 48.287 34.2511 48.337 29.7699 36.4663 29.7875 36.51 27.4499 31.1031 27.4649 31.136 25.0696 26.1053 25.0881 26.1423 22.6404 21.5057 22.6637 21.5473 20.1688 17.3227 20.1984 17.3699 17.6616 13.5752 17.7001 13.629 15.1266 10.2822 15.1775 10.3432 12.5726 7.46212 12.6407 7.53055 10.0094 5.13314 10.1013 5.20741 7.44914 3.31156 7.57205 3.38666 4.90412 2.01031 5.06351 2.07581 2.38509 1.23686 2.57867 1.27699-0.104986 0.993366ZM16.2218 391.481 1.33186 391.325 10.3902 379.507Z" transform="matrix(-1.00089 1.22465e-16 1.22574e-16 1 1011.19 560.174)"/><path d="M0.0554508-0.997358 8.03431-0.553752 7.92341 1.44096-0.0554508 0.997358ZM14.107-0.0623992 21.995 1.21721 21.6751 3.18922 13.7871 1.90962ZM27.9449 2.50593 35.6607 4.58572 35.1408 6.51467 27.4249 4.43488ZM41.3974 6.57464 41.7252 6.69202 46.7037 8.80639 48.8088 9.86298 47.9126 11.6485 45.836 10.6061 45.8935 10.6328 40.971 8.54214 41.0247 8.56319 40.7241 8.45554ZM54.116 12.791 55.4436 13.5815 59.1099 16.2039 60.7037 17.6062 59.384 19.1061 57.8279 17.737 57.9066 17.7995 54.3154 15.2308 54.3855 15.2765 53.0939 14.5075ZM64.9969 22.1577 66.7049 24.8304 67.9104 27.9219 68.1655 29.8441 66.185 30.107 65.9457 28.304 66.0053 28.5355 64.8794 25.648 64.9684 25.8231 63.3135 23.2335ZM69.3441 35.4382 69.765 36.5176 69.676 36.3426 71.4923 39.1845 71.3982 39.06 73.6926 41.6498 72.1973 42.9746 69.851 40.3262 67.9396 37.3353 67.4828 36.164ZM78.1098 45.3475 80.329 46.9348 80.2589 46.889 84.3433 49.3212 84.2804 49.2866 84.7353 49.515 83.8391 51.3005 83.352 51.056 79.2008 48.5841 76.9475 46.9724ZM90.0725 52.094 93.6735 53.6234 93.6197 53.6024 97.46 54.9771 96.7866 56.858 92.9192 55.4736 89.2916 53.9329ZM103.134 56.6293 110.185 58.5299 110.074 58.5068 110.755 58.6101 110.456 60.5852 109.719 60.4735 102.613 58.5582ZM116.681 59.5091 122.83 60.4421 122.531 62.4173 116.381 61.4843ZM121.76 54.7012 134.645 62.1656 120.943 67.9947Z" transform="matrix(1.83861e-16 1 1.00089 -1.83698e-16 1881.56 958.684)"/><path d="M0.0222007-0.998651 8.01141-0.821045 7.96701 1.17626-0.0222007 0.998651ZM14.0033-0.687841 21.9925-0.510236 21.9481 1.48706 13.959 1.30946ZM28.0131-0.284419 35.9924 0.150229 35.8838 2.14507 27.9044 1.71042ZM41.9917 0.571501 49.5406 1.14153 49.9805 1.18415 49.7879 3.17263 49.3585 3.13103 49.3796 3.13285 41.8413 2.56362ZM55.946 1.76205 61.1859 2.26968 63.9153 2.59492 63.6789 4.57868 60.9605 4.25473 60.9823 4.2571 55.7533 3.75054ZM69.8666 3.30412 72.3392 3.59875 77.8082 4.38158 77.525 6.35921 72.0677 5.57807 72.0911 5.58112 69.6303 5.28788ZM83.7633 5.25695 91.6417 6.59484 91.3072 8.56445 83.4288 7.22655ZM97.5534 7.7462 101.869 8.61238 105.396 9.45199 104.932 11.3954 101.424 10.56 101.459 10.5676 97.1602 9.70494ZM111.256 10.9036 117.315 12.6365 118.964 13.2169 118.302 15.1014 116.68 14.5309 116.737 14.549 110.706 12.8244ZM124.658 15.3368 128.499 17.0706 131.815 19.1454 130.755 20.8391 127.497 18.8001 127.616 18.8638 123.836 17.1578ZM135.645 24.547 135.67 24.6994 135.866 25.8645 135.775 25.5853 136.353 26.7481 136.174 26.4951 138.426 28.8048 138.24 28.6554 140.047 29.7856 138.987 31.4792 137.08 30.2854 134.634 27.7774 133.92 26.3411 133.7 25.0296 133.675 24.8773ZM145.254 32.444 146.671 33.0837 146.592 33.052 152.662 35.1878 151.999 37.0724 145.888 34.9223 144.432 34.2649ZM158.367 36.8194 159.82 37.2345 159.776 37.2232 166.081 38.7245 165.618 40.6679 159.291 39.1615 157.818 38.7402ZM171.908 39.963 176.971 40.9792 176.941 40.9738 179.729 41.447 179.394 43.4167 176.593 42.9408 171.515 41.9217ZM185.638 42.4504 186.79 42.6461 186.764 42.6421 193.518 43.6088 193.234 45.5864 186.469 44.6179 185.303 44.42ZM199.434 44.4042 207.369 45.3499 207.133 47.3336 199.198 46.388ZM213.31 45.9483 220.012 46.5976 219.991 46.5958 221.246 46.6905 221.095 48.6826 219.83 48.5872 213.118 47.9369ZM227.221 47.1418 232.009 47.5033 231.988 47.502 235.173 47.6755 235.065 49.6703 231.869 49.4962 227.071 49.1339ZM241.158 48.0014 244.303 48.1728 244.271 48.1715 249.111 48.2791 249.067 50.2765 244.21 50.1685 241.049 49.9963ZM255.103 48.4123 257.409 48.4636 257.365 50.4609 255.059 50.4096ZM256.203 42.7749 269.371 49.7287 255.908 56.0903Z" transform="matrix(-1.00089 1.22465e-16 1.22574e-16 1 1791.29 1115.49)"/><path d="M0-27.9654 227.719-27.9654 227.719 6.99136 0 6.99136Z" fill="#FFFFFF" fill-rule="evenodd" transform="matrix(1.00089 0 0 1 1560.65 1163.39)"/><path d="M0-27.9654 190.432-27.9654 190.432 6.99136 5.07998e-06 6.99136Z" fill="#FFFFFF" fill-rule="evenodd" transform="matrix(1.00089 0 0 1 1560.65 1202.35)"/><text font-family="Arial,Arial_MSFontService,sans-serif" font-weight="400" font-size="32" transform="matrix(0.999659 0 0 0.998766 1560.65 1163)">unocs</text><text font-family="Arial,Arial_MSFontService,sans-serif" font-weight="400" font-size="32" transform="matrix(0.999659 0 0 0.998766 1645.62 1163)">:</text><text font-family="Arial,Arial_MSFontService,sans-serif" font-weight="400" font-size="32" transform="matrix(0.999659 0 0 0.998766 1654.62 1163)">isDefined</text><text font-family="Arial,Arial_MSFontService,sans-serif" font-weight="400" font-size="32" transform="matrix(0.999659 0 0 0.998766 1560.65 1202)">ByRegulation</text><path d="M2298.64 767.556C2298.64 760.385 2304.45 754.571 2311.62 754.571L2590.27 754.571C2597.44 754.571 2603.26 760.385 2603.26 767.556L2603.26 819.491C2603.26 826.662 2597.44 832.475 2590.27 832.475L2311.62 832.475C2304.45 832.475 2298.64 826.662 2298.64 819.491Z" stroke="#FFFFFF" stroke-width="0.665926" stroke-miterlimit="8" fill="#575454" fill-rule="evenodd" transform="matrix(1.0009 0 0 1 0.201659 0.862891)"/><text fill="#FFFFFF" font-family="Arial,Arial_MSFontService,sans-serif" font-style="italic" font-weight="400" font-size="32" transform="matrix(0.999659 0 0 0.998766 2354.46 787)">unocs</text><text fill="#FFFFFF" font-family="Arial,Arial_MSFontService,sans-serif" font-style="italic" font-weight="400" font-size="32" transform="matrix(0.999659 0 0 0.998766 2439.43 787)">:</text><text fill="#FFFFFF" font-family="Arial,Arial_MSFontService,sans-serif" font-style="italic" font-weight="400" font-size="32" transform="matrix(0.999659 0 0 0.998766 2448.43 787)">Control</text><text fill="#FFFFFF" font-family="Arial,Arial_MSFontService,sans-serif" font-style="italic" font-weight="400" font-size="32" transform="matrix(0.999659 0 0 0.998766 2330.47 826)">ActionProcedure</text><path d="M0.120984-0.991545 2.14464-0.744627 4.24826 0.0160703 6.29595 1.23564 7.7629 2.44625 6.4913 3.9871 5.08333 2.82517 5.20798 2.91295 3.30783 1.78125 3.47928 1.8624 1.57167 1.17258 1.79037 1.22476-0.120984 0.991545ZM11.9024 7.05517 12.1475 7.36815 14.0191 10.1781 15.8603 13.3577 16.1898 14.0398 14.3909 14.9088 14.0777 14.2605 14.1127 14.3265 12.3059 11.2064 12.339 11.2595 10.506 8.50757 10.551 8.56974 10.3295 8.28699ZM18.7971 19.4363 19.4133 20.7116 21.8446 26.9018 19.9851 27.6322 17.5676 21.4772 17.598 21.5466 16.9983 20.3053ZM23.8698 32.6017 26.0166 39.1668 26.3171 40.2573 24.3911 40.7881 24.0968 39.7203 24.1104 39.7654 21.971 33.2226ZM27.9096 46.0352 29.0106 50.0298 29.8935 53.8156 27.9479 54.2693 27.0696 50.5029 27.0793 50.5415 25.9836 46.5661ZM31.2547 59.6524 31.7626 61.83 32.8794 67.5114 30.9191 67.8967 29.8057 62.2325 29.813 62.2668 29.3091 60.1061ZM34.0353 73.3922 34.2436 74.4515 35.365 81.3038 33.3934 81.6264 32.2746 74.7899 32.2802 74.8212 32.0751 73.7775ZM36.333 87.2185 36.4245 87.7776 37.4076 95.1671 35.4272 95.4306 34.4461 88.0559 34.4505 88.0856 34.3614 87.5412ZM38.198 101.108 38.2756 101.691 39.0422 109.083 37.055 109.29 36.29 101.912 36.2934 101.941 36.2177 101.372ZM39.6603 115.045 39.7674 116.077 40.2882 123.04 38.296 123.189 37.7761 116.239 37.7787 116.268 37.6731 115.251ZM40.7353 129.017 40.8698 130.814 41.1533 137.025 39.1576 137.117 38.8748 130.92 38.8766 130.949 38.743 129.165ZM41.4265 143.012 41.5534 145.79 41.6348 151.03 39.6372 151.061 39.556 145.836 39.5569 145.866 39.4309 143.103ZM41.7278 157.023 41.7876 160.868 41.7872 160.852 41.9173 164.995 39.9205 165.058 39.7901 160.907 39.7303 157.054ZM42.2607 170.915 42.7204 175.854 42.7132 175.795 43.1724 178.791 41.1976 179.094 40.734 176.068 40.2715 171.1ZM44.1512 184.644 45.4342 190.684 45.4213 190.63 45.8959 192.384 43.9675 192.906 43.4858 191.127 42.1971 185.059ZM47.4546 198.116 49.812 205.289 49.7948 205.241 49.9534 205.652 48.0899 206.372 47.9221 205.938 45.5566 198.739ZM52.1136 211.242 52.5884 212.471 52.5694 212.426 55.28 218.524 53.4543 219.336 50.7338 213.215 50.2501 211.962ZM57.9946 223.785 61.7517 230.838 59.9885 231.778 56.2314 224.724ZM64.7666 235.906 69.1464 242.589 67.4754 243.685 63.0955 237.001ZM72.4659 247.471 77.4083 253.75 75.8385 254.986 70.896 248.707ZM81.1152 258.461 81.6259 259.109 81.5711 259.045 86.4615 264.282 85.0013 265.646 80.0821 260.378 79.5453 259.696ZM90.5519 268.663 92.556 270.809 92.4967 270.75 96.2424 274.144 94.9009 275.625 91.1244 272.203 89.0917 270.026ZM100.684 278.169 104.439 281.572 104.374 281.518 106.698 283.293 105.486 284.88 103.129 283.08 99.3421 279.649ZM111.461 286.93 117.153 291.279 117.083 291.229 117.781 291.674 116.71 293.359 115.975 292.892 110.248 288.518ZM122.839 294.89 129.583 299.177 128.511 300.863 121.768 296.576ZM134.777 301.977 141.876 305.646 140.959 307.421 133.86 303.752ZM147.224 308.184 151.769 310.144 151.725 310.126 154.572 311.193 153.871 313.064 151 311.987 146.433 310.018ZM160.157 313.225 166.444 315.23 166.395 315.216 167.741 315.569 167.233 317.502 165.862 317.141 159.55 315.129ZM173.538 317.092 173.899 317.187 173.846 317.175 181.307 318.712 180.903 320.669 173.417 319.126 173.029 319.025ZM187.18 319.59 188.964 319.856 188.893 319.848 192.215 320.102 192.064 322.094 188.705 321.837 186.886 321.567ZM191.181 314.375 204.108 321.766 190.439 327.673Z" transform="matrix(1.00089 0 0 -1 2096.49 1115.65)"/><path d="M0-27.9654 145.82-27.9654 145.82 6.99136 0 6.99136Z" fill="#FFFFFF" fill-rule="evenodd" transform="matrix(1.00089 0 0 1 1905.46 1017.96)"/><path d="M0-27.9654 8.82243-27.9654 8.82243 6.99136-3.17499e-07 6.99136Z" fill="#FFFFFF" fill-rule="evenodd" transform="matrix(1.00089 0 0 1 2051.43 1017.96)"/><path d="M0-27.9654 167.193-27.9654 167.193 6.99136-6.09599e-06 6.99136Z" fill="#FFFFFF" fill-rule="evenodd" transform="matrix(1.00089 0 0 1 1894.76 1056.91)"/><text font-family="Arial,Arial_MSFontService,sans-serif" font-weight="400" font-size="32" transform="matrix(0.999659 0 0 0.998766 1905.46 1018)">unocs</text><text font-family="Arial,Arial_MSFontService,sans-serif" font-weight="400" font-size="32" transform="matrix(0.999659 0 0 0.998766 1990.43 1018)">:</text><text font-family="Arial,Arial_MSFontService,sans-serif" font-weight="400" font-size="32" transform="matrix(0.999659 0 0 0.998766 1999.43 1018)">has</text><text font-family="Arial,Arial_MSFontService,sans-serif" font-weight="400" font-size="32" transform="matrix(0.999659 0 0 0.998766 1894.76 1057)">hazardType</text><path d="M934.336 433.965 2631.22 433.965 2631.22 1220 934.336 1220Z" stroke="#575454" stroke-width="3.32962" stroke-miterlimit="8" stroke-dasharray="26.637 9.98886" fill="none" transform="matrix(1.0009 0 0 1 0.201659 0.862891)"/><text font-family="Arial,Arial_MSFontService,sans-serif" font-weight="700" font-size="32" transform="matrix(0.999659 0 0 0.998766 944.271 469)">UNOCS</text><text font-family="Arial,Arial_MSFontService,sans-serif" font-weight="700" font-size="32" transform="matrix(0.999659 0 0 0.998766 1068.75 469)"></text><text font-family="Arial,Arial_MSFontService,sans-serif" font-weight="700" font-size="32" transform="matrix(0.999659 0 0 0.998766 1095.41 469)">Hazard</text><path d="M0-27.9654 85.3945-27.9654 85.3945 6.99136 0 6.99136Z" fill="#FFFFFF" fill-rule="evenodd" transform="matrix(1.00089 0 0 1 2231.39 883.776)"/><path d="M0-27.9654 8.82243-27.9654 8.82243 6.99136-3.17499e-07 6.99136Z" fill="#FFFFFF" fill-rule="evenodd" transform="matrix(1.00089 0 0 1 2316.87 883.776)"/><path d="M0-27.9654 190.265-27.9654 190.265 6.99136 0 6.99136Z" fill="#FFFFFF" fill-rule="evenodd" transform="matrix(1.00089 0 0 1 2325.71 883.776)"/><path d="M0-27.9654 8.82243-27.9654 8.82243 6.99136-3.17499e-07 6.99136Z" fill="#FFFFFF" fill-rule="evenodd" transform="matrix(1.00089 0 0 1 2516.16 883.776)"/><path d="M0-27.9654 250.857-27.9654 250.857 6.99136 5.07998e-06 6.99136Z" fill="#FFFFFF" fill-rule="evenodd" transform="matrix(1.00089 0 0 1 2248.22 922.729)"/><text font-family="Arial,Arial_MSFontService,sans-serif" font-weight="400" font-size="32" transform="matrix(0.999659 0 0 0.998766 2231.39 884)">unocs</text><text font-family="Arial,Arial_MSFontService,sans-serif" font-weight="400" font-size="32" transform="matrix(0.999659 0 0 0.998766 2316.87 884)">:</text><text font-family="Arial,Arial_MSFontService,sans-serif" font-weight="400" font-size="32" transform="matrix(0.999659 0 0 0.998766 2325.71 884)">isMitigatedBy</text><text font-family="Arial,Arial_MSFontService,sans-serif" font-weight="400" font-size="32" transform="matrix(0.999659 0 0 0.998766 2248.22 923)">ControlProcedure</text><path d="M952.314 1045.55C952.314 1040.95 956.04 1037.23 960.636 1037.23L1248.61 1037.23C1253.21 1037.23 1256.93 1040.95 1256.93 1045.55L1256.93 1078.84C1256.93 1083.43 1253.21 1087.17 1248.61 1087.17L960.636 1087.17C956.04 1087.17 952.314 1083.43 952.314 1078.84Z" stroke="#FFFFFF" stroke-width="0.665926" stroke-miterlimit="8" fill="#575454" fill-rule="evenodd" transform="matrix(1.0009 0 0 1 0.201659 0.862891)"/><text fill="#FFFFFF" font-family="Arial,Arial_MSFontService,sans-serif" font-style="italic" font-weight="400" font-size="32" transform="matrix(0.999659 0 0 0.998766 966.076 1075)">unocs</text><text fill="#FFFFFF" font-family="Arial,Arial_MSFontService,sans-serif" font-style="italic" font-weight="400" font-size="32" transform="matrix(0.999659 0 0 0.998766 1051.05 1075)">:</text><text fill="#FFFFFF" font-family="Arial,Arial_MSFontService,sans-serif" font-style="italic" font-weight="400" font-size="32" transform="matrix(0.999659 0 0 0.998766 1060.04 1075)">Requirement</text><path d="M1215.76 1165.83 1207.77 1165.49 1207.86 1163.49 1215.84 1163.83ZM1201.72 1164.94 1194.71 1164.06 1193.73 1163.86 1194.13 1161.9 1195.07 1162.09 1194.99 1162.08 1201.97 1162.96ZM1187.86 1162.65 1184.37 1161.93 1180.04 1160.7 1180.59 1158.78 1184.89 1160.01 1184.81 1159.99 1188.26 1160.69ZM1174.21 1159.03 1166.7 1156.29 1167.39 1154.41 1174.9 1157.16ZM1161.1 1153.95 1155.21 1151.3 1153.8 1150.54 1154.75 1148.78 1156.13 1149.53 1156.07 1149.49 1161.92 1152.12ZM1148.53 1147.69 1146.37 1146.52 1141.65 1143.5 1142.73 1141.81 1147.42 1144.82 1147.35 1144.78 1149.48 1145.93ZM1136.62 1140.1 1130.5 1135.46 1130.2 1135.2 1131.54 1133.71 1131.8 1133.95 1131.74 1133.89 1137.82 1138.5ZM1125.75 1131.19 1123.63 1129.28 1120.07 1125.45 1121.53 1124.09 1125.06 1127.9 1125 1127.83 1127.09 1129.7ZM1116.12 1120.81 1112.43 1115.92 1111.44 1114.21 1113.15 1113.2 1114.12 1114.86 1114.06 1114.76 1117.72 1119.62ZM1108.4 1109.05 1108.28 1108.84 1105.18 1101.55 1105.15 1101.4 1107.11 1100.98 1107.12 1101.04 1107.06 1100.85 1110.09 1108 1110.03 1107.88 1110.12 1108.04ZM1099.2 1100.88 1103.63 1086.67 1112.34 1098.73Z" transform="matrix(1.0009 0 0 1 0.201659 0.862891)"/><path d="M0-27.9654 209.908-27.9654 209.908 6.99136 5.07998e-06 6.99136Z" fill="#FFFFFF" fill-rule="evenodd" transform="matrix(1.00089 0 0 1 973.464 1154.51)"/><text font-family="Arial,Arial_MSFontService,sans-serif" font-weight="400" font-size="32" transform="matrix(0.999659 0 0 0.998766 973.464 1154)">unocs</text><text font-family="Arial,Arial_MSFontService,sans-serif" font-weight="400" font-size="32" transform="matrix(0.999659 0 0 0.998766 1058.44 1154)">:</text><text font-family="Arial,Arial_MSFontService,sans-serif" font-weight="400" font-size="32" transform="matrix(0.999659 0 0 0.998766 1067.43 1154)">requires</text><path d="M1464.94 724.462 1456.95 724.287 1457 722.29 1464.99 722.464ZM1450.92 724.022 1443.28 723.535 1442.9 723.495 1443.11 721.507 1443.47 721.545 1443.43 721.542 1451.04 722.029ZM1436.95 722.87 1432.67 722.42 1428.98 721.885 1429.26 719.908 1432.93 720.441 1432.9 720.436 1437.15 720.883ZM1423.05 721.023 1422.3 720.914 1415.15 719.581 1415.52 717.617 1422.64 718.946 1422.6 718.939 1423.34 719.046ZM1409.23 718.35 1402.66 716.84 1401.42 716.5 1401.95 714.574 1403.17 714.908 1403.12 714.898 1409.68 716.403ZM1395.64 714.908 1393.55 714.333 1387.97 712.508 1388.59 710.61 1394.15 712.428 1394.11 712.414 1396.17 712.982ZM1382.28 710.483 1377.2 708.524 1374.83 707.434 1375.67 705.618 1378.01 706.696 1377.95 706.672 1383 708.619ZM1369.34 704.848 1363.88 701.84 1362.35 700.806 1363.47 699.152 1364.96 700.16 1364.88 700.112 1370.3 703.098ZM1357.4 697.233 1354.21 694.468 1351.71 691.44 1353.23 690.163 1355.7 693.13 1355.59 693.014 1358.71 695.725ZM1348.78 685.688 1348.23 682.507 1347.56 678.656 1347.65 678.937 1347.27 678.175 1349.05 677.272 1349.51 678.168 1350.2 682.167 1350.75 685.348ZM1344.21 673.33 1342.72 671.543 1342.84 671.659 1338.61 667.99 1338.7 668.063 1338.64 668.022 1339.76 666.368 1339.87 666.442 1344.21 670.204 1345.74 672.054ZM1333.68 664.662 1333.46 664.513 1333.54 664.561 1327.37 661.162 1327.44 661.195 1326.82 660.913 1327.65 659.097 1328.3 659.395 1334.55 662.833 1334.8 663.007ZM1321.36 658.416 1320.41 657.977 1320.47 658.001 1313.99 655.501 1314.71 653.638 1321.21 656.149 1322.2 656.6ZM1308.37 653.587 1304.27 652.245 1304.32 652.26 1300.77 651.284 1301.3 649.358 1304.86 650.34 1308.99 651.688ZM1295.03 649.714 1287.25 647.928 1287.69 645.98 1295.48 647.767ZM1281.4 646.775 1275.78 645.727 1275.82 645.734 1273.57 645.407 1273.86 643.43 1276.13 643.759 1281.77 644.811ZM1267.64 644.545 1265.49 644.232 1265.53 644.237 1259.74 643.63 1259.95 641.644 1265.76 642.253 1267.93 642.568ZM1253.82 643.057 1245.85 642.547 1245.97 640.553 1253.95 641.062ZM1241.3 648.043 1233.46 641.21 1241.59 634.727Z" transform="matrix(1.0009 0 0 1 0.201659 0.862891)"/><path d="M993.263 627.228C993.263 623.091 996.617 619.737 1000.75 619.737L1226.47 619.737C1230.61 619.737 1233.96 623.091 1233.96 627.228L1233.96 657.191C1233.96 661.328 1230.61 664.682 1226.47 664.682L1000.75 664.682C996.617 664.682 993.263 661.328 993.263 657.191Z" stroke="#FFFFFF" stroke-width="0.665926" stroke-miterlimit="8" fill="#575454" fill-rule="evenodd" transform="matrix(1.0009 0 0 1 0.201659 0.862891)"/><text fill="#FFFFFF" font-family="Arial,Arial_MSFontService,sans-serif" font-weight="400" font-size="32" transform="matrix(0.999659 0 0 0.998766 1023.93 654)">unocs</text><text fill="#FFFFFF" font-family="Arial,Arial_MSFontService,sans-serif" font-weight="400" font-size="32" transform="matrix(0.999659 0 0 0.998766 1108.9 654)">:</text><text fill="#FFFFFF" font-family="Arial,Arial_MSFontService,sans-serif" font-weight="400" font-size="32" transform="matrix(0.999659 0 0 0.998766 1117.9 654)">Victim</text><path d="M0-27.9654 232.3-27.9654 232.3 6.99136 3.25119e-06 6.99136Z" fill="#FFFFFF" fill-rule="evenodd" transform="matrix(1.00089 0 0 1 1241.06 674.882)"/><text font-family="Arial,Arial_MSFontService,sans-serif" font-weight="400" font-size="32" transform="matrix(0.999659 0 0 0.998766 1241.06 675)">unocs</text><text font-family="Arial,Arial_MSFontService,sans-serif" font-weight="400" font-size="32" transform="matrix(0.999659 0 0 0.998766 1326.03 675)">:</text><text font-family="Arial,Arial_MSFontService,sans-serif" font-weight="400" font-size="32" transform="matrix(0.999659 0 0 0.998766 1335.03 675)">hasVictim</text><path d="M1013.24 711.624 1133.09 711.624 1133.09 756.568 1013.24 756.568Z" stroke="#000000" stroke-width="0.665926" stroke-miterlimit="8" fill="#FFFFFF" transform="matrix(1.0009 0 0 1 0.201659 0.862891)"/><text font-family="Arial,Arial_MSFontService,sans-serif" font-weight="400" font-size="32" transform="matrix(0.999659 0 0 0.998766 1034.75 746)">string</text><path d="M0.00357703-0.998896 7.99471-0.970275 7.98756 1.02751-0.00357703 0.998896ZM13.988-0.948814 21.9792-0.920197 21.9721 1.07759 13.9809 1.04897ZM27.9725-0.898735 30.9555-0.888053 35.9687-0.844064 35.9512 1.15365 30.9405 1.10969 30.9457 1.10972 27.9653 1.09905ZM41.9618-0.791478 46.1305-0.754901 49.956-0.70837 49.9317 1.28928 46.1079 1.24276 46.1113 1.2428 41.9444 1.20624ZM55.949-0.635475 60.9402-0.574764 63.9428-0.527908 63.9116 1.46964 60.9107 1.42281 60.9141 1.42286 55.9246 1.36218ZM69.9355-0.434394 75.2638-0.351247 77.9291-0.300086 77.8908 1.69734 75.2272 1.64622 75.2308 1.64628 69.9043 1.56316ZM83.9214-0.185063 88.9799-0.0879633 91.9147-0.0202979 91.8687 1.97697 88.9358 1.90935 88.9397 1.90943 83.883 1.81236ZM97.9065 0.117852 101.967 0.211481 105.899 0.319039 105.845 2.31609 101.915 2.20859 101.919 2.2087 97.8605 2.11512ZM111.891 0.482919 114.105 0.543479 119.883 0.730276 119.818 2.72703 114.042 2.54031 114.047 2.54046 111.836 2.47997ZM125.879 0.92778 133.865 1.23404 133.788 3.23036 125.803 2.92411ZM139.859 1.4988 144.204 1.69895 147.851 1.90558 147.737 3.90018 144.097 3.69385 144.107 3.69439 139.767 3.49447ZM153.844 2.269 154.959 2.34465 157.808 2.5673 160.268 2.79323 161.847 2.96931 161.626 4.9548 160.056 4.77979 160.075 4.78176 157.632 4.55734 157.646 4.55849 154.808 4.33678 154.818 4.33752 153.709 4.2622ZM167.612 4.52226 168.239 4.64576 168.186 4.63687 169.794 4.86538 169.764 4.86159 171.798 5.08828 171.778 5.08633 174.222 5.31076 174.208 5.3096 175.433 5.40532 175.277 7.39705 174.046 7.3008 171.586 7.07485 169.529 6.84541 167.88 6.61104 167.226 6.48241ZM181.391 5.81353 187.757 6.17428 187.747 6.17373 189.36 6.24804 189.268 8.24372 187.649 8.16918 181.278 7.80812ZM195.347 6.52385 196.598 6.58149 196.59 6.58116 203.324 6.83941 203.248 8.83573 196.51 8.57734 195.255 8.51952ZM209.307 7.0529 217.295 7.31108 217.23 9.30783 209.243 9.04965ZM223.281 7.47737 229.939 7.65949 229.935 7.65938 231.265 7.69005 231.218 9.68731 229.887 9.6566 223.226 9.47441ZM237.257 7.82819 242.918 7.95871 242.914 7.95863 245.242 8.0033 245.204 10.0007 242.874 9.95602 237.211 9.82545ZM251.235 8.11832 256.627 8.22182 256.623 8.22175 259.221 8.26228 259.19 10.2598 256.59 10.2193 251.196 10.1157ZM265.213 8.35579 270.943 8.4452 270.939 8.44514 273.2 8.47264 273.175 10.4703 270.913 10.4428 265.182 10.3533ZM279.193 8.54552 285.746 8.62522 285.743 8.62518 287.18 8.6378 287.163 10.6356 285.723 10.6229 279.169 10.5432ZM293.174 8.69038 300.913 8.75829 300.908 8.75825 301.159 8.75915 301.152 10.7569 300.898 10.756 293.156 10.6881ZM307.152 8.78061 315.144 8.80923 315.137 10.807 307.145 10.7784ZM321.137 8.83068 325.198 8.84522 325.191 10.843 321.13 10.8284ZM323.887 3.18007 331.854 9.86796 323.839 16.4986Z" transform="matrix(-1.00089 1.22465e-16 1.22574e-16 1 1465.96 724.972)"/><path d="M0-27.9654 261.344-27.9654 261.344 6.99136-1.01599e-05 6.99136Z" fill="#FFFFFF" fill-rule="evenodd" transform="matrix(1.00089 0 0 1 1161 771.826)"/><text font-family="Arial,Arial_MSFontService,sans-serif" font-weight="400" font-size="32" transform="matrix(0.999659 0 0 0.998766 1161 772)">unocs</text><text font-family="Arial,Arial_MSFontService,sans-serif" font-weight="400" font-size="32" transform="matrix(0.999659 0 0 0.998766 1245.97 772)">:</text><text font-family="Arial,Arial_MSFontService,sans-serif" font-weight="400" font-size="32" transform="matrix(0.999659 0 0 0.998766 1254.96 772)">hasSeverity</text></g></svg>