<svg width="3780" height="2268" xmlns="http://www.w3.org/2000/svg" xmlns:xlink="http://www.w3.org/1999/xlink" overflow="hidden"><defs><clipPath id="clip0"><rect x="0" y="0" width="3780" height="2268"/></clipPath></defs><g clip-path="url(#clip0)"><rect x="0" y="0" width="3780" height="2268.03" fill="#FFFFFF"/><path d="M1730.5 921.18C1730.5 916.946 1733.93 913.513 1738.17 913.513L2027.83 913.513C2032.07 913.513 2035.5 916.946 2035.5 921.18L2035.5 951.847C2035.5 956.082 2032.07 959.514 2027.83 959.514L1738.17 959.514C1733.93 959.514 1730.5 956.082 1730.5 951.847Z" stroke="#FFFFFF" stroke-width="0.666755" stroke-miterlimit="8" fill="#575454" fill-rule="evenodd"/><text fill="#FFFFFF" font-family="Arial,Arial_MSFontService,sans-serif" font-style="italic" font-weight="400" font-size="32" transform="matrix(1 0 0 1.00001 1783.5 948)">unocs:Hazard</text><path d="M1467.5 710.011C1467.5 705.868 1470.86 702.51 1475 702.51L1765 702.51C1769.14 702.51 1772.5 705.868 1772.5 710.011L1772.5 740.011C1772.5 744.153 1769.14 747.511 1765 747.511L1475 747.511C1470.86 747.511 1467.5 744.153 1467.5 740.011Z" stroke="#FFFFFF" stroke-width="0.666755" stroke-miterlimit="8" fill="#575454" fill-rule="evenodd"/><text fill="#FFFFFF" font-family="Arial,Arial_MSFontService,sans-serif" font-weight="400" font-size="32" transform="matrix(1 0 0 1.00001 1515.77 737)">unocs:Incident</text><path d="M0.0359893-0.999485 8.03187-0.711571 7.95989 1.2874-0.0359893 0.999485ZM14.0288-0.495635 17.7311-0.362323 22.0726 0.0969557 21.8622 2.08612 17.5552 1.6305 17.6244 1.6354 13.9568 1.50333ZM28.0401 0.728236 35.3208 1.49843 36.0559 1.62589 35.7142 3.59675 35.0118 3.47496 35.0774 3.48411 27.8297 2.7174ZM41.9685 2.65102 49.8519 4.01787 49.5102 5.98873 41.6268 4.62188ZM55.7857 5.25794 63.5652 7.12776 63.0977 9.07263 55.3182 7.20281ZM69.3998 8.53012 69.5245 8.56011 77.1082 10.8986 76.5188 12.81 68.9654 10.4809 69.0263 10.4976 68.9323 10.475ZM82.8426 12.6668 85.864 13.5984 90.448 15.3372 89.7387 17.2074 85.1842 15.4799 85.2442 15.5005 82.2532 14.5782ZM96.0588 17.4653 101.512 19.5338 103.545 20.4599 102.715 22.2801 100.712 21.3675 100.772 21.3925 95.3494 19.3356ZM109.005 22.9478 116.286 26.2651 115.457 28.0854 108.176 24.7681ZM121.627 29.1479 128.665 32.9524 127.714 34.7121 120.676 30.9075ZM133.848 36.1136 140.591 40.4209 139.514 42.1065 132.771 37.7993ZM145.564 43.9109 151.941 48.7436 150.733 50.3378 144.356 45.5051ZM156.654 52.5591 159.695 55.1987 162.603 57.978 161.22 59.4239 158.33 56.6612 158.366 56.6935 155.343 54.0697ZM166.856 62.2806 169.087 64.6451 172.186 68.3188 170.657 69.6084 167.576 65.956 167.613 65.9975 165.401 63.6534ZM175.881 73.1203 176.893 74.4781 180.157 79.5163 180.37 79.9033 178.618 80.8685 178.422 80.5127 178.459 80.5739 175.232 75.5932 175.27 75.6469 174.277 74.3154ZM183.255 85.2511 185.315 89.7891 186.355 92.711 184.471 93.382 183.444 90.4996 183.476 90.5775 181.434 86.0778ZM187.947 98.6204 187.972 98.7386 186.016 99.1564 185.99 99.0381ZM193.419 96.7211 188.623 110.838 180.207 98.5316Z" transform="matrix(1.83697e-16 1.00001 1 -1.837e-16 1619 747.011)"/><path d="M0-28 265.333-28 265.333 7 1.01725e-05 7Z" fill="#FFFFFF" fill-rule="evenodd" transform="matrix(1 0 0 1.00001 1571.92 871.019)"/><text font-family="Arial,Arial_MSFontService,sans-serif" font-weight="400" font-size="32" transform="matrix(1 0 0 1.00001 1571.92 871)">unocs:isCausedBy</text><path d="M1217.5 1149.85C1217.5 1145.25 1221.23 1141.52 1225.83 1141.52L1514.17 1141.52C1518.77 1141.52 1522.5 1145.25 1522.5 1149.85L1522.5 1183.18C1522.5 1187.79 1518.77 1191.52 1514.17 1191.52L1225.83 1191.52C1221.23 1191.52 1217.5 1187.79 1217.5 1183.18Z" stroke="#FFFFFF" stroke-width="0.666755" stroke-miterlimit="8" fill="#575454" fill-rule="evenodd"/><text fill="#FFFFFF" font-family="Arial,Arial_MSFontService,sans-serif" font-style="italic" font-weight="400" font-size="32" transform="matrix(1 0 0 1.00001 1246.08 1178)">unocs:Regulation</text><path d="M1792.5 1102.02C1792.5 1097.87 1795.86 1094.52 1800 1094.52L2090 1094.52C2094.14 1094.52 2097.5 1097.87 2097.5 1102.02L2097.5 1132.02C2097.5 1136.16 2094.14 1139.52 2090 1139.52L1800 1139.52C1795.86 1139.52 1792.5 1136.16 1792.5 1132.02Z" stroke="#FFFFFF" stroke-width="0.666755" stroke-miterlimit="8" fill="#575454" fill-rule="evenodd"/><text fill="#FFFFFF" font-family="Arial,Arial_MSFontService,sans-serif" font-style="italic" font-weight="400" font-size="32" transform="matrix(1 0 0 1.00001 1806.93 1128)">unocs:HazardType</text><path d="M0.0977723-0.995342 6.01674-0.413922 8.1662 0.206384 7.61158 2.12822 5.55031 1.53337 5.72985 1.56779-0.0977723 0.995342ZM13.9611 2.24692 15.7693 3.10219 14.9141 4.91039 13.1059 4.05513ZM21.0551 6.19864 23.4528 7.77081 27.4727 11.1523 26.1851 12.683 22.2108 9.33988 22.3062 9.4109 19.9583 7.87139ZM31.8466 15.4001 33.2367 16.8384 31.7983 18.2285 30.4083 16.7901ZM37.1419 21.5082 39.0453 23.8739 41.8777 28.0505 40.2222 29.1732 37.4127 25.0304 37.4612 25.096 35.5835 22.7621ZM45.1013 33.1956 46.0968 34.9305 44.3619 35.926 43.3663 34.1911ZM48.9614 40.2793 51.6694 45.8779 52.3603 47.5937 50.5048 48.3409 49.8265 46.6565 49.8539 46.7184 47.1607 41.1503ZM54.6017 53.1602 55.0147 54.1859 55.3137 55.0992 53.4127 55.7215 53.1241 54.8397 53.1468 54.9022 52.7462 53.9073ZM57.1806 60.8022 57.8543 62.8601 59.3135 68.5791 57.3754 69.0737 55.9243 63.3869 55.9429 63.4508 55.2796 61.4245ZM60.6341 74.4988 60.9962 76.466 59.029 76.8281 58.6669 74.8609ZM61.9952 82.4516 62.8832 90.3594 62.8877 90.4765 60.8889 90.5529 60.8858 90.4726 60.8914 90.546 60.0074 82.6748ZM68.5994 91.5263 62.2424 99.7762 55.274 92.0357Z" transform="matrix(1 0 0 -1.00001 2035 935.79)"/><path d="M0-28 146-28 146 7 0 7Z" fill="#FFFFFF" fill-rule="evenodd" transform="matrix(1 0 0 1.00001 1930.72 867.612)"/><path d="M0-28 8.83333-28 8.83333 7-3.17891e-07 7Z" fill="#FFFFFF" fill-rule="evenodd" transform="matrix(1 0 0 1.00001 2076.74 867.612)"/><path d="M0-28 178-28 178 7 0 7Z" fill="#FFFFFF" fill-rule="evenodd" transform="matrix(1 0 0 1.00001 1914.72 906.613)"/><text font-family="Arial,Arial_MSFontService,sans-serif" font-weight="400" font-size="32" transform="matrix(1 0 0 1.00001 1930.72 868)">unocs:has</text><text font-family="Arial,Arial_MSFontService,sans-serif" font-weight="400" font-size="32" transform="matrix(1 0 0 1.00001 2076.74 868)"></text><text font-family="Arial,Arial_MSFontService,sans-serif" font-weight="400" font-size="32" transform="matrix(1 0 0 1.00001 1914.72 907)">HazardState</text><rect x="2024.5" y="776.511" width="146" height="60.0009" stroke="#000000" stroke-width="0.666755" stroke-miterlimit="8" fill="#FFFFFF"/><text font-family="Arial,Arial_MSFontService,sans-serif" font-weight="400" font-size="32" transform="matrix(1 0 0 1.00001 2057.9 818)">string</text><rect x="1456.5" y="456.507" width="246" height="53.0009" stroke="#000000" stroke-width="0.666755" stroke-miterlimit="8" fill="#FFFFFF"/><text font-family="Arial,Arial_MSFontService,sans-serif" font-weight="400" font-size="32" transform="matrix(1 0 0 1.00001 1510.19 494)">DateTime</text><path d="M0.00106653-1.00013 8.00212-0.991599 7.99999 1.00866-0.00106653 1.00013ZM14.0029-0.9852 16.0032-0.983067 16.001 1.0172 14.0008 1.01506ZM22.004-0.976668 27.9334-0.970345 30.0066-0.964929 30.0013 1.03533 27.9313 1.02992 22.0018 1.0236ZM36.0073-0.949249 38.0076-0.944023 38.0024 1.05623 36.0021 1.05101ZM44.0094-0.925936 52.0104-0.896955 52.0031 1.1033 44.0021 1.07432ZM58.0121-0.872119 60.0124-0.862824 60.0031 1.13742 58.0028 1.12812ZM66.0131-0.834939 67.9161-0.826095 74.0151-0.791232 74.0037 1.209 67.9068 1.17415 66.0038 1.1653ZM80.0158-0.75693 80.2929-0.755346 82.0172-0.743508 82.0034 1.25671 80.2815 1.24489 80.0044 1.2433ZM88.0178-0.702306 92.0117-0.674882 96.0199-0.642232 96.0036 1.35797 91.998 1.32534 88.0041 1.29791ZM102.021-0.593351 102.963-0.585674 104.022-0.575478 104.003 1.42469 102.947 1.41452 102.004 1.40685ZM110.023-0.51771 113.037-0.488692 118.025-0.431721 118.002 1.56841 113.018 1.51148 110.003 1.48246ZM124.028-0.35879 126.028-0.33135 126 1.66873 124 1.64129ZM132.031-0.242945 136.902-0.160739 140.036-0.0929039 139.992 1.90689 136.861 1.83911 136.866 1.8392 131.997 1.75703ZM146.046 0.0667219 146.427 0.0793695 147.89 0.141321 148.07 0.151834 147.952 2.14867 147.781 2.13863 147.798 2.13945 146.347 2.07804 146.356 2.07838 145.979 2.06588ZM154.016 0.602698 154.984 0.634825 154.978 0.634649 157.183 0.694964 157.178 0.694825 162.003 0.799296 161.96 2.79909 157.131 2.69456 154.921 2.63409 153.95 2.60186ZM167.999 0.903504 169.421 0.9275 169.995 0.93538 169.968 2.93546 169.387 2.92748 167.965 2.90348ZM175.996 1.01769 177.406 1.03704 183.994 1.11228 183.971 3.11241 177.379 3.03712 175.968 3.01777ZM189.993 1.1745 191.993 1.19375 191.973 3.19392 189.973 3.17467ZM197.992 1.24938 205.993 1.31455 205.976 3.31475 197.975 3.24958ZM211.992 1.35768 213.992 1.37142 213.978 3.37163 211.978 3.3579ZM219.992 1.41173 227.993 1.45746 227.981 3.45769 219.98 3.41196ZM233.992 1.4892 235.992 1.49849 235.983 3.49873 233.983 3.48944ZM241.993 1.52638 244.522 1.53813 249.993 1.55794 249.986 3.55819 244.513 3.53837 241.984 3.52662ZM255.994 1.57968 257.884 1.58653 257.993 1.58681 257.988 3.58707 257.877 3.58678 255.987 3.57993ZM263.994 1.60249 271.575 1.6223 271.993 1.62274 271.991 3.62301 271.57 3.62256 263.989 3.60275ZM277.994 1.62914 279.994 1.63128 279.992 3.63154 277.992 3.62941ZM285.995 1.63767 287.504 1.63928 287.502 3.63955 285.993 3.63794ZM286.177-4.02955 299.505 2.65221 286.163 9.30554Z" transform="matrix(-1 1.22466e-16 1.22465e-16 1.00001 2001.5 479.007)"/><rect x="2275.5" y="689.51" width="245" height="53.0007" stroke="#000000" stroke-width="0.666755" stroke-miterlimit="8" fill="#FFFFFF"/><text font-family="Arial,Arial_MSFontService,sans-serif" font-weight="400" font-size="32" transform="matrix(1 0 0 1.00001 2328.87 727)">DateTime</text><path d="M2425.43 614.051 2425.13 621.091 2425 622.119 2423.02 621.873 2423.14 620.886 2423.13 620.966 2423.43 613.967ZM2424.24 628.151 2423.84 630.11 2421.88 629.708 2422.28 627.748ZM2422.46 636.036 2421.24 640.144 2419.77 643.671 2417.93 642.902 2419.38 639.424 2419.34 639.523 2420.55 635.466ZM2416.66 649.149 2415.59 650.394 2415.19 650.729 2413.91 649.195 2414.24 648.914 2414.13 649.028 2415.15 647.844ZM2409.57 653.084 2409.2 653.269 2409.39 653.145 2408.18 654.157 2408.3 654.043 2407.12 655.413 2407.22 655.277 2405.04 658.884 2403.33 657.851 2405.55 654.172 2406.84 652.676 2408.19 651.539 2408.65 651.303ZM2402.89 664.209 2402.32 666.126 2400.4 665.556 2400.97 663.638ZM2400.86 671.852 2400.12 675.484 2400.13 675.392 2399.66 679.66 2397.67 679.44 2398.15 675.127 2398.9 671.449ZM2405.08 681.421 2398 689.062 2391.76 680.722Z"/><path d="M0-28 176.333-28 176.333 7-5.08626e-06 7Z" fill="#FFFFFF" fill-rule="evenodd" transform="matrix(1 0 0 1.00001 2142.87 660.153)"/><text font-family="Arial,Arial_MSFontService,sans-serif" font-weight="400" font-size="32" transform="matrix(1 0 0 1.00001 2142.87 660)">dicp:hasEnd</text><path d="M1846.5 656.01C1846.5 651.315 1850.31 647.51 1855 647.51L2114 647.51C2118.69 647.51 2122.5 651.315 2122.5 656.01L2122.5 690.01C2122.5 694.705 2118.69 698.51 2114 698.51L1855 698.51C1850.31 698.51 1846.5 694.705 1846.5 690.01Z" stroke="#FFFFFF" stroke-width="0.666755" stroke-miterlimit="8" fill="#575454" fill-rule="evenodd"/><text fill="#FFFFFF" font-family="Arial,Arial_MSFontService,sans-serif" font-weight="400" font-size="32" transform="matrix(1 0 0 1.00001 1862.45 684)">dice:TimeInterval</text><path d="M1881 912.992 1881.23 904.994 1883.23 905.052 1883 913.05ZM1881.63 898.953 1882.14 892.857 1882.41 890.938 1884.39 891.214 1884.13 893.107 1884.14 893.053 1883.62 899.122ZM1883.24 884.995 1883.52 882.976 1884.66 877.07 1886.62 877.449 1885.49 883.329 1885.5 883.277 1885.22 885.27ZM1885.92 871.151 1887.69 864.002 1887.89 863.343 1889.81 863.926 1889.61 864.56 1889.63 864.509 1887.86 871.632ZM1889.64 857.602 1890.41 855.066 1892.27 849.99 1894.15 850.677 1892.3 855.727 1892.32 855.675 1891.55 858.185ZM1894.48 844.353 1896.94 838.683 1897.81 837.006 1899.59 837.918 1898.74 839.568 1898.77 839.509 1896.32 845.149ZM1900.54 831.666 1900.68 831.391 1904.69 824.802 1904.77 824.692 1906.39 825.872 1906.33 825.948 1906.38 825.878 1902.41 832.4 1902.45 832.337 1902.32 832.579ZM1908.32 819.847 1908.94 818.992 1913.39 814.039 1913.78 813.707 1915.09 815.218 1914.75 815.51 1914.84 815.423 1910.46 820.292 1910.53 820.213 1909.93 821.027ZM1918.48 809.74 1922.81 807.031 1925.69 805.931 1926.41 807.799 1923.61 808.865 1923.79 808.778 1919.54 811.436ZM1931.75 804.632 1932.59 804.524 1937.34 803.907 1937.11 803.964 1939.32 803.12 1940.04 804.988 1937.71 805.875 1932.85 806.507 1932.01 806.616ZM1944.47 800.488 1946.29 799.353 1946.16 799.445 1950.59 795.607 1951.9 797.118 1947.41 801.007 1945.53 802.184ZM1954.52 791.243 1954.98 790.74 1954.91 790.818 1959.1 785.083 1959.06 785.153 1959.17 784.965 1960.88 786.004 1960.74 786.229 1956.5 792.039 1956.01 792.58ZM1962.29 779.838 1963.02 778.631 1962.99 778.695 1966 772.832 1967.78 773.745 1964.75 779.64 1964 780.878ZM1968.45 767.428 1970.08 763.661 1970.06 763.716 1971.4 760.058 1973.28 760.745 1971.93 764.431 1970.28 768.224ZM1973.39 754.458 1975.72 746.804 1977.64 747.387 1975.31 755.041ZM1977.17 741.035 1978.11 737.245 1978.1 737.295 1978.87 733.273 1980.84 733.652 1980.06 737.7 1979.11 741.516ZM1979.98 727.43 1981.09 719.505 1983.07 719.781 1981.97 727.706ZM1981.67 713.589 1982.15 707.991 1982.15 708.047 1982.22 705.664 1984.21 705.722 1984.15 708.133 1983.67 713.758ZM1976.54 705.815 1983.44 698.01 1989.87 706.201Z"/><rect x="1429.5" y="1060.52" width="100" height="43.0006" stroke="#000000" stroke-width="0.666755" stroke-miterlimit="8" fill="#FFFFFF"/><text font-family="Arial,Arial_MSFontService,sans-serif" font-weight="400" font-size="32" transform="matrix(1 0 0 1.00001 1448.88 1094)">float</text><path d="M1883.24 959.103 1882.72 964.952 1882.14 967.174 1880.2 966.665 1880.77 964.525 1880.74 964.691 1881.25 958.926ZM1880.24 973.008 1879.44 974.844 1877.61 974.048 1878.4 972.213ZM1876.52 980.225 1875.14 982.527 1871.84 986.837 1870.25 985.621 1873.52 981.356 1873.46 981.449 1874.81 979.195ZM1867.82 991.413 1866.46 992.878 1864.99 991.516 1866.36 990.051ZM1862.05 997.065 1859.39 999.503 1855.9 1002.28 1854.66 1000.71 1858.12 997.959 1858.07 998.004 1860.7 995.59ZM1851.1 1005.97 1849.46 1007.12 1848.31 1005.48 1849.95 1004.33ZM1844.5 1010.59 1837.72 1014.84 1836.66 1013.15 1843.43 1008.89ZM1832.5 1017.88 1830.76 1018.87 1829.77 1017.13 1831.51 1016.14ZM1825.46 1021.77 1818.35 1025.43 1817.43 1023.66 1824.55 1020ZM1812.9 1028.03 1811.09 1028.88 1810.24 1027.07 1812.05 1026.22ZM1805.61 1031.4 1798.26 1034.56 1797.47 1032.72 1804.82 1029.56ZM1792.67 1036.84 1790.81 1037.58 1790.08 1035.72 1791.94 1034.98ZM1785.23 1039.78 1784.37 1040.12 1777.7 1042.55 1777.01 1040.67 1783.67 1038.25 1783.64 1038.26 1784.5 1037.92ZM1772.03 1044.6 1770.13 1045.23 1769.5 1043.34 1771.4 1042.7ZM1764.44 1047.13 1759.49 1048.79 1756.81 1049.61 1756.22 1047.7 1758.89 1046.88 1758.87 1046.89 1763.81 1045.24ZM1751.07 1051.38 1749.16 1051.96 1748.57 1050.05 1750.48 1049.46ZM1743.38 1053.66 1735.68 1055.84 1735.14 1053.91 1742.84 1051.74ZM1729.87 1057.41 1727.93 1057.91 1727.43 1055.97 1729.37 1055.47ZM1722.12 1059.41 1718.63 1060.31 1714.33 1061.33 1713.87 1059.38 1718.16 1058.37 1718.14 1058.37 1721.62 1057.47ZM1708.49 1062.7 1706.54 1063.16 1706.08 1061.22 1708.03 1060.76ZM1700.67 1064.47 1692.84 1066.15 1692.42 1064.19 1700.25 1062.52ZM1686.93 1067.34 1684.96 1067.7 1684.6 1065.73 1686.57 1065.37ZM1679.06 1068.78 1671.19 1070.21 1670.83 1068.25 1678.7 1066.81ZM1665.29 1071.29 1663.32 1071.65 1662.96 1069.68 1664.93 1069.32ZM1657.37 1072.68 1649.45 1073.81 1649.16 1071.83 1657.09 1070.7ZM1643.51 1074.65 1641.53 1074.94 1641.24 1072.96 1643.22 1072.67ZM1635.58 1075.78 1627.66 1076.91 1627.38 1074.93 1635.3 1073.8ZM1621.66 1077.54 1619.67 1077.75 1619.46 1075.76 1621.45 1075.55ZM1613.7 1078.36 1605.74 1079.18 1605.53 1077.19 1613.49 1076.37ZM1599.77 1079.79 1597.78 1080 1597.57 1078.01 1599.56 1077.8ZM1591.76 1080.49 1583.77 1080.99 1583.65 1078.99 1591.63 1078.49ZM1577.79 1081.36 1575.79 1081.49 1575.66 1079.49 1577.66 1079.37ZM1569.8 1081.86 1562.12 1082.35 1561.77 1082.35 1561.73 1080.35 1562.05 1080.35 1562.01 1080.35 1569.67 1079.87ZM1555.77 1082.48 1553.77 1082.52 1553.73 1080.52 1555.73 1080.48ZM1547.77 1082.65 1541.02 1082.8 1540.98 1080.8 1547.73 1080.65ZM1542.47 1088.43 1529 1082.05 1542.19 1075.1Z"/><path d="M0-28 215.5-28 215.5 7 0 7Z" fill="#FFFFFF" fill-rule="evenodd" transform="matrix(1 0 0 1.00001 1632.56 1042.14)"/><text font-family="Arial,Arial_MSFontService,sans-serif" font-weight="400" font-size="32" transform="matrix(1 0 0 1.00001 1632.56 1042)">unocs:hasRisik</text><path d="M1574.5 554.341C1574.5 549.463 1578.45 545.508 1583.33 545.508L1933.67 545.508C1938.55 545.508 1942.5 549.463 1942.5 554.341L1942.5 589.675C1942.5 594.554 1938.55 598.509 1933.67 598.509L1583.33 598.509C1578.45 598.509 1574.5 594.554 1574.5 589.675Z" stroke="#FFFFFF" stroke-width="0.666755" stroke-miterlimit="8" fill="#575454" fill-rule="evenodd"/><text fill="#FFFFFF" font-family="Arial,Arial_MSFontService,sans-serif" font-weight="400" font-size="32" transform="matrix(1 0 0 1.00001 1622.65 583)">unocs:HazardZone</text><path d="M0.0241516-0.999841 8.02288-0.806628 7.97457 1.19305-0.0241516 0.999841ZM14.0219-0.661719 14.8152-0.642558 22.0513-0.129043 21.9097 1.8662 14.6969 1.35434 14.7435 1.35656 13.9736 1.33796ZM28.037 0.295738 29.513 0.400485 36.0353 1.15911 35.8042 3.14598 29.3043 2.38995 29.349 2.39414 27.8954 2.29099ZM41.9959 1.85239 43.9783 2.08297 49.9506 3.04592 49.6322 5.02068 43.6817 4.06124 43.7253 4.06729 41.7648 3.83926ZM55.8749 4.00114 58.0964 4.35933 63.7712 5.5332 63.366 7.49199 57.7128 6.3226 57.7562 6.33058 55.5565 5.9759ZM69.6476 6.74876 71.7526 7.18419 77.4672 8.63828 76.974 10.5768 71.2812 9.12825 71.3253 9.1384 69.2424 8.70756ZM83.2827 10.118 84.8323 10.5123 91.0002 12.3975 90.4155 14.3104 84.2703 12.4322 84.3161 12.445 82.7894 12.0565ZM96.7389 14.1515 97.2212 14.2989 104.317 16.8719 103.635 18.7524 96.5634 16.1881 96.612 16.2043 96.1543 16.0644ZM109.985 19.005 117.339 22.1566 116.552 23.9951 109.197 20.8436ZM122.811 24.7684 129.103 27.9673 129.974 28.4992 128.932 30.2063 128.094 29.6947 128.162 29.7327 121.905 26.5514ZM135.096 31.6267 137.592 33.151 141.727 36.2577 140.526 37.857 136.429 34.7791 136.508 34.833 134.053 33.3338ZM146.47 40.0684 147.927 41.3798 150.677 44.2278 152.093 45.953 150.548 47.2225 149.156 45.5284 149.21 45.5884 146.512 42.7944 146.562 42.8429 145.132 41.5549ZM155.576 51.0674 156.625 53.0429 157.781 56.0607 158.413 58.7808 156.465 59.2339 155.848 56.5808 155.888 56.712 154.779 53.8156 154.829 53.9267 153.809 52.0051ZM158.945 64.9056 158.953 65.011 158.93 64.8627 159.606 67.7705 159.566 67.6393 160.675 70.5357 160.625 70.4246 161.473 72.0218 159.706 72.9596 158.829 71.3083 157.673 68.2906 156.965 65.2425 156.95 65.062ZM164.674 76.845 166.298 78.8229 166.244 78.7629 168.942 81.5568 168.892 81.5083 170.05 82.5507 168.711 84.0372 167.528 82.9714 164.777 80.1234 163.128 78.1145ZM174.635 86.2737 179.026 89.572 178.946 89.5181 181.088 90.826 180.045 92.5331 177.863 91.2002 173.433 87.873ZM186.209 93.9535 187.36 94.6564 187.292 94.6184 193.222 97.6333 192.316 99.4164 186.351 96.3838 185.167 95.6606ZM198.565 100.211 205.92 103.363 205.132 105.201 197.777 102.05ZM211.474 105.474 218.891 108.163 218.842 108.147 218.949 108.179 218.364 110.092 218.233 110.052 210.792 107.354ZM224.688 109.933 231.184 111.919 231.138 111.906 232.309 112.204 231.816 114.142 230.622 113.839 224.103 111.846ZM238.125 113.684 244.173 115.223 244.129 115.213 245.852 115.569 245.447 117.528 243.702 117.167 237.631 115.622ZM251.729 116.785 257.741 118.028 257.698 118.02 259.535 118.317 259.217 120.291 257.358 119.992 251.324 118.743ZM265.46 119.272 271.773 120.29 271.729 120.284 273.325 120.469 273.094 122.456 271.476 122.268 265.141 121.247ZM279.285 121.163 286.15 121.961 286.105 121.957 287.193 122.034 287.051 124.029 285.941 123.951 279.054 123.15ZM293.178 122.459 300.757 122.997 300.711 122.994 301.114 123.004 301.065 125.004 300.639 124.994 293.037 124.454ZM302.284 117.363 315.454 124.351 301.962 130.695Z" transform="matrix(-1.83697e-16 -1.00001 -1 1.837e-16 1882.35 913.468)"/><path d="M0-28 240.5-28 240.5 7 0 7Z" fill="#FFFFFF" fill-rule="evenodd" transform="matrix(1 0 0 1.00001 1570.68 668.86)"/><text font-family="Arial,Arial_MSFontService,sans-serif" font-weight="400" font-size="32" transform="matrix(1 0 0 1.00001 1570.68 669)">dicp:hasLocation</text><path d="M1573.67 572.346 1555.51 572.219 1537.91 571.859 1529.5 571.602 1521.45 571.299 1513.82 570.955 1506.7 570.573 1500.14 570.158 1494.22 569.713 1489.01 569.243 1484.58 568.751 1480.98 568.239 1478.27 567.704 1476.37 567.089 1475.65 566.402 1475.09 565.871 1475.47 566.098 1473.84 565.571 1473.96 565.601 1471.33 565.082 1471.38 565.091 1467.83 564.586 1467.86 564.589 1463.45 564.1 1463.47 564.102 1458.28 563.634 1458.3 563.635 1452.39 563.191 1452.4 563.192 1445.86 562.778 1445.87 562.778 1438.75 562.397 1438.76 562.397 1431.14 562.054 1431.15 562.054 1423.1 561.751 1423.11 561.752 1414.71 561.495 1414.72 561.495 1397.14 561.135 1397.15 561.136 1390.99 561.092 1391.01 559.092 1397.17 559.135 1414.77 559.495 1423.18 559.752 1431.23 560.055 1438.85 560.399 1445.98 560.781 1452.54 561.196 1458.45 561.641 1463.66 562.111 1468.1 562.603 1471.69 563.115 1474.4 563.65 1476.3 564.265 1477.03 564.952 1477.58 565.483 1477.2 565.256 1478.83 565.783 1478.72 565.753 1481.34 566.271 1481.29 566.263 1484.84 566.768 1484.81 566.764 1489.22 567.254 1489.2 567.252 1494.39 567.72 1494.38 567.719 1500.28 568.163 1500.27 568.162 1506.82 568.576 1506.81 568.576 1513.93 568.957 1513.92 568.957 1521.53 569.3 1521.53 569.3 1529.57 569.603 1529.56 569.602 1537.96 569.859 1537.95 569.859 1555.54 570.219 1555.53 570.218 1573.68 570.346ZM1392.29 566.769 1379 560.008 1392.38 553.434Z"/><path d="M1010.5 532.508C1010.5 524.776 1016.77 518.508 1024.5 518.508L1365.5 518.508C1373.23 518.508 1379.5 524.776 1379.5 532.508L1379.5 588.508C1379.5 596.241 1373.23 602.509 1365.5 602.509L1024.5 602.509C1016.77 602.509 1010.5 596.241 1010.5 588.508Z" stroke="#FFFFFF" stroke-width="0.666755" stroke-miterlimit="8" fill="#575454" fill-rule="evenodd"/><text fill="#FFFFFF" font-family="Arial,Arial_MSFontService,sans-serif" font-weight="400" font-size="32" transform="matrix(1 0 0 1.00001 1123.45 553)">bot:ZONE</text><text fill="#FFFFFF" font-family="Arial,Arial_MSFontService,sans-serif" font-weight="400" font-size="32" transform="matrix(1 0 0 1.00001 1088.61 592)">ifc:SpatialZone</text><path d="M0.209501 0.977944-0.915274 1.2189-0.588709 1.08529-1.71129 1.79801-1.52454 1.64491-2.64272 2.81418-2.54241 2.69105-3.654 4.30165-3.59764 4.20976-4.52432 5.92119-6.28328 4.96878-5.33091 3.20988-4.14341 1.48929-2.8861 0.17454-1.50953-0.699444-0.209501-0.977944ZM-6.78327 11.3316-6.81526 11.4159-6.80056 11.3744-7.8638 14.5982-7.84932 14.5502-9.04758 18.9047-10.9762 18.374-9.77125 13.9954-8.69327 10.727-8.65348 10.6221ZM-10.5006 24.6752-11.8928 30.8984-11.8856 30.8632-12.1829 32.4597-14.1494 32.0935-13.8487 30.4793-12.4526 24.2385ZM-13.2816 38.3591-13.7637 40.9478-13.7589 40.9198-14.5914 46.2227-16.5675 45.9125-15.7328 40.5956-15.2481 37.9929ZM-15.5174 52.1276-16.5709 60.059-18.5538 59.7957-17.5003 51.8643ZM-17.322 65.9916-18.2123 73.943-20.2001 73.7205-19.3099 65.7691ZM-18.8281 79.8932-19.5707 87.8597-21.5623 87.6741-20.8197 79.7076ZM-20.0759 93.8216-20.6805 101.8-22.675 101.649-22.0705 93.6705ZM-21.0908 107.77-21.5626 115.757-23.5594 115.639-23.0876 107.652ZM-21.8882 121.732-22.2288 129.726-24.2272 129.641-23.8866 121.647ZM-22.4719 135.696-22.611 143.696-24.611 143.662-24.4719 135.662ZM-22.7153 149.696-22.8544 157.696-24.8544 157.661-24.7153 149.661ZM-22.9588 163.696-23.003 166.242-23.0029 166.213-22.942 171.668-24.9421 171.69-25.0032 166.221-24.9587 163.661ZM-22.8749 177.668-22.7855 185.669-24.7856 185.691-24.8751 177.691ZM-22.7184 191.669-22.6564 197.218-22.6567 197.202-22.5896 199.653-24.5891 199.707-24.6565 197.248-24.7186 191.691ZM-22.4253 205.651-22.2405 212.399-22.2409 212.389-22.1934 213.638-24.1923 213.714-24.2399 212.46-24.4248 205.706ZM-21.9658 219.635-21.6778 227.222-21.6782 227.211-21.6584 227.619-23.6563 227.716-23.6764 227.303-23.9646 219.711ZM-21.3664 233.613-20.9795 241.557-20.9802 241.546-20.9773 241.593-22.974 241.713-22.9772 241.66-23.3643 233.71ZM-20.6184 247.583-20.1572 255.283-20.1579 255.271-20.1373 255.558-22.1324 255.701-22.1535 255.408-22.6151 247.703ZM-19.7066 261.543-19.222 268.277-19.223 268.264-19.1167 269.509-21.1097 269.679-21.2166 268.427-21.7017 261.687ZM-18.6062 275.488-18.1853 280.418-18.1867 280.403-17.8803 283.44-19.8704 283.641-20.1777 280.596-20.5993 275.658ZM-17.2779 289.411-17.0587 291.583-17.0607 291.565-16.3692 297.341-18.3553 297.579-19.0479 291.793-19.268 289.612ZM-15.6201 303.271-14.5816 310.493-14.5867 310.461-14.464 311.155-16.4337 311.503-16.5592 310.794-17.6 303.556ZM-13.4189 317.064-13.2553 317.989-13.2617 317.956-12.5783 321.18-12.5851 321.15-11.8918 323.994-11.902 323.955-11.6707 324.762-13.5934 325.313-13.8304 324.487-14.532 321.609-15.222 318.354-15.3886 317.413ZM-9.68963 330.122-9.16765 330.971-9.31686 330.783-8.59533 331.496-8.98193 331.259-8.24732 331.503-7.28625 331.85-6.31941 332.884-5.51079 334.309-4.75734 336.148-4.72623 336.244-6.63055 336.856-6.64974 336.797-6.62305 336.87-7.33752 335.126-7.2818 335.241-8.00051 333.975-7.86129 334.164-8.58282 333.392-8.19176 333.65-8.9147 333.389-8.89146 333.397-9.83533 333.083-10.8085 332.121-11.3937 331.169ZM-3.09033 342.107-2.61494 344.218-1.92672 347.733-1.53376 350.005-3.50476 350.346-3.89584 348.085-3.89183 348.107-4.57523 344.617-4.56943 344.644-5.04173 342.547ZM-0.582631 355.97 0.470675 363.901-1.51218 364.165-2.56549 356.233ZM1.16859 369.883 1.89831 376.483 2.02616 377.855 0.0345248 378.041-0.0925225 376.678-0.0907801 376.695-0.819558 370.103ZM2.58296 383.83 3.02785 388.604 3.28103 391.815 1.28695 391.972 1.03434 388.768 1.03556 388.783 0.591329 384.016ZM3.75275 397.797 4.06658 401.777 4.33325 405.789 2.33739 405.922 2.07113 401.916 2.07202 401.928 1.75867 397.954ZM4.73122 411.777 5.00335 415.871 5.21931 419.774 3.2221 419.884 3.00644 415.987 3.00712 415.998 2.73536 411.909ZM5.55085 425.766 5.82693 430.755 5.96239 433.766 3.96414 433.856 3.82892 430.85 3.82943 430.86 3.55364 425.876ZM6.23205 439.761 6.52608 446.297 6.57752 447.764 4.57848 447.835 4.52722 446.372 4.52761 446.382 4.23381 439.851ZM6.7878 453.762 7.06816 461.758 5.06913 461.828 4.78876 453.832ZM7.22609 467.766 7.4284 475.765 5.42877 475.815 5.22647 467.817ZM7.53644 481.779 7.61903 489.78 5.61887 489.801 5.53628 481.8ZM7.68097 495.78 7.72876 500.41 5.7286 500.431 5.68081 495.801ZM13.3821 499.018 6.85256 512.421 0.04772 499.156Z" transform="matrix(-6.12323e-17 -1.00001 -1 6.12332e-17 1882.42 958.867)"/><path d="M0-28 228-28 228 7 0 7Z" fill="#FFFFFF" fill-rule="evenodd" transform="matrix(1 0 0 1.00001 1398.92 997.99)"/><path d="M0-28 117.333-28 117.333 7 2.54313e-06 7Z" fill="#FFFFFF" fill-rule="evenodd" transform="matrix(1 0 0 1.00001 1454.26 1036.99)"/><text font-family="Arial,Arial_MSFontService,sans-serif" font-weight="400" font-size="32" transform="matrix(1 0 0 1.00001 1398.92 998)">unocs:isCaused</text><text font-family="Arial,Arial_MSFontService,sans-serif" font-weight="400" font-size="32" transform="matrix(1 0 0 1.00001 1454.26 1037)">ByEntity</text><path d="M1010.5 933.181C1010.5 927.842 1014.83 923.514 1020.17 923.514L1360.83 923.514C1366.17 923.514 1370.5 927.842 1370.5 933.181L1370.5 971.847C1370.5 977.186 1366.17 981.514 1360.83 981.514L1020.17 981.514C1014.83 981.514 1010.5 977.186 1010.5 971.847Z" stroke="#FFFFFF" stroke-width="0.666755" stroke-miterlimit="8" fill="#575454" fill-rule="evenodd"/><text fill="#FFFFFF" font-family="Arial,Arial_MSFontService,sans-serif" font-weight="400" font-size="32" transform="matrix(1 0 0 1.00001 1116.2 964)">dice:Entity</text><path d="M1010.5 824.846C1010.5 819.691 1014.68 815.512 1019.83 815.512L1361.17 815.512C1366.32 815.512 1370.5 819.691 1370.5 824.846L1370.5 862.179C1370.5 867.334 1366.32 871.513 1361.17 871.513L1019.83 871.513C1014.68 871.513 1010.5 867.334 1010.5 862.179Z" stroke="#FFFFFF" stroke-width="0.666755" stroke-miterlimit="8" fill="#575454" fill-rule="evenodd"/><text fill="#FFFFFF" font-family="Arial,Arial_MSFontService,sans-serif" font-style="italic" font-weight="400" font-size="32" transform="matrix(1 0 0 1.00001 1105.1 855)">dicp:Activity</text><path d="M0.209635 0.977915-0.915117 1.21903-0.588432 1.08528-1.71099 1.79847-1.52427 1.64529-2.64243 2.81533-2.54218 2.69217-3.65375 4.30382-3.59744 4.21195-4.70023 6.24999-4.66636 6.18123-5.75817 8.63043-5.73646 8.57776-6.81509 11.4229-6.8004 11.3814-7.86364 14.6073-7.84918 14.5594-9.92072 22.0923-9.90902 22.0453-11.8927 30.9182-11.8855 30.883-13.7636 40.9742-13.7588 40.9462-15.514 52.1338-15.5106 52.1105-17.125 64.2727-17.1226 64.2523-18.5788 77.2673-18.5769 77.2488-19.8574 90.9948-19.8559 90.9775-20.943 105.333-20.9419 105.316-21.818 120.158-21.8171 120.142-22.4647 135.35-22.4639 135.325-23.0031 166.349-23.0033 166.306-22.6018 181.88-22.6044 181.83-21.4342 197.281-21.439 197.234-19.5514 212.442-19.5583 212.395-17.0045 227.238-17.0135 227.192-13.8448 241.547-13.8562 241.5-10.1238 255.246-10.1381 255.198-5.89323 268.213-5.91132 268.162-1.20518 280.325-1.22838 280.27 3.88773 291.457 3.85728 291.396 9.33213 301.487 9.29095 301.418 15.0733 310.291 15.0157 310.212 21.0543 317.745 20.9951 317.677 24.0945 320.903 24.0444 320.854 27.1886 323.7 27.1275 323.649 30.3101 326.098 30.2357 326.046 33.4503 328.084 33.3602 328.033 36.6005 329.645 36.493 329.599 39.7525 330.769 39.6276 330.733 42.9 331.446 42.7603 331.426 46.0421 331.667 49.3999 331.935 52.8143 332.741 56.1962 334.056 59.5383 335.857 62.8357 338.121 66.085 340.83 69.2829 343.965 72.4257 347.508 75.5091 351.444 78.5348 355.764 84.3549 365.439 89.8616 376.434 95.0013 388.609 99.7254 401.834 103.984 415.98 107.728 430.915 110.905 446.509 113.466 462.63 115.359 479.148 116.532 495.931 116.648 500.827 114.649 500.874 114.533 496.002 114.535 496.048 113.365 479.31 113.369 479.354 111.481 462.879 111.487 462.922 108.933 446.844 108.941 446.887 105.772 431.336 105.782 431.38 102.05 416.489 102.062 416.534 97.8173 402.435 97.8332 402.483 93.127 389.308 93.1475 389.361 88.0314 377.242 88.0586 377.3 82.5837 366.369 82.621 366.437 76.8387 356.825 76.8765 356.883 73.8861 352.613 73.918 352.656 70.8699 348.766 70.909 348.813 67.8096 345.318 67.8577 345.369 64.7136 342.287 64.7733 342.341 61.5907 339.688 61.6649 339.744 58.4502 337.536 58.542 337.592 55.3018 335.846 55.4137 335.898 52.1542 334.63 52.2869 334.672 49.0146 333.899 49.165 333.923 45.8863 333.661 45.8924 333.662 42.5431 333.416 39.1381 332.673 35.7621 331.462 32.4231 329.801 29.1262 327.711 25.876 325.21 22.6763 322.314 19.5217 319.031 13.4243 311.425 7.59315 302.477 2.08284 292.32-3.05988 281.074-7.78654 268.859-12.0476 255.795-15.7929 242.001-18.9718 227.6-21.5336 212.711-23.427 197.456-24.6008 181.956-25.0034 166.336-24.4637 135.277-23.8152 120.049-22.9382 105.19-21.8498 90.8178-20.5677 77.0541-19.1093 64.0196-17.4919 51.8355-15.7327 40.6222-13.8487 30.4993-11.8558 21.5852-9.77121 14.0049-8.69325 10.7344-7.59673 7.84204-6.47771 5.33179-5.33099 3.21256-4.14355 1.49092-2.88631 0.175363-1.50972-0.699216-0.209635-0.977915ZM122.282 499.359 115.934 512.849 108.951 499.676Z" transform="matrix(-6.12323e-17 -1.00001 -1 6.12332e-17 1882.85 958.948)"/><path d="M2284.5 565.342C2284.5 559.911 2288.9 555.508 2294.33 555.508L2554.67 555.508C2560.1 555.508 2564.5 559.911 2564.5 565.342L2564.5 604.675C2564.5 610.106 2560.1 614.509 2554.67 614.509L2294.33 614.509C2288.9 614.509 2284.5 610.106 2284.5 604.675Z" stroke="#FFFFFF" stroke-width="0.666755" stroke-miterlimit="8" fill="#575454" fill-rule="evenodd"/><text fill="#FFFFFF" font-family="Arial,Arial_MSFontService,sans-serif" font-weight="400" font-size="32" transform="matrix(1 0 0 1.00001 2307.29 596)">dice:TimeInstant</text><path d="M1983.01 647.115 1983.47 644.064 1984.85 640.931 1986.02 639.336 1987.63 640.514 1986.53 642.023 1986.64 641.839 1985.35 644.75 1985.42 644.493 1984.99 647.41ZM1990.28 634.75 1993.86 631.973 1996.86 630.052 1997.94 631.737 1994.97 633.633 1995.05 633.581 1991.51 636.33ZM2002.13 627.042 2003.55 626.269 2009.37 623.515 2010.23 625.323 2004.43 628.065 2004.48 628.04 2003.09 628.799ZM2014.95 621.181 2015.95 620.761 2022.47 618.329 2023.17 620.203 2016.67 622.629 2016.71 622.615 2015.72 623.027ZM2028.18 616.382 2030.87 615.475 2035.83 613.957 2036.41 615.87 2031.47 617.384 2031.49 617.375 2028.81 618.277ZM2041.61 612.254 2048.08 610.447 2049.34 610.124 2049.84 612.062 2048.58 612.383 2048.61 612.377 2042.15 614.18ZM2055.16 608.637 2057.48 608.044 2062.95 606.758 2063.41 608.705 2057.95 609.989 2057.96 609.984 2055.65 610.575ZM2068.82 605.408 2076.64 603.719 2077.06 605.674 2069.24 607.363ZM2082.54 602.529 2088.53 601.338 2090.41 600.996 2090.77 602.963 2088.9 603.305 2088.91 603.302 2082.93 604.491ZM2096.31 599.917 2099.74 599.291 2104.21 598.542 2104.54 600.514 2100.08 601.262 2100.09 601.26 2096.67 601.885ZM2110.12 597.549 2111.34 597.346 2118.04 596.315 2118.35 598.292 2111.65 599.322 2111.66 599.319 2110.46 599.522ZM2124 595.415 2131.93 594.354 2132.19 596.337 2124.26 597.397ZM2137.87 593.559 2145.81 592.499 2146.07 594.482 2138.14 595.542ZM2151.79 591.79 2159.74 590.926 2159.96 592.914 2152 593.779ZM2165.71 590.277 2173.66 589.413 2173.88 591.401 2165.92 592.266ZM2179.66 588.893 2187.64 588.218 2187.81 590.211 2179.83 590.887ZM2193.62 587.711 2200.97 587.089 2201.61 587.049 2201.74 589.046 2201.1 589.085 2201.12 589.083 2193.79 589.705ZM2207.6 586.683 2215.59 586.195 2215.71 588.192 2207.73 588.68ZM2221.58 585.829 2228.47 585.408 2229.59 585.366 2229.66 587.365 2228.56 587.406 2228.58 587.405 2221.7 587.826ZM2235.59 585.143 2243.58 584.845 2243.66 586.844 2235.66 587.142ZM2249.58 584.621 2256.42 584.366 2257.6 584.351 2257.62 586.351 2256.46 586.366 2256.48 586.365 2249.65 586.62ZM2263.6 584.275 2271.6 584.173 2271.63 586.173 2263.63 586.275ZM2271.17 578.511 2284.59 585.009 2271.34 591.845Z"/><path d="M2001.5 460.34C2001.5 454.909 2005.9 450.507 2011.33 450.507L2303.67 450.507C2309.1 450.507 2313.5 454.909 2313.5 460.34L2313.5 499.674C2313.5 505.105 2309.1 509.508 2303.67 509.508L2011.33 509.508C2005.9 509.508 2001.5 505.105 2001.5 499.674Z" stroke="#FFFFFF" stroke-width="0.666755" stroke-miterlimit="8" fill="#575454" fill-rule="evenodd"/><text fill="#FFFFFF" font-family="Arial,Arial_MSFontService,sans-serif" font-weight="400" font-size="32" transform="matrix(1 0 0 1.00001 2040.5 491)">dice:TimeInstant</text><path d="M1983 646.993 1983.51 640.457 1983.86 638.904 1985.81 639.346 1985.47 640.827 1985.49 640.683 1985 647.146ZM1985.34 632.96 1987.37 627.478 1988.41 625.456 1990.19 626.37 1989.18 628.339 1989.23 628.23 1987.22 633.656ZM1991.33 620.096 1994.58 615.173 1995.97 613.463 1997.52 614.723 1996.16 616.395 1996.22 616.315 1993 621.197ZM1999.86 608.784 2004.59 603.93 2005.58 603.074 2006.89 604.587 2005.93 605.415 2006 605.356 2001.3 610.18ZM2010.12 599.148 2010.49 598.828 2016.62 594.344 2017.8 595.958 2011.71 600.418 2011.77 600.367 2011.43 600.661ZM2021.78 591.129 2023.76 589.908 2028.88 587.28 2029.79 589.059 2024.71 591.669 2024.78 591.631 2022.83 592.832ZM2034.41 584.767 2038.56 583.032 2041.97 581.925 2042.59 583.827 2039.22 584.922 2039.3 584.894 2035.18 586.613ZM2047.79 580.158 2054.4 578.605 2055.68 578.422 2055.97 580.402 2054.73 580.579 2054.82 580.563 2048.24 582.106ZM2061.62 577.571 2062.55 577.438 2069.7 577.089 2069.8 579.087 2062.7 579.433 2062.79 579.425 2061.91 579.551ZM2075.69 576.797 2078.85 576.643 2078.76 576.652 2083.55 575.966 2083.83 577.946 2078.99 578.639 2075.79 578.795ZM2089.36 574.898 2094.66 573.652 2094.58 573.675 2097.01 572.886 2097.63 574.788 2095.16 575.59 2089.81 576.845ZM2102.63 571.026 2109.74 568.057 2109.67 568.09 2109.93 567.956 2110.84 569.735 2110.55 569.888 2103.4 572.872ZM2115.27 565.215 2116.84 564.408 2116.77 564.446 2122.08 561.173 2123.13 562.876 2117.79 566.169 2116.18 566.994ZM2126.93 557.788 2129.84 555.659 2129.78 555.71 2133.1 552.834 2134.41 554.347 2131.05 557.249 2128.11 559.402ZM2137.42 548.801 2140.82 545.319 2140.76 545.387 2142.73 542.949 2144.29 544.21 2142.28 546.683 2138.85 550.197ZM2146.31 538.265 2149.26 533.804 2149.2 533.898 2150.42 531.534 2152.2 532.449 2150.96 534.86 2147.98 539.366ZM2152.85 526.236 2154.74 520.55 2156.64 521.181 2154.75 526.867ZM2148.9 521.153 2157.55 509.008 2162.08 523.213Z"/><path d="M0-28 197.127-28 197.127 7-3.45866e-06 7Z" fill="#FFFFFF" fill-rule="evenodd" transform="matrix(1 0 0 1.00001 1786.91 488.658)"/><text font-family="Arial,Arial_MSFontService,sans-serif" font-weight="400" font-size="32" transform="matrix(1 0 0 1.00001 1786.91 489)">dicv:hasValue</text><path d="M0-28 197.127-28 197.127 7-3.45866e-06 7Z" fill="#FFFFFF" fill-rule="evenodd" transform="matrix(1 0 0 1.00001 2406.32 668.014)"/><text font-family="Arial,Arial_MSFontService,sans-serif" font-weight="400" font-size="32" transform="matrix(1 0 0 1.00001 2406.32 668)">dicv:hasValue</text><path d="M0-28 376.313-28 376.313 7-9.35872e-06 7Z" fill="#FFFFFF" fill-rule="evenodd" transform="matrix(1 0 0 1.00001 1824.03 758.303)"/><text font-family="Arial,Arial_MSFontService,sans-serif" font-weight="400" font-size="32" transform="matrix(1 0 0 1.00001 1824.03 758)">dicp:occupiesTimeInverval</text><rect x="2156" y="954.014" width="470" height="256.004" stroke="#042433" stroke-width="2.00026" stroke-miterlimit="8" fill="#E8E8E8"/><text font-family="Arial,Arial_MSFontService,sans-serif" font-weight="700" font-size="32" transform="matrix(1 0 0 1.00001 2165.85 990)">Legend</text><path d="M0 34 57 34 114 34 114 37 57 37 0 37Z" fill-rule="evenodd" transform="matrix(1 0 0 1.00001 2165.85 958.965)"/><path d="M2176 1027.02 2279.63 1027.02 2279.63 1029.02 2176 1029.02ZM2278.3 1021.35 2286.3 1028.02 2278.3 1034.68Z"/><path d="M2178 1066.02 2186 1066.02 2186 1068.02 2178 1068.02ZM2192 1066.02 2200 1066.02 2200 1068.02 2192 1068.02ZM2206 1066.02 2214 1066.02 2214 1068.02 2206 1068.02ZM2220.01 1066.02 2228.01 1066.02 2228.01 1068.02 2220.01 1068.02ZM2234.01 1066.02 2242.01 1066.02 2242.01 1068.02 2234.01 1068.02ZM2248.01 1066.02 2256.01 1066.02 2256.01 1068.02 2248.01 1068.02ZM2262.01 1066.02 2270.01 1066.02 2270.01 1068.02 2262.01 1068.02ZM2276.01 1066.02 2281.63 1066.02 2281.63 1068.02 2276.01 1068.02ZM2280.3 1060.35 2288.3 1067.02 2280.3 1073.68Z"/><text font-family="Arial,Arial_MSFontService,sans-serif" font-weight="400" font-size="32" transform="matrix(1 0 0 1.00001 2304.93 1029)">rdfs:subClassOf</text><text font-family="Arial,Arial_MSFontService,sans-serif" font-weight="400" font-size="32" transform="matrix(1 0 0 1.00001 2304.93 1068)">owl:ObjectProperty</text><text font-family="Arial,Arial_MSFontService,sans-serif" font-weight="400" font-size="32" transform="matrix(1 0 0 1.00001 2304.93 1106)">owl:DatatypeProperty</text><text font-family="Arial,Arial_MSFontService,sans-serif" font-weight="400" font-size="32" transform="matrix(1 0 0 1.00001 2304.93 1144)">rdfs:Class</text><text font-family="Arial,Arial_MSFontService,sans-serif" font-weight="400" font-size="32" transform="matrix(1 0 0 1.00001 2304.93 1183)">rdfs:Literal</text><path d="M2178 1102.02 2186 1102.02 2186 1104.02 2178 1104.02ZM2192 1102.02 2194 1102.02 2194 1104.02 2192 1104.02ZM2200 1102.02 2208 1102.02 2208 1104.02 2200 1104.02ZM2214 1102.02 2216.01 1102.02 2216.01 1104.02 2214 1104.02ZM2222.01 1102.02 2230.01 1102.02 2230.01 1104.02 2222.01 1104.02ZM2236.01 1102.02 2238.01 1102.02 2238.01 1104.02 2236.01 1104.02ZM2244.01 1102.02 2252.01 1102.02 2252.01 1104.02 2244.01 1104.02ZM2258.01 1102.02 2260.01 1102.02 2260.01 1104.02 2258.01 1104.02ZM2266.01 1102.02 2274.01 1102.02 2274.01 1104.02 2266.01 1104.02ZM2280.01 1102.02 2281.63 1102.02 2281.63 1104.02 2280.01 1104.02ZM2280.3 1096.35 2288.3 1103.02 2280.3 1109.68Z"/><path d="M2178.5 1122.02C2178.5 1118.43 2181.41 1115.52 2185 1115.52L2286 1115.52C2289.59 1115.52 2292.5 1118.43 2292.5 1122.02L2292.5 1148.02C2292.5 1151.61 2289.59 1154.52 2286 1154.52L2185 1154.52C2181.41 1154.52 2178.5 1151.61 2178.5 1148.02Z" stroke="#FFFFFF" stroke-width="0.666755" stroke-miterlimit="8" fill="#575454" fill-rule="evenodd"/><text fill="#FFFFFF" font-family="Arial,Arial_MSFontService,sans-serif" font-style="italic" font-weight="400" font-size="32" transform="matrix(1 0 0 1.00001 2194.99 1146)">Class</text><rect x="2178.5" y="1156.52" width="115" height="38.0006" stroke="#000000" stroke-width="0.666755" stroke-miterlimit="8" fill="#FFFFFF"/><text font-family="Arial,Arial_MSFontService,sans-serif" font-weight="400" font-size="32" transform="matrix(1 0 0 1.00001 2191.78 1187)">Literal</text><path d="M0-28 186.833-28 186.833 7-5.08626e-06 7Z" fill="#FFFFFF" fill-rule="evenodd" transform="matrix(1 0 0 1.00001 2003.64 559.557)"/><text font-family="Arial,Arial_MSFontService,sans-serif" font-weight="400" font-size="32" transform="matrix(1 0 0 1.00001 2003.64 560)">dicp:hasStart</text><path d="M0.00192354-1.00013 9.55339-0.98176 13.951-0.960669 17.8906-0.933315 21.2233-0.900923 23.7958-0.864728 25.474-0.825501 26.0806-0.784139 26.6649-0.744264 26.6202-0.746312 28.2714-0.707701 28.2621-0.707875 30.8278-0.671775 30.8234-0.671826 34.1512-0.639486 38.0858-0.61218 38.0823-0.612198 40.0269-0.605619 40.0201 1.39463 38.0737 1.38805 34.1318 1.36068 30.8018 1.32832 28.2293 1.29213 26.5511 1.25288 25.9445 1.21149 25.3603 1.17165 25.4049 1.1737 23.7537 1.1351 23.763 1.13527 21.1973 1.09917 21.2017 1.09923 17.8767 1.0669 13.9414 1.03957 9.54955 1.0185-0.00192354 1.00013ZM38.7082-6.27667 52.025 0.427353 38.6717 7.05838Z" transform="matrix(1.83697e-16 1.00001 1 -1.837e-16 1190 871.013)"/><path d="M0.105116-0.994593 2.89101-0.700159 5.75029 0.195438 8.56273 1.64634 11.3252 3.62101 14.0393 6.0939 16.7067 9.044 19.3279 12.4528 21.9018 16.3029 24.4262 20.5773 26.8977 25.2591 29.3126 30.331 31.6697 35.7829 36.1741 47.715 40.3818 60.9384 44.2496 75.304 47.7368 90.6701 50.8023 106.895 53.4042 123.835 55.5011 141.35 57.0509 159.294 58.0116 177.527 58.3412 195.904 58.0193 214.281 57.0809 232.513 55.5672 250.457 53.5193 267.97 50.9779 284.91 47.9839 301.134 44.5779 316.5 40.8002 330.865 36.6907 344.087 32.2913 356.019 29.9892 361.47 27.6306 366.542 25.2167 371.223 22.7513 375.497 20.2372 379.347 17.6769 382.756 15.0228 385.761 12.6933 387.376 11.5538 385.732 13.7837 384.186 13.6038 384.346 16.1514 381.462 16.1013 381.523 18.6181 378.172 18.5804 378.226 21.0613 374.427 21.0324 374.474 23.4723 370.244 23.4497 370.285 25.8435 365.643 25.8255 365.68 28.168 360.643 28.1535 360.675 30.4396 355.262 30.4225 355.305 34.805 343.42 34.7883 343.469 38.8835 330.292 38.8714 330.334 42.6385 316.01 42.6293 316.048 46.0272 300.719 46.0201 300.754 49.0078 284.564 49.0022 284.597 51.5387 267.69 51.5344 267.722 53.5786 250.241 53.5754 250.273 55.0863 232.361 55.0841 232.394 56.0208 214.195 56.0196 214.229 56.3409 195.887 56.341 195.922 56.012 177.58 56.0132 177.615 55.0542 159.416 55.0566 159.45 53.5096 141.538 53.513 141.571 51.4201 124.09 51.4246 124.123 48.8278 107.215 48.8336 107.249 45.7747 91.0594 45.7822 91.095 42.3033 75.7661 42.3129 75.8048 38.4561 61.4802 38.4688 61.5234 34.2761 48.3467 34.2934 48.3967 29.8067 36.5114 29.8243 36.5551 27.4838 31.1415 27.4988 31.1745 25.1006 26.1376 25.1191 26.1746 22.6684 21.5323 22.6917 21.5739 20.1937 17.3441 20.2234 17.3914 17.6834 13.592 17.722 13.6458 15.1453 10.2949 15.1963 10.356 12.5881 7.47134 12.6563 7.53986 10.0218 5.13948 10.1138 5.21384 7.45834 3.31565 7.58141 3.39084 4.91018 2.01279 5.06977 2.07837 2.38804 1.23839 2.58186 1.27857-0.105116 0.994593ZM16.2418 391.965 1.33351 391.809 10.403 379.976Z" transform="matrix(-1 1.22466e-16 1.22465e-16 1.00001 1011.33 560.008)"/><path d="M0.0555193-0.99859 8.04424-0.554436 7.9332 1.44274-0.0555193 0.99859ZM14.1244-0.0624763 22.0222 1.21871 21.7019 3.19316 13.8041 1.91198ZM27.9794 2.50903 35.7048 4.59139 35.1842 6.52272 27.4588 4.44036ZM41.4485 6.58276 41.7768 6.70029 46.7614 8.81727 48.8691 9.87517 47.9718 11.6629 45.8926 10.6192 45.9502 10.6459 41.0216 8.5527 41.0754 8.57377 40.7744 8.46599ZM54.1829 12.8068 55.5121 13.5983 59.1829 16.2239 60.7787 17.628 59.4574 19.1297 57.8994 17.7589 57.9782 17.8215 54.3825 15.2496 54.4527 15.2954 53.1595 14.5254ZM65.0772 22.1851 66.7873 24.8611 67.9943 27.9564 68.2497 29.881 66.2668 30.1442 66.0272 28.339 66.0869 28.5708 64.9596 25.6797 65.0487 25.855 63.3917 23.2622ZM69.4298 35.482 69.8512 36.5627 69.7621 36.3875 71.5806 39.2329 71.4864 39.1083 73.7837 41.7013 72.2865 43.0277 69.9373 40.376 68.0235 37.3814 67.5662 36.2087ZM78.2063 45.4035 80.4283 46.9928 80.3581 46.9469 84.4475 49.3821 84.3845 49.3475 84.84 49.5762 83.9427 51.3639 83.455 51.1191 79.2987 48.6441 77.0426 47.0304ZM90.1838 52.1584 93.7892 53.6897 93.7354 53.6686 97.5804 55.045 96.9062 56.9283 93.034 55.5421 89.4019 53.9995ZM103.261 56.6993 110.321 58.6022 110.21 58.5791 110.892 58.6825 110.592 60.6601 109.855 60.5482 102.74 58.6306ZM116.825 59.5826 122.982 60.5168 122.682 62.4944 116.525 61.5603ZM121.91 54.7688 134.811 62.2424 121.092 68.0787Z" transform="matrix(1.83697e-16 1.00001 1 -1.837e-16 1882 959.014)"/><path d="M0.0222281-0.999885 8.02131-0.82206 7.97685 1.17771-0.0222281 0.999885ZM14.0206-0.688691 22.0197-0.510866 21.9752 1.4889 13.9762 1.31108ZM28.0477-0.28477 36.0369 0.150415 35.9281 2.14772 27.9389 1.71253ZM42.0436 0.572207 49.6018 1.14294 50.0423 1.18561 49.8494 3.17655 49.4195 3.1349 49.4406 3.13672 41.893 2.56679ZM56.0151 1.76423 61.2615 2.27248 63.9943 2.59813 63.7576 4.58434 61.0358 4.25999 61.0577 4.26236 55.8222 3.75517ZM69.9529 3.3082 72.4286 3.6032 77.9043 4.38699 77.6208 6.36707 72.1568 5.58496 72.1802 5.58802 69.7163 5.29441ZM83.8668 5.26345 91.7549 6.60299 91.42 8.57503 83.5319 7.23548ZM97.6739 7.75577 101.995 8.62302 105.526 9.46367 105.062 11.4095 101.549 10.573 101.584 10.5807 97.2803 9.71693ZM111.393 10.9171 117.46 12.6521 119.111 13.2332 118.448 15.1201 116.824 14.5489 116.881 14.567 110.843 12.8402ZM124.812 15.3558 128.658 17.0917 131.978 19.1691 130.917 20.8648 127.655 18.8233 127.774 18.8871 123.989 17.179ZM135.813 24.5773 135.838 24.7299 136.034 25.8965 135.943 25.6169 136.521 26.7812 136.342 26.5278 138.597 28.8404 138.411 28.6908 140.22 29.8224 139.159 31.5181 137.249 30.3228 134.8 27.8117 134.085 26.3736 133.865 25.0605 133.84 24.908ZM145.433 32.4841 146.852 33.1246 146.773 33.0928 152.851 35.2313 152.187 37.1182 146.068 34.9655 144.61 34.3072ZM158.563 36.8649 160.017 37.2805 159.973 37.2692 166.286 38.7723 165.823 40.7182 159.488 39.2099 158.013 38.7881ZM172.12 40.0124 177.19 41.0298 177.16 41.0244 179.951 41.4982 179.616 43.4703 176.811 42.9939 171.727 41.9735ZM185.867 42.5029 187.021 42.6988 186.995 42.6948 193.757 43.6627 193.473 45.6427 186.699 44.673 185.532 44.4749ZM199.68 44.4591 207.625 45.4059 207.389 47.3921 199.444 46.4453ZM213.574 46.0051 220.284 46.6552 220.263 46.6534 221.519 46.7482 221.368 48.7428 220.102 48.6472 213.381 47.9961ZM227.502 47.2 232.296 47.562 232.275 47.5607 235.464 47.7344 235.355 49.7317 232.156 49.5574 227.352 49.1946ZM241.456 48.0607 244.605 48.2323 244.573 48.231 249.419 48.3388 249.375 50.3386 244.512 50.2305 241.347 50.0581ZM255.418 48.4721 257.727 48.5235 257.683 50.5233 255.374 50.4719ZM256.52 42.8278 269.704 49.7901 256.224 56.1596Z" transform="matrix(-1 1.22466e-16 1.22465e-16 1.00001 1791.7 1116.02)"/><path d="M0-28 228-28 228 7 0 7Z" fill="#FFFFFF" fill-rule="evenodd" transform="matrix(1 0 0 1.00001 1560.98 1163.98)"/><path d="M0-28 190.667-28 190.667 7 5.08626e-06 7Z" fill="#FFFFFF" fill-rule="evenodd" transform="matrix(1 0 0 1.00001 1560.98 1202.98)"/><text font-family="Arial,Arial_MSFontService,sans-serif" font-weight="400" font-size="32" transform="matrix(1 0 0 1.00001 1560.98 1164)">unocs:isDefined</text><text font-family="Arial,Arial_MSFontService,sans-serif" font-weight="400" font-size="32" transform="matrix(1 0 0 1.00001 1560.98 1203)">ByRegulation</text><path d="M2301.5 768.512C2301.5 761.332 2307.32 755.511 2314.5 755.511L2593.5 755.511C2600.68 755.511 2606.5 761.332 2606.5 768.512L2606.5 820.512C2606.5 827.692 2600.68 833.512 2593.5 833.512L2314.5 833.512C2307.32 833.512 2301.5 827.692 2301.5 820.512Z" stroke="#FFFFFF" stroke-width="0.666755" stroke-miterlimit="8" fill="#575454" fill-rule="evenodd"/><text fill="#FFFFFF" font-family="Arial,Arial_MSFontService,sans-serif" font-style="italic" font-weight="400" font-size="32" transform="matrix(1 0 0 1.00001 2355.06 787)">unocs:Control</text><text fill="#FFFFFF" font-family="Arial,Arial_MSFontService,sans-serif" font-style="italic" font-weight="400" font-size="32" transform="matrix(1 0 0 1.00001 2331.06 826)">ActionProcedure</text><path d="M0.121133-0.99277 2.14729-0.745547 4.25351 0.0160902 6.30373 1.23717 7.77249 2.44927 6.49932 3.99203 5.08961 2.82866 5.21442 2.91655 3.31192 1.78345 3.48358 1.8647 1.57361 1.17403 1.79258 1.22627-0.121133 0.99277ZM11.9171 7.06389 12.1625 7.37725 14.0364 10.1907 15.8799 13.3742 16.2098 14.0571 14.4087 14.9272 14.0951 14.2781 14.1301 14.3442 12.3211 11.2202 12.3542 11.2734 10.519 8.51808 10.564 8.58033 10.3423 8.29723ZM18.8203 19.4603 19.4373 20.7372 21.8716 26.935 20.0098 27.6663 17.5893 21.5037 17.6197 21.5732 17.0193 20.3304ZM23.8993 32.642 26.0487 39.2152 26.3496 40.307 24.4212 40.8385 24.1266 39.7694 24.1402 39.8145 21.9981 33.2637ZM27.9441 46.0921 29.0464 50.0916 29.9304 53.8821 27.9824 54.3364 27.103 50.5653 27.1128 50.6039 26.0157 46.6236ZM31.2933 59.7261 31.8018 61.9064 32.92 67.5948 30.9573 67.9806 29.8425 62.3094 29.8498 62.3437 29.3453 60.1804ZM34.0774 73.4829 34.2859 74.5435 35.4087 81.4043 33.4347 81.7273 32.3145 74.8823 32.3201 74.9137 32.1147 73.8687ZM36.3779 87.3263 36.4695 87.8861 37.4538 95.2847 35.471 95.5485 34.4887 88.1647 34.4931 88.1944 34.4039 87.6494ZM38.2452 101.233 38.3229 101.817 39.0904 109.218 37.1008 109.425 36.3348 102.038 36.3382 102.067 36.2624 101.497ZM39.7093 115.187 39.8165 116.22 40.338 123.192 38.3433 123.341 37.8228 116.383 37.8254 116.412 37.7197 115.393ZM40.7856 129.176 40.9203 130.976 41.2041 137.194 39.206 137.286 38.9228 131.082 38.9246 131.111 38.7909 129.325ZM41.4777 143.189 41.6047 145.97 41.6862 151.217 39.6862 151.248 39.6049 146.016 39.6058 146.046 39.4796 143.28ZM41.7794 157.217 41.8392 161.067 41.8388 161.051 41.9691 165.199 39.9698 165.262 39.8393 161.106 39.7794 157.248ZM42.3129 171.126 42.7732 176.071 42.766 176.012 43.2257 179.012 41.2485 179.315 40.7843 176.286 40.3213 171.311ZM44.2058 184.872 45.4903 190.92 45.4774 190.866 45.9526 192.622 44.0218 193.144 43.5395 191.363 42.2492 185.288ZM47.5132 198.361 49.8736 205.543 49.8563 205.495 50.0151 205.906 48.1493 206.627 47.9813 206.192 45.6129 198.985ZM52.178 211.503 52.6534 212.734 52.6344 212.688 55.3483 218.794 53.5204 219.607 50.7965 213.478 50.3122 212.224ZM58.0663 224.062 61.828 231.123 60.0626 232.064 56.3009 225.002ZM64.8466 236.197 69.2318 242.889 67.5588 243.986 63.1735 237.294ZM72.5554 247.777 77.504 254.064 75.9322 255.301 70.9836 249.014ZM81.2154 258.78 81.7268 259.429 81.6719 259.365 86.5683 264.609 85.1063 265.974 80.1811 260.7 79.6436 260.017ZM90.6638 268.995 92.6704 271.144 92.611 271.085 96.3613 274.483 95.0182 275.966 91.237 272.539 89.2018 270.36ZM100.808 278.513 104.568 281.92 104.503 281.866 106.83 283.643 105.616 285.232 103.256 283.43 99.4649 279.995ZM111.599 287.285 117.298 291.639 117.228 291.589 117.927 292.034 116.854 293.722 116.118 293.254 110.384 288.875ZM122.991 295.254 129.743 299.547 128.67 301.235 121.918 296.942ZM134.944 302.35 142.051 306.024 141.133 307.801 134.025 304.127ZM147.406 308.565 151.957 310.527 151.912 310.509 154.763 311.578 154.061 313.451 151.187 312.373 146.614 310.401ZM160.355 313.612 166.65 315.62 166.601 315.605 167.948 315.959 167.44 317.894 166.067 317.533 159.747 315.518ZM173.752 317.484 174.114 317.579 174.061 317.567 181.531 319.106 181.127 321.065 173.631 319.52 173.243 319.419ZM187.411 319.985 189.197 320.251 189.126 320.243 192.453 320.498 192.301 322.492 188.938 322.235 187.117 321.964ZM191.417 314.763 204.36 322.164 190.674 328.078Z" transform="matrix(1 0 0 -1.00001 2097 1116.18)"/><path d="M0-28 146-28 146 7 0 7Z" fill="#FFFFFF" fill-rule="evenodd" transform="matrix(1 0 0 1.00001 1905.91 1018.36)"/><path d="M0-28 8.83333-28 8.83333 7-3.17891e-07 7Z" fill="#FFFFFF" fill-rule="evenodd" transform="matrix(1 0 0 1.00001 2051.93 1018.36)"/><path d="M0-28 167.4-28 167.4 7-6.10352e-06 7Z" fill="#FFFFFF" fill-rule="evenodd" transform="matrix(1 0 0 1.00001 1895.21 1057.36)"/><text font-family="Arial,Arial_MSFontService,sans-serif" font-weight="400" font-size="32" transform="matrix(1 0 0 1.00001 1905.91 1018)">unocs:has</text><text font-family="Arial,Arial_MSFontService,sans-serif" font-weight="400" font-size="32" transform="matrix(1 0 0 1.00001 2051.93 1018)"></text><text font-family="Arial,Arial_MSFontService,sans-serif" font-weight="400" font-size="32" transform="matrix(1 0 0 1.00001 1895.21 1057)">hazardType</text><rect x="935.5" y="434.506" width="1699" height="787.012" stroke="#575454" stroke-width="3.33377" stroke-miterlimit="8" stroke-dasharray="26.6702 10.0013" fill="none"/><text font-family="Arial,Arial_MSFontService,sans-serif" font-weight="700" font-size="32" transform="matrix(1 0 0 1.00001 944.392 469)">UNOCS</text><text font-family="Arial,Arial_MSFontService,sans-serif" font-weight="700" font-size="32" transform="matrix(1 0 0 1.00001 1068.91 469)"></text><text font-family="Arial,Arial_MSFontService,sans-serif" font-weight="700" font-size="32" transform="matrix(1 0 0 1.00001 1095.58 469)">Hazard</text><path d="M0-28 85.5-28 85.5 7 0 7Z" fill="#FFFFFF" fill-rule="evenodd" transform="matrix(1 0 0 1.00001 2231.95 884.013)"/><path d="M0-28 8.83333-28 8.83333 7-3.17891e-07 7Z" fill="#FFFFFF" fill-rule="evenodd" transform="matrix(1 0 0 1.00001 2317.46 884.013)"/><path d="M0-28 190.5-28 190.5 7 0 7Z" fill="#FFFFFF" fill-rule="evenodd" transform="matrix(1 0 0 1.00001 2326.3 884.013)"/><path d="M0-28 8.83333-28 8.83333 7-3.17891e-07 7Z" fill="#FFFFFF" fill-rule="evenodd" transform="matrix(1 0 0 1.00001 2516.82 884.013)"/><path d="M0-28 251.167-28 251.167 7 5.08626e-06 7Z" fill="#FFFFFF" fill-rule="evenodd" transform="matrix(1 0 0 1.00001 2248.79 923.014)"/><text font-family="Arial,Arial_MSFontService,sans-serif" font-weight="400" font-size="32" transform="matrix(1 0 0 1.00001 2231.95 884)">unocs</text><text font-family="Arial,Arial_MSFontService,sans-serif" font-weight="400" font-size="32" transform="matrix(1 0 0 1.00001 2317.46 884)">:</text><text font-family="Arial,Arial_MSFontService,sans-serif" font-weight="400" font-size="32" transform="matrix(1 0 0 1.00001 2326.3 884)">isMitigatedBy</text><text font-family="Arial,Arial_MSFontService,sans-serif" font-weight="400" font-size="32" transform="matrix(1 0 0 1.00001 2516.82 884)"></text><text font-family="Arial,Arial_MSFontService,sans-serif" font-weight="400" font-size="32" transform="matrix(1 0 0 1.00001 2248.79 923)">ControlProcedure</text><path d="M953.5 1046.85C953.5 1042.25 957.231 1038.52 961.833 1038.52L1250.17 1038.52C1254.77 1038.52 1258.5 1042.25 1258.5 1046.85L1258.5 1080.18C1258.5 1084.78 1254.77 1088.52 1250.17 1088.52L961.833 1088.52C957.231 1088.52 953.5 1084.78 953.5 1080.18Z" stroke="#FFFFFF" stroke-width="0.666755" stroke-miterlimit="8" fill="#575454" fill-rule="evenodd"/><text fill="#FFFFFF" font-family="Arial,Arial_MSFontService,sans-serif" font-style="italic" font-weight="400" font-size="32" transform="matrix(1 0 0 1.00001 966.204 1075)">unocs:Requirement</text><path d="M1217.27 1167.28 1209.27 1166.94 1209.36 1164.94 1217.35 1165.28ZM1203.22 1166.39 1196.2 1165.51 1195.22 1165.31 1195.62 1163.35 1196.56 1163.54 1196.48 1163.53 1203.47 1164.41ZM1189.34 1164.1 1185.85 1163.38 1181.51 1162.15 1182.06 1160.22 1186.37 1161.45 1186.29 1161.43 1189.74 1162.14ZM1175.67 1160.47 1168.15 1157.73 1168.84 1155.85 1176.36 1158.6ZM1162.55 1155.39 1156.65 1152.73 1155.24 1151.97 1156.19 1150.21 1157.57 1150.96 1157.51 1150.92 1163.37 1153.56ZM1149.96 1149.12 1147.8 1147.95 1143.07 1144.92 1144.15 1143.23 1148.85 1146.25 1148.78 1146.21 1150.91 1147.36ZM1138.04 1141.52 1131.91 1136.87 1131.61 1136.61 1132.95 1135.12 1133.21 1135.36 1133.15 1135.3 1139.24 1139.92ZM1127.15 1132.6 1125.03 1130.69 1121.47 1126.85 1122.93 1125.49 1126.46 1129.3 1126.4 1129.23 1128.49 1131.11ZM1117.51 1122.21 1113.82 1117.31 1112.82 1115.6 1114.54 1114.59 1115.51 1116.25 1115.45 1116.15 1119.11 1121.01ZM1109.78 1110.43 1109.66 1110.22 1106.56 1102.92 1106.53 1102.77 1108.49 1102.35 1108.5 1102.41 1108.44 1102.22 1111.47 1109.38 1111.41 1109.26 1111.5 1109.42ZM1100.57 1102.25 1105 1088.02 1113.73 1100.1Z"/><path d="M0-28 210.167-28 210.167 7 5.08626e-06 7Z" fill="#FFFFFF" fill-rule="evenodd" transform="matrix(1 0 0 1.00001 973.595 1155.08)"/><text font-family="Arial,Arial_MSFontService,sans-serif" font-weight="400" font-size="32" transform="matrix(1 0 0 1.00001 973.595 1155)">unocs:requires</text><path d="M1466.76 725.364 1458.76 725.189 1458.81 723.19 1466.81 723.364ZM1452.73 724.924 1445.08 724.436 1444.7 724.396 1444.91 722.406 1445.27 722.444 1445.23 722.441 1452.85 722.928ZM1438.74 723.77 1434.45 723.32 1430.76 722.784 1431.04 720.805 1434.72 721.338 1434.68 721.333 1438.94 721.781ZM1424.82 721.921 1424.07 721.812 1416.91 720.477 1417.28 718.511 1424.41 719.842 1424.37 719.835 1425.11 719.942ZM1410.99 719.245 1404.41 717.733 1403.17 717.392 1403.7 715.464 1404.92 715.799 1404.87 715.789 1411.44 717.295ZM1397.38 715.799 1395.29 715.223 1389.7 713.396 1390.32 711.495 1395.89 713.315 1395.85 713.301 1397.91 713.87ZM1384 711.368 1378.92 709.407 1376.54 708.315 1377.38 706.497 1379.73 707.576 1379.67 707.552 1384.72 709.502ZM1371.05 705.726 1365.58 702.714 1364.05 701.679 1365.17 700.023 1366.66 701.032 1366.58 700.984 1372.01 703.974ZM1359.09 698.102 1355.9 695.333 1353.39 692.301 1354.92 691.023 1357.39 693.993 1357.28 693.877 1360.4 696.592ZM1350.46 686.542 1349.91 683.357 1349.24 679.501 1349.33 679.783 1348.95 679.02 1350.73 678.116 1351.19 679.013 1351.88 683.017 1352.43 686.202ZM1345.88 674.169 1344.39 672.38 1344.51 672.496 1340.28 668.822 1340.37 668.895 1340.31 668.854 1341.43 667.198 1341.54 667.272 1345.88 671.039 1347.42 672.891ZM1335.34 665.49 1335.12 665.341 1335.2 665.389 1329.02 661.986 1329.09 662.019 1328.47 661.736 1329.3 659.918 1329.95 660.216 1336.21 663.659 1336.46 663.833ZM1323.01 659.236 1322.05 658.797 1322.11 658.821 1315.63 656.318 1316.35 654.452 1322.86 656.966 1323.85 657.418ZM1310 654.401 1305.89 653.058 1305.94 653.072 1302.39 652.095 1302.92 650.167 1306.49 651.15 1310.62 652.5ZM1296.64 650.523 1288.85 648.735 1289.29 646.785 1297.09 648.574ZM1283 647.581 1277.37 646.531 1277.41 646.538 1275.16 646.211 1275.45 644.231 1277.72 644.561 1283.37 645.614ZM1269.22 645.348 1267.07 645.035 1267.11 645.04 1261.31 644.432 1261.52 642.443 1267.34 643.053 1269.51 643.368ZM1255.38 643.858 1247.4 643.347 1247.52 641.351 1255.51 641.861ZM1242.85 648.85 1235 642.009 1243.14 635.518Z"/><path d="M994.5 628.009C994.5 623.867 997.858 620.509 1002 620.509L1228 620.509C1232.14 620.509 1235.5 623.867 1235.5 628.009L1235.5 658.01C1235.5 662.152 1232.14 665.51 1228 665.51L1002 665.51C997.858 665.51 994.5 662.152 994.5 658.01Z" stroke="#FFFFFF" stroke-width="0.666755" stroke-miterlimit="8" fill="#575454" fill-rule="evenodd"/><text fill="#FFFFFF" font-family="Arial,Arial_MSFontService,sans-serif" font-weight="400" font-size="32" transform="matrix(1 0 0 1.00001 1024.08 654)">unocs:Victim</text><path d="M0-28 232.587-28 232.587 7 3.25521e-06 7Z" fill="#FFFFFF" fill-rule="evenodd" transform="matrix(1 0 0 1.00001 1241.28 674.859)"/><text font-family="Arial,Arial_MSFontService,sans-serif" font-weight="400" font-size="32" transform="matrix(1 0 0 1.00001 1241.28 675)">unocs:hasVictim</text><rect x="1014.5" y="712.51" width="120" height="45.0006" stroke="#000000" stroke-width="0.666755" stroke-miterlimit="8" fill="#FFFFFF"/><text font-family="Arial,Arial_MSFontService,sans-serif" font-weight="400" font-size="32" transform="matrix(1 0 0 1.00001 1034.9 746)">string</text><path d="M0.00358145-1.00013 8.00459-0.971474 7.99743 1.02878-0.00358145 1.00013ZM14.0053-0.949986 22.0064-0.921334 21.9992 1.07892 13.9982 1.05027ZM28.0071-0.899845 30.9937-0.88915 36.0131-0.845107 35.9956 1.15508 30.9787 1.11106 30.9839 1.11109 27.9999 1.10041ZM42.0137-0.792456 46.1875-0.755834 50.0177-0.709245 49.9934 1.29087 46.1649 1.2443 46.1683 1.24434 41.9962 1.20773ZM56.0181-0.63626 61.0155-0.575474 64.0218-0.52856 63.9906 1.47146 60.986 1.42457 60.9894 1.42462 55.9937 1.36386ZM70.0219-0.434931 75.3568-0.351681 78.0254-0.300457 77.987 1.69944 75.3202 1.64825 75.3238 1.64831 69.9907 1.56509ZM84.0251-0.185292 89.0899-0.088072 92.0283-0.020323 91.9822 1.97941 89.0457 1.91171 89.0496 1.91179 83.9867 1.8146ZM98.0275 0.117998 102.093 0.211742 106.03 0.319433 105.976 2.31895 102.041 2.21132 102.045 2.21143 97.9814 2.11773ZM112.029 0.483516 114.246 0.544151 120.031 0.731178 119.966 2.7304 114.183 2.54345 114.188 2.5436 111.974 2.48303ZM126.035 0.928926 134.03 1.23556 133.953 3.23435 125.958 2.92772ZM140.032 1.50065 144.382 1.70105 148.034 1.90793 147.92 3.905 144.275 3.69841 144.285 3.69895 139.94 3.49879ZM154.034 2.2718 155.15 2.34755 158.003 2.57047 160.466 2.79668 162.047 2.97298 161.826 4.96092 160.254 4.7857 160.273 4.78767 157.827 4.56297 157.841 4.56412 154.999 4.34214 155.009 4.34288 153.899 4.26747ZM167.819 4.52785 168.447 4.6515 168.394 4.6426 170.004 4.87139 169.974 4.8676 172.01 5.09457 171.99 5.09261 174.437 5.31732 174.423 5.31616 175.65 5.412 175.494 7.40619 174.261 7.30982 171.798 7.08359 169.738 6.85387 168.087 6.61921 167.433 6.49042ZM181.615 5.82071 187.989 6.18191 187.979 6.18136 189.594 6.25576 189.502 8.25391 187.881 8.17927 181.502 7.81777ZM195.588 6.53191 196.841 6.58962 196.833 6.58929 203.575 6.84786 203.499 8.84665 196.753 8.58794 195.496 8.53005ZM209.566 7.06161 217.563 7.32011 217.498 9.31933 209.502 9.06083ZM223.557 7.48661 230.223 7.66895 230.219 7.66884 231.551 7.69955 231.504 9.69928 230.171 9.66853 223.502 9.48612ZM237.55 7.83786 243.218 7.96854 243.214 7.96846 245.545 8.01319 245.507 10.0131 243.174 9.96832 237.504 9.83759ZM251.545 8.12835 256.944 8.23198 256.94 8.23191 259.541 8.27249 259.51 10.2725 256.907 10.2319 251.506 10.1282ZM265.541 8.36611 271.278 8.45563 271.274 8.45558 273.538 8.48311 273.513 10.4832 271.248 10.4557 265.51 10.3661ZM279.538 8.55608 286.099 8.63588 286.096 8.63584 287.535 8.64847 287.518 10.6487 286.076 10.636 279.514 10.5562ZM293.536 8.70112 301.285 8.76911 301.28 8.76907 301.531 8.76997 301.524 10.7702 301.27 10.7693 293.518 10.7013ZM307.532 8.79146 315.533 8.82011 315.526 10.8204 307.525 10.7917ZM321.534 8.84159 325.6 8.85615 325.593 10.8564 321.527 10.8418ZM324.287 3.184 332.264 9.88015 324.239 16.519Z" transform="matrix(-1 1.22466e-16 1.22465e-16 1.00001 1466.26 725.011)"/><path d="M0-28 261.667-28 261.667 7-1.01725e-05 7Z" fill="#FFFFFF" fill-rule="evenodd" transform="matrix(1 0 0 1.00001 1161.19 771.923)"/><text font-family="Arial,Arial_MSFontService,sans-serif" font-weight="400" font-size="32" transform="matrix(1 0 0 1.00001 1161.19 772)">unocs:hasSeverity</text></g></svg>