<svg width="3780" height="2268" xmlns="http://www.w3.org/2000/svg" xmlns:xlink="http://www.w3.org/1999/xlink" overflow="hidden"><defs><clipPath id="clip0"><rect x="0" y="0" width="3780" height="2268"/></clipPath></defs><g clip-path="url(#clip0)"><rect x="0" y="0" width="3780" height="2268.03" fill="#FFFFFF"/><rect x="800" y="1057.02" width="469" height="256.004" stroke="#042433" stroke-width="2.00026" stroke-miterlimit="8" fill="#E8E8E8"/><text font-family="Arial,Arial_MSFontService,sans-serif" font-weight="700" font-size="32" transform="matrix(1 0 0 1.00001 809.164 1093)">Legend</text><path d="M0 34 57 34 114 34 114 37 57 37 0 37Z" fill-rule="evenodd" transform="matrix(1 0 0 1.00001 809.164 1061.86)"/><path d="M819 1130.02 922.634 1130.02 922.634 1132.02 819 1132.02ZM921.3 1124.35 929.301 1131.02 921.3 1137.68Z"/><path d="M822 1160.02 830.001 1160.02 830.001 1162.02 822 1162.02ZM836.002 1160.02 844.003 1160.02 844.003 1162.02 836.002 1162.02ZM850.004 1160.02 858.005 1160.02 858.005 1162.02 850.004 1162.02ZM864.005 1160.02 872.007 1160.02 872.007 1162.02 864.005 1162.02ZM878.007 1160.02 886.008 1160.02 886.008 1162.02 878.007 1162.02ZM892.009 1160.02 900.01 1160.02 900.01 1162.02 892.009 1162.02ZM906.011 1160.02 914.012 1160.02 914.012 1162.02 906.011 1162.02ZM920.013 1160.02 925.633 1160.02 925.633 1162.02 920.013 1162.02ZM924.3 1154.35 932.301 1161.02 924.3 1167.68Z"/><text font-family="Arial,Arial_MSFontService,sans-serif" font-weight="400" font-size="32" transform="matrix(1 0 0 1.00001 948.246 1132)">rdfs:subClassOf</text><text font-family="Arial,Arial_MSFontService,sans-serif" font-weight="400" font-size="32" transform="matrix(1 0 0 1.00001 948.246 1170)">owl:ObjectProperty</text><text font-family="Arial,Arial_MSFontService,sans-serif" font-weight="400" font-size="32" transform="matrix(1 0 0 1.00001 948.246 1209)">owl:DatatypeProperty</text><text font-family="Arial,Arial_MSFontService,sans-serif" font-weight="400" font-size="32" transform="matrix(1 0 0 1.00001 948.246 1247)">rdfs:Class</text><text font-family="Arial,Arial_MSFontService,sans-serif" font-weight="400" font-size="32" transform="matrix(1 0 0 1.00001 948.246 1286)">rdfs:Literal</text><path d="M821 1199.02 829.001 1199.02 829.001 1201.02 821 1201.02ZM835.002 1199.02 837.002 1199.02 837.002 1201.02 835.002 1201.02ZM843.003 1199.02 851.004 1199.02 851.004 1201.02 843.003 1201.02ZM857.005 1199.02 859.005 1199.02 859.005 1201.02 857.005 1201.02ZM865.006 1199.02 873.007 1199.02 873.007 1201.02 865.006 1201.02ZM879.008 1199.02 881.008 1199.02 881.008 1201.02 879.008 1201.02ZM887.009 1199.02 895.01 1199.02 895.01 1201.02 887.009 1201.02ZM901.011 1199.02 903.011 1199.02 903.011 1201.02 901.011 1201.02ZM909.012 1199.02 917.013 1199.02 917.013 1201.02 909.012 1201.02ZM923.014 1199.02 924.634 1199.02 924.634 1201.02 923.014 1201.02ZM923.3 1193.35 931.301 1200.02 923.3 1206.69Z"/><path d="M822.5 1224.02C822.5 1220.43 825.41 1217.52 829 1217.52L929 1217.52C932.59 1217.52 935.5 1220.43 935.5 1224.02L935.5 1250.02C935.5 1253.61 932.59 1256.52 929 1256.52L829 1256.52C825.41 1256.52 822.5 1253.61 822.5 1250.02Z" stroke="#FFFFFF" stroke-width="0.666755" stroke-miterlimit="8" fill="#575454" fill-rule="evenodd"/><text fill="#FFFFFF" font-family="Arial,Arial_MSFontService,sans-serif" font-style="italic" font-weight="400" font-size="27" transform="matrix(1 0 0 1.00001 844.967 1247)">Class</text><rect x="821.5" y="1259.52" width="115" height="38.0005" stroke="#000000" stroke-width="0.666755" stroke-miterlimit="8" fill="#FFFFFF"/><text font-family="Arial,Arial_MSFontService,sans-serif" font-weight="400" font-size="27" transform="matrix(1 0 0 1.00001 842.43 1288)">Literal</text><path d="M974.5 754.011C974.5 748.764 978.753 744.511 984 744.511L1258 744.511C1263.25 744.511 1267.5 748.764 1267.5 754.011L1267.5 792.012C1267.5 797.258 1263.25 801.512 1258 801.512L984 801.512C978.753 801.512 974.5 797.258 974.5 792.012Z" stroke="#FFFFFF" stroke-width="0.666755" stroke-miterlimit="8" fill="#575454" fill-rule="evenodd"/><text fill="#FFFFFF" font-family="Arial,Arial_MSFontService,sans-serif" font-style="italic" font-weight="400" font-size="32" transform="matrix(1 0 0 1.00001 1021.6 784)">unocs:Hazard</text><path d="M1476.5 853.179C1476.5 844.527 1483.51 837.512 1492.17 837.512L1765.83 837.512C1774.49 837.512 1781.5 844.527 1781.5 853.179L1781.5 915.846C1781.5 924.499 1774.49 931.514 1765.83 931.514L1492.17 931.514C1483.51 931.514 1476.5 924.499 1476.5 915.846Z" stroke="#FFFFFF" stroke-width="0.666755" stroke-miterlimit="8" fill="#575454" fill-rule="evenodd"/><text fill="#FFFFFF" font-family="Arial,Arial_MSFontService,sans-serif" font-style="italic" font-weight="400" font-size="32" transform="matrix(1 0 0 1.00001 1529.25 877)">unocs:Control</text><text fill="#FFFFFF" font-family="Arial,Arial_MSFontService,sans-serif" font-style="italic" font-weight="400" font-size="32" transform="matrix(1 0 0 1.00001 1583.59 916)">Action</text><path d="M1475.16 885.431 1467.15 885.316 1467.18 883.316 1475.18 883.431ZM1461.15 885.23 1453.15 885.115 1453.18 883.115 1461.18 883.23ZM1447.15 885.028 1441.89 884.952 1439.13 884.836 1439.21 882.837 1441.96 882.953 1441.93 882.953 1447.18 883.028ZM1433.13 884.582 1425.14 884.244 1425.22 882.246 1433.22 882.584ZM1419.14 883.991 1411.15 883.653 1411.23 881.654 1419.23 881.992ZM1405.13 883.297 1397.15 882.744 1397.29 880.749 1405.27 881.302ZM1391.16 882.329 1383.18 881.776 1383.32 879.781 1391.3 880.334ZM1377.2 881.361 1376.37 881.304 1369.2 880.616 1369.39 878.625 1376.54 879.312 1376.52 879.309 1377.33 879.366ZM1363.23 880.042 1355.27 879.277 1355.46 877.286 1363.42 878.051ZM1349.29 878.703 1344.65 878.257 1341.31 877.846 1341.56 875.86 1344.88 876.27 1344.85 876.267 1349.48 876.712ZM1335.36 877.112 1327.41 876.133 1327.66 874.147 1335.6 875.126ZM1321.46 875.399 1313.97 874.476 1313.5 874.408 1313.78 872.428 1314.25 872.495 1314.23 872.492 1321.7 873.413ZM1307.56 873.55 1299.64 872.407 1299.93 870.427 1307.85 871.57ZM1293.7 871.47 1285.8 870.213 1286.11 868.238 1294.01 869.494ZM1279.87 869.199 1271.99 867.825 1272.33 865.855 1280.21 867.228ZM1266.07 866.725 1258.21 865.229 1258.58 863.264 1266.44 864.759ZM1252.31 864.032 1244.48 862.409 1244.89 860.451 1252.72 862.074ZM1238.6 861.103 1230.8 859.345 1231.24 857.393 1239.04 859.152ZM1224.95 857.914 1218.52 856.339 1217.17 855.979 1217.68 854.046 1219.03 854.404 1219.01 854.399 1225.43 855.971ZM1211.37 854.435 1206.83 853.227 1203.64 852.299 1204.19 850.378 1207.38 851.302 1207.36 851.296 1211.88 852.502ZM1197.87 850.628 1195.73 850.006 1190.21 848.258 1190.81 846.351 1196.32 848.095 1196.3 848.088 1198.43 848.707ZM1184.47 846.417 1176.91 843.795 1177.56 841.905 1185.12 844.527ZM1171.26 841.688 1166.23 839.77 1163.78 838.732 1164.56 836.89 1167 837.921 1166.96 837.907 1171.97 839.82ZM1158.26 836.391 1157.78 836.189 1150.98 832.967 1151.84 831.159 1158.62 834.373 1158.58 834.355 1159.04 834.549ZM1145.63 830.151 1143.13 828.814 1138.68 826.066 1139.73 824.364 1144.16 827.096 1144.11 827.066 1146.57 828.388ZM1133.68 822.62 1131.7 821.186 1127.46 817.45 1128.78 815.949 1132.99 819.654 1132.92 819.595 1134.86 821.001ZM1118.93 815.883 1120 801.012 1131.26 810.788Z"/><path d="M0-28 309.833-28 309.833 7 1.01725e-05 7Z" fill="#FFFFFF" fill-rule="evenodd" transform="matrix(1 0 0 1.00001 831.954 855.044)"/><text font-family="Arial,Arial_MSFontService,sans-serif" font-weight="400" font-size="32" transform="matrix(1 0 0 1.00001 831.954 855)">unocs:controlsHazard</text><path d="M0.0169794-0.999988 8.01688-0.864153 7.98293 1.13582-0.0169794 0.999988ZM14.0494-0.740247 22.0403-0.338126 21.9398 1.65961 13.9489 1.25749ZM28.0632 0.00661587 36.0369 0.667488 35.8717 2.66092 27.8979 2.00005ZM42.0427 1.22706 49.9915 2.13991 49.7633 4.12711 41.8144 3.21426ZM55.9733 2.90946 63.89 4.06832 63.6003 6.04749 55.6836 4.88863ZM69.8411 5.04417 77.7188 6.44391 77.3688 8.41332 69.4912 7.01359ZM83.6339 7.68791 91.4406 9.44061 91.0024 11.3923 83.1957 9.6396ZM97.2956 10.7551 105.027 12.4908 105.159 12.5288 104.605 14.4509 104.502 14.4212 104.56 14.436 96.8575 12.7068ZM110.925 14.1897 118.613 16.4042 118.06 18.3263 110.371 16.1118ZM124.38 18.0651 129.711 19.6008 132.08 20.4399 131.412 22.3253 129.072 21.4962 129.129 21.5146 123.826 19.9872ZM137.736 22.4439 145.278 25.116 144.61 27.0014 137.068 24.3294ZM150.934 27.12 153.351 27.9764 158.411 30.1296 157.627 31.9701 152.596 29.829 152.654 29.8514 150.266 29.0054ZM163.932 32.4795 171.294 35.6126 170.511 37.4532 163.149 34.32ZM176.836 38.0358 184.037 41.5222 183.166 43.3226 175.964 39.8361ZM189.417 44.2545 196.497 47.9819 195.565 49.7518 188.485 46.0245ZM201.739 50.974 206.513 53.7059 208.667 55.0467 207.61 56.745 205.471 55.4139 205.503 55.4328 200.745 52.7101ZM213.762 58.2173 215.919 59.5598 220.472 62.6449 219.349 64.3007 214.813 61.2265 214.846 61.2477 212.705 59.9155ZM225.455 66.0598 231.887 70.8188 230.698 72.4267 224.266 67.6678ZM236.631 74.5643 241.22 78.2854 242.817 79.7108 241.484 81.2028 239.906 79.7934 239.942 79.8242 235.371 76.1181ZM247.293 83.7075 248.594 84.8693 253.077 89.3073 251.67 90.7288 247.205 86.3089 247.243 86.3442 245.961 85.1995ZM257.268 93.6766 261.595 98.4681 262.596 99.7239 261.033 100.971 260.05 99.7393 260.09 99.7859 255.783 95.0171ZM266.338 104.415 267.169 105.456 271.008 110.992 269.364 112.132 265.544 106.624 265.584 106.677 264.775 105.662ZM274.211 116.149 276.331 119.743 278.039 123.259 276.24 124.133 274.549 120.654 274.587 120.725 272.488 117.165ZM280.545 128.802 282.662 134.355 283.233 136.432 281.305 136.963 280.746 134.931 280.776 135.022 278.676 129.515ZM284.793 142.331 285.936 149.177 286.002 150.344 284.005 150.457 283.942 149.344 283.954 149.452 282.82 142.66ZM286.34 156.336 286.354 156.591 286.476 164.376 284.476 164.407 284.355 156.643 284.356 156.683 284.343 156.448ZM286.57 170.376 286.584 171.276 286.583 171.246 286.909 178.339 284.911 178.431 284.584 171.323 284.57 170.407ZM287.185 184.334 287.252 185.796 287.25 185.767 287.741 192.286 285.747 192.436 285.254 185.902 285.186 184.426ZM288.192 198.269 288.329 200.087 288.326 200.059 288.968 206.203 286.979 206.411 286.335 200.252 286.197 198.42ZM289.591 212.171 289.786 214.035 289.783 214.006 290.596 220.079 288.614 220.345 287.798 214.257 287.602 212.379ZM291.393 226.027 291.594 227.523 291.589 227.494 292.645 233.898 290.671 234.224 289.613 227.804 289.411 226.292ZM293.621 239.819 293.723 240.438 293.717 240.406 295.149 247.64 293.187 248.028 291.752 240.779 291.647 240.144ZM296.337 253.485 298.167 261.275 296.219 261.732 294.39 253.943ZM299.65 267.047 301.74 274.576 301.726 274.53 301.785 274.708 299.885 275.334 299.819 275.134 297.722 267.582ZM303.661 280.408 304.855 284.033 304.835 283.978 306.374 287.869 304.514 288.605 302.964 284.686 301.762 281.034ZM308.635 293.343 311.561 299.357 311.51 299.265 312.205 300.378 310.508 301.438 309.785 300.279 306.836 294.218ZM315.291 305.058 316.067 305.643 314.863 307.241 314.087 306.655ZM318.152 300.196 325.346 313.254 310.583 311.174Z" transform="matrix(1 0 0 -1.00001 1781 884.268)"/><path d="M1596.5 666.177C1596.5 659.733 1601.72 654.51 1608.17 654.51L1953.83 654.51C1960.28 654.51 1965.5 659.733 1965.5 666.177L1965.5 712.844C1965.5 719.287 1960.28 724.511 1953.83 724.511L1608.17 724.511C1601.72 724.511 1596.5 719.287 1596.5 712.844Z" stroke="#FFFFFF" stroke-width="0.666755" stroke-miterlimit="8" fill="#575454" fill-rule="evenodd"/><text fill="#FFFFFF" font-family="Arial,Arial_MSFontService,sans-serif" font-style="italic" font-weight="400" font-size="32" transform="matrix(1 0 0 1.00001 1658.72 701)">dice:TimeInterval</text><path d="M1627 836.984 1627.45 831.614 1628.1 828.923 1630.04 829.395 1629.41 832.01 1629.43 831.856 1629 837.149ZM1630 823.098 1630.86 820.926 1633.66 815.857 1635.41 816.822 1632.64 821.837 1632.7 821.724 1631.86 823.837ZM1637.18 810.861 1637.21 810.813 1641.34 806.069 1642.67 804.793 1644.06 806.238 1642.76 807.483 1642.82 807.417 1638.75 812.088 1638.82 812.009 1638.81 812.016ZM1647.15 800.678 1651.22 797.4 1653.58 795.788 1654.71 797.441 1652.38 799.03 1652.44 798.982 1648.41 802.235ZM1658.69 792.5 1662.88 790.086 1665.8 788.689 1666.66 790.493 1663.78 791.874 1663.85 791.839 1659.68 794.234ZM1671.35 786.221 1675.9 784.451 1678.96 783.522 1679.54 785.436 1676.51 786.354 1676.59 786.328 1672.07 788.085ZM1684.82 781.917 1689.82 780.822 1692.75 780.43 1693.02 782.413 1690.12 782.8 1690.2 782.785 1685.24 783.871ZM1698.8 779.783 1704.16 779.539 1706.8 779.42 1706.89 781.418 1704.25 781.538 1698.89 781.781ZM1712.69 779.025 1718.29 778.278 1718.2 778.292 1720.51 777.788 1720.94 779.742 1718.59 780.255 1712.96 781.007ZM1726.27 776.431 1731.9 774.724 1731.82 774.749 1733.8 773.979 1734.53 775.843 1732.51 776.627 1726.85 778.345ZM1739.29 771.759 1744.63 769.203 1744.56 769.238 1746.37 768.2 1747.36 769.934 1745.53 770.991 1740.15 773.563ZM1751.45 765.17 1756.03 762.047 1755.97 762.095 1757.88 760.55 1759.14 762.108 1757.19 763.677 1752.58 766.823ZM1762.39 756.72 1765.65 753.594 1765.59 753.661 1767.87 751.036 1769.38 752.349 1767.07 755.008 1763.77 758.166ZM1771.49 746.384 1773.04 744.189 1772.98 744.284 1775.55 739.631 1777.3 740.597 1774.71 745.299 1773.12 747.539ZM1777.77 734.192 1777.77 734.184 1777.72 734.352 1778.53 730.415 1780.49 730.82 1779.66 734.843 1779.62 734.932ZM1772.73 731.042 1780.41 724.011 1785.94 732.836Z"/><path d="M1605.5 552.342C1605.5 545.806 1610.8 540.508 1617.33 540.508L1869.67 540.508C1876.2 540.508 1881.5 545.806 1881.5 552.342L1881.5 599.675C1881.5 606.211 1876.2 611.509 1869.67 611.509L1617.33 611.509C1610.8 611.509 1605.5 606.211 1605.5 599.675Z" stroke="#FFFFFF" stroke-width="0.666755" stroke-miterlimit="8" fill="#575454" fill-rule="evenodd"/><text fill="#FFFFFF" font-family="Arial,Arial_MSFontService,sans-serif" font-style="italic" font-weight="400" font-size="32" transform="matrix(1 0 0 1.00001 1625.7 587)">dice:TimeInstant</text><path d="M1964.29 688.491 1966.54 688.165 1966.29 688.235 1968.52 687.286 1968.34 687.386 1970.54 685.855 1970.41 685.956 1970.87 685.518 1972.26 686.956 1971.75 687.45 1969.4 689.086 1966.96 690.126 1964.58 690.47ZM1974.68 681.192 1976.47 678.46 1976.43 678.53 1978.31 675.087 1978.28 675.149 1978.62 674.409 1980.43 675.245 1980.08 676.016 1978.17 679.523 1976.35 682.289ZM1980.88 668.952 1983.07 662.826 1983.04 662.923 1983.4 661.471 1985.34 661.951 1984.97 663.451 1982.76 669.626ZM1984.84 655.646 1985.41 653.337 1985.39 653.43 1986.22 647.868 1988.19 648.162 1987.36 653.771 1986.78 656.125ZM1986.97 642.016 1987.38 634.025 1989.37 634.127 1988.97 642.118ZM1986.91 628.223 1986.83 627.548 1986.88 627.755 1985.08 622.485 1985.16 622.65 1984.3 621.12 1986.05 620.144 1986.95 621.753 1988.81 627.211 1988.9 627.993ZM1981.23 616.155 1978.42 612.524 1978.5 612.617 1976.1 610.199 1977.52 608.789 1979.96 611.25 1982.81 614.93ZM1971.77 606.203 1967.98 603.101 1968.05 603.153 1965.48 601.407 1966.61 599.754 1969.21 601.524 1973.04 604.654ZM1960.54 598.149 1954.37 594.606 1954.43 594.638 1953.63 594.251 1954.51 592.452 1955.33 592.854 1961.54 596.414ZM1948.24 591.63 1946.57 590.822 1946.63 590.848 1940.94 588.517 1941.7 586.665 1947.42 589.009 1949.11 589.83ZM1935.38 586.437 1929.4 584.4 1929.46 584.417 1927.83 583.966 1928.36 582.039 1930.02 582.498 1936.02 584.543ZM1922.05 582.364 1920.18 581.848 1920.24 581.862 1914.31 580.58 1914.73 578.625 1920.69 579.913 1922.58 580.436ZM1908.48 579.453 1900.89 578.271 1900.95 578.279 1900.63 578.251 1900.81 576.259 1901.16 576.289 1908.78 577.477ZM1894.66 577.73 1892.9 577.577 1893.07 575.584 1894.83 575.737ZM1894 583.304 1881 576.008 1894.64 569.984Z"/><path d="M1282.5 582.342C1282.5 577.463 1286.45 573.508 1291.33 573.508L1578.67 573.508C1583.55 573.508 1587.5 577.463 1587.5 582.342L1587.5 617.676C1587.5 622.554 1583.55 626.509 1578.67 626.509L1291.33 626.509C1286.45 626.509 1282.5 622.554 1282.5 617.676Z" stroke="#FFFFFF" stroke-width="0.666755" stroke-miterlimit="8" fill="#575454" fill-rule="evenodd"/><text fill="#FFFFFF" font-family="Arial,Arial_MSFontService,sans-serif" font-style="italic" font-weight="400" font-size="32" transform="matrix(1 0 0 1.00001 1316.9 611)">dice:TimeInstant</text><path d="M1595.91 690.327 1587.91 690.135 1587.95 688.136 1595.95 688.327ZM1581.91 689.992 1580.72 689.963 1573.88 689.482 1574.02 687.486 1580.84 687.966 1580.79 687.964 1581.96 687.992ZM1567.89 689.06 1565.63 688.901 1559.89 688.239 1560.12 686.251 1565.84 686.912 1565.8 686.907 1568.03 687.065ZM1553.93 687.551 1550.78 687.188 1545.97 686.417 1546.28 684.442 1551.08 685.209 1551.03 685.203 1554.16 685.564ZM1540.04 685.47 1536.29 684.87 1532.13 684.016 1532.53 682.057 1536.67 682.906 1536.63 682.898 1540.36 683.494ZM1526.25 682.81 1522.27 681.994 1518.41 681.018 1518.9 679.079 1522.74 680.049 1522.7 680.039 1526.65 680.85ZM1512.59 679.55 1508.85 678.605 1504.84 677.39 1505.42 675.476 1509.4 676.684 1509.36 676.671 1513.08 677.61ZM1499.1 675.649 1496.13 674.749 1491.47 673.074 1492.15 671.191 1496.78 672.858 1496.73 672.842 1499.68 673.735ZM1485.82 671.043 1484.24 670.472 1478.37 667.979 1479.16 666.138 1484.99 668.62 1484.94 668.599 1486.5 669.16ZM1472.81 665.574 1465.66 661.971 1466.56 660.185 1473.71 663.788ZM1460.37 658.994 1454.69 655.554 1453.52 654.683 1454.72 653.079 1455.85 653.921 1455.77 653.868 1461.4 657.283ZM1448.71 651.097 1447.28 650.034 1444.08 647.177 1442.62 645.678 1444.06 644.283 1445.49 645.756 1445.44 645.708 1448.58 648.513 1448.51 648.457 1449.9 649.493ZM1438.58 640.906 1436.91 637.878 1438.67 636.915 1440.33 639.943ZM1431.89 640.768 1434 626.009 1444.54 636.556Z"/><path d="M0-28 376.313-28 376.313 7-9.35872e-06 7Z" fill="#FFFFFF" fill-rule="evenodd" transform="matrix(1 0 0 1.00001 1570.7 774.418)"/><text font-family="Arial,Arial_MSFontService,sans-serif" font-weight="400" font-size="32" transform="matrix(1 0 0 1.00001 1570.7 774)">dicp:occupiesTimeInverval</text><path d="M2106.5 667.01C2106.5 659.002 2112.99 652.51 2121 652.51L2417 652.51C2425.01 652.51 2431.5 659.002 2431.5 667.01L2431.5 725.01C2431.5 733.019 2425.01 739.511 2417 739.511L2121 739.511C2112.99 739.511 2106.5 733.019 2106.5 725.01Z" stroke="#FFFFFF" stroke-width="0.666755" stroke-miterlimit="8" fill="#575454" fill-rule="evenodd"/><text fill="#FFFFFF" font-family="Arial,Arial_MSFontService,sans-serif" font-style="italic" font-weight="400" font-size="32" transform="matrix(1 0 0 1.00001 2137.62 688)">unocs:Substitution</text><text fill="#FFFFFF" font-family="Arial,Arial_MSFontService,sans-serif" font-style="italic" font-weight="400" font-size="32" transform="matrix(1 0 0 1.00001 2142.86 727)">ControlProcedure</text><path d="M2106.5 818.012C2106.5 810.004 2112.99 803.512 2121 803.512L2417 803.512C2425.01 803.512 2431.5 810.004 2431.5 818.012L2431.5 876.013C2431.5 884.021 2425.01 890.513 2417 890.513L2121 890.513C2112.99 890.513 2106.5 884.021 2106.5 876.013Z" stroke="#FFFFFF" stroke-width="0.666755" stroke-miterlimit="8" fill="#575454" fill-rule="evenodd"/><text fill="#FFFFFF" font-family="Arial,Arial_MSFontService,sans-serif" font-style="italic" font-weight="400" font-size="32" transform="matrix(1 0 0 1.00001 2142.87 839)">unocs:</text><text fill="#FFFFFF" font-family="Arial,Arial_MSFontService,sans-serif" font-style="italic" font-weight="400" font-size="32" transform="matrix(1 0 0 1.00001 2237.21 839)">Elimination</text><text fill="#FFFFFF" font-family="Arial,Arial_MSFontService,sans-serif" font-style="italic" font-weight="400" font-size="32" transform="matrix(1 0 0 1.00001 2142.87 878)">ControlProcedure</text><path d="M2106.5 969.015C2106.5 961.006 2112.99 954.514 2121 954.514L2417 954.514C2425.01 954.514 2431.5 961.006 2431.5 969.015L2431.5 1027.01C2431.5 1035.02 2425.01 1041.52 2417 1041.52L2121 1041.52C2112.99 1041.52 2106.5 1035.02 2106.5 1027.01Z" stroke="#FFFFFF" stroke-width="0.666755" stroke-miterlimit="8" fill="#575454" fill-rule="evenodd"/><text fill="#FFFFFF" font-family="Arial,Arial_MSFontService,sans-serif" font-style="italic" font-weight="400" font-size="32" transform="matrix(1 0 0 1.00001 2135.7 990)">unocs:</text><text fill="#FFFFFF" font-family="Arial,Arial_MSFontService,sans-serif" font-style="italic" font-weight="400" font-size="32" transform="matrix(1 0 0 1.00001 2230.04 990)">Engineering</text><text fill="#FFFFFF" font-family="Arial,Arial_MSFontService,sans-serif" font-style="italic" font-weight="400" font-size="32" transform="matrix(1 0 0 1.00001 2142.87 1029)">ControlProcedure</text><path d="M2106.5 1121.02C2106.5 1113.01 2112.99 1106.52 2121 1106.52L2417 1106.52C2425.01 1106.52 2431.5 1113.01 2431.5 1121.02L2431.5 1179.02C2431.5 1187.03 2425.01 1193.52 2417 1193.52L2121 1193.52C2112.99 1193.52 2106.5 1187.03 2106.5 1179.02Z" stroke="#FFFFFF" stroke-width="0.666755" stroke-miterlimit="8" fill="#575454" fill-rule="evenodd"/><text fill="#FFFFFF" font-family="Arial,Arial_MSFontService,sans-serif" font-style="italic" font-weight="400" font-size="32" transform="matrix(1 0 0 1.00001 2120.7 1142)">unocs:</text><text fill="#FFFFFF" font-family="Arial,Arial_MSFontService,sans-serif" font-style="italic" font-weight="400" font-size="32" transform="matrix(1 0 0 1.00001 2215.04 1142)">Administrative</text><text fill="#FFFFFF" font-family="Arial,Arial_MSFontService,sans-serif" font-style="italic" font-weight="400" font-size="32" transform="matrix(1 0 0 1.00001 2142.87 1181)">ControlProcedure</text><path d="M2106.5 1272.02C2106.5 1264.01 2112.99 1257.52 2121 1257.52L2417 1257.52C2425.01 1257.52 2431.5 1264.01 2431.5 1272.02L2431.5 1330.02C2431.5 1338.03 2425.01 1344.52 2417 1344.52L2121 1344.52C2112.99 1344.52 2106.5 1338.03 2106.5 1330.02Z" stroke="#FFFFFF" stroke-width="0.666755" stroke-miterlimit="8" fill="#575454" fill-rule="evenodd"/><text fill="#FFFFFF" font-family="Arial,Arial_MSFontService,sans-serif" font-style="italic" font-weight="400" font-size="32" transform="matrix(1 0 0 1.00001 2137.62 1293)">unocs:</text><text fill="#FFFFFF" font-family="Arial,Arial_MSFontService,sans-serif" font-style="italic" font-weight="400" font-size="32" transform="matrix(1 0 0 1.00001 2231.96 1293)">PPEControl</text><text fill="#FFFFFF" font-family="Arial,Arial_MSFontService,sans-serif" font-style="italic" font-weight="400" font-size="32" transform="matrix(1 0 0 1.00001 2194.54 1332)">Procedure</text><path d="M0-1.00013 25.0033-1.00013 25.0033 125.741 13.3351 125.741 13.3351 123.741 24.0032 123.741 23.003 124.741 23.003 0 24.0032 1.00013 0 1.00013ZM14.6686 131.408 1.33351 124.741 14.6686 118.073Z" transform="matrix(1 0 0 -1.00001 2431 695.751)"/><path d="M0-1.00013 25.0033-1.00013 25.0033 276.942 13.3351 276.942 13.3351 274.942 24.0032 274.942 23.003 275.942 23.003 0 24.0032 1.00013 0 1.00013ZM14.6686 282.61 1.33351 275.942 14.6686 269.274Z" transform="matrix(1 0 0 -1.00001 2431 846.955)"/><path d="M0-1.00013 25.0033-1.00013 25.0033 428.143 13.3351 428.143 13.3351 426.143 24.0032 426.143 23.003 427.143 23.003 0 24.0032 1.00013 0 1.00013ZM14.6686 433.811 1.33351 427.143 14.6686 420.476Z" transform="matrix(1 0 0 -1.00001 2431 998.158)"/><path d="M0-1.00013 25.0033-1.00013 25.0033 579.344 13.3351 579.344 13.3351 577.344 24.0032 577.344 23.003 578.344 23.003 0 24.0032 1.00013 0 1.00013ZM14.6686 585.012 1.33351 578.344 14.6686 571.677Z" transform="matrix(1 0 0 -1.00001 2431 1149.36)"/><path d="M0-1.00013 25.0033-1.00013 25.0033 730.545 13.3351 730.545 13.3351 728.545 24.0032 728.545 23.003 729.545 23.003 0 24.0032 1.00013 0 1.00013ZM14.6686 736.213 1.33351 729.545 14.6686 722.878Z" transform="matrix(1 0 0 -1.00001 2431 1300.56)"/><path d="M2106.5 542.008C2106.5 534 2112.99 527.508 2121 527.508L2417 527.508C2425.01 527.508 2431.5 534 2431.5 542.008L2431.5 600.008C2431.5 608.017 2425.01 614.509 2417 614.509L2121 614.509C2112.99 614.509 2106.5 608.017 2106.5 600.008Z" stroke="#FFFFFF" stroke-width="0.666755" stroke-miterlimit="8" fill="#575454" fill-rule="evenodd"/><text fill="#FFFFFF" font-family="Arial,Arial_MSFontService,sans-serif" font-style="italic" font-weight="400" font-size="32" transform="matrix(1 0 0 1.00001 2169.62 563)">unocs:Control</text><text fill="#FFFFFF" font-family="Arial,Arial_MSFontService,sans-serif" font-style="italic" font-weight="400" font-size="32" transform="matrix(1 0 0 1.00001 2150.03 602)">ActionProcedure</text><path d="M1798.5 1168.02C1798.5 1160.01 1804.99 1153.52 1813 1153.52L2058 1153.52C2066.01 1153.52 2072.5 1160.01 2072.5 1168.02L2072.5 1226.02C2072.5 1234.03 2066.01 1240.52 2058 1240.52L1813 1240.52C1804.99 1240.52 1798.5 1234.03 1798.5 1226.02Z" stroke="#FFFFFF" stroke-width="0.666755" stroke-miterlimit="8" fill="#575454" fill-rule="evenodd"/><text fill="#FFFFFF" font-family="Arial,Arial_MSFontService,sans-serif" font-style="italic" font-weight="400" font-size="32" transform="matrix(1 0 0 1.00001 1887.96 1189)">unocs</text><text fill="#FFFFFF" font-family="Arial,Arial_MSFontService,sans-serif" font-style="italic" font-weight="400" font-size="32" transform="matrix(1 0 0 1.00001 1973.47 1189)">:</text><text fill="#FFFFFF" font-family="Arial,Arial_MSFontService,sans-serif" font-style="italic" font-weight="400" font-size="32" transform="matrix(1 0 0 1.00001 1863.13 1228)">PPEEntity</text><path d="M1298.5 1167.02C1298.5 1159.01 1304.99 1152.52 1313 1152.52L1609 1152.52C1617.01 1152.52 1623.5 1159.01 1623.5 1167.02L1623.5 1225.02C1623.5 1233.03 1617.01 1239.52 1609 1239.52L1313 1239.52C1304.99 1239.52 1298.5 1233.03 1298.5 1225.02Z" stroke="#FFFFFF" stroke-width="0.666755" stroke-miterlimit="8" fill="#575454" fill-rule="evenodd"/><text fill="#FFFFFF" font-family="Arial,Arial_MSFontService,sans-serif" font-style="italic" font-weight="400" font-size="32" transform="matrix(1 0 0 1.00001 1327.81 1188)">unocs:Engineering</text><text fill="#FFFFFF" font-family="Arial,Arial_MSFontService,sans-serif" font-style="italic" font-weight="400" font-size="32" transform="matrix(1 0 0 1.00001 1368.9 1227)">ControlEntity</text><path d="M1522.5 1260.02C1522.5 1252.01 1528.99 1245.52 1537 1245.52L1833 1245.52C1841.01 1245.52 1847.5 1252.01 1847.5 1260.02L1847.5 1318.02C1847.5 1326.03 1841.01 1332.52 1833 1332.52L1537 1332.52C1528.99 1332.52 1522.5 1326.03 1522.5 1318.02Z" stroke="#FFFFFF" stroke-width="0.666755" stroke-miterlimit="8" fill="#575454" fill-rule="evenodd"/><text fill="#FFFFFF" font-family="Arial,Arial_MSFontService,sans-serif" font-style="italic" font-weight="400" font-size="32" transform="matrix(1 0 0 1.00001 1536.83 1281)">unocs:Administrative</text><text fill="#FFFFFF" font-family="Arial,Arial_MSFontService,sans-serif" font-style="italic" font-weight="400" font-size="32" transform="matrix(1 0 0 1.00001 1592.92 1320)">ControlEntity</text><path d="M0-1.00013 27.8062-1.00013 27.8062 138.083 26.8061 137.082 97.617 137.082 97.617 139.083 25.806 139.083 25.806 0 26.8061 1.00013 0 1.00013ZM96.2835 131.415 109.619 138.083 96.2835 144.75Z" transform="matrix(-1.83697e-16 -1.00001 -1 1.837e-16 1460.08 1151.64)"/><path d="M0-1.00013 122.307-1.00013 122.307 362.104 121.307 361.104 190.609 361.104 190.609 363.104 120.307 363.104 120.307 0 121.307 1.00013 0 1.00013ZM189.276 355.437 202.611 362.104 189.276 368.772Z" transform="matrix(-1.83697e-16 -1.00001 -1 1.837e-16 1684.1 1244.63)"/><path d="M0-1.00013 29.6398-1.00013 29.6398 612.644 28.6397 611.644 98.6196 611.644 98.6196 613.644 27.6395 613.644 27.6395 0 28.6397 1.00013 0 1.00013ZM97.286 605.976 110.621 612.644 97.286 619.311Z" transform="matrix(-1.83697e-16 -1.00001 -1 1.837e-16 1934.64 1152.64)"/><path d="M1716.5 1066.18C1716.5 1061.4 1720.38 1057.52 1725.17 1057.52L2059.83 1057.52C2064.62 1057.52 2068.5 1061.4 2068.5 1066.18L2068.5 1100.85C2068.5 1105.64 2064.62 1109.52 2059.83 1109.52L1725.17 1109.52C1720.38 1109.52 1716.5 1105.64 1716.5 1100.85Z" stroke="#FFFFFF" stroke-width="0.666755" stroke-miterlimit="8" fill="#575454" fill-rule="evenodd"/><text fill="#FFFFFF" font-family="Arial,Arial_MSFontService,sans-serif" font-style="italic" font-weight="400" font-size="32" transform="matrix(1 0 0 1.00001 1744.01 1095)">unocs:MitigationPlan</text><path d="M1715.92 1084.54 1711.75 1084.32 1707.87 1083.7 1708.18 1081.73 1712.01 1082.34 1711.9 1082.33 1716.03 1082.55ZM1701.91 1082.04 1699.18 1081.05 1695.07 1079.14 1694.44 1078.79 1695.41 1077.04 1696.01 1077.38 1695.94 1077.34 1699.98 1079.21 1699.91 1079.18 1702.6 1080.16ZM1689.23 1075.61 1683.04 1071.22 1682.65 1070.86 1683.99 1069.38 1684.34 1069.7 1684.25 1069.62 1690.39 1073.98ZM1678.21 1066.82 1675.37 1064.23 1672.53 1061.06 1674.02 1059.72 1676.82 1062.86 1676.75 1062.79 1679.55 1065.34ZM1668.53 1056.58 1668.03 1056.03 1663.65 1050.13 1665.25 1048.94 1669.61 1054.8 1669.55 1054.73 1670.02 1055.25ZM1660.14 1045.17 1655.89 1038.39 1657.58 1037.33 1661.83 1044.11ZM1652.89 1033.11 1649.14 1026.04 1650.91 1025.11 1654.66 1032.18ZM1646.6 1020.53 1643.34 1013.23 1645.16 1012.41 1648.43 1019.72ZM1641.22 1007.55 1638.6 1000.51 1638.44 999.981 1640.35 999.401 1640.5 999.896 1640.48 999.837 1643.09 1006.85ZM1636.7 994.237 1634.59 987.281 1634.41 986.506 1636.36 986.047 1636.53 986.792 1636.52 986.732 1638.61 993.657ZM1633.03 980.666 1631.37 973.609 1631.23 972.807 1633.2 972.471 1633.34 973.243 1633.32 973.181 1634.98 980.207ZM1630.23 966.891 1628.98 959.6 1628.92 958.933 1630.9 958.726 1630.97 959.361 1630.96 959.297 1632.2 966.555ZM1628.3 952.964 1627.51 945.364 1627.49 944.936 1629.49 944.865 1629.5 945.26 1629.5 945.192 1630.29 952.758ZM1621.81 944.576 1628 931.014 1635.13 944.105Z"/><path d="M1556.5 465.84C1556.5 461.238 1560.23 457.507 1564.83 457.507L1853.17 457.507C1857.77 457.507 1861.5 461.238 1861.5 465.84L1861.5 499.174C1861.5 503.776 1857.77 507.507 1853.17 507.507L1564.83 507.507C1560.23 507.507 1556.5 503.776 1556.5 499.174Z" stroke="#FFFFFF" stroke-width="0.666755" stroke-miterlimit="8" fill="#575454" fill-rule="evenodd"/><text fill="#FFFFFF" font-family="Arial,Arial_MSFontService,sans-serif" font-style="italic" font-weight="400" font-size="32" transform="matrix(1 0 0 1.00001 1584.85 494)">unocs:Regulation</text><path d="M0.0259203-0.999796 8.02429-0.792434 7.97245 1.20716-0.0259203 0.999796ZM14.0231-0.636913 14.3879-0.627455 22.0519-0.0437139 21.9 1.95077 14.2609 1.36894 14.311 1.37149 13.9712 1.36268ZM28.0354 0.412022 28.6616 0.459719 36.0257 1.37901 35.7779 3.36387 28.4377 2.44756 28.4857 2.45238 27.8835 2.40651ZM41.9802 2.12235 42.7094 2.21337 49.9157 3.46045 49.5746 5.43142 42.3915 4.18836 42.4382 4.1953 41.7325 4.10721ZM55.8286 4.4837 56.4198 4.586 63.691 6.2003 63.2574 8.15302 56.0093 6.54382 56.0555 6.55295 55.4875 6.45467ZM69.5491 7.50089 69.6816 7.53031 77.3155 9.61512 76.7886 11.5447 69.1779 9.46626 69.2246 9.47782 69.1156 9.45361ZM83.1414 11.2478 90.7439 13.7417 90.1204 15.6423 82.5179 13.1484ZM96.4572 15.7407 103.913 18.6425 103.188 20.5066 95.7317 17.6048ZM109.464 21.0714 116.023 24.0881 116.769 24.4953 115.811 26.2511 115.095 25.8604 115.156 25.8911 108.628 22.8886ZM122.036 27.3696 125.378 29.1931 128.954 31.5365 127.857 33.2095 124.315 30.8881 124.385 30.9296 121.078 29.1255ZM134.025 34.9212 140.253 39.9431 138.998 41.5003 132.769 36.4784ZM144.552 44.3008 146.315 46.1242 148.659 49.1881 149.528 50.8799 147.749 51.7936 146.921 50.1815 147.016 50.3324 144.762 47.3855 144.837 47.4729 143.114 45.6911ZM155.64 50.0895 153.126 64.785 142.878 53.9563Z" transform="matrix(-1 1.22466e-16 1.22465e-16 1.00001 1475.13 884.013)"/><path d="M1170.5 965.014C1170.5 956.454 1177.44 949.514 1186 949.514L1460 949.514C1468.56 949.514 1475.5 956.454 1475.5 965.014L1475.5 1027.01C1475.5 1035.58 1468.56 1042.52 1460 1042.52L1186 1042.52C1177.44 1042.52 1170.5 1035.58 1170.5 1027.01Z" stroke="#FFFFFF" stroke-width="0.666755" stroke-miterlimit="8" fill="#575454" fill-rule="evenodd"/><text fill="#FFFFFF" font-family="Arial,Arial_MSFontService,sans-serif" font-weight="400" font-size="32" transform="matrix(1 0 0 1.00001 1223.65 988)">unocs:Control</text><text fill="#FFFFFF" font-family="Arial,Arial_MSFontService,sans-serif" font-weight="400" font-size="32" transform="matrix(1 0 0 1.00001 1278.07 1027)">Entitty</text><path d="M0-28 217.333-28 217.333 7-5.08626e-06 7Z" fill="#FFFFFF" fill-rule="evenodd" transform="matrix(1 0 0 1.00001 1150.84 896.267)"/><path d="M0-28 183.333-28 183.333 7-5.08626e-06 7Z" fill="#FFFFFF" fill-rule="evenodd" transform="matrix(1 0 0 1.00001 1150.84 935.268)"/><text font-family="Arial,Arial_MSFontService,sans-serif" font-weight="400" font-size="32" transform="matrix(1 0 0 1.00001 1150.84 896)">unocs:engages</text><text font-family="Arial,Arial_MSFontService,sans-serif" font-weight="400" font-size="32" transform="matrix(1 0 0 1.00001 1150.84 935)">ControlEntity</text><path d="M0-28 249.333-28 249.333 7-5.08626e-06 7Z" fill="#FFFFFF" fill-rule="evenodd" transform="matrix(1 0 0 1.00001 1836.13 817.622)"/><path d="M0-28 8.83333-28 8.83333 7-3.17891e-07 7Z" fill="#FFFFFF" fill-rule="evenodd" transform="matrix(1 0 0 1.00001 2085.49 817.622)"/><path d="M0-28 236.833-28 236.833 7-5.08626e-06 7Z" fill="#FFFFFF" fill-rule="evenodd" transform="matrix(1 0 0 1.00001 1836.13 856.623)"/><text font-family="Arial,Arial_MSFontService,sans-serif" font-weight="400" font-size="32" transform="matrix(1 0 0 1.00001 1836.13 818)">unocs:hasControl</text><text font-family="Arial,Arial_MSFontService,sans-serif" font-weight="400" font-size="32" transform="matrix(1 0 0 1.00001 2085.49 818)"></text><text font-family="Arial,Arial_MSFontService,sans-serif" font-weight="400" font-size="32" transform="matrix(1 0 0 1.00001 1836.13 857)">ActionProcedure</text><path d="M0-28 119.333-28 119.333 7 2.54313e-06 7Z" fill="#FFFFFF" fill-rule="evenodd" transform="matrix(1 0 0 1.00001 1853.29 636.835)"/><path d="M0-28 8.83333-28 8.83333 7-3.17891e-07 7Z" fill="#FFFFFF" fill-rule="evenodd" transform="matrix(1 0 0 1.00001 1972.64 636.835)"/><path d="M0-28 57-28 57 7 0 7Z" fill="#FFFFFF" fill-rule="evenodd" transform="matrix(1 0 0 1.00001 1981.48 636.835)"/><text font-family="Arial,Arial_MSFontService,sans-serif" font-weight="400" font-size="32" transform="matrix(1 0 0 1.00001 1853.29 637)">dicp:has</text><text font-family="Arial,Arial_MSFontService,sans-serif" font-weight="400" font-size="32" transform="matrix(1 0 0 1.00001 1972.64 637)"></text><text font-family="Arial,Arial_MSFontService,sans-serif" font-weight="400" font-size="32" transform="matrix(1 0 0 1.00001 1981.48 637)">End</text><path d="M0-28 186.833-28 186.833 7-5.08626e-06 7Z" fill="#FFFFFF" fill-rule="evenodd" transform="matrix(1 0 0 1.00001 1338.48 679.68)"/><text font-family="Arial,Arial_MSFontService,sans-serif" font-weight="400" font-size="32" transform="matrix(1 0 0 1.00001 1338.48 680)">dicp:hasStart</text><path d="M2270.33 740.011 2270.33 748.012 2268.33 748.012 2268.33 740.011ZM2270.33 754.013 2270.33 762.014 2268.33 762.014 2268.33 754.013ZM2270.33 768.015 2270.33 773.142 2268 773.142 2269 772.142 2269 774.683 2267 774.683 2267 771.141 2269.33 771.141 2268.33 772.142 2268.33 768.015ZM2269 780.684 2269 788.685 2267 788.685 2267 780.684ZM2274.67 790.937 2268 804.272 2261.33 790.937Z"/><path d="M0-28 331.167-28 331.167 7-1.01725e-05 7Z" fill="#FFFFFF" fill-rule="evenodd" transform="matrix(1 0 0 1.00001 2106.69 774.743)"/><text font-family="Arial,Arial_MSFontService,sans-serif" font-weight="400" font-size="32" transform="matrix(1 0 0 1.00001 2106.69 775)">unocs:precendeceOver</text><path d="M2270.33 891.013 2270.33 899.014 2268.33 899.014 2268.33 891.013ZM2270.33 905.015 2270.33 913.016 2268.33 913.016 2268.33 905.015ZM2270.33 919.017 2270.33 924.144 2268 924.144 2269 923.144 2269 925.685 2267 925.685 2267 922.144 2269.33 922.144 2268.33 923.144 2268.33 919.017ZM2269 931.686 2269 939.687 2267 939.687 2267 931.686ZM2274.67 941.939 2268 955.274 2261.33 941.939Z"/><path d="M2270.33 1042.02 2270.33 1050.02 2268.33 1050.02 2268.33 1042.02ZM2270.33 1056.02 2270.33 1064.02 2268.33 1064.02 2268.33 1056.02ZM2270.33 1070.02 2270.33 1075.15 2268 1075.15 2269 1074.15 2269 1076.69 2267 1076.69 2267 1073.15 2269.33 1073.15 2268.33 1074.15 2268.33 1070.02ZM2269 1082.69 2269 1090.69 2267 1090.69 2267 1082.69ZM2274.67 1092.94 2268 1106.28 2261.33 1092.94Z"/><path d="M2270.33 1193.02 2270.33 1201.02 2268.33 1201.02 2268.33 1193.02ZM2270.33 1207.02 2270.33 1215.02 2268.33 1215.02 2268.33 1207.02ZM2270.33 1221.02 2270.33 1226.15 2268 1226.15 2269 1225.15 2269 1227.69 2267 1227.69 2267 1224.15 2269.33 1224.15 2268.33 1225.15 2268.33 1221.02ZM2269 1233.69 2269 1241.69 2267 1241.69 2267 1233.69ZM2274.67 1243.94 2268 1257.28 2261.33 1243.94Z"/><path d="M0-28 331.167-28 331.167 7-1.01725e-05 7Z" fill="#FFFFFF" fill-rule="evenodd" transform="matrix(1 0 0 1.00001 2107.53 925.514)"/><text font-family="Arial,Arial_MSFontService,sans-serif" font-weight="400" font-size="32" transform="matrix(1 0 0 1.00001 2107.53 926)">unocs:precendeceOver</text><path d="M0-28 331.167-28 331.167 7-1.01725e-05 7Z" fill="#FFFFFF" fill-rule="evenodd" transform="matrix(1 0 0 1.00001 2108.38 1076.28)"/><text font-family="Arial,Arial_MSFontService,sans-serif" font-weight="400" font-size="32" transform="matrix(1 0 0 1.00001 2108.38 1076)">unocs:precendeceOver</text><path d="M0-28 331.167-28 331.167 7-1.01725e-05 7Z" fill="#FFFFFF" fill-rule="evenodd" transform="matrix(1 0 0 1.00001 2109.22 1227.05)"/><text font-family="Arial,Arial_MSFontService,sans-serif" font-weight="400" font-size="32" transform="matrix(1 0 0 1.00001 2109.22 1227)">unocs:precendeceOver</text><path d="M1121.01 602.884 1121.65 597.111 1122.4 594.831 1124.3 595.456 1123.58 597.638 1123.62 597.436 1122.99 603.105ZM1124.73 589.132 1126.7 585.489 1129.11 582.286 1130.71 583.487 1128.34 586.631 1128.42 586.507 1126.49 590.085ZM1133.05 577.622 1136.38 574.142 1138.87 572.002 1140.17 573.518 1137.72 575.627 1137.79 575.56 1134.5 579.005ZM1143.52 568.087 1149.97 563.361 1151.16 564.975 1144.7 569.701ZM1155.08 560.08 1158.8 557.711 1161.97 555.926 1162.95 557.669 1159.8 559.441 1159.85 559.413 1156.15 561.768ZM1167.2 552.985 1168.22 552.416 1174.37 549.323 1175.27 551.11 1169.14 554.192 1169.18 554.171 1168.18 554.728ZM1179.79 546.66 1187.08 543.357 1187.9 545.178 1180.62 548.482ZM1192.62 540.965 1200.02 537.919 1200.78 539.769 1193.38 542.815ZM1205.64 535.744 1213.13 532.93 1213.84 534.803 1206.35 537.616ZM1218.82 530.928 1226.38 528.324 1227.04 530.216 1219.47 532.819ZM1232.12 526.464 1239.75 524.053 1240.35 525.961 1232.72 528.371ZM1245.51 522.31 1253.19 520.077 1253.75 521.998 1246.07 524.23ZM1258.99 518.431 1266.72 516.365 1267.23 518.298 1259.5 520.364ZM1272.51 514.816 1273.01 514.684 1280.3 512.891 1280.78 514.834 1273.49 516.624 1273.51 516.619 1273.03 516.748ZM1286.13 511.459 1289.2 510.704 1293.94 509.635 1294.38 511.586 1289.65 512.654 1289.67 512.649 1286.61 513.401ZM1299.79 508.314 1305.94 506.925 1307.62 506.579 1308.03 508.537 1306.36 508.882 1306.38 508.878 1300.23 510.265ZM1313.5 505.364 1321.33 503.744 1321.74 505.703 1313.9 507.323ZM1327.24 502.596 1335.1 501.112 1335.47 503.078 1327.61 504.561ZM1341.02 499.998 1348.9 498.647 1349.24 500.619 1341.35 501.97ZM1354.82 497.634 1359.12 496.897 1362.73 496.339 1363.03 498.316 1359.43 498.872 1359.45 498.87 1355.15 499.605ZM1368.66 495.423 1376.57 494.201 1376.87 496.178 1368.96 497.4ZM1382.52 493.36 1390.45 492.265 1390.72 494.247 1382.8 495.341ZM1396.39 491.444 1396.63 491.412 1404.37 490.53 1404.59 492.518 1396.87 493.398 1396.89 493.395 1396.67 493.426ZM1410.33 489.851 1418.28 488.944 1418.51 490.932 1410.56 491.838ZM1424.24 488.265 1432.19 487.359 1432.42 489.346 1424.47 490.252ZM1438.19 486.763 1446.17 486.108 1446.33 488.101 1438.36 488.757ZM1452.15 485.616 1460.12 484.96 1460.29 486.954 1452.31 487.61ZM1466.1 484.469 1474.08 483.813 1474.24 485.807 1466.27 486.462ZM1480.1 483.477 1488.09 483.076 1488.19 485.074 1480.2 485.475ZM1494.08 482.776 1502.07 482.375 1502.17 484.373 1494.18 484.773ZM1508.07 482.074 1515.49 481.702 1516.09 481.691 1516.13 483.691 1515.54 483.701 1515.58 483.7 1508.17 484.072ZM1522.09 481.589 1530.09 481.452 1530.13 483.452 1522.13 483.589ZM1536.09 481.35 1544.09 481.213 1544.13 483.213 1536.13 483.35ZM1542.73 475.568 1556.18 482.007 1542.96 488.902Z"/><path d="M0-28 228-28 228 7 0 7Z" fill="#FFFFFF" fill-rule="evenodd" transform="matrix(1 0 0 1.00001 1220.91 507.196)"/><path d="M0-28 190.667-28 190.667 7 5.08626e-06 7Z" fill="#FFFFFF" fill-rule="evenodd" transform="matrix(1 0 0 1.00001 1220.91 546.197)"/><text font-family="Arial,Arial_MSFontService,sans-serif" font-weight="400" font-size="32" transform="matrix(1 0 0 1.00001 1220.91 507)">unocs:isDefined</text><text font-family="Arial,Arial_MSFontService,sans-serif" font-weight="400" font-size="32" transform="matrix(1 0 0 1.00001 1220.91 546)">ByRegulation</text><path d="M0-28 249.333-28 249.333 7-5.08626e-06 7Z" fill="#FFFFFF" fill-rule="evenodd" transform="matrix(1 0 0 1.00001 1559 997.493)"/><path d="M0-28 8.83333-28 8.83333 7-3.17891e-07 7Z" fill="#FFFFFF" fill-rule="evenodd" transform="matrix(1 0 0 1.00001 1808.37 997.493)"/><path d="M0-28 236.833-28 236.833 7-5.08626e-06 7Z" fill="#FFFFFF" fill-rule="evenodd" transform="matrix(1 0 0 1.00001 1559 1036.49)"/><text font-family="Arial,Arial_MSFontService,sans-serif" font-weight="400" font-size="32" transform="matrix(1 0 0 1.00001 1559 997)">unocs:hasControl</text><text font-family="Arial,Arial_MSFontService,sans-serif" font-weight="400" font-size="32" transform="matrix(1 0 0 1.00001 1808.37 997)"></text><text font-family="Arial,Arial_MSFontService,sans-serif" font-weight="400" font-size="32" transform="matrix(1 0 0 1.00001 1559 1036)">ActionProcedure</text><path d="M1815.5 970.348C1815.5 966.574 1818.56 963.514 1822.33 963.514L2051.67 963.514C2055.44 963.514 2058.5 966.574 2058.5 970.348L2058.5 997.681C2058.5 1001.46 2055.44 1004.51 2051.67 1004.51L1822.33 1004.51C1818.56 1004.51 1815.5 1001.46 1815.5 997.681Z" stroke="#FFFFFF" stroke-width="0.666755" stroke-miterlimit="8" fill="#575454" fill-rule="evenodd"/><text fill="#FFFFFF" font-family="Arial,Arial_MSFontService,sans-serif" font-style="italic" font-weight="400" font-size="32" transform="matrix(1 0 0 1.00001 1861.25 995)">dica:Agent</text><path d="M1781.03 883.013 1789.03 883.26 1788.97 885.259 1780.97 885.013ZM1795.03 883.445 1795.7 883.466 1803.06 884.133 1802.88 886.125 1795.55 885.461 1795.61 885.464 1794.96 885.444ZM1809.03 884.675 1810.28 884.788 1817.01 885.788 1816.72 887.766 1810.02 886.77 1810.07 886.777 1808.85 886.667ZM1822.95 886.67 1824.63 886.92 1830.85 888.202 1830.45 890.161 1824.25 888.885 1824.31 888.894 1822.65 888.648ZM1836.73 889.412 1838.64 889.804 1844.55 891.366 1844.03 893.299 1838.15 891.745 1838.21 891.758 1836.33 891.371ZM1850.35 892.898 1852.18 893.384 1858.04 895.287 1857.42 897.189 1851.59 895.295 1851.65 895.31 1849.84 894.832ZM1863.75 897.142 1865.16 897.601 1871.28 899.992 1870.56 901.855 1864.46 899.474 1864.51 899.494 1863.13 899.044ZM1876.87 902.174 1877.45 902.398 1884.2 905.528 1883.36 907.343 1876.63 904.226 1876.69 904.25 1876.15 904.037ZM1889.68 908.129 1896.7 911.971 1895.74 913.725 1888.72 909.884ZM1901.92 915.073 1908.63 919.431 1907.54 921.108 1900.83 916.751ZM1913.46 923.138 1917.48 926.278 1919.65 928.354 1918.26 929.797 1916.14 927.757 1916.21 927.824 1912.23 924.715ZM1923.98 932.509 1924.65 933.151 1929.18 938.738 1927.63 939.999 1923.13 934.46 1923.22 934.551 1922.59 933.952ZM1932.67 943.751 1932.78 943.93 1934.76 947.659 1935.75 950.694 1933.85 951.318 1932.88 948.363 1932.95 948.52 1931.03 944.903 1931.08 944.976 1930.98 944.832ZM1941.04 948.29 1937.34 962.735 1928 951.116Z"/><path d="M0-28 203-28 203 7 0 7Z" fill="#FFFFFF" fill-rule="evenodd" transform="matrix(1 0 0 1.00001 1838.28 930.934)"/><text font-family="Arial,Arial_MSFontService,sans-serif" font-weight="400" font-size="32" transform="matrix(1 0 0 1.00001 1838.28 931)">dica:hasAgent</text><path d="M1281.5 704.01C1281.5 698.764 1285.75 694.51 1291 694.51L1521 694.51C1526.25 694.51 1530.5 698.764 1530.5 704.01L1530.5 742.011C1530.5 747.258 1526.25 751.511 1521 751.511L1291 751.511C1285.75 751.511 1281.5 747.258 1281.5 742.011Z" stroke="#FFFFFF" stroke-width="0.666755" stroke-miterlimit="8" fill="#575454" fill-rule="evenodd"/><text fill="#FFFFFF" font-family="Arial,Arial_MSFontService,sans-serif" font-style="italic" font-weight="400" font-size="32" transform="matrix(1 0 0 1.00001 1310.85 735)">dice:Location</text><path d="M0.156743-0.987773 4.3235-0.326581 8.0059 1.39011 7.16072 3.20305 3.60555 1.54566 3.87139 1.62697-0.156743 0.987773ZM13.0723 5.23097 16.5667 8.93225 18.3645 11.3753 16.7535 12.5609 14.9919 10.1671 15.0702 10.2609 11.6178 6.60414ZM21.7592 16.4306 23.944 20.0827 25.6481 23.5042 23.8577 24.396 22.1707 21.0089 22.2077 21.0765 20.0426 17.4575ZM28.2191 28.9945 30.5113 34.4545 31.2261 36.4669 29.3413 37.1365 28.6358 35.1505 28.6561 35.2029 26.3748 29.7688ZM33.2348 42.1216 33.4229 42.6511 35.5712 49.8259 33.6549 50.3997 31.5139 43.249 31.5296 43.2969 31.3499 42.7911ZM37.1084 55.6733 38.353 60.6664 38.9289 63.5082 36.9685 63.9055 36.397 61.0854 36.4068 61.1287 35.1676 56.1571ZM40.1207 69.3895 40.3102 70.3245 41.4164 77.328 39.4407 77.6401 38.3378 70.6579 38.3455 70.7005 38.1603 69.7867ZM42.2298 83.3156 43.0528 90.5384 43.1066 91.3121 41.1112 91.4508 41.0589 90.6991 41.0629 90.743 40.2424 83.542ZM43.5228 97.2985 43.7755 100.933 43.8796 105.335 41.8799 105.383 41.7763 101.003 41.7784 101.049 41.5273 97.4372ZM44.0216 111.334 44.0228 111.387 44.2109 119.333 42.2112 119.381 42.0231 111.434 42.0219 111.382ZM44.5113 125.279 44.987 132.122 44.983 132.078 45.1123 133.212 43.1249 133.439 42.9931 132.282 42.5159 125.418ZM45.7916 139.175 46.1437 142.264 46.1378 142.221 46.901 147.053 44.9253 147.365 44.1587 142.512 43.8042 139.401ZM47.8648 152.931 49.4539 160.773 47.4935 161.17 45.9044 153.329ZM50.853 166.562 51.9341 170.899 51.9218 170.854 52.9346 174.237 51.0184 174.811 49.9989 171.406 48.9121 167.046ZM54.6609 179.931 57.3391 187.471 55.4542 188.14 52.776 180.601ZM59.6305 192.955 60.5356 195.111 60.5087 195.053 63.0332 200.122 61.2428 201.013 58.7038 195.915 57.7862 193.73ZM65.9494 205.273 67.3935 207.687 67.3408 207.608 70.4158 211.787 68.8048 212.972 65.7015 208.755 64.2329 206.3ZM74.3561 216.141 74.8146 216.626 74.6946 216.518 78.6282 219.524 78.3436 219.372 79.9897 219.933 79.3445 221.826 77.5436 221.212 73.4158 218.058 72.9016 217.514ZM80.3328 214.112 86.0457 222.821 76.4499 226.87Z" transform="matrix(-1.83697e-16 -1.00001 -1 1.837e-16 1627.82 837.058)"/><path d="M0-28 240.5-28 240.5 7 0 7Z" fill="#FFFFFF" fill-rule="evenodd" transform="matrix(1 0 0 1.00001 1315.55 802.486)"/><text font-family="Arial,Arial_MSFontService,sans-serif" font-weight="400" font-size="32" transform="matrix(1 0 0 1.00001 1315.55 802)">dicp:hasLocation</text><rect x="773.5" y="342.505" width="1658" height="1002.01" stroke="#575454" stroke-width="3.33377" stroke-miterlimit="8" stroke-dasharray="26.6702 10.0013" fill="none"/><text font-family="Arial,Arial_MSFontService,sans-serif" font-weight="700" font-size="32" transform="matrix(1 0 0 1.00001 782.404 378)">UNOCS</text><text font-family="Arial,Arial_MSFontService,sans-serif" font-weight="700" font-size="32" transform="matrix(1 0 0 1.00001 906.921 378)">–</text><text font-family="Arial,Arial_MSFontService,sans-serif" font-weight="700" font-size="32" transform="matrix(1 0 0 1.00001 933.591 378)">MitigationPlan</text><path d="M976.5 613.009C976.5 607.762 980.753 603.509 986 603.509L1259 603.509C1264.25 603.509 1268.5 607.762 1268.5 613.009L1268.5 651.009C1268.5 656.256 1264.25 660.51 1259 660.51L986 660.51C980.753 660.51 976.5 656.256 976.5 651.009Z" stroke="#FFFFFF" stroke-width="0.666755" stroke-miterlimit="8" fill="#575454" fill-rule="evenodd"/><text fill="#FFFFFF" font-family="Arial,Arial_MSFontService,sans-serif" font-style="italic" font-weight="400" font-size="32" transform="matrix(1 0 0 1.00001 988.792 643)">unocs:HazardType</text><path d="M1119 743.738 1119.02 735.927 1119.02 735.733 1121.02 735.746 1121.02 735.938 1121.02 735.934 1121 743.743ZM1119.06 729.732 1119.07 728.359 1119.14 721.727 1121.14 721.749 1121.07 728.379 1121.07 728.375 1121.06 729.745ZM1119.24 715.721 1119.25 714.939 1119.37 709.575 1119.43 707.706 1121.43 707.771 1121.37 709.635 1121.37 709.625 1121.25 714.98 1121.25 714.974 1121.24 715.754ZM1119.87 701.467 1119.91 701.339 1119.88 701.53 1119.95 700.83 1119.95 700.87 1120.02 699.741 1120.02 699.759 1120.09 698.231 1120.09 698.245 1120.22 694.115 1120.22 694.125 1120.23 693.756 1122.23 693.801 1122.22 694.175 1122.09 698.317 1122.02 699.861 1121.94 701.019 1121.85 701.837 1121.79 702.06ZM1120.36 687.763 1120.44 682.439 1120.44 682.444 1120.47 679.768 1122.47 679.79 1122.44 682.469 1122.36 687.795ZM1120.53 673.773 1120.54 672.006 1122.54 672.017 1122.53 673.784ZM1114.87 673.317 1121.59 660.01 1128.2 673.372Z"/><path d="M0-28 318.733-28 318.733 7 4.06901e-06 7Z" fill="#FFFFFF" fill-rule="evenodd" transform="matrix(1 0 0 1.00001 941.978 717.676)"/><text font-family="Arial,Arial_MSFontService,sans-serif" font-weight="400" font-size="32" transform="matrix(1 0 0 1.00001 941.978 718)">unocs:hasHazardType</text><path d="M0 1.00013-8.00106 1.00013-8.00106-1.00013 0-1.00013ZM-14.0019 1.00013-22.0029 1.00013-22.0029-1.00013-14.0019-1.00013ZM-23.0065 3.99709-23.0065 11.9981-25.0067 11.9981-25.0067 3.99709ZM-23.0065 17.9989-23.0065 26-25.0067 26-25.0067 17.9989ZM-23.0065 32.0008-23.0065 40.0019-25.0067 40.0019-25.0067 32.0008ZM-23.0065 46.0026-23.0065 54.0037-25.0067 54.0037-25.0067 46.0026ZM-23.0065 60.0045-23.0065 68.0056-25.0067 68.0056-25.0067 60.0045ZM-23.0065 74.0063-23.0065 82.0074-25.0067 82.0074-25.0067 74.0063ZM-23.0065 88.0082-23.0065 96.0093-25.0067 96.0093-25.0067 88.0082ZM-23.0065 102.01-23.0065 110.011-25.0067 110.011-25.0067 102.01ZM-23.0065 116.012-23.0065 124.013-25.0067 124.013-25.0067 116.012ZM-23.0065 130.014-23.0065 138.015-25.0067 138.015-25.0067 130.014ZM-23.0065 144.016-23.0065 152.017-25.0067 152.017-25.0067 144.016ZM-23.0065 158.017-23.0065 166.019-25.0067 166.019-25.0067 158.017ZM-23.0065 172.019-23.0065 180.02-25.0067 180.02-25.0067 172.019ZM-23.0065 186.021-23.0065 194.022-25.0067 194.022-25.0067 186.021ZM-23.0065 200.023-23.0065 208.024-25.0067 208.024-25.0067 200.023ZM-23.0065 214.025-23.0065 222.026-25.0067 222.026-25.0067 214.025ZM-23.0065 228.027-23.0065 233.444-24.0066 232.444-21.4229 232.444-21.4229 234.444-25.0067 234.444-25.0067 228.027ZM-15.4221 232.444-7.42106 232.444-7.42106 234.444-15.4221 234.444ZM-1.42027 232.444 6.58079 232.444 6.58079 234.444-1.42027 234.444ZM12.5816 232.444 20.5826 232.444 20.5826 234.444 12.5816 234.444ZM26.5834 232.444 34.5845 232.444 34.5845 234.444 26.5834 234.444ZM40.5853 232.444 48.5863 232.444 48.5863 234.444 40.5853 234.444ZM54.5871 232.444 62.5882 232.444 62.5882 234.444 54.5871 234.444ZM68.589 232.444 76.59 232.444 76.59 234.444 68.589 234.444ZM82.5908 232.444 90.5919 232.444 90.5919 234.444 82.5908 234.444ZM96.5927 232.444 104.594 232.444 104.594 234.444 96.5927 234.444ZM110.595 232.444 118.596 232.444 118.596 234.444 110.595 234.444ZM124.596 232.444 132.597 232.444 132.597 234.444 124.596 234.444ZM138.598 232.444 146.599 232.444 146.599 234.444 138.598 234.444ZM152.6 232.444 160.601 232.444 160.601 234.444 152.6 234.444ZM166.602 232.444 174.603 232.444 174.603 234.444 166.602 234.444ZM180.604 232.444 188.605 232.444 188.605 234.444 180.604 234.444ZM194.606 232.444 202.607 232.444 202.607 234.444 194.606 234.444ZM208.607 232.444 216.609 232.444 216.609 234.444 208.607 234.444ZM222.609 232.444 230.61 232.444 230.61 234.444 222.609 234.444ZM236.611 232.444 244.612 232.444 244.612 234.444 236.611 234.444ZM250.613 232.444 258.614 232.444 258.614 234.444 250.613 234.444ZM264.615 232.444 272.616 232.444 272.616 234.444 264.615 234.444ZM278.617 232.444 286.618 232.444 286.618 234.444 278.617 234.444ZM292.619 232.444 300.62 232.444 300.62 234.444 292.619 234.444ZM306.62 232.444 314.621 232.444 314.621 234.444 306.62 234.444ZM320.622 232.444 328.623 232.444 328.623 234.444 320.622 234.444ZM334.624 232.444 342.625 232.444 342.625 234.444 334.624 234.444ZM348.626 232.444 356.627 232.444 356.627 234.444 348.626 234.444ZM362.628 232.444 370.629 232.444 370.629 234.444 362.628 234.444ZM376.63 232.444 384.631 232.444 384.631 234.444 376.63 234.444ZM390.632 232.444 398.633 232.444 398.633 234.444 390.632 234.444ZM404.633 232.444 412.634 232.444 412.634 234.444 404.633 234.444ZM418.635 232.444 426.636 232.444 426.636 234.444 418.635 234.444ZM432.637 232.444 440.638 232.444 440.638 234.444 432.637 234.444ZM446.639 232.444 454.64 232.444 454.64 234.444 446.639 234.444ZM460.641 232.444 468.642 232.444 468.642 234.444 460.641 234.444ZM474.643 232.444 482.644 232.444 482.644 234.444 474.643 234.444ZM488.645 232.444 496.646 232.444 496.646 234.444 488.645 234.444ZM502.646 232.444 510.647 232.444 510.647 234.444 502.646 234.444ZM516.648 232.444 524.649 232.444 524.649 234.444 516.648 234.444ZM530.65 232.444 538.651 232.444 538.651 234.444 530.65 234.444ZM544.652 232.444 552.653 232.444 552.653 234.444 544.652 234.444ZM558.654 232.444 566.655 232.444 566.655 234.444 558.654 234.444ZM572.656 232.444 580.657 232.444 580.657 234.444 572.656 234.444ZM586.657 232.444 594.659 232.444 594.659 234.444 586.657 234.444ZM600.659 232.444 608.66 232.444 608.66 234.444 600.659 234.444ZM614.661 232.444 622.662 232.444 622.662 234.444 614.661 234.444ZM628.663 232.444 636.664 232.444 636.664 234.444 628.663 234.444ZM642.665 232.444 650.666 232.444 650.666 234.444 642.665 234.444ZM656.667 232.444 664.668 232.444 664.668 234.444 656.667 234.444ZM670.669 232.444 678.67 232.444 678.67 234.444 670.669 234.444ZM684.67 232.444 692.672 232.444 692.672 234.444 684.67 234.444ZM698.672 232.444 706.673 232.444 706.673 234.444 698.672 234.444ZM712.674 232.444 720.675 232.444 720.675 234.444 712.674 234.444ZM726.676 232.444 734.677 232.444 734.677 234.444 726.676 234.444ZM740.678 232.444 748.679 232.444 748.679 234.444 740.678 234.444ZM754.68 232.444 762.681 232.444 762.681 234.444 754.68 234.444ZM768.682 232.444 776.683 232.444 776.683 234.444 768.682 234.444ZM782.683 232.444 790.684 232.444 790.684 234.444 782.683 234.444ZM796.685 232.444 804.686 232.444 804.686 234.444 796.685 234.444ZM810.687 232.444 818.688 232.444 818.688 234.444 810.687 234.444ZM824.689 232.444 832.69 232.444 832.69 234.444 824.689 234.444ZM838.691 232.444 846.692 232.444 846.692 234.444 838.691 234.444ZM852.693 232.444 860.694 232.444 860.694 234.444 852.693 234.444ZM866.695 232.444 874.696 232.444 874.696 234.444 866.695 234.444ZM880.696 232.444 888.697 232.444 888.697 234.444 880.696 234.444ZM894.698 232.444 902.699 232.444 902.699 234.444 894.698 234.444ZM908.7 232.444 916.701 232.444 916.701 234.444 908.7 234.444ZM922.702 232.444 930.703 232.444 930.703 234.444 922.702 234.444ZM936.704 232.444 944.705 232.444 944.705 234.444 936.704 234.444ZM950.706 232.444 958.707 232.444 958.707 234.444 950.706 234.444ZM964.707 232.444 972.708 232.444 972.708 234.444 964.707 234.444ZM978.709 232.444 986.71 232.444 986.71 234.444 978.709 234.444ZM992.711 232.444 1000.71 232.444 1000.71 234.444 992.711 234.444ZM1006.71 232.444 1014.71 232.444 1014.71 234.444 1006.71 234.444ZM1020.71 232.444 1028.72 232.444 1028.72 234.444 1020.71 234.444ZM1034.72 232.444 1042.72 232.444 1042.72 234.444 1034.72 234.444ZM1048.72 232.444 1056.72 232.444 1056.72 234.444 1048.72 234.444ZM1062.72 232.444 1070.72 232.444 1070.72 234.444 1062.72 234.444ZM1076.72 232.444 1084.72 232.444 1084.72 234.444 1076.72 234.444ZM1090.72 232.444 1098.73 232.444 1098.73 234.444 1090.72 234.444ZM1104.73 232.444 1112.73 232.444 1112.73 234.444 1104.73 234.444ZM1118.73 232.444 1126.73 232.444 1126.73 234.444 1118.73 234.444ZM1132.73 232.444 1140.73 232.444 1140.73 234.444 1132.73 234.444ZM1146.73 232.444 1154.73 232.444 1154.73 234.444 1146.73 234.444ZM1160.73 232.444 1168.73 232.444 1168.73 234.444 1160.73 234.444ZM1174.74 232.444 1182.74 232.444 1182.74 234.444 1174.74 234.444ZM1188.74 232.444 1196.74 232.444 1196.74 234.444 1188.74 234.444ZM1202.74 232.444 1210.74 232.444 1210.74 234.444 1202.74 234.444ZM1216.74 232.444 1224.74 232.444 1224.74 234.444 1216.74 234.444ZM1230.74 232.444 1238.74 232.444 1238.74 234.444 1230.74 234.444ZM1244.74 232.444 1252.75 232.444 1252.75 234.444 1244.74 234.444ZM1258.75 232.444 1266.75 232.444 1266.75 234.444 1258.75 234.444ZM1272.75 232.444 1280.75 232.444 1280.75 234.444 1272.75 234.444ZM1286.75 232.444 1292.79 232.444 1291.79 233.444 1291.79 231.487 1293.79 231.487 1293.79 234.444 1286.75 234.444ZM1291.79 225.486 1291.79 217.485 1293.79 217.485 1293.79 225.486ZM1291.79 211.485 1291.79 203.484 1293.79 203.484 1293.79 211.485ZM1291.79 197.483 1291.79 189.482 1293.79 189.482 1293.79 197.483ZM1291.79 183.481 1291.79 175.48 1293.79 175.48 1293.79 183.481ZM1291.79 169.479 1291.79 161.478 1293.79 161.478 1293.79 169.479ZM1291.79 155.477 1291.79 147.476 1293.79 147.476 1293.79 155.477ZM1291.79 141.475 1291.79 133.474 1293.79 133.474 1293.79 141.475ZM1291.79 127.474 1291.79 119.472 1293.79 119.472 1293.79 127.474ZM1286.13 117.668 1292.79 104.333 1299.46 117.668Z" transform="matrix(1 -1.22466e-16 -1.22465e-16 -1.00001 976 631.342)"/><path d="M0-28 284.833-28 284.833 7 1.01725e-05 7Z" fill="#FFFFFF" fill-rule="evenodd" transform="matrix(1 0 0 1.00001 963.289 439.392)"/><path d="M0-28 251.167-28 251.167 7 5.08626e-06 7Z" fill="#FFFFFF" fill-rule="evenodd" transform="matrix(1 0 0 1.00001 963.289 478.392)"/><text font-family="Arial,Arial_MSFontService,sans-serif" font-weight="400" font-size="32" transform="matrix(1 0 0 1.00001 963.289 439)">unocs:isMitigatedBy</text><text font-family="Arial,Arial_MSFontService,sans-serif" font-weight="400" font-size="32" transform="matrix(1 0 0 1.00001 963.289 478)">ControlProcedure</text></g></svg>