<svg width="1762" height="1077" xmlns="http://www.w3.org/2000/svg" xmlns:xlink="http://www.w3.org/1999/xlink" xml:space="preserve" overflow="hidden"><defs><clipPath id="clip0"><rect x="728" y="310" width="1762" height="1077"/></clipPath></defs><g clip-path="url(#clip0)" transform="translate(-728 -310)"><path d="M0 0 3777.12 0 3777.12 2266.3 0 2266.3Z" fill="#FFFFFF" transform="matrix(1.00059 0 0 1 0.251898 0.518023)"/><path d="M799.39 1056.21 1268.03 1056.21 1268.03 1312.02 799.39 1312.02Z" stroke="#042433" stroke-width="1.99874" stroke-miterlimit="8" fill="#E8E8E8" transform="matrix(1.00059 0 0 1 0.251898 0.518023)"/><text font-family="Arial,Arial_MSFontService,sans-serif" font-weight="700" font-size="32" transform="matrix(0.999823 0 0 0.999248 809.273 1093)">Legend</text><path d="M0 33.9744 56.9571 33.9744 113.914 33.9744 113.914 36.9722 56.9571 36.9722 0 36.9722Z" fill-rule="evenodd" transform="matrix(1.00058 0 0 1 809.273 1061.57)"/><path d="M818.376 1129.16 921.931 1129.16 921.931 1131.16 818.376 1131.16ZM920.598 1123.49 928.593 1130.16 920.598 1136.81Z" transform="matrix(1.00059 0 0 1 0.251898 0.518023)"/><path d="M821.373 1159.14 829.368 1159.14 829.368 1161.13 821.373 1161.13ZM835.365 1159.14 843.36 1159.14 843.36 1161.13 835.365 1161.13ZM849.356 1159.14 857.351 1159.14 857.351 1161.13 849.356 1161.13ZM863.346 1159.14 871.342 1159.14 871.342 1161.13 863.346 1161.13ZM877.338 1159.14 885.333 1159.14 885.333 1161.13 877.338 1161.13ZM891.329 1159.14 899.324 1159.14 899.324 1161.13 891.329 1161.13ZM905.32 1159.14 913.315 1159.14 913.315 1161.13 905.32 1161.13ZM919.312 1159.14 924.927 1159.14 924.927 1161.13 919.312 1161.13ZM923.595 1153.47 931.59 1160.13 923.595 1166.79Z" transform="matrix(1.00059 0 0 1 0.251898 0.518023)"/><text font-family="Arial,Arial_MSFontService,sans-serif" font-weight="400" font-size="32" transform="matrix(0.999823 0 0 0.999248 948.33 1132)">rdfs</text><text font-family="Arial,Arial_MSFontService,sans-serif" font-weight="400" font-size="32" transform="matrix(0.999823 0 0 0.999248 1002.32 1132)">:</text><text font-family="Arial,Arial_MSFontService,sans-serif" font-weight="400" font-size="32" transform="matrix(0.999823 0 0 0.999248 1011.32 1132)">subClassOf</text><text font-family="Arial,Arial_MSFontService,sans-serif" font-weight="400" font-size="32" transform="matrix(0.999823 0 0 0.999248 948.33 1170)">owl</text><text font-family="Arial,Arial_MSFontService,sans-serif" font-weight="400" font-size="32" transform="matrix(0.999823 0 0 0.999248 995.322 1170)">:</text><text font-family="Arial,Arial_MSFontService,sans-serif" font-weight="400" font-size="32" transform="matrix(0.999823 0 0 0.999248 1004.32 1170)">ObjectProperty</text><text font-family="Arial,Arial_MSFontService,sans-serif" font-weight="400" font-size="32" transform="matrix(0.999823 0 0 0.999248 948.33 1209)">owl</text><text font-family="Arial,Arial_MSFontService,sans-serif" font-weight="400" font-size="32" transform="matrix(0.999823 0 0 0.999248 995.322 1209)">:</text><text font-family="Arial,Arial_MSFontService,sans-serif" font-weight="400" font-size="32" transform="matrix(0.999823 0 0 0.999248 1004.32 1209)">DatatypeProperty</text><text font-family="Arial,Arial_MSFontService,sans-serif" font-weight="400" font-size="32" transform="matrix(0.999823 0 0 0.999248 948.33 1247)">rdfs</text><text font-family="Arial,Arial_MSFontService,sans-serif" font-weight="400" font-size="32" transform="matrix(0.999823 0 0 0.999248 1002.32 1247)">:</text><text font-family="Arial,Arial_MSFontService,sans-serif" font-weight="400" font-size="32" transform="matrix(0.999823 0 0 0.999248 1011.32 1247)">Class</text><text font-family="Arial,Arial_MSFontService,sans-serif" font-weight="400" font-size="32" transform="matrix(0.999823 0 0 0.999248 948.33 1286)">rdfs</text><text font-family="Arial,Arial_MSFontService,sans-serif" font-weight="400" font-size="32" transform="matrix(0.999823 0 0 0.999248 1002.32 1286)">:</text><text font-family="Arial,Arial_MSFontService,sans-serif" font-weight="400" font-size="32" transform="matrix(0.999823 0 0 0.999248 1011.32 1286)">Literal</text><path d="M820.374 1198.11 828.369 1198.11 828.369 1200.1 820.374 1200.1ZM834.365 1198.11 836.364 1198.11 836.364 1200.1 834.365 1200.1ZM842.36 1198.11 850.355 1198.11 850.355 1200.1 842.36 1200.1ZM856.352 1198.11 858.35 1198.11 858.35 1200.1 856.352 1200.1ZM864.347 1198.11 872.341 1198.11 872.341 1200.1 864.347 1200.1ZM878.338 1198.11 880.336 1198.11 880.336 1200.1 878.338 1200.1ZM886.333 1198.11 894.328 1198.11 894.328 1200.1 886.333 1200.1ZM900.324 1198.11 902.323 1198.11 902.323 1200.1 900.324 1200.1ZM908.319 1198.11 916.314 1198.11 916.314 1200.1 908.319 1200.1ZM922.31 1198.11 923.929 1198.11 923.929 1200.1 922.31 1200.1ZM922.596 1192.44 930.591 1199.11 922.596 1205.77Z" transform="matrix(1.00059 0 0 1 0.251898 0.518023)"/><path d="M821.873 1223.09C821.873 1219.5 824.781 1216.59 828.368 1216.59L928.292 1216.59C931.879 1216.59 934.787 1219.5 934.787 1223.09L934.787 1249.07C934.787 1252.65 931.879 1255.56 928.292 1255.56L828.368 1255.56C824.781 1255.56 821.873 1252.65 821.873 1249.07Z" stroke="#FFFFFF" stroke-width="0.666247" stroke-miterlimit="8" fill="#575454" fill-rule="evenodd" transform="matrix(1.00059 0 0 1 0.251898 0.518023)"/><text fill="#FFFFFF" font-family="Arial,Arial_MSFontService,sans-serif" font-style="italic" font-weight="400" font-size="27" transform="matrix(0.999823 0 0 0.999248 845.07 1247)">Class</text><path d="M820.874 1258.56 935.786 1258.56 935.786 1296.53 820.874 1296.53Z" stroke="#000000" stroke-width="0.666247" stroke-miterlimit="8" fill="#FFFFFF" transform="matrix(1.00059 0 0 1 0.251898 0.518023)"/><text font-family="Arial,Arial_MSFontService,sans-serif" font-weight="400" font-size="27" transform="matrix(0.999823 0 0 0.999248 842.533 1288)">Literal</text><path d="M973.757 753.436C973.757 748.193 978.007 743.943 983.25 743.943L1257.04 743.943C1262.29 743.943 1266.53 748.193 1266.53 753.436L1266.53 791.408C1266.53 796.65 1262.29 800.901 1257.04 800.901L983.25 800.901C978.007 800.901 973.757 796.65 973.757 791.408Z" stroke="#FFFFFF" stroke-width="0.666247" stroke-miterlimit="8" fill="#575454" fill-rule="evenodd" transform="matrix(1.00059 0 0 1 0.251898 0.518023)"/><text fill="#FFFFFF" font-family="Arial,Arial_MSFontService,sans-serif" font-style="italic" font-weight="400" font-size="32" transform="matrix(0.999823 0 0 0.999248 1021.67 784)">unocs</text><text fill="#FFFFFF" font-family="Arial,Arial_MSFontService,sans-serif" font-style="italic" font-weight="400" font-size="32" transform="matrix(0.999823 0 0 0.999248 1106.66 784)">:</text><text fill="#FFFFFF" font-family="Arial,Arial_MSFontService,sans-serif" font-style="italic" font-weight="400" font-size="32" transform="matrix(0.999823 0 0 0.999248 1115.65 784)">Hazard</text><path d="M1475.37 852.529C1475.37 843.883 1482.38 836.874 1491.03 836.874L1764.48 836.874C1773.14 836.874 1780.14 843.883 1780.14 852.529L1780.14 915.148C1780.14 923.794 1773.14 930.804 1764.48 930.804L1491.03 930.804C1482.38 930.804 1475.37 923.794 1475.37 915.148Z" stroke="#FFFFFF" stroke-width="0.666247" stroke-miterlimit="8" fill="#575454" fill-rule="evenodd" transform="matrix(1.00059 0 0 1 0.251898 0.518023)"/><text fill="#FFFFFF" font-family="Arial,Arial_MSFontService,sans-serif" font-style="italic" font-weight="400" font-size="32" transform="matrix(0.999823 0 0 0.999248 1529.23 877)">unocs</text><text fill="#FFFFFF" font-family="Arial,Arial_MSFontService,sans-serif" font-style="italic" font-weight="400" font-size="32" transform="matrix(0.999823 0 0 0.999248 1614.22 877)">:</text><text fill="#FFFFFF" font-family="Arial,Arial_MSFontService,sans-serif" font-style="italic" font-weight="400" font-size="32" transform="matrix(0.999823 0 0 0.999248 1623.21 877)">Control</text><text fill="#FFFFFF" font-family="Arial,Arial_MSFontService,sans-serif" font-style="italic" font-weight="400" font-size="32" transform="matrix(0.999823 0 0 0.999248 1583.56 916)">Action</text><path d="M1474.04 884.756 1466.03 884.641 1466.06 882.643 1474.06 882.758ZM1460.04 884.555 1452.04 884.44 1452.07 882.442 1460.07 882.557ZM1446.05 884.353 1440.79 884.277 1438.03 884.161 1438.11 882.164 1440.86 882.28 1440.83 882.28 1446.08 882.355ZM1432.04 883.908 1424.05 883.57 1424.13 881.573 1432.13 881.911ZM1418.06 883.317 1410.07 882.979 1410.15 880.982 1418.15 881.32ZM1404.06 882.624 1396.08 882.071 1396.22 880.078 1404.2 880.63ZM1390.1 881.656 1382.13 881.104 1382.27 879.11 1390.24 879.663ZM1376.15 880.689 1375.32 880.632 1368.16 879.945 1368.35 877.955 1375.49 878.642 1375.47 878.639 1376.28 878.696ZM1362.19 879.371 1354.24 878.607 1354.43 876.617 1362.38 877.382ZM1348.26 878.033 1343.62 877.587 1340.29 877.177 1340.54 875.192 1343.85 875.602 1343.82 875.599 1348.45 876.044ZM1334.34 876.443 1326.4 875.465 1326.65 873.481 1334.58 874.459ZM1320.45 874.732 1312.97 873.809 1312.5 873.741 1312.78 871.763 1313.25 871.83 1313.23 871.827 1320.69 872.747ZM1306.56 872.884 1298.65 871.742 1298.94 869.763 1306.85 870.906ZM1292.71 870.806 1284.82 869.55 1285.13 867.576 1293.02 868.831ZM1278.89 868.536 1271.02 867.163 1271.36 865.195 1279.23 866.567ZM1265.1 866.064 1257.25 864.569 1257.62 862.606 1265.47 864.1ZM1251.36 863.373 1243.53 861.752 1243.94 859.795 1251.77 861.417ZM1237.66 860.447 1229.86 858.69 1230.3 856.739 1238.1 858.497ZM1224.02 857.26 1217.59 855.686 1216.24 855.326 1216.75 853.395 1218.1 853.753 1218.08 853.748 1224.5 855.318ZM1210.45 853.784 1205.91 852.577 1202.72 851.649 1203.27 849.73 1206.46 850.653 1206.44 850.647 1210.96 851.852ZM1196.96 849.979 1194.82 849.358 1189.3 847.611 1189.9 845.706 1195.41 847.448 1195.39 847.441 1197.52 848.06ZM1183.57 845.772 1176.01 843.152 1176.66 841.263 1184.22 843.883ZM1170.37 841.046 1165.34 839.13 1162.89 838.093 1163.67 836.252 1166.11 837.282 1166.07 837.268 1171.08 839.18ZM1157.38 835.753 1156.9 835.552 1150.1 832.332 1150.96 830.525 1157.74 833.737 1157.7 833.719 1158.16 833.913ZM1144.76 829.518 1142.26 828.182 1137.81 825.436 1138.86 823.736 1143.29 826.465 1143.24 826.435 1145.7 827.756ZM1132.82 821.993 1130.84 820.56 1126.6 816.827 1127.92 815.327 1132.13 819.029 1132.06 818.97 1133.99 820.375ZM1118.08 815.261 1119.15 800.401 1130.4 810.17Z" transform="matrix(1.00059 0 0 1 0.251898 0.518023)"/><path d="M0-27.9789 309.6-27.9789 309.6 6.99473 1.01648e-05 6.99473Z" fill="#FFFFFF" fill-rule="evenodd" transform="matrix(1.00058 0 0 1 832.059 854.91)"/><text font-family="Arial,Arial_MSFontService,sans-serif" font-weight="400" font-size="32" transform="matrix(0.999823 0 0 0.999248 832.059 855)">unocs</text><text font-family="Arial,Arial_MSFontService,sans-serif" font-weight="400" font-size="32" transform="matrix(0.999823 0 0 0.999248 917.044 855)">:</text><text font-family="Arial,Arial_MSFontService,sans-serif" font-weight="400" font-size="32" transform="matrix(0.999823 0 0 0.999248 926.042 855)">controlsHazard</text><path d="M0.0169666-0.999236 8.01085-0.863503 7.97692 1.13497-0.0169666 0.999236ZM14.0388-0.73969 22.0237-0.337872 21.9233 1.65836 13.9384 1.25654ZM28.0421 0.00661089 36.0098 0.666986 35.8447 2.65892 27.8769 1.99855ZM42.0111 1.22614 49.9539 2.1383 49.7259 4.124 41.7829 3.21184ZM55.9312 2.90727 63.8419 4.06526 63.5525 6.04294 55.6417 4.88495ZM69.7886 5.04038 77.6603 6.43906 77.3106 8.40699 69.4389 7.00831ZM83.571 7.68213 91.3718 9.43351 90.9339 11.3837 83.1331 9.63235ZM97.2224 10.747 104.948 12.4814 105.08 12.5194 104.526 14.44 104.423 14.4103 104.481 14.4251 96.7846 12.6972ZM110.842 14.179 118.524 16.3919 117.971 18.3125 110.288 16.0997ZM124.286 18.0515 129.613 19.5861 131.981 20.4245 131.313 22.3085 128.975 21.48 129.032 21.4984 123.733 19.9722ZM137.632 22.427 145.169 25.0971 144.501 26.9811 136.965 24.3111ZM150.82 27.0996 153.236 27.9554 158.292 30.1069 157.508 31.946 152.481 29.8066 152.539 29.8289 150.153 28.9836ZM163.809 32.4551 171.165 35.5858 170.383 37.425 163.026 34.2942ZM176.703 38.0072 183.899 41.491 183.028 43.29 175.832 39.8061ZM189.275 44.2212 196.349 47.9458 195.418 49.7144 188.343 45.9899ZM201.587 50.9356 206.358 53.6655 208.51 55.0053 207.454 56.7023 205.316 55.3722 205.348 55.3911 200.594 52.6704ZM213.601 58.1735 215.757 59.515 220.306 62.5978 219.184 64.2523 214.651 61.1804 214.684 61.2016 212.545 59.8704ZM225.285 66.0101 231.713 70.7655 230.524 72.3722 224.097 67.6169ZM236.453 74.5082 241.039 78.2265 242.634 79.6508 241.302 81.1417 239.726 79.7334 239.761 79.7642 235.194 76.0608ZM247.107 83.6445 248.407 84.8055 252.887 89.2401 251.481 90.6605 247.019 86.244 247.057 86.2792 245.776 85.1354ZM257.074 93.6061 261.398 98.394 262.398 99.6489 260.837 100.895 259.854 99.6643 259.894 99.7108 255.591 94.9456ZM266.138 104.336 266.968 105.377 270.804 110.908 269.161 112.048 265.344 106.544 265.384 106.597 264.576 105.583ZM274.005 116.062 276.123 119.653 277.83 123.166 276.032 124.04 274.342 120.563 274.38 120.634 272.283 117.077ZM280.334 128.705 282.449 134.254 283.02 136.329 281.093 136.86 280.535 134.829 280.565 134.92 278.466 129.418ZM284.579 142.224 285.721 149.065 285.787 150.231 283.791 150.344 283.728 149.232 283.74 149.34 282.607 142.553ZM286.125 156.218 286.139 156.473 286.26 164.252 284.262 164.283 284.141 156.525 284.142 156.565 284.129 156.33ZM286.354 170.248 286.368 171.147 286.367 171.117 286.693 178.205 284.697 178.297 284.37 171.194 284.356 170.279ZM286.969 184.195 287.036 185.656 287.034 185.627 287.525 192.141 285.532 192.291 285.039 185.762 284.971 184.287ZM287.975 198.12 288.112 199.936 288.109 199.908 288.751 206.048 286.763 206.256 286.12 200.101 285.982 198.271ZM289.373 212.011 289.568 213.874 289.565 213.845 290.377 219.913 288.397 220.179 287.581 214.096 287.386 212.219ZM291.174 225.857 291.375 227.352 291.37 227.323 292.425 233.722 290.452 234.048 289.395 227.633 289.193 226.122ZM293.4 239.639 293.502 240.257 293.496 240.225 294.927 247.454 292.966 247.841 291.533 240.598 291.428 239.963ZM296.114 253.294 297.943 261.078 295.996 261.535 294.169 253.752ZM299.425 266.846 301.513 274.369 301.499 274.323 301.558 274.501 299.659 275.127 299.593 274.927 297.498 267.381ZM303.433 280.197 304.626 283.819 304.606 283.764 306.143 287.652 304.285 288.388 302.736 284.472 301.535 280.823ZM308.403 293.122 311.327 299.132 311.276 299.04 311.97 300.152 310.274 301.211 309.552 300.053 306.605 293.997ZM315.054 304.829 315.829 305.413 314.626 307.01 313.851 306.424ZM317.913 299.97 325.101 313.018 310.349 310.94Z" transform="matrix(1.00058 0 0 -1 1780.94 884.112)"/><path d="M1595.28 665.669C1595.28 659.23 1600.5 654.011 1606.94 654.011L1952.34 654.011C1958.79 654.011 1964 659.23 1964 665.669L1964 712.301C1964 718.739 1958.79 723.959 1952.34 723.959L1606.94 723.959C1600.5 723.959 1595.28 718.739 1595.28 712.301Z" stroke="#FFFFFF" stroke-width="0.666247" stroke-miterlimit="8" fill="#575454" fill-rule="evenodd" transform="matrix(1.00059 0 0 1 0.251898 0.518023)"/><text fill="#FFFFFF" font-family="Arial,Arial_MSFontService,sans-serif" font-style="italic" font-weight="400" font-size="32" transform="matrix(0.999823 0 0 0.999248 1658.68 701)">dice</text><text fill="#FFFFFF" font-family="Arial,Arial_MSFontService,sans-serif" font-style="italic" font-weight="400" font-size="32" transform="matrix(0.999823 0 0 0.999248 1717.67 701)">:</text><text fill="#FFFFFF" font-family="Arial,Arial_MSFontService,sans-serif" font-style="italic" font-weight="400" font-size="32" transform="matrix(0.999823 0 0 0.999248 1726.67 701)">TimeInterval</text><path d="M1625.76 836.346 1626.21 830.98 1626.86 828.291 1628.8 828.763 1628.17 831.376 1628.19 831.222 1627.76 836.511ZM1628.76 822.471 1629.62 820.3 1632.41 815.235 1634.16 816.199 1631.4 821.21 1631.46 821.098 1630.62 823.209ZM1635.93 810.243 1635.96 810.195 1640.09 805.454 1641.42 804.18 1642.81 805.623 1641.51 806.867 1641.57 806.801 1637.5 811.469 1637.57 811.39 1637.56 811.397ZM1645.89 800.068 1649.96 796.792 1652.32 795.181 1653.45 796.833 1651.12 798.421 1651.18 798.373 1647.15 801.623ZM1657.43 791.896 1661.61 789.484 1664.53 788.088 1665.39 789.89 1662.51 791.27 1662.58 791.235 1658.41 793.629ZM1670.08 785.622 1674.62 783.853 1677.68 782.925 1678.26 784.837 1675.23 785.755 1675.31 785.729 1670.8 787.484ZM1683.54 781.321 1688.53 780.227 1691.46 779.835 1691.73 781.817 1688.83 782.203 1688.91 782.188 1683.96 783.273ZM1697.51 779.189 1702.86 778.945 1705.5 778.826 1705.59 780.822 1702.95 780.942 1697.59 781.185ZM1711.38 778.431 1716.98 777.685 1716.89 777.699 1719.2 777.195 1719.63 779.148 1717.28 779.66 1711.65 780.412ZM1724.95 775.839 1730.58 774.133 1730.5 774.158 1732.48 773.389 1733.21 775.252 1731.19 776.035 1725.53 777.752ZM1737.96 771.171 1743.3 768.617 1743.23 768.652 1745.04 767.614 1746.03 769.347 1744.2 770.403 1738.82 772.973ZM1750.11 764.587 1754.69 761.466 1754.63 761.514 1756.54 759.97 1757.8 761.527 1755.85 763.095 1751.24 766.238ZM1761.05 756.143 1764.3 753.019 1764.24 753.086 1766.52 750.463 1768.03 751.775 1765.72 754.432 1762.43 757.588ZM1770.14 745.815 1771.69 743.622 1771.63 743.717 1774.2 739.067 1775.95 740.032 1773.36 744.731 1771.77 746.969ZM1776.41 733.632 1776.41 733.624 1776.36 733.792 1777.17 729.858 1779.13 730.263 1778.3 734.283 1778.26 734.372ZM1771.38 730.485 1779.05 723.459 1784.58 732.277Z" transform="matrix(1.00059 0 0 1 0.251898 0.518023)"/><path d="M1604.28 551.921C1604.28 545.39 1609.57 540.096 1616.1 540.096L1868.24 540.096C1874.77 540.096 1880.07 545.39 1880.07 551.921L1880.07 599.218C1880.07 605.749 1874.77 611.043 1868.24 611.043L1616.1 611.043C1609.57 611.043 1604.28 605.749 1604.28 599.218Z" stroke="#FFFFFF" stroke-width="0.666247" stroke-miterlimit="8" fill="#575454" fill-rule="evenodd" transform="matrix(1.00059 0 0 1 0.251898 0.518023)"/><text fill="#FFFFFF" font-family="Arial,Arial_MSFontService,sans-serif" font-style="italic" font-weight="400" font-size="32" transform="matrix(0.999823 0 0 0.999248 1625.66 587)">dice</text><text fill="#FFFFFF" font-family="Arial,Arial_MSFontService,sans-serif" font-style="italic" font-weight="400" font-size="32" transform="matrix(0.999823 0 0 0.999248 1684.65 587)">:</text><text fill="#FFFFFF" font-family="Arial,Arial_MSFontService,sans-serif" font-style="italic" font-weight="400" font-size="32" transform="matrix(0.999823 0 0 0.999248 1693.65 587)">TimeInstant</text><path d="M1962.79 687.966 1965.04 687.64 1964.79 687.71 1967.02 686.762 1966.84 686.862 1969.04 685.332 1968.91 685.433 1969.37 684.995 1970.76 686.432 1970.25 686.926 1967.9 688.561 1965.46 689.6 1963.08 689.944ZM1973.17 680.673 1974.96 677.943 1974.92 678.013 1976.8 674.572 1976.77 674.634 1977.11 673.895 1978.92 674.73 1978.57 675.501 1976.66 679.005 1974.84 681.769ZM1979.37 668.442 1981.56 662.321 1981.53 662.418 1981.89 660.967 1983.83 661.446 1983.46 662.945 1981.25 669.115ZM1983.33 655.146 1983.9 652.839 1983.88 652.932 1984.71 647.374 1986.67 647.668 1985.84 653.273 1985.27 655.625ZM1985.46 641.527 1985.86 633.542 1987.85 633.644 1987.45 641.628ZM1985.4 627.744 1985.32 627.07 1985.37 627.276 1983.57 622.01 1983.65 622.175 1982.79 620.646 1984.54 619.671 1985.44 621.279 1987.29 626.733 1987.38 627.514ZM1979.72 615.685 1976.91 612.057 1976.99 612.15 1974.59 609.734 1976.01 608.325 1978.45 610.784 1981.3 614.461ZM1970.27 605.741 1966.48 602.641 1966.55 602.693 1963.98 600.948 1965.11 599.297 1967.71 601.065 1971.54 604.193ZM1959.05 597.693 1952.88 594.153 1952.94 594.185 1952.14 593.798 1953.02 592 1953.84 592.402 1960.04 595.959ZM1946.75 591.179 1945.09 590.372 1945.15 590.398 1939.46 588.068 1940.22 586.218 1945.94 588.56 1947.62 589.38ZM1933.9 585.99 1927.93 583.955 1927.99 583.971 1926.36 583.521 1926.89 581.595 1928.55 582.054 1934.54 584.097ZM1920.58 581.92 1918.72 581.404 1918.78 581.418 1912.85 580.137 1913.27 578.184 1919.23 579.471 1921.11 579.993ZM1907.03 579.011 1899.44 577.83 1899.5 577.838 1899.18 577.81 1899.36 575.82 1899.71 575.85 1907.32 577.037ZM1893.22 577.29 1891.46 577.137 1891.63 575.145 1893.39 575.298ZM1892.56 582.859 1879.57 575.569 1893.2 569.549Z" transform="matrix(1.00059 0 0 1 0.251898 0.518023)"/><path d="M1281.52 581.898C1281.52 577.023 1285.47 573.071 1290.35 573.071L1577.47 573.071C1582.34 573.071 1586.29 577.023 1586.29 581.898L1586.29 617.205C1586.29 622.079 1582.34 626.031 1577.47 626.031L1290.35 626.031C1285.47 626.031 1281.52 622.079 1281.52 617.205Z" stroke="#FFFFFF" stroke-width="0.666247" stroke-miterlimit="8" fill="#575454" fill-rule="evenodd" transform="matrix(1.00059 0 0 1 0.251898 0.518023)"/><text fill="#FFFFFF" font-family="Arial,Arial_MSFontService,sans-serif" font-style="italic" font-weight="400" font-size="32" transform="matrix(0.999823 0 0 0.999248 1316.92 611)">dice</text><text fill="#FFFFFF" font-family="Arial,Arial_MSFontService,sans-serif" font-style="italic" font-weight="400" font-size="32" transform="matrix(0.999823 0 0 0.999248 1375.91 611)">:</text><text fill="#FFFFFF" font-family="Arial,Arial_MSFontService,sans-serif" font-style="italic" font-weight="400" font-size="32" transform="matrix(0.999823 0 0 0.999248 1384.91 611)">TimeInstant</text><path d="M1594.69 689.801 1586.7 689.609 1586.74 687.611 1594.73 687.802ZM1580.7 689.466 1579.51 689.437 1572.68 688.956 1572.82 686.962 1579.63 687.442 1579.58 687.44 1580.75 687.468ZM1566.69 688.535 1564.44 688.376 1558.7 687.714 1558.93 685.728 1564.65 686.388 1564.61 686.383 1566.83 686.541ZM1552.75 687.027 1549.6 686.664 1544.79 685.894 1545.1 683.92 1549.9 684.687 1549.85 684.681 1552.98 685.041ZM1538.87 684.947 1535.12 684.348 1530.96 683.495 1531.36 681.537 1535.5 682.385 1535.46 682.377 1539.19 682.973ZM1525.09 682.289 1521.11 681.474 1517.25 680.499 1517.74 678.561 1521.58 679.531 1521.54 679.521 1525.49 680.331ZM1511.44 679.032 1507.7 678.088 1503.69 676.874 1504.27 674.961 1508.25 676.168 1508.21 676.155 1511.93 677.093ZM1497.96 675.134 1494.99 674.235 1490.33 672.561 1491.01 670.679 1495.64 672.345 1495.59 672.329 1498.54 673.221ZM1484.69 670.531 1483.11 669.961 1477.24 667.47 1478.03 665.63 1483.86 668.11 1483.81 668.089 1485.37 668.65ZM1471.69 665.067 1464.54 661.466 1465.44 659.682 1472.59 663.282ZM1459.26 658.492 1453.58 655.054 1452.41 654.184 1453.61 652.581 1454.74 653.422 1454.66 653.37 1460.29 656.782ZM1447.61 650.601 1446.18 649.538 1442.98 646.684 1441.52 645.186 1442.96 643.792 1444.39 645.264 1444.34 645.216 1447.48 648.019 1447.41 647.963 1448.79 648.998ZM1437.48 640.417 1435.81 637.392 1437.57 636.429 1439.23 639.455ZM1430.8 640.28 1432.91 625.532 1443.44 636.071Z" transform="matrix(1.00059 0 0 1 0.251898 0.518023)"/><path d="M0-27.9789 376.03-27.9789 376.03 6.99473-9.35168e-06 6.99473Z" fill="#FFFFFF" fill-rule="evenodd" transform="matrix(1.00058 0 0 1 1570.67 774.346)"/><text font-family="Arial,Arial_MSFontService,sans-serif" font-weight="400" font-size="32" transform="matrix(0.999823 0 0 0.999248 1570.67 774)">dicp</text><text font-family="Arial,Arial_MSFontService,sans-serif" font-weight="400" font-size="32" transform="matrix(0.999823 0 0 0.999248 1627.66 774)">:</text><text font-family="Arial,Arial_MSFontService,sans-serif" font-weight="400" font-size="32" transform="matrix(0.999823 0 0 0.999248 1636.66 774)">occupiesTimeInverval</text><path d="M2104.89 666.502C2104.89 658.5 2111.38 652.013 2119.38 652.013L2415.16 652.013C2423.16 652.013 2429.65 658.5 2429.65 666.502L2429.65 724.457C2429.65 732.46 2423.16 738.947 2415.16 738.947L2119.38 738.947C2111.38 738.947 2104.89 732.46 2104.89 724.457Z" stroke="#FFFFFF" stroke-width="0.666247" stroke-miterlimit="8" fill="#575454" fill-rule="evenodd" transform="matrix(1.00059 0 0 1 0.251898 0.518023)"/><text fill="#FFFFFF" font-family="Arial,Arial_MSFontService,sans-serif" font-style="italic" font-weight="400" font-size="32" transform="matrix(0.999823 0 0 0.999248 2137.49 688)">unocs</text><text fill="#FFFFFF" font-family="Arial,Arial_MSFontService,sans-serif" font-style="italic" font-weight="400" font-size="32" transform="matrix(0.999823 0 0 0.999248 2222.48 688)">:</text><text fill="#FFFFFF" font-family="Arial,Arial_MSFontService,sans-serif" font-style="italic" font-weight="400" font-size="32" transform="matrix(0.999823 0 0 0.999248 2231.48 688)">Substitution</text><text fill="#FFFFFF" font-family="Arial,Arial_MSFontService,sans-serif" font-style="italic" font-weight="400" font-size="32" transform="matrix(0.999823 0 0 0.999248 2142.73 727)">ControlProcedure</text><path d="M2104.89 817.388C2104.89 809.387 2111.38 802.899 2119.38 802.899L2415.16 802.899C2423.16 802.899 2429.65 809.387 2429.65 817.388L2429.65 875.345C2429.65 883.347 2423.16 889.834 2415.16 889.834L2119.38 889.834C2111.38 889.834 2104.89 883.347 2104.89 875.345Z" stroke="#FFFFFF" stroke-width="0.666247" stroke-miterlimit="8" fill="#575454" fill-rule="evenodd" transform="matrix(1.00059 0 0 1 0.251898 0.518023)"/><text fill="#FFFFFF" font-family="Arial,Arial_MSFontService,sans-serif" font-style="italic" font-weight="400" font-size="32" transform="matrix(0.999823 0 0 0.999248 2142.74 839)">unocs</text><text fill="#FFFFFF" font-family="Arial,Arial_MSFontService,sans-serif" font-style="italic" font-weight="400" font-size="32" transform="matrix(0.999823 0 0 0.999248 2227.73 839)">:</text><text fill="#FFFFFF" font-family="Arial,Arial_MSFontService,sans-serif" font-style="italic" font-weight="400" font-size="32" transform="matrix(0.999823 0 0 0.999248 2237.07 839)">Elimination</text><text fill="#FFFFFF" font-family="Arial,Arial_MSFontService,sans-serif" font-style="italic" font-weight="400" font-size="32" transform="matrix(0.999823 0 0 0.999248 2142.74 878)">ControlProcedure</text><path d="M2104.89 968.276C2104.89 960.273 2111.38 953.786 2119.38 953.786L2415.16 953.786C2423.16 953.786 2429.65 960.273 2429.65 968.276L2429.65 1026.23C2429.65 1034.23 2423.16 1040.73 2415.16 1040.73L2119.38 1040.73C2111.38 1040.73 2104.89 1034.23 2104.89 1026.23Z" stroke="#FFFFFF" stroke-width="0.666247" stroke-miterlimit="8" fill="#575454" fill-rule="evenodd" transform="matrix(1.00059 0 0 1 0.251898 0.518023)"/><text fill="#FFFFFF" font-family="Arial,Arial_MSFontService,sans-serif" font-style="italic" font-weight="400" font-size="32" transform="matrix(0.999823 0 0 0.999248 2135.57 990)">unocs</text><text fill="#FFFFFF" font-family="Arial,Arial_MSFontService,sans-serif" font-style="italic" font-weight="400" font-size="32" transform="matrix(0.999823 0 0 0.999248 2220.56 990)">:</text><text fill="#FFFFFF" font-family="Arial,Arial_MSFontService,sans-serif" font-style="italic" font-weight="400" font-size="32" transform="matrix(0.999823 0 0 0.999248 2229.9 990)">Engineering</text><text fill="#FFFFFF" font-family="Arial,Arial_MSFontService,sans-serif" font-style="italic" font-weight="400" font-size="32" transform="matrix(0.999823 0 0 0.999248 2142.74 1029)">ControlProcedure</text><path d="M2104.89 1120.17C2104.89 1112.16 2111.38 1105.68 2119.38 1105.68L2415.16 1105.68C2423.16 1105.68 2429.65 1112.16 2429.65 1120.17L2429.65 1178.12C2429.65 1186.13 2423.16 1192.61 2415.16 1192.61L2119.38 1192.61C2111.38 1192.61 2104.89 1186.13 2104.89 1178.12Z" stroke="#FFFFFF" stroke-width="0.666247" stroke-miterlimit="8" fill="#575454" fill-rule="evenodd" transform="matrix(1.00059 0 0 1 0.251898 0.518023)"/><text fill="#FFFFFF" font-family="Arial,Arial_MSFontService,sans-serif" font-style="italic" font-weight="400" font-size="32" transform="matrix(0.999823 0 0 0.999248 2120.58 1142)">unocs</text><text fill="#FFFFFF" font-family="Arial,Arial_MSFontService,sans-serif" font-style="italic" font-weight="400" font-size="32" transform="matrix(0.999823 0 0 0.999248 2205.56 1142)">:</text><text fill="#FFFFFF" font-family="Arial,Arial_MSFontService,sans-serif" font-style="italic" font-weight="400" font-size="32" transform="matrix(0.999823 0 0 0.999248 2214.9 1142)">Administrative</text><text fill="#FFFFFF" font-family="Arial,Arial_MSFontService,sans-serif" font-style="italic" font-weight="400" font-size="32" transform="matrix(0.999823 0 0 0.999248 2142.74 1181)">ControlProcedure</text><path d="M2104.89 1271.05C2104.89 1263.05 2111.38 1256.56 2119.38 1256.56L2415.16 1256.56C2423.16 1256.56 2429.65 1263.05 2429.65 1271.05L2429.65 1329.01C2429.65 1337.01 2423.16 1343.49 2415.16 1343.49L2119.38 1343.49C2111.38 1343.49 2104.89 1337.01 2104.89 1329.01Z" stroke="#FFFFFF" stroke-width="0.666247" stroke-miterlimit="8" fill="#575454" fill-rule="evenodd" transform="matrix(1.00059 0 0 1 0.251898 0.518023)"/><text fill="#FFFFFF" font-family="Arial,Arial_MSFontService,sans-serif" font-style="italic" font-weight="400" font-size="32" transform="matrix(0.999823 0 0 0.999248 2137.49 1293)">unocs</text><text fill="#FFFFFF" font-family="Arial,Arial_MSFontService,sans-serif" font-style="italic" font-weight="400" font-size="32" transform="matrix(0.999823 0 0 0.999248 2222.48 1293)">:</text><text fill="#FFFFFF" font-family="Arial,Arial_MSFontService,sans-serif" font-style="italic" font-weight="400" font-size="32" transform="matrix(0.999823 0 0 0.999248 2231.82 1293)">PPEControl</text><text fill="#FFFFFF" font-family="Arial,Arial_MSFontService,sans-serif" font-style="italic" font-weight="400" font-size="32" transform="matrix(0.999823 0 0 0.999248 2194.4 1332)">Procedure</text><path d="M0-0.999378 24.9845-0.999378 24.9845 125.646 13.3251 125.646 13.3251 123.648 23.9851 123.648 22.9857 124.647 22.9857 0 23.9851 0.999378 0 0.999378ZM14.6576 131.309 1.33251 124.647 14.6576 117.984Z" transform="matrix(1.00058 0 0 -1 2430.82 695.739)"/><path d="M0-0.999378 24.9845-0.999378 24.9845 276.734 13.3251 276.734 13.3251 274.735 23.9851 274.735 22.9857 275.734 22.9857 0 23.9851 0.999378 0 0.999378ZM14.6576 282.397 1.33251 275.734 14.6576 269.071Z" transform="matrix(1.00058 0 0 -1 2430.82 846.827)"/><path d="M0-0.999378 24.9845-0.999378 24.9845 427.821 13.3251 427.821 13.3251 425.822 23.9851 425.822 22.9857 426.822 22.9857 0 23.9851 0.999378 0 0.999378ZM14.6576 433.485 1.33251 426.822 14.6576 420.16Z" transform="matrix(1.00058 0 0 -1 2430.82 997.915)"/><path d="M0-0.999378 24.9845-0.999378 24.9845 578.908 13.3251 578.908 13.3251 576.91 23.9851 576.91 22.9857 577.909 22.9857 0 23.9851 0.999378 0 0.999378ZM14.6576 584.572 1.33251 577.909 14.6576 571.247Z" transform="matrix(1.00058 0 0 -1 2430.82 1149)"/><path d="M0-0.999378 24.9845-0.999378 24.9845 729.995 13.3251 729.995 13.3251 727.997 23.9851 727.997 22.9857 728.996 22.9857 0 23.9851 0.999378 0 0.999378ZM14.6576 735.659 1.33251 728.996 14.6576 722.334Z" transform="matrix(1.00058 0 0 -1 2430.82 1300.09)"/><path d="M2104.89 541.595C2104.89 533.593 2111.38 527.106 2119.38 527.106L2415.16 527.106C2423.16 527.106 2429.65 533.593 2429.65 541.595L2429.65 599.551C2429.65 607.554 2423.16 614.041 2415.16 614.041L2119.38 614.041C2111.38 614.041 2104.89 607.554 2104.89 599.551Z" stroke="#FFFFFF" stroke-width="0.666247" stroke-miterlimit="8" fill="#575454" fill-rule="evenodd" transform="matrix(1.00059 0 0 1 0.251898 0.518023)"/><text fill="#FFFFFF" font-family="Arial,Arial_MSFontService,sans-serif" font-style="italic" font-weight="400" font-size="32" transform="matrix(0.999823 0 0 0.999248 2169.49 563)">unocs</text><text fill="#FFFFFF" font-family="Arial,Arial_MSFontService,sans-serif" font-style="italic" font-weight="400" font-size="32" transform="matrix(0.999823 0 0 0.999248 2254.47 563)">:</text><text fill="#FFFFFF" font-family="Arial,Arial_MSFontService,sans-serif" font-style="italic" font-weight="400" font-size="32" transform="matrix(0.999823 0 0 0.999248 2263.47 563)">Control</text><text fill="#FFFFFF" font-family="Arial,Arial_MSFontService,sans-serif" font-style="italic" font-weight="400" font-size="32" transform="matrix(0.999823 0 0 0.999248 2149.9 602)">ActionProcedure</text><path d="M1797.13 1167.13C1797.13 1159.13 1803.61 1152.64 1811.62 1152.64L2056.43 1152.64C2064.44 1152.64 2070.92 1159.13 2070.92 1167.13L2070.92 1225.09C2070.92 1233.09 2064.44 1239.57 2056.43 1239.57L1811.62 1239.57C1803.61 1239.57 1797.13 1233.09 1797.13 1225.09Z" stroke="#FFFFFF" stroke-width="0.666247" stroke-miterlimit="8" fill="#575454" fill-rule="evenodd" transform="matrix(1.00059 0 0 1 0.251898 0.518023)"/><text fill="#FFFFFF" font-family="Arial,Arial_MSFontService,sans-serif" font-style="italic" font-weight="400" font-size="32" transform="matrix(0.999823 0 0 0.999248 1887.88 1189)">unocs</text><text fill="#FFFFFF" font-family="Arial,Arial_MSFontService,sans-serif" font-style="italic" font-weight="400" font-size="32" transform="matrix(0.999823 0 0 0.999248 1973.37 1189)">:</text><text fill="#FFFFFF" font-family="Arial,Arial_MSFontService,sans-serif" font-style="italic" font-weight="400" font-size="32" transform="matrix(0.999823 0 0 0.999248 1863.05 1228)">PPEEntity</text><path d="M1297.51 1166.13C1297.51 1158.13 1304 1151.64 1312 1151.64L1607.77 1151.64C1615.78 1151.64 1622.26 1158.13 1622.26 1166.13L1622.26 1224.09C1622.26 1232.09 1615.78 1238.58 1607.77 1238.58L1312 1238.58C1304 1238.58 1297.51 1232.09 1297.51 1224.09Z" stroke="#FFFFFF" stroke-width="0.666247" stroke-miterlimit="8" fill="#575454" fill-rule="evenodd" transform="matrix(1.00059 0 0 1 0.251898 0.518023)"/><text fill="#FFFFFF" font-family="Arial,Arial_MSFontService,sans-serif" font-style="italic" font-weight="400" font-size="32" transform="matrix(0.999823 0 0 0.999248 1327.83 1188)">unocs</text><text fill="#FFFFFF" font-family="Arial,Arial_MSFontService,sans-serif" font-style="italic" font-weight="400" font-size="32" transform="matrix(0.999823 0 0 0.999248 1412.81 1188)">:</text><text fill="#FFFFFF" font-family="Arial,Arial_MSFontService,sans-serif" font-style="italic" font-weight="400" font-size="32" transform="matrix(0.999823 0 0 0.999248 1421.81 1188)">Engineering</text><text fill="#FFFFFF" font-family="Arial,Arial_MSFontService,sans-serif" font-style="italic" font-weight="400" font-size="32" transform="matrix(0.999823 0 0 0.999248 1368.91 1227)">ControlEntity</text><path d="M1521.34 1259.06C1521.34 1251.06 1527.82 1244.57 1535.83 1244.57L1831.6 1244.57C1839.61 1244.57 1846.09 1251.06 1846.09 1259.06L1846.09 1317.02C1846.09 1325.02 1839.61 1331.5 1831.6 1331.5L1535.83 1331.5C1527.82 1331.5 1521.34 1325.02 1521.34 1317.02Z" stroke="#FFFFFF" stroke-width="0.666247" stroke-miterlimit="8" fill="#575454" fill-rule="evenodd" transform="matrix(1.00059 0 0 1 0.251898 0.518023)"/><text fill="#FFFFFF" font-family="Arial,Arial_MSFontService,sans-serif" font-style="italic" font-weight="400" font-size="32" transform="matrix(0.999823 0 0 0.999248 1536.81 1281)">unocs</text><text fill="#FFFFFF" font-family="Arial,Arial_MSFontService,sans-serif" font-style="italic" font-weight="400" font-size="32" transform="matrix(0.999823 0 0 0.999248 1621.8 1281)">:</text><text fill="#FFFFFF" font-family="Arial,Arial_MSFontService,sans-serif" font-style="italic" font-weight="400" font-size="32" transform="matrix(0.999823 0 0 0.999248 1630.79 1281)">Administrative</text><text fill="#FFFFFF" font-family="Arial,Arial_MSFontService,sans-serif" font-style="italic" font-weight="400" font-size="32" transform="matrix(0.999823 0 0 0.999248 1592.89 1320)">ControlEntity</text><path d="M0-0.999378 27.7853-0.999378 27.7853 137.979 26.7859 136.979 97.5436 136.979 97.5436 138.978 25.7866 138.978 25.7866 0 26.7859 0.999378 0 0.999378ZM96.2111 131.316 109.537 137.979 96.2111 144.641Z" transform="matrix(-1.83803e-16 -1 -1.00058 1.83698e-16 1460.07 1151.28)"/><path d="M0-0.999378 122.215-0.999378 122.215 361.832 121.216 360.832 190.466 360.832 190.466 362.831 120.216 362.831 120.216 0 121.216 0.999378 0 0.999378ZM189.134 355.17 202.459 361.832 189.134 368.495Z" transform="matrix(-1.83803e-16 -1 -1.00058 1.83698e-16 1684.05 1244.2)"/><path d="M0-0.999378 29.6175-0.999378 29.6175 612.183 28.6182 611.184 98.5454 611.184 98.5454 613.182 27.6187 613.182 27.6187 0 28.6182 0.999378 0 0.999378ZM97.2128 605.52 110.538 612.183 97.2128 618.845Z" transform="matrix(-1.83803e-16 -1 -1.00058 1.83698e-16 1934.55 1152.28)"/><path d="M1715.19 1065.37C1715.19 1060.59 1719.07 1056.71 1723.85 1056.71L2058.26 1056.71C2063.05 1056.71 2066.92 1060.59 2066.92 1065.37L2066.92 1100.01C2066.92 1104.8 2063.05 1108.67 2058.26 1108.67L1723.85 1108.67C1719.07 1108.67 1715.19 1104.8 1715.19 1100.01Z" stroke="#FFFFFF" stroke-width="0.666247" stroke-miterlimit="8" fill="#575454" fill-rule="evenodd" transform="matrix(1.00059 0 0 1 0.251898 0.518023)"/><text fill="#FFFFFF" font-family="Arial,Arial_MSFontService,sans-serif" font-style="italic" font-weight="400" font-size="32" transform="matrix(0.999823 0 0 0.999248 1743.95 1095)">unocs</text><text fill="#FFFFFF" font-family="Arial,Arial_MSFontService,sans-serif" font-style="italic" font-weight="400" font-size="32" transform="matrix(0.999823 0 0 0.999248 1828.94 1095)">:</text><text fill="#FFFFFF" font-family="Arial,Arial_MSFontService,sans-serif" font-style="italic" font-weight="400" font-size="32" transform="matrix(0.999823 0 0 0.999248 1837.94 1095)">MitigationPlan</text><path d="M1714.61 1083.71 1710.45 1083.49 1706.57 1082.87 1706.88 1080.91 1710.7 1081.51 1710.59 1081.5 1714.72 1081.72ZM1700.61 1081.22 1697.88 1080.23 1693.78 1078.32 1693.15 1077.97 1694.12 1076.22 1694.72 1076.56 1694.65 1076.52 1698.68 1078.39 1698.61 1078.36 1701.3 1079.34ZM1687.94 1074.79 1681.76 1070.4 1681.37 1070.04 1682.71 1068.56 1683.06 1068.88 1682.97 1068.8 1689.1 1073.16ZM1676.93 1066.01 1674.09 1063.42 1671.26 1060.25 1672.74 1058.91 1675.54 1062.05 1675.47 1061.98 1678.27 1064.53ZM1667.26 1055.77 1666.76 1055.22 1662.38 1049.33 1663.98 1048.14 1668.34 1054 1668.28 1053.93 1668.75 1054.45ZM1658.87 1044.37 1654.63 1037.6 1656.32 1036.54 1660.56 1043.31ZM1651.63 1032.32 1647.88 1025.26 1649.65 1024.33 1653.4 1031.39ZM1645.34 1019.75 1642.09 1012.46 1643.91 1011.64 1647.17 1018.94ZM1639.97 1006.78 1637.35 999.747 1637.19 999.219 1639.1 998.639 1639.25 999.134 1639.23 999.075 1641.84 1006.08ZM1635.45 993.479 1633.34 986.528 1633.16 985.754 1635.11 985.295 1635.28 986.04 1635.27 985.98 1637.36 992.899ZM1631.79 979.918 1630.13 972.867 1629.99 972.065 1631.95 971.73 1632.09 972.501 1632.07 972.439 1633.73 979.46ZM1628.99 966.154 1627.74 958.868 1627.68 958.202 1629.66 957.995 1629.73 958.63 1629.72 958.566 1630.96 965.818ZM1627.06 952.237 1626.27 944.643 1626.25 944.216 1628.25 944.145 1628.26 944.539 1628.26 944.471 1629.05 952.032ZM1620.57 943.856 1626.76 930.304 1633.88 943.385Z" transform="matrix(1.00059 0 0 1 0.251898 0.518023)"/><path d="M1555.31 465.485C1555.31 460.886 1559.04 457.158 1563.64 457.158L1851.76 457.158C1856.35 457.158 1860.08 460.886 1860.08 465.485L1860.08 498.793C1860.08 503.392 1856.35 507.12 1851.76 507.12L1563.64 507.12C1559.04 507.12 1555.31 503.392 1555.31 498.793Z" stroke="#FFFFFF" stroke-width="0.666247" stroke-miterlimit="8" fill="#575454" fill-rule="evenodd" transform="matrix(1.00059 0 0 1 0.251898 0.518023)"/><text fill="#FFFFFF" font-family="Arial,Arial_MSFontService,sans-serif" font-style="italic" font-weight="400" font-size="32" transform="matrix(0.999823 0 0 0.999248 1584.82 494)">unocs</text><text fill="#FFFFFF" font-family="Arial,Arial_MSFontService,sans-serif" font-style="italic" font-weight="400" font-size="32" transform="matrix(0.999823 0 0 0.999248 1669.81 494)">:</text><text fill="#FFFFFF" font-family="Arial,Arial_MSFontService,sans-serif" font-style="italic" font-weight="400" font-size="32" transform="matrix(0.999823 0 0 0.999248 1678.81 494)">Regulation</text><path d="M0.0259008-0.999044 8.01825-0.791838 7.96645 1.20625-0.0259008 0.999044ZM14.0126-0.636434 14.3771-0.626983 22.0353-0.043681 21.8835 1.9493 14.2502 1.36791 14.3002 1.37046 13.9607 1.36165ZM28.0143 0.411712 28.64 0.459373 35.9986 1.37797 35.751 3.36134 28.4163 2.44572 28.4643 2.45054 27.8625 2.4047ZM41.9486 2.12075 42.6773 2.2117 49.8781 3.45785 49.5373 5.42733 42.3596 4.18521 42.4063 4.19214 41.7011 4.10412ZM55.7866 4.48033 56.3774 4.58255 63.6431 6.19564 63.2098 8.14689 55.9672 6.5389 56.0133 6.54802 55.4458 6.44981ZM69.4968 7.49525 69.6292 7.52464 77.2573 9.60789 76.7308 11.536 69.1259 9.45914 69.1725 9.47069 69.0636 9.4465ZM83.0788 11.2393 90.6756 13.7314 90.0526 15.6305 82.4558 13.1385ZM96.3846 15.7289 103.835 18.6285 103.11 20.4912 95.6597 17.5916ZM109.382 21.0555 115.936 24.07 116.681 24.4769 115.724 26.2314 115.008 25.8409 115.069 25.8716 108.546 22.8714ZM121.944 27.349 125.284 29.1711 128.857 31.5128 127.761 33.1845 124.221 30.8649 124.291 30.9063 120.987 29.1036ZM133.924 34.8949 140.147 39.913 138.893 41.4691 132.669 36.451ZM144.443 44.2675 146.205 46.0895 148.547 49.1511 149.416 50.8416 147.638 51.7546 146.81 50.1437 146.905 50.2945 144.653 47.3499 144.728 47.4372 143.006 45.6567ZM155.523 50.0518 153.011 64.7363 142.771 53.9157Z" transform="matrix(-1.00058 1.22465e-16 1.22536e-16 1 1475.12 883.857)"/><path d="M1169.61 964.278C1169.61 955.725 1176.54 948.79 1185.1 948.79L1458.89 948.79C1467.44 948.79 1474.38 955.725 1474.38 964.278L1474.38 1026.23C1474.38 1034.79 1467.44 1041.73 1458.89 1041.73L1185.1 1041.73C1176.54 1041.73 1169.61 1034.79 1169.61 1026.23Z" stroke="#FFFFFF" stroke-width="0.666247" stroke-miterlimit="8" fill="#575454" fill-rule="evenodd" transform="matrix(1.00059 0 0 1 0.251898 0.518023)"/><text fill="#FFFFFF" font-family="Arial,Arial_MSFontService,sans-serif" font-weight="400" font-size="32" transform="matrix(0.999823 0 0 0.999248 1223.69 988)">unocs</text><text fill="#FFFFFF" font-family="Arial,Arial_MSFontService,sans-serif" font-weight="400" font-size="32" transform="matrix(0.999823 0 0 0.999248 1308.67 988)">:</text><text fill="#FFFFFF" font-family="Arial,Arial_MSFontService,sans-serif" font-weight="400" font-size="32" transform="matrix(0.999823 0 0 0.999248 1317.67 988)">Control</text><text fill="#FFFFFF" font-family="Arial,Arial_MSFontService,sans-serif" font-weight="400" font-size="32" transform="matrix(0.999823 0 0 0.999248 1278.1 1027)">Entitty</text><path d="M0-27.9789 217.169-27.9789 217.169 6.99473-5.08243e-06 6.99473Z" fill="#FFFFFF" fill-rule="evenodd" transform="matrix(1.00058 0 0 1 1150.89 896.102)"/><path d="M0-27.9789 183.195-27.9789 183.195 6.99473-5.08243e-06 6.99473Z" fill="#FFFFFF" fill-rule="evenodd" transform="matrix(1.00058 0 0 1 1150.89 935.073)"/><text font-family="Arial,Arial_MSFontService,sans-serif" font-weight="400" font-size="32" transform="matrix(0.999823 0 0 0.999248 1150.89 896)">unocs</text><text font-family="Arial,Arial_MSFontService,sans-serif" font-weight="400" font-size="32" transform="matrix(0.999823 0 0 0.999248 1235.87 896)">:</text><text font-family="Arial,Arial_MSFontService,sans-serif" font-weight="400" font-size="32" transform="matrix(0.999823 0 0 0.999248 1244.87 896)">engages</text><text font-family="Arial,Arial_MSFontService,sans-serif" font-weight="400" font-size="32" transform="matrix(0.999823 0 0 0.999248 1150.89 935)">ControlEntity</text><path d="M0-27.9789 249.145-27.9789 249.145 6.99473-5.08243e-06 6.99473Z" fill="#FFFFFF" fill-rule="evenodd" transform="matrix(1.00058 0 0 1 1836.06 817.517)"/><path d="M0-27.9789 8.82668-27.9789 8.82668 6.99473-3.17652e-07 6.99473Z" fill="#FFFFFF" fill-rule="evenodd" transform="matrix(1.00058 0 0 1 2085.37 817.517)"/><path d="M0-27.9789 236.655-27.9789 236.655 6.99473-5.08243e-06 6.99473Z" fill="#FFFFFF" fill-rule="evenodd" transform="matrix(1.00058 0 0 1 1836.06 856.488)"/><text font-family="Arial,Arial_MSFontService,sans-serif" font-weight="400" font-size="32" transform="matrix(0.999823 0 0 0.999248 1836.06 818)">unocs</text><text font-family="Arial,Arial_MSFontService,sans-serif" font-weight="400" font-size="32" transform="matrix(0.999823 0 0 0.999248 1921.04 818)">:</text><text font-family="Arial,Arial_MSFontService,sans-serif" font-weight="400" font-size="32" transform="matrix(0.999823 0 0 0.999248 1930.04 818)">hasControl</text><text font-family="Arial,Arial_MSFontService,sans-serif" font-weight="400" font-size="32" transform="matrix(0.999823 0 0 0.999248 1836.06 857)">ActionProcedure</text><path d="M0-27.9789 119.243-27.9789 119.243 6.99473 2.54122e-06 6.99473Z" fill="#FFFFFF" fill-rule="evenodd" transform="matrix(1.00058 0 0 1 1853.21 636.868)"/><path d="M0-27.9789 8.82668-27.9789 8.82668 6.99473-3.17652e-07 6.99473Z" fill="#FFFFFF" fill-rule="evenodd" transform="matrix(1.00058 0 0 1 1972.54 636.868)"/><path d="M0-27.9789 56.9571-27.9789 56.9571 6.99473 0 6.99473Z" fill="#FFFFFF" fill-rule="evenodd" transform="matrix(1.00058 0 0 1 1981.38 636.868)"/><text font-family="Arial,Arial_MSFontService,sans-serif" font-weight="400" font-size="32" transform="matrix(0.999823 0 0 0.999248 1853.21 637)">dicp</text><text font-family="Arial,Arial_MSFontService,sans-serif" font-weight="400" font-size="32" transform="matrix(0.999823 0 0 0.999248 1910.2 637)">:</text><text font-family="Arial,Arial_MSFontService,sans-serif" font-weight="400" font-size="32" transform="matrix(0.999823 0 0 0.999248 1919.2 637)">has</text><text font-family="Arial,Arial_MSFontService,sans-serif" font-weight="400" font-size="32" transform="matrix(0.999823 0 0 0.999248 1981.38 637)">End</text><path d="M0-27.9789 186.692-27.9789 186.692 6.99473-5.08243e-06 6.99473Z" fill="#FFFFFF" fill-rule="evenodd" transform="matrix(1.00058 0 0 1 1338.5 679.68)"/><text font-family="Arial,Arial_MSFontService,sans-serif" font-weight="400" font-size="32" transform="matrix(0.999823 0 0 0.999248 1338.5 680)">dicp</text><text font-family="Arial,Arial_MSFontService,sans-serif" font-weight="400" font-size="32" transform="matrix(0.999823 0 0 0.999248 1395.49 680)">:</text><text font-family="Arial,Arial_MSFontService,sans-serif" font-weight="400" font-size="32" transform="matrix(0.999823 0 0 0.999248 1404.48 680)">hasStart</text><path d="M2268.6 739.447 2268.6 747.442 2266.6 747.442 2266.6 739.447ZM2268.6 753.438 2268.6 761.433 2266.6 761.433 2266.6 753.438ZM2268.6 767.43 2268.6 772.553 2266.27 772.553 2267.27 771.553 2267.27 774.092 2265.27 774.092 2265.27 770.553 2267.6 770.553 2266.6 771.553 2266.6 767.43ZM2267.27 780.089 2267.27 788.084 2265.27 788.084 2265.27 780.089ZM2272.94 790.334 2266.27 803.659 2259.61 790.334Z" transform="matrix(1.00059 0 0 1 0.251898 0.518023)"/><path d="M0-27.9789 330.918-27.9789 330.918 6.99473-1.01648e-05 6.99473Z" fill="#FFFFFF" fill-rule="evenodd" transform="matrix(1.00058 0 0 1 2106.57 774.67)"/><text font-family="Arial,Arial_MSFontService,sans-serif" font-weight="400" font-size="32" transform="matrix(0.999823 0 0 0.999248 2106.57 775)">unocs</text><text font-family="Arial,Arial_MSFontService,sans-serif" font-weight="400" font-size="32" transform="matrix(0.999823 0 0 0.999248 2191.55 775)">:</text><text font-family="Arial,Arial_MSFontService,sans-serif" font-weight="400" font-size="32" transform="matrix(0.999823 0 0 0.999248 2200.55 775)">precendeceOver</text><path d="M2268.6 890.334 2268.6 898.329 2266.6 898.329 2266.6 890.334ZM2268.6 904.325 2268.6 912.32 2266.6 912.32 2266.6 904.325ZM2268.6 918.316 2268.6 923.439 2266.27 923.439 2267.27 922.44 2267.27 924.979 2265.27 924.979 2265.27 921.441 2267.6 921.441 2266.6 922.44 2266.6 918.316ZM2267.27 930.976 2267.27 938.971 2265.27 938.971 2265.27 930.976ZM2272.94 941.221 2266.27 954.546 2259.61 941.221Z" transform="matrix(1.00059 0 0 1 0.251898 0.518023)"/><path d="M2268.6 1041.23 2268.6 1049.22 2266.6 1049.22 2266.6 1041.23ZM2268.6 1055.21 2268.6 1063.21 2266.6 1063.21 2266.6 1055.21ZM2268.6 1069.2 2268.6 1074.33 2266.27 1074.33 2267.27 1073.33 2267.27 1075.87 2265.27 1075.87 2265.27 1072.33 2267.6 1072.33 2266.6 1073.33 2266.6 1069.2ZM2267.27 1081.86 2267.27 1089.86 2265.27 1089.86 2265.27 1081.86ZM2272.94 1092.11 2266.27 1105.44 2259.61 1092.11Z" transform="matrix(1.00059 0 0 1 0.251898 0.518023)"/><path d="M2268.6 1192.11 2268.6 1200.1 2266.6 1200.1 2266.6 1192.11ZM2268.6 1206.1 2268.6 1214.09 2266.6 1214.09 2266.6 1206.1ZM2268.6 1220.09 2268.6 1225.22 2266.27 1225.22 2267.27 1224.22 2267.27 1226.75 2265.27 1226.75 2265.27 1223.22 2267.6 1223.22 2266.6 1224.22 2266.6 1220.09ZM2267.27 1232.75 2267.27 1240.74 2265.27 1240.74 2265.27 1232.75ZM2272.94 1242.99 2266.27 1256.32 2259.61 1242.99Z" transform="matrix(1.00059 0 0 1 0.251898 0.518023)"/><path d="M0-27.9789 330.918-27.9789 330.918 6.99473-1.01648e-05 6.99473Z" fill="#FFFFFF" fill-rule="evenodd" transform="matrix(1.00058 0 0 1 2107.41 925.326)"/><text font-family="Arial,Arial_MSFontService,sans-serif" font-weight="400" font-size="32" transform="matrix(0.999823 0 0 0.999248 2107.41 926)">unocs</text><text font-family="Arial,Arial_MSFontService,sans-serif" font-weight="400" font-size="32" transform="matrix(0.999823 0 0 0.999248 2192.39 926)">:</text><text font-family="Arial,Arial_MSFontService,sans-serif" font-weight="400" font-size="32" transform="matrix(0.999823 0 0 0.999248 2201.39 926)">precendeceOver</text><path d="M0-27.9789 330.918-27.9789 330.918 6.99473-1.01648e-05 6.99473Z" fill="#FFFFFF" fill-rule="evenodd" transform="matrix(1.00058 0 0 1 2108.26 1075.98)"/><text font-family="Arial,Arial_MSFontService,sans-serif" font-weight="400" font-size="32" transform="matrix(0.999823 0 0 0.999248 2108.26 1076)">unocs</text><text font-family="Arial,Arial_MSFontService,sans-serif" font-weight="400" font-size="32" transform="matrix(0.999823 0 0 0.999248 2193.24 1076)">:</text><text font-family="Arial,Arial_MSFontService,sans-serif" font-weight="400" font-size="32" transform="matrix(0.999823 0 0 0.999248 2202.24 1076)">precendeceOver</text><path d="M0-27.9789 330.918-27.9789 330.918 6.99473-1.01648e-05 6.99473Z" fill="#FFFFFF" fill-rule="evenodd" transform="matrix(1.00058 0 0 1 2109.1 1226.63)"/><text font-family="Arial,Arial_MSFontService,sans-serif" font-weight="400" font-size="32" transform="matrix(0.999823 0 0 0.999248 2109.1 1227)">unocs</text><text font-family="Arial,Arial_MSFontService,sans-serif" font-weight="400" font-size="32" transform="matrix(0.999823 0 0 0.999248 2194.08 1227)">:</text><text font-family="Arial,Arial_MSFontService,sans-serif" font-weight="400" font-size="32" transform="matrix(0.999823 0 0 0.999248 2203.08 1227)">precendeceOver</text><path d="M1120.16 602.424 1120.79 596.656 1121.54 594.378 1123.44 595.002 1122.72 597.182 1122.76 596.981 1122.13 602.645ZM1123.87 588.683 1125.84 585.043 1128.25 581.842 1129.85 583.042 1127.48 586.184 1127.56 586.06 1125.63 589.635ZM1132.19 577.182 1135.51 573.704 1138 571.566 1139.3 573.081 1136.85 575.188 1136.92 575.121 1133.64 578.564ZM1142.65 567.654 1149.09 562.932 1150.28 564.544 1143.83 569.267ZM1154.2 559.653 1157.92 557.286 1161.08 555.502 1162.06 557.244 1158.92 559.014 1158.97 558.987 1155.27 561.34ZM1166.31 552.563 1167.33 551.995 1173.47 548.904 1174.37 550.69 1168.25 553.77 1168.29 553.749 1167.29 554.305ZM1178.89 546.243 1186.18 542.943 1186.99 544.762 1179.72 548.064ZM1191.71 540.553 1199.11 537.509 1199.86 539.357 1192.47 542.401ZM1204.72 535.336 1212.21 532.524 1212.91 534.395 1205.43 537.206ZM1217.89 530.523 1225.45 527.921 1226.1 529.812 1218.54 532.413ZM1231.18 526.063 1238.8 523.653 1239.4 525.56 1231.78 527.968ZM1244.56 521.912 1252.23 519.681 1252.79 521.6 1245.12 523.83ZM1258.03 518.036 1265.75 515.971 1266.26 517.903 1258.54 519.967ZM1271.54 514.424 1272.04 514.292 1279.32 512.5 1279.8 514.442 1272.52 516.23 1272.54 516.225 1272.06 516.354ZM1285.15 511.069 1288.22 510.315 1292.95 509.246 1293.39 511.196 1288.67 512.263 1288.69 512.258 1285.63 513.01ZM1298.8 507.926 1304.94 506.539 1306.62 506.193 1307.03 508.149 1305.36 508.494 1305.38 508.49 1299.24 509.876ZM1312.5 504.979 1320.32 503.36 1320.73 505.317 1312.9 506.936ZM1326.23 502.213 1334.08 500.73 1334.45 502.694 1326.6 504.176ZM1340 499.617 1347.87 498.267 1348.21 500.237 1340.33 501.587ZM1353.79 497.255 1358.08 496.518 1361.69 495.961 1361.99 497.936 1358.39 498.492 1358.41 498.49 1354.12 499.224ZM1367.62 495.045 1375.52 493.824 1375.82 495.8 1367.92 497.021ZM1381.47 492.984 1389.39 491.89 1389.66 493.87 1381.75 494.963ZM1395.33 491.069 1395.57 491.037 1403.3 490.156 1403.52 492.143 1395.81 493.022 1395.83 493.019 1395.61 493.05ZM1409.25 489.478 1417.2 488.571 1417.43 490.558 1409.48 491.463ZM1423.15 487.893 1431.1 486.987 1431.33 488.973 1423.38 489.878ZM1437.09 486.392 1445.07 485.737 1445.23 487.729 1437.26 488.384ZM1451.04 485.246 1459.01 484.59 1459.18 486.583 1451.2 487.238ZM1464.98 484.1 1472.96 483.444 1473.12 485.437 1465.15 486.091ZM1478.97 483.108 1486.96 482.708 1487.06 484.704 1479.07 485.105ZM1492.94 482.408 1500.92 482.007 1501.02 484.004 1493.04 484.403ZM1506.92 481.707 1514.33 481.335 1514.93 481.324 1514.97 483.322 1514.38 483.332 1514.42 483.331 1507.02 483.703ZM1520.93 481.222 1528.92 481.085 1528.96 483.083 1520.97 483.22ZM1534.92 480.983 1542.91 480.846 1542.95 482.845 1534.96 482.982ZM1541.55 475.205 1554.99 481.64 1541.78 488.529Z" transform="matrix(1.00059 0 0 1 0.251898 0.518023)"/><path d="M0-27.9789 227.828-27.9789 227.828 6.99473 0 6.99473Z" fill="#FFFFFF" fill-rule="evenodd" transform="matrix(1.00058 0 0 1 1220.95 507.327)"/><path d="M0-27.9789 190.524-27.9789 190.524 6.99473 5.08243e-06 6.99473Z" fill="#FFFFFF" fill-rule="evenodd" transform="matrix(1.00058 0 0 1 1220.95 546.299)"/><text font-family="Arial,Arial_MSFontService,sans-serif" font-weight="400" font-size="32" transform="matrix(0.999823 0 0 0.999248 1220.95 507)">unocs</text><text font-family="Arial,Arial_MSFontService,sans-serif" font-weight="400" font-size="32" transform="matrix(0.999823 0 0 0.999248 1305.93 507)">:</text><text font-family="Arial,Arial_MSFontService,sans-serif" font-weight="400" font-size="32" transform="matrix(0.999823 0 0 0.999248 1314.93 507)">isDefined</text><text font-family="Arial,Arial_MSFontService,sans-serif" font-weight="400" font-size="32" transform="matrix(0.999823 0 0 0.999248 1220.95 546)">ByRegulation</text><path d="M0-27.9789 249.145-27.9789 249.145 6.99473-5.08243e-06 6.99473Z" fill="#FFFFFF" fill-rule="evenodd" transform="matrix(1.00058 0 0 1 1558.98 997.251)"/><path d="M0-27.9789 8.82668-27.9789 8.82668 6.99473-3.17652e-07 6.99473Z" fill="#FFFFFF" fill-rule="evenodd" transform="matrix(1.00058 0 0 1 1808.3 997.251)"/><path d="M0-27.9789 236.655-27.9789 236.655 6.99473-5.08243e-06 6.99473Z" fill="#FFFFFF" fill-rule="evenodd" transform="matrix(1.00058 0 0 1 1558.98 1036.22)"/><text font-family="Arial,Arial_MSFontService,sans-serif" font-weight="400" font-size="32" transform="matrix(0.999823 0 0 0.999248 1558.98 997)">unocs</text><text font-family="Arial,Arial_MSFontService,sans-serif" font-weight="400" font-size="32" transform="matrix(0.999823 0 0 0.999248 1643.96 997)">:</text><text font-family="Arial,Arial_MSFontService,sans-serif" font-weight="400" font-size="32" transform="matrix(0.999823 0 0 0.999248 1652.96 997)">hasControl</text><text font-family="Arial,Arial_MSFontService,sans-serif" font-weight="400" font-size="32" transform="matrix(0.999823 0 0 0.999248 1558.98 1036)">ActionProcedure</text><path d="M1814.12 969.608C1814.12 965.837 1817.17 962.779 1820.94 962.779L2050.11 962.779C2053.87 962.779 2056.93 965.837 2056.93 969.608L2056.93 996.92C2056.93 1000.7 2053.87 1003.74 2050.11 1003.74L1820.94 1003.74C1817.17 1003.74 1814.12 1000.7 1814.12 996.92Z" stroke="#FFFFFF" stroke-width="0.666247" stroke-miterlimit="8" fill="#575454" fill-rule="evenodd" transform="matrix(1.00059 0 0 1 0.251898 0.518023)"/><text fill="#FFFFFF" font-family="Arial,Arial_MSFontService,sans-serif" font-style="italic" font-weight="400" font-size="32" transform="matrix(0.999823 0 0 0.999248 1861.17 995)">dica</text><text fill="#FFFFFF" font-family="Arial,Arial_MSFontService,sans-serif" font-style="italic" font-weight="400" font-size="32" transform="matrix(0.999823 0 0 0.999248 1920.16 995)">:</text><text fill="#FFFFFF" font-family="Arial,Arial_MSFontService,sans-serif" font-style="italic" font-weight="400" font-size="32" transform="matrix(0.999823 0 0 0.999248 1929.16 995)">Agent</text><path d="M1779.67 882.34 1787.67 882.587 1787.61 884.584 1779.61 884.338ZM1793.66 882.772 1794.33 882.792 1801.69 883.459 1801.51 885.449 1794.18 884.786 1794.24 884.789 1793.59 884.769ZM1807.65 884.001 1808.9 884.114 1815.62 885.113 1815.33 887.089 1808.64 886.094 1808.69 886.101 1807.47 885.991ZM1821.56 885.994 1823.24 886.244 1829.45 887.525 1829.05 889.482 1822.86 888.207 1822.92 888.216 1821.26 887.971ZM1835.33 888.734 1837.24 889.126 1843.14 890.687 1842.62 892.618 1836.75 891.065 1836.81 891.078 1834.93 890.691ZM1848.94 892.217 1850.77 892.703 1856.62 894.604 1856 896.505 1850.18 894.612 1850.24 894.627 1848.43 894.15ZM1862.33 896.458 1863.74 896.917 1869.85 899.306 1869.13 901.167 1863.04 898.788 1863.09 898.808 1861.71 898.359ZM1875.44 901.486 1876.02 901.71 1882.76 904.838 1881.92 906.651 1875.2 903.537 1875.26 903.561 1874.72 903.348ZM1888.24 907.437 1895.25 911.276 1894.29 913.028 1887.28 909.19ZM1900.47 914.375 1907.17 918.73 1906.09 920.406 1899.38 916.052ZM1912 922.434 1916.02 925.572 1918.19 927.646 1916.8 929.088 1914.68 927.05 1914.75 927.117 1910.77 924.01ZM1922.51 931.798 1923.18 932.44 1927.71 938.022 1926.16 939.282 1921.66 933.748 1921.75 933.839 1921.12 933.24ZM1931.2 943.031 1931.31 943.21 1933.29 946.937 1934.27 949.969 1932.38 950.593 1931.41 947.64 1931.48 947.797 1929.56 944.183 1929.61 944.256 1929.51 944.112ZM1939.56 947.567 1935.86 962.001 1926.53 950.391Z" transform="matrix(1.00059 0 0 1 0.251898 0.518023)"/><path d="M0-27.9789 202.847-27.9789 202.847 6.99473 0 6.99473Z" fill="#FFFFFF" fill-rule="evenodd" transform="matrix(1.00058 0 0 1 1838.21 930.742)"/><text font-family="Arial,Arial_MSFontService,sans-serif" font-weight="400" font-size="32" transform="matrix(0.999823 0 0 0.999248 1838.21 931)">dica</text><text font-family="Arial,Arial_MSFontService,sans-serif" font-weight="400" font-size="32" transform="matrix(0.999823 0 0 0.999248 1895.2 931)">:</text><text font-family="Arial,Arial_MSFontService,sans-serif" font-weight="400" font-size="32" transform="matrix(0.999823 0 0 0.999248 1904.2 931)">hasAgent</text><path d="M1280.52 703.473C1280.52 698.231 1284.77 693.981 1290.02 693.981L1519.84 693.981C1525.09 693.981 1529.33 698.231 1529.33 703.473L1529.33 741.445C1529.33 746.688 1525.09 750.938 1519.84 750.938L1290.02 750.938C1284.77 750.938 1280.52 746.688 1280.52 741.445Z" stroke="#FFFFFF" stroke-width="0.666247" stroke-miterlimit="8" fill="#575454" fill-rule="evenodd" transform="matrix(1.00059 0 0 1 0.251898 0.518023)"/><text fill="#FFFFFF" font-family="Arial,Arial_MSFontService,sans-serif" font-style="italic" font-weight="400" font-size="32" transform="matrix(0.999823 0 0 0.999248 1310.87 735)">dice</text><text fill="#FFFFFF" font-family="Arial,Arial_MSFontService,sans-serif" font-style="italic" font-weight="400" font-size="32" transform="matrix(0.999823 0 0 0.999248 1369.86 735)">:</text><text fill="#FFFFFF" font-family="Arial,Arial_MSFontService,sans-serif" font-style="italic" font-weight="400" font-size="32" transform="matrix(0.999823 0 0 0.999248 1378.86 735)">Location</text><path d="M0.156625-0.98703 4.32025-0.326335 7.99988 1.38906 7.15533 3.20064 3.60284 1.5445 3.86848 1.62575-0.156625 0.98703ZM13.0625 5.22703 16.5542 8.92553 18.3507 11.3667 16.7409 12.5514 14.9806 10.1595 15.0589 10.2532 11.6091 6.59917ZM21.7428 16.4182 23.926 20.0676 25.6288 23.4865 23.8398 24.3776 22.154 20.9931 22.191 21.0606 20.0275 17.4444ZM28.1979 28.9727 30.4883 34.4286 31.2026 36.4395 29.3192 37.1086 28.6143 35.1241 28.6345 35.1764 26.355 29.7464ZM33.2098 42.0899 33.3978 42.619 35.5444 49.7884 33.6296 50.3618 31.4902 43.2165 31.5059 43.2643 31.3263 42.7589ZM37.0805 55.6314 38.3241 60.6208 38.8996 63.4604 36.9407 63.8574 36.3696 61.0394 36.3794 61.0827 35.1411 56.1149ZM40.0905 69.3373 40.2799 70.2716 41.3852 77.2698 39.411 77.5817 38.309 70.6047 38.3167 70.6473 38.1316 69.7342ZM42.198 83.2529 43.0204 90.4703 43.0742 91.2434 41.0803 91.382 41.028 90.6309 41.032 90.6747 40.2121 83.4791ZM43.4901 97.2253 43.7426 100.857 43.8466 105.256 41.8484 105.304 41.7449 100.927 41.747 100.973 41.4961 97.3639ZM43.9885 111.25 43.9897 111.303 44.1776 119.243 42.1794 119.291 41.9915 111.35 41.9903 111.298ZM44.4778 125.185 44.9532 132.023 44.9492 131.979 45.0784 133.112 43.0925 133.339 42.9608 132.182 42.4839 125.324ZM45.7571 139.07 46.109 142.157 46.1031 142.114 46.8657 146.942 44.8915 147.254 44.1255 142.405 43.7712 139.296ZM47.8288 152.816 49.4167 160.652 47.4578 161.049 45.8699 153.214ZM50.8147 166.437 51.895 170.77 51.8827 170.725 52.8948 174.106 50.98 174.679 49.9613 171.277 48.8753 166.92ZM54.6198 179.796 57.296 187.33 55.4125 187.998 52.7363 180.465ZM59.5856 192.81 60.4901 194.964 60.4632 194.906 62.9858 199.971 61.1967 200.862 58.6596 195.768 57.7427 193.584ZM65.8998 205.119 67.3428 207.531 67.2901 207.452 70.3628 211.628 68.753 212.812 65.6521 208.598 64.1846 206.145ZM74.3002 215.978 74.7583 216.463 74.6384 216.355 78.569 219.359 78.2847 219.207 79.9295 219.768 79.2848 221.659 77.4853 221.046 73.3606 217.894 72.8468 217.35ZM80.2724 213.951 85.981 222.653 76.3924 226.699Z" transform="matrix(-1.83803e-16 -1 -1.00058 1.83698e-16 1627.78 836.938)"/><path d="M0-27.9789 240.319-27.9789 240.319 6.99473 0 6.99473Z" fill="#FFFFFF" fill-rule="evenodd" transform="matrix(1.00058 0 0 1 1315.57 802.392)"/><text font-family="Arial,Arial_MSFontService,sans-serif" font-weight="400" font-size="32" transform="matrix(0.999823 0 0 0.999248 1315.57 802)">dicp</text><text font-family="Arial,Arial_MSFontService,sans-serif" font-weight="400" font-size="32" transform="matrix(0.999823 0 0 0.999248 1372.56 802)">:</text><text font-family="Arial,Arial_MSFontService,sans-serif" font-weight="400" font-size="32" transform="matrix(0.999823 0 0 0.999248 1381.56 802)">hasLocation</text><path d="M772.91 342.244 2429.65 342.244 2429.65 1343.49 772.91 1343.49Z" stroke="#575454" stroke-width="3.33123" stroke-miterlimit="8" stroke-dasharray="26.6499 9.99368" fill="none" transform="matrix(1.00059 0 0 1 0.251898 0.518023)"/><text font-family="Arial,Arial_MSFontService,sans-serif" font-weight="700" font-size="32" transform="matrix(0.999823 0 0 0.999248 782.518 378)">UNOCS</text><text font-family="Arial,Arial_MSFontService,sans-serif" font-weight="700" font-size="32" transform="matrix(0.999823 0 0 0.999248 907.013 378)"></text><text font-family="Arial,Arial_MSFontService,sans-serif" font-weight="700" font-size="32" transform="matrix(0.999823 0 0 0.999248 933.678 378)">MitigationPlan</text><path d="M975.756 612.542C975.756 607.299 980.005 603.049 985.248 603.049L1258.04 603.049C1263.29 603.049 1267.53 607.299 1267.53 612.542L1267.53 650.513C1267.53 655.756 1263.29 660.006 1258.04 660.006L985.248 660.006C980.005 660.006 975.756 655.756 975.756 650.513Z" stroke="#FFFFFF" stroke-width="0.666247" stroke-miterlimit="8" fill="#575454" fill-rule="evenodd" transform="matrix(1.00059 0 0 1 0.251898 0.518023)"/><text fill="#FFFFFF" font-family="Arial,Arial_MSFontService,sans-serif" font-style="italic" font-weight="400" font-size="32" transform="matrix(0.999823 0 0 0.999248 988.869 643)">unocs</text><text fill="#FFFFFF" font-family="Arial,Arial_MSFontService,sans-serif" font-style="italic" font-weight="400" font-size="32" transform="matrix(0.999823 0 0 0.999248 1073.85 643)">:</text><text fill="#FFFFFF" font-family="Arial,Arial_MSFontService,sans-serif" font-style="italic" font-weight="400" font-size="32" transform="matrix(0.999823 0 0 0.999248 1082.85 643)">HazardType</text><path d="M1118.15 743.171 1118.17 735.366 1118.17 735.172 1120.17 735.185 1120.17 735.377 1120.17 735.373 1120.15 743.176ZM1118.21 729.176 1118.22 727.804 1118.29 721.177 1120.29 721.199 1120.22 727.824 1120.22 727.82 1120.21 729.189ZM1118.39 715.175 1118.4 714.394 1118.52 709.034 1118.58 707.167 1120.58 707.231 1120.52 709.094 1120.52 709.084 1120.4 714.435 1120.4 714.429 1120.39 715.208ZM1119.02 700.932 1119.06 700.804 1119.03 700.995 1119.1 700.296 1119.1 700.336 1119.17 699.208 1119.17 699.226 1119.24 697.699 1119.24 697.713 1119.37 693.586 1119.37 693.596 1119.38 693.227 1121.37 693.272 1121.36 693.646 1121.23 697.785 1121.16 699.328 1121.08 700.485 1120.99 701.302 1120.93 701.525ZM1119.51 687.239 1119.59 681.919 1119.59 681.924 1119.62 679.25 1121.61 679.272 1121.58 681.949 1121.5 687.271ZM1119.68 673.259 1119.69 671.494 1121.68 671.505 1121.67 673.27ZM1114.02 672.804 1120.73 659.507 1127.34 672.859Z" transform="matrix(1.00059 0 0 1 0.251898 0.518023)"/><path d="M0-27.9789 318.493-27.9789 318.493 6.99473 4.06595e-06 6.99473Z" fill="#FFFFFF" fill-rule="evenodd" transform="matrix(1.00058 0 0 1 942.063 717.647)"/><text font-family="Arial,Arial_MSFontService,sans-serif" font-weight="400" font-size="32" transform="matrix(0.999823 0 0 0.999248 942.063 718)">unocs</text><text font-family="Arial,Arial_MSFontService,sans-serif" font-weight="400" font-size="32" transform="matrix(0.999823 0 0 0.999248 1027.05 718)">:</text><text font-family="Arial,Arial_MSFontService,sans-serif" font-weight="400" font-size="32" transform="matrix(0.999823 0 0 0.999248 1036.05 718)">hasHazardType</text><path d="M0 0.999378-7.99504 0.999378-7.99504-0.999378 0-0.999378ZM-13.9914 0.999378-21.9863 0.999378-21.9863-0.999378-13.9914-0.999378ZM-22.9892 3.99408-22.9892 11.9891-24.9879 11.9891-24.9879 3.99408ZM-22.9892 17.9854-22.9892 25.9804-24.9879 25.9804-24.9879 17.9854ZM-22.9892 31.9767-22.9892 39.9718-24.9879 39.9718-24.9879 31.9767ZM-22.9892 45.968-22.9892 53.9631-24.9879 53.9631-24.9879 45.968ZM-22.9892 59.9594-22.9892 67.9544-24.9879 67.9544-24.9879 59.9594ZM-22.9892 73.9506-22.9892 81.9457-24.9879 81.9457-24.9879 73.9506ZM-22.9892 87.942-22.9892 95.9371-24.9879 95.9371-24.9879 87.942ZM-22.9892 101.933-22.9892 109.928-24.9879 109.928-24.9879 101.933ZM-22.9892 115.925-22.9892 123.92-24.9879 123.92-24.9879 115.925ZM-22.9892 129.916-22.9892 137.911-24.9879 137.911-24.9879 129.916ZM-22.9892 143.908-22.9892 151.903-24.9879 151.903-24.9879 143.908ZM-22.9892 157.898-22.9892 165.894-24.9879 165.894-24.9879 157.898ZM-22.9892 171.89-22.9892 179.885-24.9879 179.885-24.9879 171.89ZM-22.9892 185.881-22.9892 193.876-24.9879 193.876-24.9879 185.881ZM-22.9892 199.873-22.9892 207.867-24.9879 207.867-24.9879 199.873ZM-22.9892 213.864-22.9892 221.859-24.9879 221.859-24.9879 213.864ZM-22.9892 227.855-22.9892 233.268-23.9885 232.269-21.4068 232.269-21.4068 234.268-24.9879 234.268-24.9879 227.855ZM-15.4105 232.269-7.41548 232.269-7.41548 234.268-15.4105 234.268ZM-1.4192 232.269 6.57584 232.269 6.57584 234.268-1.4192 234.268ZM12.5721 232.269 20.5671 232.269 20.5671 234.268 12.5721 234.268ZM26.5634 232.269 34.5585 232.269 34.5585 234.268 26.5634 234.268ZM40.5548 232.269 48.5497 232.269 48.5497 234.268 40.5548 234.268ZM54.546 232.269 62.5411 232.269 62.5411 234.268 54.546 234.268ZM68.5374 232.269 76.5324 232.269 76.5324 234.268 68.5374 234.268ZM82.5287 232.269 90.5238 232.269 90.5238 234.268 82.5287 234.268ZM96.52 232.269 104.515 232.269 104.515 234.268 96.52 234.268ZM110.512 232.269 118.507 232.269 118.507 234.268 110.512 234.268ZM124.502 232.269 132.497 232.269 132.497 234.268 124.502 234.268ZM138.494 232.269 146.489 232.269 146.489 234.268 138.494 234.268ZM152.485 232.269 160.48 232.269 160.48 234.268 152.485 234.268ZM166.477 232.269 174.472 232.269 174.472 234.268 166.477 234.268ZM180.468 232.269 188.463 232.269 188.463 234.268 180.468 234.268ZM194.46 232.269 202.455 232.269 202.455 234.268 194.46 234.268ZM208.45 232.269 216.446 232.269 216.446 234.268 208.45 234.268ZM222.442 232.269 230.437 232.269 230.437 234.268 222.442 234.268ZM236.433 232.269 244.428 232.269 244.428 234.268 236.433 234.268ZM250.424 232.269 258.419 232.269 258.419 234.268 250.424 234.268ZM264.416 232.269 272.411 232.269 272.411 234.268 264.416 234.268ZM278.407 232.269 286.402 232.269 286.402 234.268 278.407 234.268ZM292.399 232.269 300.394 232.269 300.394 234.268 292.399 234.268ZM306.389 232.269 314.384 232.269 314.384 234.268 306.389 234.268ZM320.381 232.269 328.376 232.269 328.376 234.268 320.381 234.268ZM334.372 232.269 342.367 232.269 342.367 234.268 334.372 234.268ZM348.364 232.269 356.359 232.269 356.359 234.268 348.364 234.268ZM362.355 232.269 370.35 232.269 370.35 234.268 362.355 234.268ZM376.347 232.269 384.342 232.269 384.342 234.268 376.347 234.268ZM390.338 232.269 398.333 232.269 398.333 234.268 390.338 234.268ZM404.329 232.269 412.324 232.269 412.324 234.268 404.329 234.268ZM418.32 232.269 426.315 232.269 426.315 234.268 418.32 234.268ZM432.311 232.269 440.306 232.269 440.306 234.268 432.311 234.268ZM446.303 232.269 454.298 232.269 454.298 234.268 446.303 234.268ZM460.294 232.269 468.289 232.269 468.289 234.268 460.294 234.268ZM474.286 232.269 482.281 232.269 482.281 234.268 474.286 234.268ZM488.277 232.269 496.272 232.269 496.272 234.268 488.277 234.268ZM502.268 232.269 510.263 232.269 510.263 234.268 502.268 234.268ZM516.259 232.269 524.254 232.269 524.254 234.268 516.259 234.268ZM530.251 232.269 538.246 232.269 538.246 234.268 530.251 234.268ZM544.242 232.269 552.237 232.269 552.237 234.268 544.242 234.268ZM558.234 232.269 566.229 232.269 566.229 234.268 558.234 234.268ZM572.225 232.269 580.22 232.269 580.22 234.268 572.225 234.268ZM586.216 232.269 594.212 232.269 594.212 234.268 586.216 234.268ZM600.207 232.269 608.202 232.269 608.202 234.268 600.207 234.268ZM614.199 232.269 622.194 232.269 622.194 234.268 614.199 234.268ZM628.19 232.269 636.185 232.269 636.185 234.268 628.19 234.268ZM642.181 232.269 650.177 232.269 650.177 234.268 642.181 234.268ZM656.173 232.269 664.168 232.269 664.168 234.268 656.173 234.268ZM670.164 232.269 678.159 232.269 678.159 234.268 670.164 234.268ZM684.155 232.269 692.151 232.269 692.151 234.268 684.155 234.268ZM698.146 232.269 706.141 232.269 706.141 234.268 698.146 234.268ZM712.138 232.269 720.133 232.269 720.133 234.268 712.138 234.268ZM726.129 232.269 734.124 232.269 734.124 234.268 726.129 234.268ZM740.121 232.269 748.116 232.269 748.116 234.268 740.121 234.268ZM754.112 232.269 762.107 232.269 762.107 234.268 754.112 234.268ZM768.104 232.269 776.099 232.269 776.099 234.268 768.104 234.268ZM782.094 232.269 790.089 232.269 790.089 234.268 782.094 234.268ZM796.086 232.269 804.081 232.269 804.081 234.268 796.086 234.268ZM810.077 232.269 818.072 232.269 818.072 234.268 810.077 234.268ZM824.069 232.269 832.064 232.269 832.064 234.268 824.069 234.268ZM838.06 232.269 846.055 232.269 846.055 234.268 838.06 234.268ZM852.052 232.269 860.046 232.269 860.046 234.268 852.052 234.268ZM866.043 232.269 874.038 232.269 874.038 234.268 866.043 234.268ZM880.033 232.269 888.028 232.269 888.028 234.268 880.033 234.268ZM894.025 232.269 902.02 232.269 902.02 234.268 894.025 234.268ZM908.016 232.269 916.011 232.269 916.011 234.268 908.016 234.268ZM922.008 232.269 930.003 232.269 930.003 234.268 922.008 234.268ZM935.999 232.269 943.994 232.269 943.994 234.268 935.999 234.268ZM949.991 232.269 957.986 232.269 957.986 234.268 949.991 234.268ZM963.981 232.269 971.976 232.269 971.976 234.268 963.981 234.268ZM977.973 232.269 985.968 232.269 985.968 234.268 977.973 234.268ZM991.964 232.269 999.957 232.269 999.957 234.268 991.964 234.268ZM1005.95 232.269 1013.95 232.269 1013.95 234.268 1005.95 234.268ZM1019.94 232.269 1027.95 232.269 1027.95 234.268 1019.94 234.268ZM1033.94 232.269 1041.94 232.269 1041.94 234.268 1033.94 234.268ZM1047.93 232.269 1055.92 232.269 1055.92 234.268 1047.93 234.268ZM1061.92 232.269 1069.91 232.269 1069.91 234.268 1061.92 234.268ZM1075.91 232.269 1083.9 232.269 1083.9 234.268 1075.91 234.268ZM1089.9 232.269 1097.9 232.269 1097.9 234.268 1089.9 234.268ZM1103.9 232.269 1111.89 232.269 1111.89 234.268 1103.9 234.268ZM1117.89 232.269 1125.88 232.269 1125.88 234.268 1117.89 234.268ZM1131.88 232.269 1139.87 232.269 1139.87 234.268 1131.88 234.268ZM1145.87 232.269 1153.86 232.269 1153.86 234.268 1145.87 234.268ZM1159.86 232.269 1167.85 232.269 1167.85 234.268 1159.86 234.268ZM1173.86 232.269 1181.85 232.269 1181.85 234.268 1173.86 234.268ZM1187.85 232.269 1195.84 232.269 1195.84 234.268 1187.85 234.268ZM1201.84 232.269 1209.83 232.269 1209.83 234.268 1201.84 234.268ZM1215.82 232.269 1223.82 232.269 1223.82 234.268 1215.82 234.268ZM1229.81 232.269 1237.81 232.269 1237.81 234.268 1229.81 234.268ZM1243.8 232.269 1251.81 232.269 1251.81 234.268 1243.8 234.268ZM1257.8 232.269 1265.8 232.269 1265.8 234.268 1257.8 234.268ZM1271.79 232.269 1279.79 232.269 1279.79 234.268 1271.79 234.268ZM1285.78 232.269 1291.82 232.269 1290.82 233.268 1290.82 231.313 1292.82 231.313 1292.82 234.268 1285.78 234.268ZM1290.82 225.316 1290.82 217.321 1292.82 217.321 1292.82 225.316ZM1290.82 211.326 1290.82 203.331 1292.82 203.331 1292.82 211.326ZM1290.82 197.334 1290.82 189.339 1292.82 189.339 1292.82 197.334ZM1290.82 183.343 1290.82 175.348 1292.82 175.348 1292.82 183.343ZM1290.82 169.352 1290.82 161.357 1292.82 161.357 1292.82 169.352ZM1290.82 155.36 1290.82 147.365 1292.82 147.365 1292.82 155.36ZM1290.82 141.369 1290.82 133.374 1292.82 133.374 1292.82 141.369ZM1290.82 127.378 1290.82 119.382 1292.82 119.382 1292.82 127.378ZM1285.16 117.579 1291.82 104.255 1298.48 117.579Z" transform="matrix(1.00058 -1.22465e-16 -1.22536e-16 -1 976.079 631.379)"/><path d="M0-27.9789 284.619-27.9789 284.619 6.99473 1.01648e-05 6.99473Z" fill="#FFFFFF" fill-rule="evenodd" transform="matrix(1.00058 0 0 1 963.371 439.575)"/><path d="M0-27.9789 250.978-27.9789 250.978 6.99473 5.08243e-06 6.99473Z" fill="#FFFFFF" fill-rule="evenodd" transform="matrix(1.00058 0 0 1 963.371 478.545)"/><text font-family="Arial,Arial_MSFontService,sans-serif" font-weight="400" font-size="32" transform="matrix(0.999823 0 0 0.999248 963.371 439)">unocs</text><text font-family="Arial,Arial_MSFontService,sans-serif" font-weight="400" font-size="32" transform="matrix(0.999823 0 0 0.999248 1048.36 439)">:</text><text font-family="Arial,Arial_MSFontService,sans-serif" font-weight="400" font-size="32" transform="matrix(0.999823 0 0 0.999248 1057.35 439)">isMitigatedBy</text><text font-family="Arial,Arial_MSFontService,sans-serif" font-weight="400" font-size="32" transform="matrix(0.999823 0 0 0.999248 963.371 478)">ControlProcedure</text></g></svg>