<svg width="3780" height="2268" xmlns="http://www.w3.org/2000/svg" xmlns:xlink="http://www.w3.org/1999/xlink" overflow="hidden"><defs><clipPath id="clip0"><rect x="0" y="0" width="3780" height="2268"/></clipPath></defs><g clip-path="url(#clip0)"><rect x="0" y="0" width="3780" height="2268.03" fill="#FFFFFF"/><path d="M1146.5 1017.18C1146.5 1011.29 1151.28 1006.51 1157.17 1006.51L1343.83 1006.51C1349.72 1006.51 1354.5 1011.29 1354.5 1017.18L1354.5 1059.85C1354.5 1065.74 1349.72 1070.52 1343.83 1070.52L1157.17 1070.52C1151.28 1070.52 1146.5 1065.74 1146.5 1059.85Z" stroke="#FFFFFF" stroke-width="0.666755" stroke-miterlimit="8" fill="#575454" fill-rule="evenodd"/><text fill="#FFFFFF" font-family="Arial,Arial_MSFontService,sans-serif" font-style="italic" font-weight="400" font-size="32" transform="matrix(1 0 0 1.00001 1175.89 1049)">dice:Entity</text><path d="M0.00385649-1.00012 8.00486-0.969273 7.99714 1.03098-0.00385649 1.00012ZM14.0056-0.946134 22.0066-0.915282 21.9989 1.08497 13.9979 1.05412ZM28.0144-0.852331 36.015-0.762318 35.9925 1.23782 27.9919 1.14781ZM42.0154-0.694808 44.5568-0.666215 50.0211-0.574396 49.9875 1.42559 44.5259 1.33381 44.5315 1.33389 41.9929 1.30533ZM56.0248-0.469669 64.0242-0.304325 63.9828 1.69551 55.9835 1.53017ZM70.0274-0.159584 74.5563-0.0471403 78.0302 0.0551853 77.9713 2.05458 74.4997 1.95233 74.5043 1.95245 69.9777 1.84006ZM84.0336 0.235246 91.5965 0.498519 92.0362 0.516678 91.9536 2.51524 91.5172 2.49721 91.5237 2.49746 83.964 2.2343ZM98.0319 0.764297 98.9635 0.802772 105.444 1.12428 106.043 1.16079 105.921 3.15734 105.328 3.12118 105.34 3.12181 98.8685 2.80079 98.8768 2.80116 97.9493 2.76286ZM112.048 1.54617 115.404 1.80886 118.725 2.1693 120.096 2.41317 119.746 4.38252 118.408 4.14461 118.475 4.15423 115.203 3.79907 115.233 3.80185 111.892 3.54034ZM125.798 3.79456 127.413 3.96977 127.383 3.96698 131.811 4.31357 131.794 4.31238 133.726 4.43028 133.604 6.42683 131.663 6.30841 127.212 5.95997 125.583 5.78315ZM139.706 4.76749 143.747 4.96797 143.739 4.96759 147.69 5.13077 147.608 7.12933 143.652 6.96598 139.607 6.7653ZM153.68 5.36136 159.251 5.5553 159.246 5.55513 161.671 5.62656 161.612 7.62596 159.185 7.55445 153.61 7.36041ZM167.67 5.80323 168.116 5.81639 168.111 5.81626 175.663 6.00376 175.614 8.0034 168.06 7.81586 167.611 7.80263ZM181.659 6.13573 187.624 6.25904 187.621 6.25897 189.654 6.29314 189.621 8.29312 187.585 8.25891 181.617 8.13557ZM195.654 6.39396 198.09 6.43488 198.084 6.4348 203.649 6.49741 203.626 8.49755 198.059 8.43491 195.621 8.39394ZM209.649 6.56492 217.65 6.65493 217.627 8.65507 209.627 8.56506ZM223.643 6.69539 231.644 6.72625 231.636 8.7265 223.635 8.69564ZM234.641 1.07034 242.616 7.76869 234.589 14.4053Z" transform="matrix(1 0 0 -1.00001 1354 1037.78)"/><path d="M1007.5 727.344C1007.5 721.913 1011.9 717.511 1017.33 717.511L1302.67 717.511C1308.1 717.511 1312.5 721.913 1312.5 727.344L1312.5 766.678C1312.5 772.109 1308.1 776.511 1302.67 776.511L1017.33 776.511C1011.9 776.511 1007.5 772.109 1007.5 766.678Z" stroke="#FFFFFF" stroke-width="0.666755" stroke-miterlimit="8" fill="#575454" fill-rule="evenodd"/><text fill="#FFFFFF" font-family="Arial,Arial_MSFontService,sans-serif" font-style="italic" font-weight="400" font-size="32" transform="matrix(1 0 0 1.00001 1038.05 758)">dice:TimeInterval</text><path d="M1455.19 797.064 1447.19 796.735 1447.28 794.736 1455.27 795.066ZM1441.12 796.431 1433.18 795.476 1433.42 793.49 1441.36 794.445ZM1427.16 794.624 1419.32 793.055 1419.71 791.093 1427.56 792.662ZM1413.42 791.666 1410.95 791.011 1405.71 789.36 1406.31 787.452 1411.53 789.096 1411.49 789.083 1413.93 789.733ZM1400 787.182 1396.4 785.588 1392.75 783.653 1393.69 781.886 1397.3 783.804 1397.24 783.773 1400.81 785.352ZM1387.67 780.094 1386.45 779.07 1384.39 776.679 1383.07 774.163 1382.87 773.072 1384.84 772.72 1385.01 773.658 1384.91 773.369 1386.11 775.647 1385.98 775.46 1387.91 777.703 1387.8 777.589 1388.96 778.56ZM1381.25 767.681 1381.12 767.428 1381.25 767.616 1379.32 765.373 1379.43 765.487 1376.82 763.299 1376.91 763.37 1375.79 762.634 1376.88 760.959 1378.06 761.727 1380.78 764.006 1382.84 766.397 1383.02 766.751ZM1370.68 759.67 1369.93 759.272 1369.99 759.303 1365.65 757.384 1365.7 757.406 1363.45 756.569 1364.15 754.694 1366.43 755.542 1370.83 757.488 1371.62 757.903ZM1357.82 754.65 1355.7 753.98 1355.74 753.993 1350.16 752.511 1350.68 750.578 1356.28 752.065 1358.42 752.742ZM1344.34 751.347 1338.1 750.1 1338.18 750.112 1336.55 749.916 1336.79 747.93 1338.45 748.13 1344.73 749.386ZM1330.59 749.199 1325.24 748.555 1325.32 748.561 1322.71 748.454 1322.79 746.455 1325.44 746.564 1330.83 747.213ZM1319.72 754.003 1312 747.011 1320.27 740.679Z"/><path d="M1373.5 547.508C1373.5 541.985 1377.98 537.508 1383.5 537.508L1651.5 537.508C1657.02 537.508 1661.5 541.985 1661.5 547.508L1661.5 587.508C1661.5 593.031 1657.02 597.509 1651.5 597.509L1383.5 597.509C1377.98 597.509 1373.5 593.031 1373.5 587.508Z" stroke="#FFFFFF" stroke-width="0.666755" stroke-miterlimit="8" fill="#575454" fill-rule="evenodd"/><text fill="#FFFFFF" font-family="Arial,Arial_MSFontService,sans-serif" font-style="italic" font-weight="400" font-size="32" transform="matrix(1 0 0 1.00001 1399.97 579)">dice:TimeInstant</text><path d="M1159 716.989 1159.27 714.088 1160.08 711.121 1161.04 708.983 1162.87 709.803 1161.94 711.87 1161.99 711.723 1161.22 714.531 1161.25 714.359 1161 717.172ZM1164.43 703.753 1165.45 702.465 1168.14 699.67 1170.13 697.915 1171.45 699.415 1169.5 701.143 1169.56 701.087 1166.92 703.818 1166.99 703.746 1165.99 704.997ZM1174.93 694.115 1178.68 691.579 1181.7 689.748 1182.73 691.459 1179.73 693.276 1179.78 693.249 1176.06 695.771ZM1187.03 686.865 1192.55 683.99 1194.25 683.256 1195.04 685.092 1193.38 685.811 1193.45 685.781 1187.95 688.639ZM1199.75 680.871 1203.46 679.266 1207.24 677.886 1207.92 679.765 1204.17 681.135 1204.22 681.113 1200.55 682.706ZM1212.87 675.827 1215.53 674.858 1220.52 673.315 1221.11 675.226 1216.14 676.761 1216.19 676.745 1213.56 677.706ZM1226.25 671.543 1228.64 670.806 1234.01 669.407 1234.51 671.343 1229.17 672.736 1229.21 672.723 1226.84 673.454ZM1239.82 667.895 1242.67 667.152 1247.65 666.072 1248.07 668.027 1243.11 669.103 1243.15 669.093 1240.32 669.83ZM1253.51 664.8 1257.47 663.941 1261.4 663.249 1261.75 665.219 1257.84 665.908 1257.88 665.9 1253.94 666.755ZM1267.31 662.207 1272.94 661.216 1275.24 660.899 1275.51 662.881 1273.23 663.195 1273.26 663.189 1267.66 664.177ZM1281.18 660.082 1288.92 659.019 1289.15 658.996 1289.35 660.987 1289.14 661.008 1289.17 661.003 1281.46 662.064ZM1295.12 658.405 1303.08 657.615 1303.28 659.606 1295.32 660.395ZM1309.1 657.166 1317.09 656.683 1317.21 658.679 1309.23 659.162ZM1323.12 656.365 1331.12 656.2 1331.16 658.2 1323.16 658.365ZM1337.12 656.077 1338.69 656.045 1345.12 655.912 1345.16 657.912 1338.73 658.044 1337.16 658.077ZM1351.12 655.789 1355.42 655.7 1355.38 655.702 1359.07 655.479 1359.2 657.475 1355.48 657.7 1351.16 657.789ZM1365.06 655.116 1371.98 654.698 1371.95 654.701 1373.01 654.595 1373.21 656.586 1372.12 656.693 1365.18 657.113ZM1378.98 654.004 1386.94 653.214 1387.14 655.205 1379.18 655.994ZM1392.86 652.453 1400.78 651.363 1401.05 653.345 1393.13 654.434ZM1406.68 650.457 1414.55 649.067 1414.9 651.037 1407.02 652.426ZM1420.42 647.999 1428.24 646.303 1428.66 648.258 1420.84 649.954ZM1434.1 645.032 1434.31 644.986 1434.27 644.996 1441.81 643.033 1442.31 644.969 1434.76 646.937 1434.53 646.986ZM1447.61 641.52 1448.26 641.354 1448.21 641.366 1455.22 639.199 1455.81 641.11 1448.78 643.284 1448.12 643.456ZM1460.96 637.427 1461.28 637.328 1461.23 637.344 1468.43 634.715 1469.12 636.594 1461.89 639.232 1461.55 639.339ZM1473.99 632.631 1481.34 629.45 1482.13 631.285 1474.79 634.466ZM1486.68 626.899 1493.51 623.347 1493.45 623.379 1493.72 623.22 1494.75 624.931 1494.46 625.107 1487.61 628.673ZM1498.77 620.079 1501.5 618.225 1501.46 618.26 1504.92 615.6 1504.87 615.644 1505.11 615.427 1506.44 616.927 1506.17 617.166 1502.65 619.865 1499.89 621.735ZM1509.43 611.381 1510.5 610.271 1510.44 610.343 1512.62 607.585 1512.56 607.678 1514.11 605.184 1515.81 606.241 1514.23 608.784 1511.97 611.625 1510.87 612.769ZM1508.98 603.108 1517.42 597.009 1521.9 606.413Z"/><path d="M1029.5 547.508C1029.5 541.985 1033.98 537.508 1039.5 537.508L1307.5 537.508C1313.02 537.508 1317.5 541.985 1317.5 547.508L1317.5 587.508C1317.5 593.031 1313.02 597.509 1307.5 597.509L1039.5 597.509C1033.98 597.509 1029.5 593.031 1029.5 587.508Z" stroke="#FFFFFF" stroke-width="0.666755" stroke-miterlimit="8" fill="#575454" fill-rule="evenodd"/><text fill="#FFFFFF" font-family="Arial,Arial_MSFontService,sans-serif" font-style="italic" font-weight="400" font-size="32" transform="matrix(1 0 0 1.00001 1055.26 579)">dice:TimeInstant</text><path d="M1159 717.068 1159.1 709.067 1161.1 709.093 1161 717.093ZM1159.25 703.044 1159.54 695.048 1161.54 695.123 1161.25 703.118ZM1159.92 689.034 1160.18 684.818 1160.51 681.029 1162.51 681.207 1162.17 684.982 1162.17 684.955 1161.91 689.158ZM1161.07 675.028 1161.46 671.643 1161.96 667.977 1162.11 667.048 1164.09 667.372 1163.94 668.287 1163.94 668.261 1163.44 671.903 1163.44 671.882 1163.06 675.257ZM1163.28 661.073 1163.63 659.718 1164.26 657.967 1165.03 656.655 1165.85 656.179 1166.45 655.835 1166.09 656.193 1166.68 655.189 1166.6 655.358 1167.01 654.208 1168.9 654.884 1168.45 656.122 1167.68 657.434 1166.86 657.91 1166.26 658.255 1166.62 657.896 1166.03 658.9 1166.11 658.731 1165.53 660.35 1165.56 660.263 1165.22 661.574ZM1168.33 648.546 1168.78 645.802 1168.77 645.828 1169.27 642.186 1169.27 642.207 1169.44 640.672 1171.43 640.901 1171.25 642.446 1170.75 646.112 1170.3 648.869ZM1170.04 634.727 1170.54 629.107 1170.54 629.134 1170.69 626.78 1172.68 626.904 1172.54 629.271 1172.03 634.905ZM1171.06 620.791 1171.17 618.991 1171.17 619.016 1171.4 612.822 1173.39 612.896 1173.16 619.103 1173.05 620.914ZM1171.59 606.849 1171.63 603.663 1173.63 603.689 1173.59 606.874ZM1165.94 604.924 1172.71 597.009 1179.28 605.094Z"/><path d="M0-28 376.313-28 376.313 7-9.35872e-06 7Z" fill="#FFFFFF" fill-rule="evenodd" transform="matrix(1 0 0 1.00001 1045.76 819.377)"/><text font-family="Arial,Arial_MSFontService,sans-serif" font-weight="400" font-size="32" transform="matrix(1 0 0 1.00001 1045.76 819)">dicp:occupiesTimeInverval</text><path d="M1718.5 547.342C1718.5 541.911 1722.9 537.508 1728.33 537.508L2037.67 537.508C2043.1 537.508 2047.5 541.911 2047.5 547.342L2047.5 586.675C2047.5 592.106 2043.1 596.509 2037.67 596.509L1728.33 596.509C1722.9 596.509 1718.5 592.106 1718.5 586.675Z" stroke="#FFFFFF" stroke-width="0.666755" stroke-miterlimit="8" fill="#575454" fill-rule="evenodd"/><text fill="#FFFFFF" font-family="Arial,Arial_MSFontService,sans-serif" font-style="italic" font-weight="400" font-size="32" transform="matrix(1 0 0 1.00001 1758.86 579)">unocs:Regulation</text><path d="M1718.5 675.177C1718.5 669.838 1722.83 665.51 1728.17 665.51L2037.83 665.51C2043.17 665.51 2047.5 669.838 2047.5 675.177L2047.5 713.844C2047.5 719.183 2043.17 723.511 2037.83 723.511L1728.17 723.511C1722.83 723.511 1718.5 719.183 1718.5 713.844Z" stroke="#FFFFFF" stroke-width="0.666755" stroke-miterlimit="8" fill="#575454" fill-rule="evenodd"/><text fill="#FFFFFF" font-family="Arial,Arial_MSFontService,sans-serif" font-style="italic" font-weight="400" font-size="32" transform="matrix(1 0 0 1.00001 1743.78 706)">unocs:Requirement</text><path d="M0.0447785-0.999129 8.03781-0.640902 7.94826 1.35736-0.0447785 0.999129ZM14.1128-0.301493 22.0454 0.742977 21.7843 2.72613 13.8517 1.68166ZM28.0547 1.65902 35.8757 3.34681 35.4537 5.30206 27.6327 3.61427ZM41.7735 4.80158 49.4389 7.09473 48.8657 9.01108 41.2003 6.71793ZM55.1849 9.05838 62.6547 11.9253 61.938 13.7927 54.4682 10.9258ZM68.2091 14.3775 75.4444 17.7934 74.5905 19.6022 67.3552 16.1864ZM80.7636 20.7243 87.4846 24.5356 87.7759 24.7316 86.6593 26.3912 86.3997 26.2166 86.4646 26.2568 79.7769 22.4643ZM92.7547 28.0813 97.8985 31.5419 99.3709 32.7126 98.1261 34.2783 96.6848 33.1323 96.7489 33.1793 91.6382 29.7409ZM104.068 36.4472 107.483 39.1622 110.191 41.7169 108.818 43.172 106.141 40.6463 106.205 40.7016 102.823 38.0129ZM114.556 45.8346 116.134 47.3227 120.054 51.7642 118.554 53.0878 114.664 48.6806 114.728 48.7463 113.184 47.2896ZM124.05 56.3715 128.715 62.8724 127.089 64.0385 122.425 57.5376ZM131.943 68.0524 135.444 74.3121 135.802 75.1983 133.947 75.9467 133.613 75.1192 133.667 75.2332 130.198 69.0288ZM138.047 80.7633 139.306 83.8842 140.61 88.4421 138.687 88.9922 137.397 84.4848 137.431 84.5839 136.192 81.5117ZM141.801 94.4979 142.035 96.7667 140.045 96.9722 139.811 94.7034ZM147.589 95.0419 141.538 103.518 134.292 96.0373Z" transform="matrix(1.83697e-16 1.00001 1 -1.837e-16 1883 723.011)"/><path d="M1884.33 597.011 1884.32 603.434 1884.31 605.017 1882.31 605.003 1882.32 603.423 1882.32 603.427 1882.33 597.006ZM1884.26 611.022 1884.21 615.479 1884.15 619.027 1882.15 618.995 1882.21 615.448 1882.21 615.454 1882.26 610.999ZM1884.03 625.033 1884.02 625.108 1883.91 628.519 1883.79 630.741 1883.71 631.442 1883.62 631.735 1883.56 631.932 1883.6 631.738 1883.54 632.313 1883.54 632.262 1883.5 633.034 1881.5 632.924 1881.55 632.125 1881.62 631.424 1881.71 631.132 1881.78 630.934 1881.73 631.129 1881.8 630.553 1881.79 630.605 1881.91 628.42 1881.91 628.442 1882.02 625.046 1882.02 625.057 1882.03 624.988ZM1883.28 638.999 1883.21 642.214 1883.21 642.207 1883.13 646.992 1881.13 646.959 1881.21 642.171 1881.28 638.953ZM1883.06 652.987 1883.06 653.229 1883.06 653.224 1883.02 659.196 1881.02 659.184 1881.06 653.209 1881.06 652.965ZM1888.69 657.878 1882 665.858 1875.36 657.835Z"/><path d="M1596.5 1011.18C1596.5 1005.84 1600.83 1001.51 1606.17 1001.51L1999.83 1001.51C2005.17 1001.51 2009.5 1005.84 2009.5 1011.18L2009.5 1049.85C2009.5 1055.19 2005.17 1059.52 1999.83 1059.52L1606.17 1059.52C1600.83 1059.52 1596.5 1055.19 1596.5 1049.85Z" stroke="#FFFFFF" stroke-width="0.666755" stroke-miterlimit="8" fill="#575454" fill-rule="evenodd"/><text fill="#FFFFFF" font-family="Arial,Arial_MSFontService,sans-serif" font-style="italic" font-weight="400" font-size="32" transform="matrix(1 0 0 1.00001 1657.55 1042)">unocs:Characteristic</text><path d="M1986.5 834.179C1986.5 825.526 1993.51 818.512 2002.17 818.512L2239.83 818.512C2248.49 818.512 2255.5 825.526 2255.5 834.179L2255.5 896.846C2255.5 905.499 2248.49 912.513 2239.83 912.513L2002.17 912.513C1993.51 912.513 1986.5 905.499 1986.5 896.846Z" stroke="#FFFFFF" stroke-width="0.666755" stroke-miterlimit="8" fill="#575454" fill-rule="evenodd"/><text fill="#FFFFFF" font-family="Arial,Arial_MSFontService,sans-serif" font-style="italic" font-weight="400" font-size="32" transform="matrix(1 0 0 1.00001 2008.49 857)">unocs:Required</text><text fill="#FFFFFF" font-family="Arial,Arial_MSFontService,sans-serif" font-style="italic" font-weight="400" font-size="32" transform="matrix(1 0 0 1.00001 2022.83 895)">Characteristic</text><path d="M0.0648-0.998031 8.04905-0.479631 7.91945 1.51643-0.0648 0.998031ZM14.1047 0.357564 21.0604 1.68437 22.0479 1.99308 21.451 3.90222 20.5183 3.61061 20.6293 3.63846 13.7299 2.3224ZM27.7753 3.78368 31.3698 4.90744 35.3529 6.63369 34.5575 8.469 30.623 6.76384 30.7223 6.80076 27.1784 5.69282ZM40.8588 9.01993 41.4225 9.2642 47.9646 12.9017 46.9925 14.6499 40.4935 11.0364 40.5818 11.0799 40.0634 10.8552ZM53.1704 16.0562 59.7745 20.5731 58.6453 22.2241 52.0412 17.7073ZM64.5214 24.3819 69.2348 28.2541 70.657 29.6403 69.2608 31.0727 67.869 29.7162 67.9322 29.7728 63.2517 25.9275ZM74.9543 33.8287 77.4555 36.2665 80.4657 39.7339 78.9552 41.0452 75.9724 37.6093 76.0295 37.6699 73.5581 35.2611ZM84.3996 44.2653 85.0167 44.976 89.2349 50.7406 87.6207 51.9218 83.427 46.1909 83.4789 46.2559 82.8891 45.5766ZM92.7106 55.7305 96.8733 62.5634 95.1651 63.6041 91.0024 56.7711ZM99.7166 67.9413 102.929 74.4283 103.237 75.2246 101.371 75.945 101.08 75.1914 101.117 75.2751 97.9242 68.829ZM105.398 80.8228 107.037 85.0682 107.988 88.4854 106.061 89.022 105.123 85.6515 105.153 85.7434 103.532 81.5431ZM109.598 94.2662 110.074 95.9765 111.134 102.216 109.162 102.551 108.111 96.3626 108.134 96.4633 107.671 94.8028ZM112.027 108.256 112.217 111.538 110.22 111.653 110.031 108.372ZM117.798 109.879 111.604 118.252 104.485 110.649Z" transform="matrix(1 0 0 -1.00001 2009 1030.27)"/><path d="M0-28 146-28 146 7 0 7Z" fill="#FFFFFF" fill-rule="evenodd" transform="matrix(1 0 0 1.00001 1371.9 1071.69)"/><path d="M0-28 195.833-28 195.833 7-5.08626e-06 7Z" fill="#FFFFFF" fill-rule="evenodd" transform="matrix(1 0 0 1.00001 1371.9 1109.69)"/><text font-family="Arial,Arial_MSFontService,sans-serif" font-weight="400" font-size="32" transform="matrix(1 0 0 1.00001 1371.9 1072)">unocs:has</text><text font-family="Arial,Arial_MSFontService,sans-serif" font-weight="400" font-size="32" transform="matrix(1 0 0 1.00001 1371.9 1110)">Characteristic</text><path d="M0-28 276.167-28 276.167 7-1.01725e-05 7Z" fill="#FFFFFF" fill-rule="evenodd" transform="matrix(1 0 0 1.00001 2008.7 965.264)"/><path d="M0-28 195.833-28 195.833 7-5.08626e-06 7Z" fill="#FFFFFF" fill-rule="evenodd" transform="matrix(1 0 0 1.00001 2008.7 1003.26)"/><text font-family="Arial,Arial_MSFontService,sans-serif" font-weight="400" font-size="32" transform="matrix(1 0 0 1.00001 2008.7 965)">unocs:hasRequired</text><text font-family="Arial,Arial_MSFontService,sans-serif" font-weight="400" font-size="32" transform="matrix(1 0 0 1.00001 2008.7 1003)">Characteristic</text><path d="M0-28 197.127-28 197.127 7-3.45866e-06 7Z" fill="#FFFFFF" fill-rule="evenodd" transform="matrix(1 0 0 1.00001 2277.57 902.758)"/><text font-family="Arial,Arial_MSFontService,sans-serif" font-weight="400" font-size="32" transform="matrix(1 0 0 1.00001 2277.57 903)">dicv:hasValue</text><path d="M1694.5 1163.52C1694.5 1155.23 1701.22 1148.52 1709.5 1148.52L2012.5 1148.52C2020.78 1148.52 2027.5 1155.23 2027.5 1163.52L2027.5 1223.52C2027.5 1231.8 2020.78 1238.52 2012.5 1238.52L1709.5 1238.52C1701.22 1238.52 1694.5 1231.8 1694.5 1223.52Z" stroke="#FFFFFF" stroke-width="0.666755" stroke-miterlimit="8" fill="#575454" fill-rule="evenodd"/><text fill="#FFFFFF" font-family="Arial,Arial_MSFontService,sans-serif" font-style="italic" font-weight="400" font-size="32" transform="matrix(1 0 0 1.00001 1768.52 1186)">unocs:Actual</text><text fill="#FFFFFF" font-family="Arial,Arial_MSFontService,sans-serif" font-style="italic" font-weight="400" font-size="32" transform="matrix(1 0 0 1.00001 1762.27 1224)">Characteristic</text><path d="M0.0776628-0.997112 8.05456-0.375809 7.89924 1.61842-0.0776628 0.997112ZM14.0571 0.929573 16.623 1.51268 21.7755 3.45835 21.0689 5.32964 15.9808 3.40831 16.1125 3.44793 13.6139 2.8801ZM27.318 6.06683 31.13 8.1507 34.1556 10.4662 32.9399 12.0546 29.9752 9.78575 30.1033 9.86908 26.3585 7.82197ZM38.7958 14.4579 39.3912 15.0545 41.4754 17.6234 43.1669 20.2983 43.5994 21.2464 41.7796 22.0766 41.3753 21.1904 41.4399 21.3098 39.8163 18.7423 39.8849 18.8379 37.8703 16.3547 37.939 16.4311 37.3799 15.8708ZM45.3484 27.2876 45.4801 28.6785 45.7354 31.3724 45.7032 31.1986 46.4471 33.8714 46.3936 33.7245 46.8599 34.7467 45.04 35.5769 44.5412 34.4833 43.7524 31.6494 43.4888 28.8671 43.357 27.4763ZM49.8369 39.6357 51.0986 41.1909 51.0299 41.1145 53.4029 43.4924 53.3028 43.4046 55.3986 45.0085 54.1829 46.597 52.0342 44.9525 49.5777 42.4911 48.2836 40.8959ZM60.1586 48.3834 65.5991 51.3574 65.4727 51.2993 67.1574 51.9355 66.4507 53.8068 64.7008 53.146 59.1992 50.1385ZM72.7712 54.0554 72.9881 54.1373 72.8564 54.0976 80.4325 55.8193 79.9892 57.7699 72.346 56.0329 72.0646 55.9267ZM81.5098 50.2769 88.9689 57.5456 80.4743 63.5717Z" transform="matrix(1.83697e-16 1.00001 1 -1.837e-16 1803 1059.02)"/><path d="M1456.5 775.012C1456.5 769.212 1461.2 764.511 1467 764.511L1840 764.511C1845.8 764.511 1850.5 769.212 1850.5 775.012L1850.5 817.012C1850.5 822.811 1845.8 827.512 1840 827.512L1467 827.512C1461.2 827.512 1456.5 822.811 1456.5 817.012Z" stroke="#FFFFFF" stroke-width="0.666755" stroke-miterlimit="8" fill="#575454" fill-rule="evenodd"/><text fill="#FFFFFF" font-family="Arial,Arial_MSFontService,sans-serif" font-weight="400" font-size="32" transform="matrix(1 0 0 1.00001 1487.16 807)">unocs:SafetyInspection</text><path d="M1653.95 827.082 1653.65 831.332 1652.87 835.127 1650.91 834.721 1651.68 830.992 1651.66 831.125 1651.95 826.943ZM1650.79 840.997 1649.31 844.134 1646.92 848.104 1645.2 847.072 1647.57 843.146 1647.52 843.234 1648.98 840.143ZM1643.25 853.057 1640.28 856.512 1637.81 859.013 1636.38 857.607 1638.83 855.131 1638.78 855.182 1641.73 851.754ZM1633.38 863.148 1631.93 864.44 1627.15 868.259 1625.9 866.696 1630.66 862.895 1630.62 862.931 1632.04 861.657ZM1622.25 871.799 1621.9 872.049 1616.29 875.722 1615.44 876.203 1614.45 874.467 1615.27 874 1615.22 874.031 1620.78 870.388 1620.75 870.413 1621.08 870.176ZM1610.23 879.181 1604.01 882.738 1603.19 883.129 1602.33 881.327 1603.11 880.952 1603.04 880.984 1609.24 877.444ZM1597.79 885.733 1590.58 889.205 1589.71 887.403 1596.92 883.931ZM1584.97 891.505 1577.56 894.524 1576.81 892.672 1584.22 889.652ZM1571.87 896.603 1564.31 899.202 1563.66 897.31 1571.22 894.711ZM1558.56 901.105 1550.87 903.305 1550.32 901.382 1558.01 899.182ZM1545.1 904.955 1543.09 905.529 1537.28 906.879 1536.83 904.931 1542.62 903.586 1542.57 903.599 1544.55 903.031ZM1531.44 908.238 1525.66 909.583 1523.58 909.959 1523.22 907.991 1525.28 907.619 1525.23 907.629 1530.99 906.29ZM1517.67 911.029 1509.8 912.456 1509.44 910.488 1517.32 909.061ZM1503.82 913.348 1495.88 914.385 1495.62 912.401 1503.56 911.364ZM1489.93 915.163 1489.16 915.264 1481.91 915.842 1481.75 913.848 1488.97 913.272 1488.92 913.277 1489.67 913.179ZM1475.93 916.319 1470.39 916.761 1467.9 916.828 1467.84 914.829 1470.31 914.762 1470.26 914.765 1475.77 914.325ZM1461.9 916.991 1453.9 917.208 1453.84 915.209 1461.84 914.992ZM1447.9 917.371 1439.9 917.589 1439.85 915.589 1447.85 915.372ZM1433.9 917.751 1432.64 917.786 1432.69 917.783 1425.98 918.318 1425.82 916.324 1432.56 915.787 1433.85 915.752ZM1419.99 918.795 1413.97 919.276 1414.02 919.27 1412.08 919.525 1411.82 917.541 1413.79 917.284 1419.84 916.802ZM1406.13 920.302 1398.2 921.34 1397.94 919.356 1405.87 918.319ZM1392.32 922.275 1384.45 923.701 1384.09 921.733 1391.96 920.307ZM1378.54 924.771 1377.67 924.929 1377.72 924.919 1370.79 926.531 1370.34 924.582 1377.29 922.965 1378.19 922.803ZM1364.94 927.89 1360.33 928.961 1360.38 928.949 1357.24 929.847 1356.69 927.924 1359.86 927.019 1364.49 925.941ZM1351.47 931.497 1343.78 933.697 1343.23 931.774 1350.92 929.574ZM1338.15 935.629 1330.58 938.228 1329.93 936.336 1337.5 933.737ZM1325.03 940.331 1317.62 943.35 1316.86 941.498 1324.27 938.478ZM1312.15 945.668 1304.94 949.14 1304.07 947.338 1311.28 943.866ZM1299.61 951.732 1292.66 955.702 1291.67 953.965 1298.62 949.995ZM1287.51 958.661 1282.17 962.159 1282.2 962.134 1280.9 963.076 1279.73 961.454 1281.05 960.498 1286.42 956.987ZM1276.1 966.604 1272.29 969.652 1272.33 969.616 1270.01 971.694 1268.67 970.203 1271.02 968.107 1274.86 965.041ZM1265.72 975.798 1264.12 977.416 1264.17 977.365 1260.72 981.376 1260.77 981.314 1260.51 981.668 1258.89 980.488 1259.18 980.103 1262.67 976.035 1264.29 974.392ZM1257.12 986.508 1255.38 989.401 1255.43 989.313 1253.48 993.446 1253.52 993.342 1253.5 993.392 1251.61 992.747 1251.64 992.643 1253.64 988.413 1255.41 985.477ZM1251.89 998.97 1251.88 999.077 1249.9 998.776 1249.92 998.669ZM1257.68 998.495 1250 1005.53 1244.46 996.716Z"/><path d="M0-28 211.833-28 211.833 7-5.08626e-06 7Z" fill="#FFFFFF" fill-rule="evenodd" transform="matrix(1 0 0 1.00001 1331.41 962.912)"/><text font-family="Arial,Arial_MSFontService,sans-serif" font-weight="400" font-size="32" transform="matrix(1 0 0 1.00001 1331.41 963)">unocs:inspects</text><rect x="988.5" y="488.507" width="1595" height="786.011" stroke="#575454" stroke-width="3.33377" stroke-miterlimit="8" stroke-dasharray="26.6702 10.0013" fill="none"/><text font-family="Arial,Arial_MSFontService,sans-serif" font-weight="700" font-size="32" transform="matrix(1 0 0 1.00001 997.582 524)">UNOCS</text><text font-family="Arial,Arial_MSFontService,sans-serif" font-weight="700" font-size="32" transform="matrix(1 0 0 1.00001 1122.1 524)">-</text><text font-family="Arial,Arial_MSFontService,sans-serif" font-weight="700" font-size="32" transform="matrix(1 0 0 1.00001 1141.6 524)">SafetyInspection</text><rect x="2093" y="511.008" width="469" height="256.004" stroke="#042433" stroke-width="2.00026" stroke-miterlimit="8" fill="#E8E8E8"/><text font-family="Arial,Arial_MSFontService,sans-serif" font-weight="700" font-size="32" transform="matrix(1 0 0 1.00001 2102.2 546)">Legend</text><path d="M0 34 57 34 114 34 114 37 57 37 0 37Z" fill-rule="evenodd" transform="matrix(1 0 0 1.00001 2102.2 515.345)"/><path d="M2112 587.008 2214.95 587.009 2214.95 589.009 2112 589.009ZM2213.62 581.341 2221.62 588.009 2213.62 594.676Z"/><path d="M2115 622.009 2123 622.009 2123 624.009 2115 624.009ZM2129 622.009 2137 622.009 2137 624.009 2129 624.009ZM2143 622.009 2151 622.009 2151 624.009 2143 624.009ZM2157.01 622.009 2165.01 622.009 2165.01 624.009 2157.01 624.009ZM2171.01 622.009 2179.01 622.009 2179.01 624.009 2171.01 624.009ZM2185.01 622.009 2193.01 622.009 2193.01 624.009 2185.01 624.009ZM2199.01 622.009 2207.01 622.009 2207.01 624.009 2199.01 624.009ZM2213.01 622.009 2217.95 622.009 2217.95 624.009 2213.01 624.009ZM2216.62 616.342 2224.62 623.009 2216.62 629.677Z"/><text font-family="Arial,Arial_MSFontService,sans-serif" font-weight="400" font-size="32" transform="matrix(1 0 0 1.00001 2241.28 590)">rdfs:subClassOf</text><text font-family="Arial,Arial_MSFontService,sans-serif" font-weight="400" font-size="32" transform="matrix(1 0 0 1.00001 2241.28 628)">owl:ObjectProperty</text><text font-family="Arial,Arial_MSFontService,sans-serif" font-weight="400" font-size="32" transform="matrix(1 0 0 1.00001 2241.28 667)">owl:DatatypeProperty</text><text font-family="Arial,Arial_MSFontService,sans-serif" font-weight="400" font-size="32" transform="matrix(1 0 0 1.00001 2241.28 705)">rdfs:Class</text><text font-family="Arial,Arial_MSFontService,sans-serif" font-weight="400" font-size="32" transform="matrix(1 0 0 1.00001 2241.28 744)">rdfs:Literal</text><path d="M2114 658.01 2122 658.01 2122 660.01 2114 660.01ZM2128 658.01 2130 658.01 2130 660.01 2128 660.01ZM2136 658.01 2144 658.01 2144 660.01 2136 660.01ZM2150 658.01 2152.01 658.01 2152.01 660.01 2150 660.01ZM2158.01 658.01 2166.01 658.01 2166.01 660.01 2158.01 660.01ZM2172.01 658.01 2174.01 658.01 2174.01 660.01 2172.01 660.01ZM2180.01 658.01 2188.01 658.01 2188.01 660.01 2180.01 660.01ZM2194.01 658.01 2196.01 658.01 2196.01 660.01 2194.01 660.01ZM2202.01 658.01 2210.01 658.01 2210.01 660.01 2202.01 660.01ZM2216.01 658.01 2216.95 658.01 2216.95 660.01 2216.01 660.01ZM2215.62 652.342 2223.62 659.01 2215.62 665.677Z"/><path d="M2115.5 682.01C2115.5 678.42 2118.41 675.51 2122 675.51L2222 675.51C2225.59 675.51 2228.5 678.42 2228.5 682.01L2228.5 708.01C2228.5 711.6 2225.59 714.51 2222 714.51L2122 714.51C2118.41 714.51 2115.5 711.6 2115.5 708.01Z" stroke="#FFFFFF" stroke-width="0.666755" stroke-miterlimit="8" fill="#575454" fill-rule="evenodd"/><text fill="#FFFFFF" font-family="Arial,Arial_MSFontService,sans-serif" font-style="italic" font-weight="400" font-size="27" transform="matrix(1 0 0 1.00001 2138 704)">Class</text><rect x="2114.5" y="716.511" width="115" height="38.0005" stroke="#000000" stroke-width="0.666755" stroke-miterlimit="8" fill="#FFFFFF"/><text font-family="Arial,Arial_MSFontService,sans-serif" font-weight="400" font-size="27" transform="matrix(1 0 0 1.00001 2135.47 745)">Literal</text><path d="M0-28 379.167-28 379.167 7-1.01725e-05 7Z" fill="#FFFFFF" fill-rule="evenodd" transform="matrix(1 0 0 1.00001 1621.54 1109.36)"/><text font-family="Arial,Arial_MSFontService,sans-serif" font-weight="400" font-size="32" transform="matrix(1 0 0 1.00001 1621.54 1109)">unocs:ActualCharacteristic</text><path d="M0-28 176.333-28 176.333 7-5.08626e-06 7Z" fill="#FFFFFF" fill-rule="evenodd" transform="matrix(1 0 0 1.00001 1363.55 654.083)"/><text font-family="Arial,Arial_MSFontService,sans-serif" font-weight="400" font-size="32" transform="matrix(1 0 0 1.00001 1363.55 654)">dicp:hasEnd</text><path d="M0-28 186.833-28 186.833 7-5.08626e-06 7Z" fill="#FFFFFF" fill-rule="evenodd" transform="matrix(1 0 0 1.00001 1029.36 646.68)"/><text font-family="Arial,Arial_MSFontService,sans-serif" font-weight="400" font-size="32" transform="matrix(1 0 0 1.00001 1029.36 647)">dicp:hasStart</text><path d="M1382.5 687.177C1382.5 681.838 1386.83 677.51 1392.17 677.51L1586.83 677.51C1592.17 677.51 1596.5 681.838 1596.5 687.177L1596.5 725.844C1596.5 731.183 1592.17 735.511 1586.83 735.511L1392.17 735.511C1386.83 735.511 1382.5 731.183 1382.5 725.844Z" stroke="#FFFFFF" stroke-width="0.666755" stroke-miterlimit="8" fill="#575454" fill-rule="evenodd"/><text fill="#FFFFFF" font-family="Arial,Arial_MSFontService,sans-serif" font-weight="400" font-size="32" transform="matrix(1 0 0 1.00001 1404.51 718)">dice:</text><text fill="#FFFFFF" font-family="Arial,Arial_MSFontService,sans-serif" font-weight="400" font-size="32" transform="matrix(1 0 0 1.00001 1472.18 718)">Activity</text><path d="M0-1.00013 58.9455-1.00013 58.9455 44.5317 56.9453 44.5317 56.9453 0 57.9454 1.00013 0 1.00013ZM64.613 43.1982 57.9454 56.5333 51.2779 43.1982Z" transform="matrix(-1.83697e-16 -1.00001 -1 1.837e-16 1652.53 763.957)"/><path d="M1033.5 873.513C1033.5 869.647 1036.63 866.513 1040.5 866.513L1269.5 866.513C1273.37 866.513 1276.5 869.647 1276.5 873.513L1276.5 901.513C1276.5 905.379 1273.37 908.513 1269.5 908.513L1040.5 908.513C1036.63 908.513 1033.5 905.379 1033.5 901.513Z" stroke="#FFFFFF" stroke-width="0.666755" stroke-miterlimit="8" fill="#575454" fill-rule="evenodd"/><text fill="#FFFFFF" font-family="Arial,Arial_MSFontService,sans-serif" font-style="italic" font-weight="400" font-size="32" transform="matrix(1 0 0 1.00001 1078.69 899)">dica:Agent</text><path d="M1653.8 827.204 1653.22 830.165 1651.46 833.204 1650.05 834.685 1648.6 833.304 1649.93 831.91 1649.79 832.099 1651.4 829.308 1651.29 829.617 1651.83 826.82ZM1645.35 838.644 1644.91 838.976 1640.21 841.767 1638.26 842.724 1637.38 840.928 1639.3 839.988 1639.22 840.027 1643.84 837.285 1643.75 837.347 1644.14 837.049ZM1632.76 845.278 1628.1 847.216 1625.28 848.238 1624.6 846.357 1627.4 845.343 1627.36 845.36 1631.99 843.432ZM1619.58 850.248 1612.59 852.485 1611.93 852.673 1611.38 850.75 1612.02 850.565 1611.99 850.575 1618.98 848.343ZM1606.16 854.321 1603.63 855.043 1598.4 856.39 1597.9 854.453 1603.12 853.11 1603.09 853.116 1605.61 852.398ZM1592.56 857.863 1584.77 859.686 1584.32 857.738 1592.11 855.915ZM1578.89 860.968 1572.36 862.361 1571.04 862.619 1570.66 860.656 1571.97 860.399 1571.96 860.403 1578.47 859.011ZM1565.15 863.771 1560.59 864.663 1557.28 865.258 1556.92 863.29 1560.23 862.696 1560.21 862.699 1564.77 861.808ZM1551.37 866.319 1548.2 866.889 1543.47 867.669 1543.14 865.696 1547.86 864.917 1547.85 864.919 1551.02 864.35ZM1537.55 868.647 1535.22 869.032 1529.63 869.881 1529.33 867.903 1534.91 867.056 1534.9 867.058 1537.22 866.674ZM1523.7 870.782 1521.69 871.088 1515.77 871.915 1515.49 869.934 1521.41 869.108 1521.39 869.109 1523.4 868.805ZM1509.82 872.745 1507.64 873.05 1501.88 873.789 1501.63 871.805 1507.38 871.067 1507.37 871.068 1509.55 870.764ZM1495.93 874.553 1493.11 874.914 1487.97 875.518 1487.74 873.531 1492.87 872.928 1492.86 872.929 1495.67 872.569ZM1482.01 876.218 1478.14 876.674 1474.05 877.111 1473.84 875.122 1477.92 874.685 1477.91 874.686 1481.78 874.231ZM1468.09 877.751 1462.74 878.324 1460.12 878.58 1459.93 876.589 1462.55 876.334 1462.54 876.335 1467.87 875.762ZM1454.15 879.161 1446.97 879.86 1446.17 879.927 1446 877.933 1446.8 877.867 1446.79 877.868 1453.95 877.17ZM1440.19 880.424 1432.21 881.086 1432.05 879.093 1440.02 878.43ZM1426.23 881.583 1418.26 882.246 1418.09 880.253 1426.07 879.59ZM1412.26 882.705 1404.27 883.222 1404.15 881.226 1412.13 880.709ZM1398.29 883.61 1390.3 884.128 1390.17 882.131 1398.16 881.614ZM1384.31 884.515 1380.79 884.744 1376.31 884.953 1376.21 882.955 1380.69 882.746 1380.67 882.747 1384.18 882.519ZM1370.31 885.233 1362.32 885.607 1362.23 883.609 1370.22 883.235ZM1356.33 885.887 1348.33 886.26 1348.24 884.262 1356.23 883.889ZM1342.32 886.469 1334.32 886.697 1334.26 884.697 1342.26 884.469ZM1328.32 886.868 1320.33 887.096 1320.27 885.096 1328.27 884.868ZM1314.33 887.267 1311.3 887.353 1306.31 887.402 1306.29 885.401 1311.27 885.353 1311.25 885.353 1314.27 885.267ZM1300.31 887.46 1292.31 887.537 1292.29 885.537 1300.29 885.46ZM1289.4 893.233 1276 886.696 1289.27 879.899Z"/><path d="M0-28 203-28 203 7 0 7Z" fill="#FFFFFF" fill-rule="evenodd" transform="matrix(1 0 0 1.00001 1326.73 877.786)"/><text font-family="Arial,Arial_MSFontService,sans-serif" font-weight="400" font-size="32" transform="matrix(1 0 0 1.00001 1326.73 878)">dica:hasAgent</text><path d="M0-28 210.167-28 210.167 7 5.08626e-06 7Z" fill="#FFFFFF" fill-rule="evenodd" transform="matrix(1 0 0 1.00001 1779.76 631.194)"/><text font-family="Arial,Arial_MSFontService,sans-serif" font-weight="400" font-size="32" transform="matrix(1 0 0 1.00001 1779.76 631)">unocs:requires</text><rect x="2355" y="1040.02" width="215" height="127.002" stroke="#042433" stroke-width="2.00026" stroke-miterlimit="8" fill="none"/><text font-family="Arial,Arial_MSFontService,sans-serif" font-weight="400" font-size="24" transform="matrix(1 0 0 1.00001 2383.31 1069)">Compared</text><text font-family="Arial,Arial_MSFontService,sans-serif" font-weight="400" font-size="24" transform="matrix(1 0 0 1.00001 2501.99 1069)">and</text><text font-family="Arial,Arial_MSFontService,sans-serif" font-weight="400" font-size="24" transform="matrix(1 0 0 1.00001 2378.64 1098)">evaluated</text><text font-family="Arial,Arial_MSFontService,sans-serif" font-weight="400" font-size="24" transform="matrix(1 0 0 1.00001 2489.32 1098)">using</text><text font-family="Arial,Arial_MSFontService,sans-serif" font-weight="400" font-size="24" transform="matrix(1 0 0 1.00001 2409.09 1127)">SHACL</text><text font-family="Arial,Arial_MSFontService,sans-serif" font-weight="400" font-size="24" transform="matrix(1 0 0 1.00001 2494.88 1127)">or</text><text font-family="Arial,Arial_MSFontService,sans-serif" font-weight="400" font-size="24" transform="matrix(1 0 0 1.00001 2414.87 1155)">SPARQL</text><text font-family="Arial,Arial_MSFontService,sans-serif" font-weight="400" font-size="32" transform="matrix(1 0 0 1.00001 1685.06 858)">unocs:hasAssigned</text><text font-family="Arial,Arial_MSFontService,sans-serif" font-weight="400" font-size="32" transform="matrix(1 0 0 1.00001 1767.07 897)">Characteristic</text><rect x="2142.5" y="1057.52" width="89" height="43.0006" stroke="#042433" stroke-width="3.0004" stroke-miterlimit="8" fill="#D1D1D1"/><rect x="2255.5" y="1057.52" width="89" height="43.0006" stroke="#042433" stroke-width="3.0004" stroke-miterlimit="8" fill="#D1D1D1"/><g><g><g><path d="M170.928 110.423 155.713 45.7611 161.159 45.7611C162.257 45.7611 163.148 44.8703 163.148 43.7715 163.148 42.6726 162.257 41.7819 161.159 41.7819L103.177 41.7819C102.449 38.9978 100.275 36.8235 97.491 36.0955L97.491 17.9065C97.491 16.8077 96.6003 15.9169 95.5014 15.9169 94.4025 15.9169 93.5118 16.8077 93.5118 17.9065L93.5118 36.0955C90.7277 36.8235 88.5535 38.9978 87.8255 41.7819L29.8442 41.7819C28.7453 41.7819 27.8546 42.6726 27.8546 43.7715 27.8546 44.8703 28.7453 45.7611 29.8442 45.7611L35.2897 45.7611 20.0752 110.423 13.9273 110.423 13.9273 112.413C13.9273 120.479 24.8503 126.796 38.7974 126.796 52.7446 126.796 63.6676 120.479 63.6676 112.413L63.6676 110.423 57.5197 110.423 42.3051 45.7611 87.8255 45.7611C88.5535 48.5451 90.7277 50.7194 93.5118 51.4474L93.5118 161.159 79.5845 161.159C75.1892 161.159 71.626 164.722 71.626 169.117L75.6053 169.117C75.6053 166.919 77.3868 165.138 79.5845 165.138L111.418 165.138C113.616 165.138 115.398 166.919 115.398 169.117L119.377 169.117C119.377 164.722 115.814 161.159 111.418 161.159L97.491 161.159 97.491 51.4474C100.275 50.7194 102.449 48.5451 103.177 45.7611L148.698 45.7611 133.483 110.423 127.335 110.423 127.335 112.413C127.335 120.479 138.258 126.796 152.205 126.796 166.153 126.796 177.075 120.479 177.075 112.413L177.075 110.423ZM166.839 110.423 137.572 110.423 152.185 48.3138C152.185 48.3028 152.194 48.2939 152.205 48.2939 152.216 48.2939 152.225 48.3028 152.225 48.3138ZM38.8173 48.3138 53.431 110.423 24.1638 110.423 38.7775 48.3138C38.7775 48.3028 38.7865 48.2939 38.7974 48.2939 38.8084 48.2939 38.8173 48.3028 38.8173 48.3138ZM38.7974 122.817C28.8354 122.817 20.2324 119.13 18.3044 114.403L59.2904 114.403C57.3625 119.13 48.7594 122.817 38.7974 122.817ZM95.5014 47.7507C93.3037 47.7507 91.5222 45.9692 91.5222 43.7715 91.5222 41.5737 93.3037 39.7922 95.5014 39.7922 97.6991 39.7922 99.4806 41.5737 99.4806 43.7715 99.4806 45.9692 97.6991 47.7507 95.5014 47.7507ZM152.205 122.817C142.243 122.817 133.64 119.13 131.712 114.403L172.698 114.403C170.77 119.13 162.167 122.817 152.205 122.817Z" fill="#AEAEAE" transform="matrix(1.00522 0 0 1 2145 990.015)"/><path d="M47.7507 171.107 143.252 171.107 143.252 175.086 47.7507 175.086Z" fill="#AEAEAE" transform="matrix(1.00522 0 0 1 2145 990.015)"/></g></g></g><rect x="2142.5" y="1058.52" width="89" height="42.0006" stroke="#042433" stroke-width="3.0004" stroke-miterlimit="8" fill="none"/><text font-family="Arial,Arial_MSFontService,sans-serif" font-weight="400" font-size="24" transform="matrix(1 0 0 1.00001 2154.53 1088)">object</text><rect x="2255.5" y="1058.52" width="89" height="42.0006" stroke="#042433" stroke-width="3.0004" stroke-miterlimit="8" fill="none"/><text font-family="Arial,Arial_MSFontService,sans-serif" font-weight="400" font-size="24" transform="matrix(1 0 0 1.00001 2267.52 1088)">object</text><path d="M2255.13 864.022 2257.33 864.318 2259.61 865.228 2261.82 866.684 2262.77 867.556 2261.43 869.033 2260.53 868.215 2260.65 868.312 2258.59 866.955 2258.77 867.048 2256.7 866.221 2256.94 866.284 2254.87 866.004ZM2266.87 872.212 2268.02 873.844 2266.39 875 2265.23 873.368ZM2271.09 879.15 2272.14 881.148 2274.09 885.354 2274.55 886.465 2272.7 887.229 2272.25 886.138 2272.26 886.176 2270.34 882.01 2270.36 882.055 2269.32 880.078ZM2276.78 892.071 2277.48 893.945 2275.6 894.645 2274.91 892.77ZM2279.44 899.647 2279.67 900.315 2281.75 907.349 2279.83 907.916 2277.76 900.901 2277.77 900.938 2277.55 900.289ZM2283.42 913.158 2283.9 915.098 2281.96 915.582 2281.48 913.641ZM2285.35 920.921 2286.39 925.072 2287.16 928.751 2285.21 929.164 2284.43 925.502 2284.44 925.538 2283.41 921.405ZM2288.4 934.622 2288.81 936.58 2286.86 936.992 2286.44 935.035ZM2289.96 942.503 2291.36 950.381 2289.39 950.731 2287.99 942.853ZM2292.35 956.327 2292.65 958.305 2290.67 958.598 2290.38 956.62ZM2293.53 964.242 2294.42 970.304 2294.65 972.19 2292.66 972.429 2292.44 970.557 2292.44 970.584 2291.55 964.535ZM2295.37 978.148 2295.61 980.134 2293.62 980.373 2293.38 978.387ZM2296.32 986.092 2296.43 986.979 2297.1 994.082 2295.1 994.269 2294.44 987.179 2294.44 987.205 2294.34 986.331ZM2297.66 1000.06 2297.84 1002.05 2295.85 1002.23 2295.66 1000.24ZM2298.31 1008.06 2298.85 1016.04 2296.85 1016.17 2296.31 1008.19ZM2299.25 1022.05 2299.33 1024.05 2297.33 1024.13 2297.25 1022.14ZM2299.58 1030.05 2299.91 1038.04 2297.91 1038.12 2297.58 1030.13ZM2300.04 1044.07 2300.07 1046.07 2298.07 1046.1 2298.04 1044.1ZM2305.79 1049.82 2299.24 1057.92 2292.46 1050.01Z"/><path d="M1860.98 1237.72 1861.22 1238.84 1861.09 1238.52 1861.78 1239.64 1861.63 1239.46 1862.78 1240.57 1862.66 1240.47 1864.24 1241.58 1864.15 1241.53 1865.89 1242.49 1864.93 1244.24 1863.13 1243.25 1861.44 1242.06 1860.15 1240.8 1859.29 1239.43 1859.02 1238.13ZM1871.25 1244.75 1873.15 1245.39 1872.51 1247.29 1870.62 1246.65ZM1878.86 1247.06 1881.68 1247.85 1881.63 1247.84 1886.58 1248.96 1886.13 1250.91 1881.17 1249.78 1878.32 1248.98ZM1892.41 1250.21 1894.37 1250.58 1894 1252.55 1892.04 1252.18ZM1900.24 1251.7 1908.14 1252.96 1907.83 1254.93 1899.92 1253.67ZM1914.05 1253.83 1916.04 1254.1 1915.77 1256.08 1913.79 1255.82ZM1921.98 1254.91 1923.05 1255.05 1923.03 1255.05 1929.91 1255.83 1929.68 1257.82 1922.8 1257.03 1921.71 1256.89ZM1935.85 1256.51 1937.84 1256.7 1937.65 1258.69 1935.66 1258.5ZM1943.82 1257.27 1949.27 1257.78 1949.25 1257.78 1951.77 1257.98 1951.61 1259.97 1949.09 1259.78 1943.63 1259.26ZM1957.75 1258.44 1959.75 1258.59 1959.59 1260.59 1957.6 1260.43ZM1965.71 1259.01 1973.7 1259.49 1973.58 1261.49 1965.59 1261.01ZM1979.68 1259.82 1981.67 1259.91 1981.59 1261.91 1979.59 1261.82ZM1987.67 1260.17 1992.78 1260.39 1992.75 1260.39 1995.64 1260.44 1995.6 1262.44 1992.7 1262.39 1987.58 1262.17ZM2001.64 1260.55 2003.64 1260.58 2003.6 1262.58 2001.6 1262.55ZM2009.64 1260.69 2017.64 1260.83 2017.6 1262.83 2009.6 1262.69ZM2023.59 1260.91 2025.59 1260.85 2025.65 1262.85 2023.65 1262.91ZM2031.52 1260.62 2038.35 1260 2038.3 1260.01 2039.43 1259.84 2039.72 1261.82 2038.56 1261.99 2031.71 1262.62ZM2045.36 1258.95 2045.9 1258.87 2045.84 1258.88 2047.27 1258.58 2047.68 1260.54 2046.22 1260.85 2045.66 1260.93ZM2053.15 1257.36 2053.4 1257.31 2053.35 1257.32 2060.83 1255.34 2061.34 1257.28 2053.83 1259.27 2053.55 1259.32ZM2066.5 1253.52 2068.21 1252.97 2068.17 1252.99 2068.35 1252.92 2069.06 1254.79 2068.85 1254.87 2067.11 1255.43ZM2073.96 1250.8 2075.5 1250.22 2075.45 1250.24 2081.29 1247.7 2082.08 1249.54 2076.23 1252.08 2074.67 1252.67ZM2086.59 1245.06 2088.36 1244.13 2089.29 1245.91 2087.51 1246.83ZM2093.69 1241.36 2096.7 1239.79 2096.62 1239.84 2100.5 1237.36 2101.58 1239.04 2097.66 1241.55 2094.61 1243.14ZM2105.55 1234.12 2107.24 1233.04 2108.32 1234.72 2106.63 1235.8ZM2112.09 1229.67 2118.43 1224.79 2119.65 1226.38 2113.31 1231.26ZM2123.1 1221.16 2124.58 1219.81 2125.92 1221.28 2124.45 1222.63ZM2129.01 1215.76 2134.67 1210.59 2134.61 1210.65 2134.84 1210.41 2136.31 1211.77 2136.05 1212.04 2130.36 1217.24ZM2138.92 1206.01 2140.28 1204.54 2141.74 1205.9 2140.39 1207.36ZM2144.36 1200.14 2145.59 1198.81 2145.53 1198.88 2149.35 1194 2150.92 1195.23 2147.08 1200.14 2145.82 1201.5ZM2153.04 1189.27 2154.27 1187.69 2155.85 1188.92 2154.62 1190.5ZM2157.63 1182.83 2161.99 1176.12 2163.67 1177.21 2159.3 1183.92ZM2165.05 1171.07 2165.98 1169.3 2167.75 1170.23 2166.82 1172ZM2168.79 1163.99 2171.43 1159 2171.4 1159.06 2172.35 1156.91 2174.18 1157.72 2173.21 1159.9 2170.56 1164.93ZM2174.73 1151.46 2175.44 1149.59 2177.31 1150.31 2176.59 1152.17ZM2177.54 1144.02 2179.72 1137.35 2179.7 1137.4 2179.96 1136.45 2181.89 1136.97 2181.63 1137.94 2179.44 1144.64ZM2181.52 1130.66 2181.7 1129.96 2181.69 1130.01 2181.95 1128.76 2183.91 1129.18 2183.64 1130.45 2183.45 1131.18ZM2183.19 1122.89 2183.27 1122.51 2183.26 1122.57 2184.41 1115.04 2186.38 1115.34 2185.24 1122.9 2185.15 1123.3ZM2184.9 1109.13 2185.06 1107.13 2187.06 1107.3 2186.89 1109.29ZM2179.4 1107.78 2186.33 1100.02 2192.72 1108.24Z"/><path d="M0-28 197.127-28 197.127 7-3.45866e-06 7Z" fill="#FFFFFF" fill-rule="evenodd" transform="matrix(1 0 0 1.00001 2062.69 1219.57)"/><text font-family="Arial,Arial_MSFontService,sans-serif" font-weight="400" font-size="32" transform="matrix(1 0 0 1.00001 2062.69 1220)">dicv:hasValue</text></g></svg>