<svg width="1675" height="858" xmlns="http://www.w3.org/2000/svg" xmlns:xlink="http://www.w3.org/1999/xlink" xml:space="preserve" overflow="hidden"><defs><clipPath id="clip0"><rect x="951" y="455" width="1675" height="858"/></clipPath></defs><g clip-path="url(#clip0)" transform="translate(-951 -455)"><path d="M0 0 3778.65 0 3778.65 2267.22 0 2267.22Z" fill="#FFFFFF" transform="matrix(1 0 0 1.00043 0.518363 -0.333351)"/><path d="M1146.09 1016.82C1146.09 1010.93 1150.87 1006.15 1156.76 1006.15L1343.35 1006.15C1349.24 1006.15 1354.02 1010.93 1354.02 1016.82L1354.02 1059.47C1354.02 1065.36 1349.24 1070.14 1343.35 1070.14L1156.76 1070.14C1150.87 1070.14 1146.09 1065.36 1146.09 1059.47Z" stroke="#FFFFFF" stroke-width="0.666517" stroke-miterlimit="8" fill="#575454" fill-rule="evenodd" transform="matrix(1 0 0 1.00043 0.518363 -0.333351)"/><text fill="#FFFFFF" font-family="Arial,Arial_MSFontService,sans-serif" font-style="italic" font-weight="400" font-size="32" transform="matrix(0.999643 0 0 1.00008 1175.99 1049)">dice</text><text fill="#FFFFFF" font-family="Arial,Arial_MSFontService,sans-serif" font-style="italic" font-weight="400" font-size="32" transform="matrix(0.999643 0 0 1.00008 1234.97 1049)">:</text><text fill="#FFFFFF" font-family="Arial,Arial_MSFontService,sans-serif" font-style="italic" font-weight="400" font-size="32" transform="matrix(0.999643 0 0 1.00008 1243.96 1049)">Entity</text><path d="M0.00385511-0.999763 8.002-0.968927 7.99428 1.03061-0.00385511 0.999763ZM14.0006-0.945796 21.9987-0.914955 21.991 1.08458 13.9929 1.05374ZM28.0044-0.852027 36.0021-0.762046 35.9796 1.23738 27.9819 1.1474ZM42.0004-0.69456 44.5409-0.665977 50.0032-0.574191 49.9696 1.42508 44.51 1.33333 44.5156 1.33341 41.9779 1.30486ZM56.0048-0.469501 64.0013-0.304216 63.9599 1.6949 55.9635 1.52962ZM70.0024-0.159527 74.5297-0.0471235 78.0023 0.0551656 77.9435 2.05385 74.4731 1.95163 74.4777 1.95175 69.9527 1.8394ZM84.0036 0.235162 91.5638 0.498341 92.0033 0.516493 91.9208 2.51434 91.4845 2.49632 91.491 2.49657 83.934 2.2335ZM97.9969 0.764024 98.9282 0.802485 105.406 1.12388 106.005 1.16038 105.883 3.15621 105.29 3.12007 105.302 3.1207 98.8332 2.79979 98.8415 2.80016 97.9143 2.76187ZM112.008 1.54562 115.363 1.80821 118.683 2.16853 120.053 2.41231 119.703 4.38095 118.366 4.14313 118.433 4.15275 115.162 3.79771 115.192 3.80049 111.852 3.53908ZM125.753 3.7932 127.367 3.96835 127.338 3.96556 131.764 4.31203 131.747 4.31084 133.678 4.4287 133.556 6.42453 131.616 6.30616 127.167 5.95784 125.538 5.78108ZM139.656 4.76579 143.696 4.9662 143.688 4.96582 147.637 5.12894 147.555 7.12678 143.601 6.96349 139.557 6.76288ZM153.625 5.35945 159.194 5.55332 159.189 5.55315 161.613 5.62455 161.554 7.62324 159.128 7.55175 153.555 7.35778ZM167.61 5.80116 168.056 5.81431 168.051 5.81418 175.6 6.00162 175.551 8.00054 168 7.81307 167.551 7.79984ZM181.594 6.13354 187.557 6.2568 187.554 6.25673 189.586 6.29089 189.553 8.29016 187.518 8.25596 181.552 8.13266ZM195.584 6.39168 198.019 6.43258 198.013 6.4325 203.576 6.49509 203.553 8.49452 197.988 8.4319 195.551 8.39094ZM209.574 6.56258 217.572 6.65255 217.549 8.65198 209.552 8.562ZM223.563 6.693 231.561 6.72385 231.553 8.72338 223.555 8.69253ZM234.557 1.06996 242.529 7.76592 234.505 14.4002Z" transform="matrix(1 0 0 -1.00044 1354.03 1037.52)"/><path d="M1007.14 727.084C1007.14 721.655 1011.54 717.255 1016.97 717.255L1302.2 717.255C1307.63 717.255 1312.03 721.655 1312.03 727.084L1312.03 766.404C1312.03 771.833 1307.63 776.234 1302.2 776.234L1016.97 776.234C1011.54 776.234 1007.14 771.833 1007.14 766.404Z" stroke="#FFFFFF" stroke-width="0.666517" stroke-miterlimit="8" fill="#575454" fill-rule="evenodd" transform="matrix(1 0 0 1.00043 0.518363 -0.333351)"/><text fill="#FFFFFF" font-family="Arial,Arial_MSFontService,sans-serif" font-style="italic" font-weight="400" font-size="32" transform="matrix(0.999643 0 0 1.00008 1038.2 758)">dice</text><text fill="#FFFFFF" font-family="Arial,Arial_MSFontService,sans-serif" font-style="italic" font-weight="400" font-size="32" transform="matrix(0.999643 0 0 1.00008 1097.18 758)">:</text><text fill="#FFFFFF" font-family="Arial,Arial_MSFontService,sans-serif" font-style="italic" font-weight="400" font-size="32" transform="matrix(0.999643 0 0 1.00008 1106.17 758)">TimeInterval</text><path d="M1454.67 796.779 1446.67 796.45 1446.76 794.452 1454.75 794.782ZM1440.61 796.147 1432.67 795.192 1432.91 793.207 1440.85 794.161ZM1426.65 794.34 1418.81 792.772 1419.2 790.81 1427.05 792.379ZM1412.92 791.383 1410.45 790.728 1405.21 789.078 1405.81 787.171 1411.03 788.814 1410.99 788.801 1413.43 789.451ZM1399.5 786.901 1395.9 785.307 1392.25 783.373 1393.19 781.607 1396.8 783.524 1396.74 783.493 1400.31 785.071ZM1387.17 779.815 1385.95 778.792 1383.9 776.402 1382.58 773.887 1382.38 772.796 1384.35 772.444 1384.52 773.382 1384.42 773.093 1385.61 775.37 1385.48 775.183 1387.41 777.425 1387.3 777.311 1388.46 778.282ZM1380.76 767.407 1380.63 767.154 1380.76 767.342 1378.83 765.1 1378.94 765.214 1376.33 763.026 1376.42 763.097 1375.3 762.362 1376.39 760.687 1377.57 761.455 1380.29 763.733 1382.35 766.123 1382.53 766.477ZM1370.19 759.399 1369.44 759.001 1369.5 759.032 1365.16 757.113 1365.21 757.135 1362.96 756.299 1363.66 754.424 1365.94 755.272 1370.34 757.217 1371.13 757.632ZM1357.33 754.38 1355.22 753.711 1355.26 753.724 1349.68 752.242 1350.2 750.31 1355.8 751.796 1357.93 752.473ZM1343.86 751.079 1337.62 749.832 1337.7 749.844 1336.07 749.648 1336.31 747.663 1337.97 747.863 1344.25 749.118ZM1330.11 748.931 1324.77 748.288 1324.85 748.294 1322.24 748.187 1322.32 746.188 1324.97 746.297 1330.35 746.946ZM1319.25 753.734 1311.53 746.744 1319.8 740.414Z" transform="matrix(1 0 0 1.00043 0.518363 -0.333351)"/><path d="M1373.01 547.312C1373.01 541.791 1377.49 537.316 1383.01 537.316L1650.91 537.316C1656.43 537.316 1660.91 541.791 1660.91 547.312L1660.91 587.298C1660.91 592.819 1656.43 597.296 1650.91 597.296L1383.01 597.296C1377.49 597.296 1373.01 592.819 1373.01 587.298Z" stroke="#FFFFFF" stroke-width="0.666517" stroke-miterlimit="8" fill="#575454" fill-rule="evenodd" transform="matrix(1 0 0 1.00043 0.518363 -0.333351)"/><text fill="#FFFFFF" font-family="Arial,Arial_MSFontService,sans-serif" font-style="italic" font-weight="400" font-size="32" transform="matrix(0.999643 0 0 1.00008 1399.99 579)">dice</text><text fill="#FFFFFF" font-family="Arial,Arial_MSFontService,sans-serif" font-style="italic" font-weight="400" font-size="32" transform="matrix(0.999643 0 0 1.00008 1458.97 579)">:</text><text fill="#FFFFFF" font-family="Arial,Arial_MSFontService,sans-serif" font-style="italic" font-weight="400" font-size="32" transform="matrix(0.999643 0 0 1.00008 1467.96 579)">TimeInstant</text><path d="M1158.59 716.733 1158.86 713.833 1159.67 710.867 1160.63 708.73 1162.45 709.549 1161.52 711.616 1161.57 711.469 1160.81 714.276 1160.84 714.104 1160.59 716.916ZM1164.01 703.502 1165.03 702.214 1167.72 699.42 1169.71 697.666 1171.03 699.165 1169.08 700.893 1169.14 700.837 1166.5 703.567 1166.57 703.495 1165.57 704.745ZM1174.51 693.867 1178.26 691.332 1181.28 689.502 1182.31 691.212 1179.31 693.028 1179.36 693.001 1175.64 695.523ZM1186.61 686.62 1192.12 683.746 1193.82 683.012 1194.61 684.847 1192.95 685.566 1193.02 685.536 1187.53 688.393ZM1199.32 680.628 1203.03 679.023 1206.81 677.644 1207.49 679.522 1203.74 680.892 1203.79 680.87 1200.12 682.462ZM1212.44 675.586 1215.1 674.617 1220.08 673.075 1220.67 674.985 1215.71 676.519 1215.76 676.503 1213.13 677.464ZM1225.81 671.303 1228.2 670.566 1233.57 669.168 1234.07 671.103 1228.73 672.496 1228.77 672.483 1226.4 673.213ZM1239.38 667.656 1242.23 666.914 1247.2 665.834 1247.62 667.788 1242.67 668.864 1242.71 668.854 1239.88 669.591ZM1253.06 664.563 1257.02 663.704 1260.95 663.012 1261.3 664.981 1257.39 665.67 1257.43 665.662 1253.49 666.517ZM1266.86 661.97 1272.49 660.98 1274.78 660.663 1275.05 662.644 1272.78 662.958 1272.81 662.952 1267.21 663.94ZM1280.72 659.846 1288.46 658.784 1288.69 658.761 1288.89 660.751 1288.68 660.772 1288.71 660.767 1281 661.828ZM1294.66 658.17 1302.61 657.38 1302.81 659.37 1294.86 660.159ZM1308.63 656.931 1316.62 656.448 1316.74 658.444 1308.76 658.927ZM1322.65 656.131 1330.64 655.966 1330.68 657.965 1322.69 658.13ZM1336.64 655.843 1338.21 655.811 1344.64 655.678 1344.68 657.677 1338.25 657.809 1336.68 657.842ZM1350.64 655.555 1354.94 655.466 1354.9 655.468 1358.58 655.245 1358.71 657.24 1355 657.465 1350.68 657.554ZM1364.57 654.882 1371.49 654.464 1371.46 654.467 1372.52 654.361 1372.72 656.352 1371.63 656.458 1364.69 656.878ZM1378.49 653.77 1386.44 652.981 1386.64 654.971 1378.69 655.76ZM1392.36 652.22 1400.28 651.13 1400.55 653.112 1392.63 654.2ZM1406.18 650.225 1414.04 648.835 1414.39 650.804 1406.52 652.193ZM1419.91 647.768 1427.73 646.072 1428.15 648.026 1420.33 649.722ZM1433.59 644.802 1433.8 644.756 1433.76 644.766 1441.3 642.803 1441.79 644.739 1434.25 646.706 1434.02 646.755ZM1447.09 641.291 1447.74 641.125 1447.69 641.137 1454.7 638.971 1455.29 640.881 1448.26 643.054 1447.6 643.226ZM1460.44 637.199 1460.76 637.1 1460.71 637.116 1467.91 634.488 1468.6 636.367 1461.37 639.004 1461.03 639.111ZM1473.46 632.405 1480.81 629.225 1481.6 631.06 1474.26 634.239ZM1486.15 626.675 1492.98 623.124 1492.92 623.156 1493.19 622.997 1494.22 624.708 1493.93 624.884 1487.08 628.448ZM1498.23 619.858 1500.96 618.004 1500.92 618.039 1504.38 615.38 1504.33 615.424 1504.57 615.207 1505.9 616.707 1505.63 616.946 1502.11 619.644 1499.35 621.513ZM1508.89 611.163 1509.96 610.053 1509.9 610.125 1512.08 607.368 1512.02 607.461 1513.57 604.968 1515.27 606.025 1513.69 608.567 1511.43 611.407 1510.33 612.55ZM1508.44 602.893 1516.88 596.796 1521.36 606.196Z" transform="matrix(1 0 0 1.00043 0.518363 -0.333351)"/><path d="M1029.13 547.312C1029.13 541.791 1033.61 537.316 1039.13 537.316L1307.03 537.316C1312.55 537.316 1317.03 541.791 1317.03 547.312L1317.03 587.298C1317.03 592.819 1312.55 597.296 1307.03 597.296L1039.13 597.296C1033.61 597.296 1029.13 592.819 1029.13 587.298Z" stroke="#FFFFFF" stroke-width="0.666517" stroke-miterlimit="8" fill="#575454" fill-rule="evenodd" transform="matrix(1 0 0 1.00043 0.518363 -0.333351)"/><text fill="#FFFFFF" font-family="Arial,Arial_MSFontService,sans-serif" font-style="italic" font-weight="400" font-size="32" transform="matrix(0.999643 0 0 1.00008 1055.4 579)">dice</text><text fill="#FFFFFF" font-family="Arial,Arial_MSFontService,sans-serif" font-style="italic" font-weight="400" font-size="32" transform="matrix(0.999643 0 0 1.00008 1114.38 579)">:</text><text fill="#FFFFFF" font-family="Arial,Arial_MSFontService,sans-serif" font-style="italic" font-weight="400" font-size="32" transform="matrix(0.999643 0 0 1.00008 1123.38 579)">TimeInstant</text><path d="M1158.59 716.812 1158.69 708.814 1160.69 708.84 1160.59 716.837ZM1158.84 702.793 1159.13 694.8 1161.13 694.875 1160.84 702.867ZM1159.51 688.788 1159.77 684.573 1160.1 680.786 1162.09 680.964 1161.76 684.737 1161.76 684.71 1161.5 688.912ZM1160.66 674.787 1161.05 671.403 1161.54 667.738 1161.69 666.81 1163.67 667.134 1163.52 668.048 1163.52 668.022 1163.02 671.663 1163.02 671.642 1162.64 675.016ZM1162.86 660.837 1163.21 659.482 1163.84 657.732 1164.61 656.421 1165.43 655.945 1166.03 655.601 1165.67 655.959 1166.26 654.955 1166.18 655.124 1166.59 653.974 1168.48 654.65 1168.03 655.888 1167.26 657.199 1166.44 657.675 1165.84 658.02 1166.2 657.661 1165.61 658.665 1165.69 658.496 1165.11 660.114 1165.14 660.027 1164.8 661.338ZM1167.91 648.314 1168.36 645.571 1168.35 645.597 1168.85 641.957 1168.85 641.978 1169.02 640.443 1171.01 640.672 1170.83 642.217 1170.33 645.881 1169.88 648.637ZM1169.62 634.5 1170.12 628.882 1170.12 628.909 1170.27 626.556 1172.26 626.68 1172.12 629.046 1171.61 634.678ZM1170.64 620.569 1170.75 618.77 1170.75 618.795 1170.98 612.603 1172.97 612.677 1172.74 618.882 1172.63 620.692ZM1171.17 606.632 1171.21 603.447 1173.21 603.473 1173.17 606.657ZM1165.52 604.708 1172.29 596.796 1178.86 604.878Z" transform="matrix(1 0 0 1.00043 0.518363 -0.333351)"/><path d="M0-27.99 376.179-27.99 376.179 6.9975-9.35538e-06 6.9975Z" fill="#FFFFFF" fill-rule="evenodd" transform="matrix(1 0 0 1.00044 1045.9 819.102)"/><text font-family="Arial,Arial_MSFontService,sans-serif" font-weight="400" font-size="32" transform="matrix(0.999643 0 0 1.00008 1045.9 819)">dicp</text><text font-family="Arial,Arial_MSFontService,sans-serif" font-weight="400" font-size="32" transform="matrix(0.999643 0 0 1.00008 1102.88 819)">:</text><text font-family="Arial,Arial_MSFontService,sans-serif" font-weight="400" font-size="32" transform="matrix(0.999643 0 0 1.00008 1111.88 819)">occupiesTimeInverval</text><path d="M1717.89 547.146C1717.89 541.717 1722.28 537.316 1727.71 537.316L2036.94 537.316C2042.37 537.316 2046.77 541.717 2046.77 547.146L2046.77 586.465C2046.77 591.895 2042.37 596.296 2036.94 596.296L1727.71 596.296C1722.28 596.296 1717.89 591.895 1717.89 586.465Z" stroke="#FFFFFF" stroke-width="0.666517" stroke-miterlimit="8" fill="#575454" fill-rule="evenodd" transform="matrix(1 0 0 1.00043 0.518363 -0.333351)"/><text fill="#FFFFFF" font-family="Arial,Arial_MSFontService,sans-serif" font-style="italic" font-weight="400" font-size="32" transform="matrix(0.999643 0 0 1.00008 1758.75 579)">unocs</text><text fill="#FFFFFF" font-family="Arial,Arial_MSFontService,sans-serif" font-style="italic" font-weight="400" font-size="32" transform="matrix(0.999643 0 0 1.00008 1843.72 579)">:</text><text fill="#FFFFFF" font-family="Arial,Arial_MSFontService,sans-serif" font-style="italic" font-weight="400" font-size="32" transform="matrix(0.999643 0 0 1.00008 1852.72 579)">Regulation</text><path d="M1717.89 674.936C1717.89 669.599 1722.21 665.272 1727.55 665.272L2037.1 665.272C2042.44 665.272 2046.77 669.599 2046.77 674.936L2046.77 713.589C2046.77 718.926 2042.44 723.253 2037.1 723.253L1727.55 723.253C1722.21 723.253 1717.89 718.926 1717.89 713.589Z" stroke="#FFFFFF" stroke-width="0.666517" stroke-miterlimit="8" fill="#575454" fill-rule="evenodd" transform="matrix(1 0 0 1.00043 0.518363 -0.333351)"/><text fill="#FFFFFF" font-family="Arial,Arial_MSFontService,sans-serif" font-style="italic" font-weight="400" font-size="32" transform="matrix(0.999643 0 0 1.00008 1743.68 706)">unocs</text><text fill="#FFFFFF" font-family="Arial,Arial_MSFontService,sans-serif" font-style="italic" font-weight="400" font-size="32" transform="matrix(0.999643 0 0 1.00008 1828.65 706)">:</text><text fill="#FFFFFF" font-family="Arial,Arial_MSFontService,sans-serif" font-style="italic" font-weight="400" font-size="32" transform="matrix(0.999643 0 0 1.00008 1837.64 706)">Requirement</text><path d="M0.0447625-0.998772 8.03494-0.640673 7.94542 1.35688-0.0447625 0.998772ZM14.1078-0.301385 22.0375 0.742712 21.7765 2.72516 13.8468 1.68106ZM28.0447 1.65843 35.8629 3.34561 35.441 5.30017 27.6228 3.61298ZM41.7586 4.79987 49.4212 7.0922 48.8482 9.00786 41.1856 6.71553ZM55.1652 9.05515 62.6323 11.921 61.9159 13.7878 54.4487 10.9219ZM68.1847 14.3724 75.4174 17.787 74.5639 19.5952 67.3311 16.1806ZM80.7348 20.7169 87.4534 24.5268 87.7446 24.7228 86.6283 26.3818 86.3688 26.2072 86.4337 26.2474 79.7484 22.4563ZM92.7216 28.0713 97.8635 31.5306 99.3354 32.7009 98.091 34.2661 96.6503 33.1205 96.7143 33.1674 91.6055 29.7303ZM104.031 36.4342 107.445 39.1482 110.152 41.702 108.779 43.1566 106.103 40.6318 106.167 40.6871 102.786 37.9993ZM114.515 45.8182 116.093 47.3058 120.011 51.7457 118.512 53.0688 114.623 48.6632 114.687 48.7289 113.144 47.2727ZM124.006 56.3514 128.669 62.8499 127.044 64.0156 122.381 57.5171ZM131.896 68.0281 135.396 74.2856 135.753 75.1714 133.899 75.9196 133.565 75.0924 133.619 75.2063 130.152 69.0042ZM137.998 80.7345 139.256 83.8542 140.56 88.4105 138.637 88.9604 137.348 84.4546 137.382 84.5537 136.143 81.4826ZM141.75 94.4641 141.984 96.7321 139.995 96.9376 139.761 94.6696ZM147.536 95.008 141.487 103.481 134.244 96.003Z" transform="matrix(1.83697e-16 1.00044 1 -1.83779e-16 1882.85 722.729)"/><path d="M1883.66 596.798 1883.65 603.219 1883.64 604.801 1881.64 604.787 1881.65 603.207 1881.65 603.211 1881.66 596.793ZM1883.59 610.804 1883.54 615.259 1883.48 618.806 1881.48 618.774 1881.54 615.228 1881.54 615.234 1881.59 610.781ZM1883.36 624.81 1883.35 624.885 1883.24 628.294 1883.12 630.516 1883.04 631.216 1882.95 631.509 1882.89 631.706 1882.93 631.512 1882.87 632.087 1882.87 632.036 1882.83 632.808 1880.83 632.698 1880.88 631.899 1880.95 631.198 1881.04 630.907 1881.11 630.709 1881.06 630.904 1881.13 630.328 1881.12 630.38 1881.24 628.196 1881.24 628.218 1881.35 624.823 1881.35 624.834 1881.36 624.765ZM1882.61 638.771 1882.54 641.985 1882.54 641.978 1882.46 646.761 1880.46 646.728 1880.54 641.942 1880.61 638.725ZM1882.39 652.754 1882.39 652.996 1882.39 652.991 1882.35 658.961 1880.35 658.949 1880.39 652.976 1880.39 652.732ZM1888.02 657.643 1881.33 665.62 1874.69 657.6Z" transform="matrix(1 0 0 1.00043 0.518363 -0.333351)"/><path d="M1595.93 1010.82C1595.93 1005.48 1600.26 1001.15 1605.6 1001.15L1999.12 1001.15C2004.45 1001.15 2008.78 1005.48 2008.78 1010.82L2008.78 1049.47C2008.78 1054.81 2004.45 1059.14 1999.12 1059.14L1605.6 1059.14C1600.26 1059.14 1595.93 1054.81 1595.93 1049.47Z" stroke="#FFFFFF" stroke-width="0.666517" stroke-miterlimit="8" fill="#575454" fill-rule="evenodd" transform="matrix(1 0 0 1.00043 0.518363 -0.333351)"/><text fill="#FFFFFF" font-family="Arial,Arial_MSFontService,sans-serif" font-style="italic" font-weight="400" font-size="32" transform="matrix(0.999643 0 0 1.00008 1657.48 1042)">unocs</text><text fill="#FFFFFF" font-family="Arial,Arial_MSFontService,sans-serif" font-style="italic" font-weight="400" font-size="32" transform="matrix(0.999643 0 0 1.00008 1742.45 1042)">:</text><text fill="#FFFFFF" font-family="Arial,Arial_MSFontService,sans-serif" font-style="italic" font-weight="400" font-size="32" transform="matrix(0.999643 0 0 1.00008 1751.44 1042)">Characteristic</text><path d="M1985.79 833.881C1985.79 825.231 1992.8 818.22 2001.45 818.22L2239.03 818.22C2247.69 818.22 2254.69 825.231 2254.69 833.881L2254.69 896.526C2254.69 905.176 2247.69 912.187 2239.03 912.187L2001.45 912.187C1992.8 912.187 1985.79 905.176 1985.79 896.526Z" stroke="#FFFFFF" stroke-width="0.666517" stroke-miterlimit="8" fill="#575454" fill-rule="evenodd" transform="matrix(1 0 0 1.00043 0.518363 -0.333351)"/><text fill="#FFFFFF" font-family="Arial,Arial_MSFontService,sans-serif" font-style="italic" font-weight="400" font-size="32" transform="matrix(0.999643 0 0 1.00008 2008.29 857)">unocs</text><text fill="#FFFFFF" font-family="Arial,Arial_MSFontService,sans-serif" font-style="italic" font-weight="400" font-size="32" transform="matrix(0.999643 0 0 1.00008 2093.26 857)">:</text><text fill="#FFFFFF" font-family="Arial,Arial_MSFontService,sans-serif" font-style="italic" font-weight="400" font-size="32" transform="matrix(0.999643 0 0 1.00008 2102.26 857)">Required</text><text fill="#FFFFFF" font-family="Arial,Arial_MSFontService,sans-serif" font-style="italic" font-weight="400" font-size="32" transform="matrix(0.999643 0 0 1.00008 2022.63 895)">Characteristic</text><path d="M0.0647769-0.997675 8.04618-0.47946 7.91662 1.51589-0.0647769 0.997675ZM14.0997 0.357436 21.0529 1.68377 22.04 1.99237 21.4433 3.90083 20.511 3.60932 20.6219 3.63716 13.725 2.32157ZM27.7654 3.78233 31.3586 4.90569 35.3403 6.63132 34.5452 8.46597 30.6121 6.76142 30.7113 6.79833 27.1687 5.69079ZM40.8442 9.01671 41.4077 9.26089 47.9475 12.8971 46.9757 14.6447 40.479 11.0325 40.5673 11.0759 40.0491 10.8513ZM53.1514 16.0505 59.7532 20.5658 58.6244 22.2162 52.0226 17.701ZM64.4984 24.3732 69.2101 28.244 70.6318 29.6297 69.2361 31.0616 67.8448 29.7056 67.9079 29.7622 63.2291 25.9182ZM74.9275 33.8166 77.4278 36.2535 80.437 39.7197 78.927 41.0305 75.9453 37.5959 76.0023 37.6564 73.5318 35.2485ZM84.3695 44.2495 84.9863 44.9599 89.203 50.7225 87.5894 51.9033 83.3972 46.1744 83.4491 46.2394 82.8595 45.5603ZM92.6775 55.7106 96.8387 62.5411 95.1311 63.5814 90.9699 56.7508ZM99.681 67.917 102.892 74.4017 103.2 75.1977 101.335 75.9179 101.044 75.1645 101.081 75.2482 97.8892 68.8044ZM105.36 80.7939 106.999 85.0378 107.949 88.4538 106.023 88.9902 105.085 85.6209 105.115 85.7128 103.495 81.514ZM109.559 94.2325 110.035 95.9422 111.094 102.179 109.123 102.514 108.072 96.3282 108.095 96.4288 107.633 94.7689ZM111.987 108.217 112.177 111.498 110.181 111.613 109.992 108.333ZM117.756 109.84 111.564 118.21 104.448 110.609Z" transform="matrix(1 0 0 -1.00044 2008.8 1030.01)"/><path d="M0-27.99 145.948-27.99 145.948 6.9975 0 6.9975Z" fill="#FFFFFF" fill-rule="evenodd" transform="matrix(1 0 0 1.00044 1371.93 1071.43)"/><path d="M0-27.99 195.763-27.99 195.763 6.9975-5.08444e-06 6.9975Z" fill="#FFFFFF" fill-rule="evenodd" transform="matrix(1 0 0 1.00044 1371.93 1109.44)"/><text font-family="Arial,Arial_MSFontService,sans-serif" font-weight="400" font-size="32" transform="matrix(0.999643 0 0 1.00008 1371.93 1072)">unocs</text><text font-family="Arial,Arial_MSFontService,sans-serif" font-weight="400" font-size="32" transform="matrix(0.999643 0 0 1.00008 1456.9 1072)">:</text><text font-family="Arial,Arial_MSFontService,sans-serif" font-weight="400" font-size="32" transform="matrix(0.999643 0 0 1.00008 1465.89 1072)">has</text><text font-family="Arial,Arial_MSFontService,sans-serif" font-weight="400" font-size="32" transform="matrix(0.999643 0 0 1.00008 1371.93 1110)">Characteristic</text><path d="M0-27.99 276.068-27.99 276.068 6.9975-1.01689e-05 6.9975Z" fill="#FFFFFF" fill-rule="evenodd" transform="matrix(1 0 0 1.00044 2008.5 964.999)"/><path d="M0-27.99 195.763-27.99 195.763 6.9975-5.08444e-06 6.9975Z" fill="#FFFFFF" fill-rule="evenodd" transform="matrix(1 0 0 1.00044 2008.5 1003)"/><text font-family="Arial,Arial_MSFontService,sans-serif" font-weight="400" font-size="32" transform="matrix(0.999643 0 0 1.00008 2008.5 965)">unocs</text><text font-family="Arial,Arial_MSFontService,sans-serif" font-weight="400" font-size="32" transform="matrix(0.999643 0 0 1.00008 2093.47 965)">:</text><text font-family="Arial,Arial_MSFontService,sans-serif" font-weight="400" font-size="32" transform="matrix(0.999643 0 0 1.00008 2102.47 965)">hasRequired</text><text font-family="Arial,Arial_MSFontService,sans-serif" font-weight="400" font-size="32" transform="matrix(0.999643 0 0 1.00008 2008.5 1003)">Characteristic</text><path d="M0-27.99 197.057-27.99 197.057 6.9975-3.45742e-06 6.9975Z" fill="#FFFFFF" fill-rule="evenodd" transform="matrix(1 0 0 1.00044 2277.27 902.489)"/><text font-family="Arial,Arial_MSFontService,sans-serif" font-weight="400" font-size="32" transform="matrix(0.999643 0 0 1.00008 2277.27 903)">dicv</text><text font-family="Arial,Arial_MSFontService,sans-serif" font-weight="400" font-size="32" transform="matrix(0.999643 0 0 1.00008 2332.26 903)">:</text><text font-family="Arial,Arial_MSFontService,sans-serif" font-weight="400" font-size="32" transform="matrix(0.999643 0 0 1.00008 2341.25 903)">hasValue</text><path d="M1693.89 1163.1C1693.89 1154.82 1700.61 1148.11 1708.89 1148.11L2011.78 1148.11C2020.06 1148.11 2026.78 1154.82 2026.78 1163.1L2026.78 1223.08C2026.78 1231.36 2020.06 1238.08 2011.78 1238.08L1708.89 1238.08C1700.61 1238.08 1693.89 1231.36 1693.89 1223.08Z" stroke="#FFFFFF" stroke-width="0.666517" stroke-miterlimit="8" fill="#575454" fill-rule="evenodd" transform="matrix(1 0 0 1.00043 0.518363 -0.333351)"/><text fill="#FFFFFF" font-family="Arial,Arial_MSFontService,sans-serif" font-style="italic" font-weight="400" font-size="32" transform="matrix(0.999643 0 0 1.00008 1768.41 1186)">unocs</text><text fill="#FFFFFF" font-family="Arial,Arial_MSFontService,sans-serif" font-style="italic" font-weight="400" font-size="32" transform="matrix(0.999643 0 0 1.00008 1853.38 1186)">:</text><text fill="#FFFFFF" font-family="Arial,Arial_MSFontService,sans-serif" font-style="italic" font-weight="400" font-size="32" transform="matrix(0.999643 0 0 1.00008 1862.37 1186)">Actual</text><text fill="#FFFFFF" font-family="Arial,Arial_MSFontService,sans-serif" font-style="italic" font-weight="400" font-size="32" transform="matrix(0.999643 0 0 1.00008 1762.16 1224)">Characteristic</text><path d="M0.0776351-0.996756 8.05168-0.375675 7.89642 1.61784-0.0776351 0.996756ZM14.0521 0.929241 16.6171 1.51214 21.7677 3.45711 21.0614 5.32774 15.9751 3.40709 16.1067 3.4467 13.609 2.87907ZM27.3082 6.06466 31.1189 8.14779 34.1434 10.4625 32.9281 12.0503 29.9645 9.78226 30.0925 9.86555 26.3491 7.81918ZM38.7819 14.4527 39.3771 15.0491 41.4606 17.6171 43.1515 20.291 43.5838 21.2388 41.7647 22.0687 41.3605 21.1828 41.4251 21.3022 39.8021 18.7356 39.8707 18.8312 37.8568 16.3489 37.9254 16.4252 37.3666 15.8651ZM45.3322 27.2779 45.4639 28.6683 45.7191 31.3612 45.6869 31.1875 46.4305 33.8593 46.377 33.7125 46.8432 34.7343 45.0239 35.5642 44.5253 34.471 43.7368 31.6381 43.4733 28.8568 43.3415 27.4665ZM49.8191 39.6215 51.0803 41.1762 51.0117 41.0998 53.3838 43.4769 53.2838 43.3891 55.3788 44.9924 54.1635 46.5804 52.0156 44.9364 49.56 42.4759 48.2664 40.8813ZM60.1371 48.3661 65.5757 51.3391 65.4493 51.281 67.1334 51.917 66.427 53.7876 64.6777 53.127 59.1781 50.1206ZM72.7452 54.0361 72.962 54.118 72.8304 54.0783 80.4038 55.7994 79.9606 57.7493 72.3202 56.0129 72.0389 55.9067ZM81.4807 50.2589 88.9371 57.525 80.4456 63.549Z" transform="matrix(1.83697e-16 1.00044 1 -1.83779e-16 1802.87 1058.76)"/><path d="M1455.98 774.735C1455.98 768.937 1460.68 764.238 1466.48 764.238L1839.34 764.238C1845.14 764.238 1849.84 768.937 1849.84 774.735L1849.84 816.72C1849.84 822.517 1845.14 827.216 1839.34 827.216L1466.48 827.216C1460.68 827.216 1455.98 822.517 1455.98 816.72Z" stroke="#FFFFFF" stroke-width="0.666517" stroke-miterlimit="8" fill="#575454" fill-rule="evenodd" transform="matrix(1 0 0 1.00043 0.518363 -0.333351)"/><text fill="#FFFFFF" font-family="Arial,Arial_MSFontService,sans-serif" font-weight="400" font-size="32" transform="matrix(0.999643 0 0 1.00008 1487.15 807)">unocs</text><text fill="#FFFFFF" font-family="Arial,Arial_MSFontService,sans-serif" font-weight="400" font-size="32" transform="matrix(0.999643 0 0 1.00008 1572.12 807)">:</text><text fill="#FFFFFF" font-family="Arial,Arial_MSFontService,sans-serif" font-weight="400" font-size="32" transform="matrix(0.999643 0 0 1.00008 1581.11 807)">SafetyInspection</text><path d="M1653.36 826.787 1653.06 831.035 1652.28 834.829 1650.32 834.423 1651.09 830.695 1651.07 830.828 1651.36 826.648ZM1650.2 840.697 1648.72 843.832 1646.33 847.801 1644.61 846.769 1646.98 842.845 1646.93 842.933 1648.39 839.843ZM1642.66 852.752 1639.69 856.206 1637.23 858.706 1635.8 857.301 1638.24 854.826 1638.19 854.877 1641.14 851.45ZM1632.8 862.84 1631.35 864.131 1626.57 867.949 1625.32 866.386 1630.08 862.587 1630.04 862.623 1631.46 861.349ZM1621.67 871.488 1621.32 871.738 1615.71 875.409 1614.86 875.89 1613.87 874.155 1614.69 873.688 1614.64 873.719 1620.2 870.077 1620.17 870.102 1620.5 869.865ZM1609.65 878.867 1603.44 882.423 1602.62 882.814 1601.76 881.012 1602.54 880.637 1602.47 880.669 1608.67 877.131ZM1597.22 885.417 1590.01 888.887 1589.14 887.086 1596.35 883.615ZM1584.4 891.187 1577 894.205 1576.25 892.353 1583.65 889.334ZM1571.31 896.283 1563.75 898.881 1563.1 896.99 1570.66 894.391ZM1558 900.783 1550.32 902.982 1549.77 901.06 1557.45 898.861ZM1544.55 904.632 1542.54 905.206 1536.73 906.555 1536.28 904.608 1542.07 903.263 1542.02 903.276 1544 902.708ZM1530.89 907.914 1525.12 909.258 1523.04 909.634 1522.68 907.667 1524.74 907.295 1524.69 907.305 1530.44 905.966ZM1517.13 910.704 1509.26 912.13 1508.9 910.163 1516.78 908.736ZM1503.28 913.022 1495.35 914.058 1495.09 912.075 1503.02 911.039ZM1489.4 914.836 1488.63 914.937 1481.38 915.515 1481.22 913.522 1488.44 912.946 1488.39 912.951 1489.14 912.853ZM1475.4 915.992 1469.86 916.434 1467.38 916.501 1467.32 914.502 1469.78 914.435 1469.73 914.438 1475.24 913.998ZM1461.38 916.664 1453.38 916.88 1453.32 914.882 1461.32 914.665ZM1447.38 917.043 1439.39 917.261 1439.34 915.262 1447.33 915.045ZM1433.39 917.423 1432.13 917.458 1432.18 917.455 1425.47 917.99 1425.31 915.997 1432.05 915.46 1433.34 915.425ZM1419.48 918.467 1413.46 918.948 1413.52 918.942 1411.58 919.197 1411.32 917.213 1413.29 916.956 1419.33 916.475ZM1405.63 919.973 1397.7 921.011 1397.44 919.028 1405.37 917.991ZM1391.82 921.946 1383.96 923.371 1383.6 921.404 1391.46 919.978ZM1378.05 924.441 1377.18 924.599 1377.23 924.589 1370.3 926.2 1369.85 924.252 1376.8 922.635 1377.7 922.473ZM1364.45 927.559 1359.84 928.629 1359.89 928.617 1356.76 929.515 1356.21 927.593 1359.37 926.688 1364 925.61ZM1350.99 931.164 1343.3 933.364 1342.75 931.441 1350.44 929.242ZM1337.67 935.295 1330.1 937.893 1329.46 936.002 1337.02 933.404ZM1324.56 939.995 1317.15 943.013 1316.39 941.162 1323.8 938.143ZM1311.68 945.33 1304.47 948.801 1303.6 947 1310.81 943.529ZM1299.15 951.392 1292.2 955.361 1291.21 953.624 1298.16 949.656ZM1287.05 958.319 1281.71 961.815 1281.74 961.79 1280.44 962.732 1279.27 961.111 1280.59 960.155 1285.96 956.645ZM1275.64 966.259 1271.84 969.306 1271.88 969.27 1269.56 971.347 1268.22 969.857 1270.57 967.761 1274.4 964.696ZM1265.27 975.449 1263.67 977.067 1263.72 977.016 1260.27 981.025 1260.32 980.964 1260.06 981.317 1258.44 980.138 1258.73 979.753 1262.22 975.686 1263.84 974.044ZM1256.67 986.156 1254.93 989.048 1254.98 988.96 1253.03 993.091 1253.07 992.987 1253.05 993.037 1251.16 992.392 1251.19 992.288 1253.19 988.06 1254.96 985.125ZM1251.44 998.613 1251.43 998.72 1249.45 998.419 1249.47 998.312ZM1257.23 998.138 1249.55 1005.17 1244.02 996.36Z" transform="matrix(1 0 0 1.00043 0.518363 -0.333351)"/><path d="M0-27.99 211.757-27.99 211.757 6.9975-5.08444e-06 6.9975Z" fill="#FFFFFF" fill-rule="evenodd" transform="matrix(1 0 0 1.00044 1331.45 962.647)"/><text font-family="Arial,Arial_MSFontService,sans-serif" font-weight="400" font-size="32" transform="matrix(0.999643 0 0 1.00008 1331.45 963)">unocs</text><text font-family="Arial,Arial_MSFontService,sans-serif" font-weight="400" font-size="32" transform="matrix(0.999643 0 0 1.00008 1416.42 963)">:</text><text font-family="Arial,Arial_MSFontService,sans-serif" font-weight="400" font-size="32" transform="matrix(0.999643 0 0 1.00008 1425.42 963)">inspects</text><path d="M988.147 488.333 2582.58 488.333 2582.58 1274.06 988.147 1274.06Z" stroke="#575454" stroke-width="3.33258" stroke-miterlimit="8" stroke-dasharray="26.6607 9.99773" fill="none" transform="matrix(1 0 0 1.00043 0.518363 -0.333351)"/><text font-family="Arial,Arial_MSFontService,sans-serif" font-weight="700" font-size="32" transform="matrix(0.999643 0 0 1.00008 997.744 524)">UNOCS</text><text font-family="Arial,Arial_MSFontService,sans-serif" font-weight="700" font-size="32" transform="matrix(0.999643 0 0 1.00008 1122.22 524)">-</text><text font-family="Arial,Arial_MSFontService,sans-serif" font-weight="700" font-size="32" transform="matrix(0.999643 0 0 1.00008 1141.71 524)">SafetyInspection</text><path d="M2092.25 510.826 2561.08 510.826 2561.08 766.738 2092.25 766.738Z" stroke="#042433" stroke-width="1.99955" stroke-miterlimit="8" fill="#E8E8E8" transform="matrix(1 0 0 1.00043 0.518363 -0.333351)"/><text font-family="Arial,Arial_MSFontService,sans-serif" font-weight="700" font-size="32" transform="matrix(0.999643 0 0 1.00008 2101.97 546)">Legend</text><path d="M0 33.9879 56.9796 33.9879 113.959 33.9879 113.959 36.9868 56.9796 36.9868 0 36.9868Z" fill-rule="evenodd" transform="matrix(1 0 0 1.00044 2101.97 515.048)"/><path d="M2111.25 586.798 2214.16 586.799 2214.16 588.799 2111.25 588.799ZM2212.83 581.133 2220.83 587.799 2212.83 594.464Z" transform="matrix(1 0 0 1.00043 0.518363 -0.333351)"/><path d="M2114.24 621.787 2122.24 621.787 2122.24 623.786 2114.24 623.786ZM2128.24 621.787 2136.24 621.787 2136.24 623.786 2128.24 623.786ZM2142.23 621.787 2150.23 621.787 2150.23 623.786 2142.23 623.786ZM2156.24 621.787 2164.24 621.787 2164.24 623.786 2156.24 623.786ZM2170.23 621.787 2178.23 621.787 2178.23 623.786 2170.23 623.786ZM2184.23 621.787 2192.23 621.787 2192.23 623.786 2184.23 623.786ZM2198.22 621.787 2206.22 621.787 2206.22 623.786 2198.22 623.786ZM2212.22 621.787 2217.16 621.787 2217.16 623.786 2212.22 623.786ZM2215.83 616.122 2223.83 622.786 2215.83 629.452Z" transform="matrix(1 0 0 1.00043 0.518363 -0.333351)"/><text font-family="Arial,Arial_MSFontService,sans-serif" font-weight="400" font-size="32" transform="matrix(0.999643 0 0 1.00008 2241 590)">rdfs</text><text font-family="Arial,Arial_MSFontService,sans-serif" font-weight="400" font-size="32" transform="matrix(0.999643 0 0 1.00008 2294.98 590)">:</text><text font-family="Arial,Arial_MSFontService,sans-serif" font-weight="400" font-size="32" transform="matrix(0.999643 0 0 1.00008 2303.98 590)">subClassOf</text><text font-family="Arial,Arial_MSFontService,sans-serif" font-weight="400" font-size="32" transform="matrix(0.999643 0 0 1.00008 2241 628)">owl</text><text font-family="Arial,Arial_MSFontService,sans-serif" font-weight="400" font-size="32" transform="matrix(0.999643 0 0 1.00008 2287.98 628)">:</text><text font-family="Arial,Arial_MSFontService,sans-serif" font-weight="400" font-size="32" transform="matrix(0.999643 0 0 1.00008 2296.98 628)">ObjectProperty</text><text font-family="Arial,Arial_MSFontService,sans-serif" font-weight="400" font-size="32" transform="matrix(0.999643 0 0 1.00008 2241 667)">owl</text><text font-family="Arial,Arial_MSFontService,sans-serif" font-weight="400" font-size="32" transform="matrix(0.999643 0 0 1.00008 2287.98 667)">:</text><text font-family="Arial,Arial_MSFontService,sans-serif" font-weight="400" font-size="32" transform="matrix(0.999643 0 0 1.00008 2296.98 667)">DatatypeProperty</text><text font-family="Arial,Arial_MSFontService,sans-serif" font-weight="400" font-size="32" transform="matrix(0.999643 0 0 1.00008 2241 705)">rdfs</text><text font-family="Arial,Arial_MSFontService,sans-serif" font-weight="400" font-size="32" transform="matrix(0.999643 0 0 1.00008 2294.98 705)">:</text><text font-family="Arial,Arial_MSFontService,sans-serif" font-weight="400" font-size="32" transform="matrix(0.999643 0 0 1.00008 2303.98 705)">Class</text><text font-family="Arial,Arial_MSFontService,sans-serif" font-weight="400" font-size="32" transform="matrix(0.999643 0 0 1.00008 2241 744)">rdfs</text><text font-family="Arial,Arial_MSFontService,sans-serif" font-weight="400" font-size="32" transform="matrix(0.999643 0 0 1.00008 2294.98 744)">:</text><text font-family="Arial,Arial_MSFontService,sans-serif" font-weight="400" font-size="32" transform="matrix(0.999643 0 0 1.00008 2303.98 744)">Literal</text><path d="M2113.24 657.775 2121.24 657.775 2121.24 659.774 2113.24 659.774ZM2127.24 657.775 2129.24 657.775 2129.24 659.774 2127.24 659.774ZM2135.24 657.775 2143.23 657.775 2143.23 659.774 2135.24 659.774ZM2149.23 657.775 2151.24 657.775 2151.24 659.774 2149.23 659.774ZM2157.24 657.775 2165.24 657.775 2165.24 659.774 2157.24 659.774ZM2171.23 657.775 2173.23 657.775 2173.23 659.774 2171.23 659.774ZM2179.23 657.775 2187.23 657.775 2187.23 659.774 2179.23 659.774ZM2193.23 657.775 2195.23 657.775 2195.23 659.774 2193.23 659.774ZM2201.22 657.775 2209.22 657.775 2209.22 659.774 2201.22 659.774ZM2215.22 657.775 2216.16 657.775 2216.16 659.774 2215.22 659.774ZM2214.83 652.109 2222.83 658.775 2214.83 665.439Z" transform="matrix(1 0 0 1.00043 0.518363 -0.333351)"/><path d="M2114.74 681.766C2114.74 678.178 2117.65 675.269 2121.24 675.269L2221.21 675.269C2224.8 675.269 2227.7 678.178 2227.7 681.766L2227.7 707.757C2227.7 711.346 2224.8 714.255 2221.21 714.255L2121.24 714.255C2117.65 714.255 2114.74 711.346 2114.74 707.757Z" stroke="#FFFFFF" stroke-width="0.666517" stroke-miterlimit="8" fill="#575454" fill-rule="evenodd" transform="matrix(1 0 0 1.00043 0.518363 -0.333351)"/><text fill="#FFFFFF" font-family="Arial,Arial_MSFontService,sans-serif" font-style="italic" font-weight="400" font-size="27" transform="matrix(0.999643 0 0 1.00008 2137.75 704)">Class</text><path d="M2113.74 716.255 2228.7 716.255 2228.7 754.242 2113.74 754.242Z" stroke="#000000" stroke-width="0.666517" stroke-miterlimit="8" fill="#FFFFFF" transform="matrix(1 0 0 1.00043 0.518363 -0.333351)"/><text font-family="Arial,Arial_MSFontService,sans-serif" font-weight="400" font-size="27" transform="matrix(0.999643 0 0 1.00008 2135.23 745)">Literal</text><path d="M0-27.99 379.032-27.99 379.032 6.9975-1.01689e-05 6.9975Z" fill="#FFFFFF" fill-rule="evenodd" transform="matrix(1 0 0 1.00044 1621.48 1109.11)"/><text font-family="Arial,Arial_MSFontService,sans-serif" font-weight="400" font-size="32" transform="matrix(0.999643 0 0 1.00008 1621.48 1109)">unocs</text><text font-family="Arial,Arial_MSFontService,sans-serif" font-weight="400" font-size="32" transform="matrix(0.999643 0 0 1.00008 1706.45 1109)">:</text><text font-family="Arial,Arial_MSFontService,sans-serif" font-weight="400" font-size="32" transform="matrix(0.999643 0 0 1.00008 1715.45 1109)">ActualCharacteristic</text><path d="M0-27.99 176.27-27.99 176.27 6.9975-5.08444e-06 6.9975Z" fill="#FFFFFF" fill-rule="evenodd" transform="matrix(1 0 0 1.00044 1363.58 653.796)"/><text font-family="Arial,Arial_MSFontService,sans-serif" font-weight="400" font-size="32" transform="matrix(0.999643 0 0 1.00008 1363.58 654)">dicp</text><text font-family="Arial,Arial_MSFontService,sans-serif" font-weight="400" font-size="32" transform="matrix(0.999643 0 0 1.00008 1420.56 654)">:</text><text font-family="Arial,Arial_MSFontService,sans-serif" font-weight="400" font-size="32" transform="matrix(0.999643 0 0 1.00008 1429.56 654)">hasEnd</text><path d="M0-27.99 186.766-27.99 186.766 6.9975-5.08444e-06 6.9975Z" fill="#FFFFFF" fill-rule="evenodd" transform="matrix(1 0 0 1.00044 1029.51 646.393)"/><text font-family="Arial,Arial_MSFontService,sans-serif" font-weight="400" font-size="32" transform="matrix(0.999643 0 0 1.00008 1029.51 647)">dicp</text><text font-family="Arial,Arial_MSFontService,sans-serif" font-weight="400" font-size="32" transform="matrix(0.999643 0 0 1.00008 1086.49 647)">:</text><text font-family="Arial,Arial_MSFontService,sans-serif" font-weight="400" font-size="32" transform="matrix(0.999643 0 0 1.00008 1095.49 647)">hasStart</text><path d="M1382.01 686.932C1382.01 681.594 1386.33 677.268 1391.67 677.268L1586.26 677.268C1591.6 677.268 1595.93 681.594 1595.93 686.932L1595.93 725.585C1595.93 730.922 1591.6 735.248 1586.26 735.248L1391.67 735.248C1386.33 735.248 1382.01 730.922 1382.01 725.585Z" stroke="#FFFFFF" stroke-width="0.666517" stroke-miterlimit="8" fill="#575454" fill-rule="evenodd" transform="matrix(1 0 0 1.00043 0.518363 -0.333351)"/><text fill="#FFFFFF" font-family="Arial,Arial_MSFontService,sans-serif" font-weight="400" font-size="32" transform="matrix(0.999643 0 0 1.00008 1404.53 718)">dice</text><text fill="#FFFFFF" font-family="Arial,Arial_MSFontService,sans-serif" font-weight="400" font-size="32" transform="matrix(0.999643 0 0 1.00008 1461.51 718)">:</text><text fill="#FFFFFF" font-family="Arial,Arial_MSFontService,sans-serif" font-weight="400" font-size="32" transform="matrix(0.999643 0 0 1.00008 1472.17 718)">Activity</text><path d="M0-0.999773 58.9244-0.999773 58.9244 44.5158 56.925 44.5158 56.925 0 57.9247 0.999773 0 0.999773ZM64.5899 43.1828 57.9247 56.5131 51.2596 43.1828Z" transform="matrix(-1.83697e-16 -1.00044 -1 1.83779e-16 1652.46 763.678)"/><path d="M1033.13 873.201C1033.13 869.336 1036.26 866.204 1040.13 866.204L1269.05 866.204C1272.92 866.204 1276.04 869.336 1276.04 873.201L1276.04 901.191C1276.04 905.056 1272.92 908.189 1269.05 908.189L1040.13 908.189C1036.26 908.189 1033.13 905.056 1033.13 901.191Z" stroke="#FFFFFF" stroke-width="0.666517" stroke-miterlimit="8" fill="#575454" fill-rule="evenodd" transform="matrix(1 0 0 1.00043 0.518363 -0.333351)"/><text fill="#FFFFFF" font-family="Arial,Arial_MSFontService,sans-serif" font-style="italic" font-weight="400" font-size="32" transform="matrix(0.999643 0 0 1.00008 1078.82 899)">dica</text><text fill="#FFFFFF" font-family="Arial,Arial_MSFontService,sans-serif" font-style="italic" font-weight="400" font-size="32" transform="matrix(0.999643 0 0 1.00008 1137.8 899)">:</text><text fill="#FFFFFF" font-family="Arial,Arial_MSFontService,sans-serif" font-style="italic" font-weight="400" font-size="32" transform="matrix(0.999643 0 0 1.00008 1146.8 899)">Agent</text><path d="M1653.21 826.909 1652.63 829.868 1650.87 832.906 1649.46 834.387 1648.01 833.006 1649.34 831.613 1649.2 831.802 1650.81 829.012 1650.7 829.321 1651.24 826.525ZM1644.76 838.344 1644.32 838.676 1639.62 841.466 1637.67 842.423 1636.8 840.628 1638.71 839.688 1638.63 839.727 1643.25 836.986 1643.16 837.048 1643.55 836.75ZM1632.18 844.976 1627.52 846.913 1624.7 847.935 1624.02 846.055 1626.82 845.041 1626.78 845.058 1631.41 843.131ZM1619 849.944 1612.01 852.181 1611.35 852.368 1610.8 850.446 1611.44 850.261 1611.41 850.271 1618.4 848.04ZM1605.59 854.016 1603.06 854.738 1597.83 856.084 1597.33 854.148 1602.55 852.805 1602.52 852.811 1605.04 852.094ZM1591.99 857.557 1584.2 859.379 1583.75 857.432 1591.54 855.609ZM1578.33 860.661 1571.8 862.053 1570.48 862.311 1570.1 860.349 1571.41 860.092 1571.4 860.096 1577.91 858.704ZM1564.59 863.463 1560.03 864.354 1556.72 864.949 1556.36 862.982 1559.67 862.388 1559.65 862.391 1564.21 861.5ZM1550.82 866.01 1547.65 866.579 1542.92 867.359 1542.59 865.387 1547.31 864.608 1547.3 864.61 1550.47 864.041ZM1537 868.337 1534.67 868.722 1529.08 869.57 1528.78 867.593 1534.36 866.746 1534.35 866.748 1536.67 866.365ZM1523.16 870.471 1521.15 870.777 1515.23 871.604 1514.95 869.623 1520.87 868.798 1520.85 868.799 1522.86 868.495ZM1509.28 872.433 1507.1 872.738 1501.34 873.477 1501.09 871.494 1506.84 870.756 1506.83 870.757 1509.01 870.453ZM1495.4 874.241 1492.58 874.602 1487.44 875.205 1487.21 873.219 1492.34 872.616 1492.33 872.617 1495.14 872.257ZM1481.48 875.905 1477.61 876.361 1473.52 876.798 1473.31 874.809 1477.39 874.373 1477.38 874.374 1481.25 873.919ZM1467.57 877.438 1462.22 878.01 1459.6 878.266 1459.41 876.276 1462.03 876.021 1462.02 876.022 1467.35 875.449ZM1453.63 878.847 1446.45 879.546 1445.65 879.613 1445.48 877.619 1446.28 877.553 1446.27 877.554 1453.43 876.857ZM1439.68 880.11 1431.7 880.771 1431.54 878.779 1439.51 878.116ZM1425.72 881.268 1417.75 881.931 1417.58 879.939 1425.56 879.276ZM1411.76 882.39 1403.77 882.907 1403.65 880.911 1411.63 880.394ZM1397.79 883.294 1389.8 883.812 1389.67 881.816 1397.66 881.299ZM1383.82 884.199 1380.3 884.428 1375.82 884.637 1375.72 882.64 1380.2 882.431 1380.18 882.432 1383.69 882.204ZM1369.82 884.917 1361.83 885.291 1361.74 883.293 1369.73 882.92ZM1355.85 885.571 1347.85 885.943 1347.76 883.946 1355.75 883.573ZM1341.84 886.152 1333.84 886.38 1333.78 884.381 1341.78 884.153ZM1327.85 886.551 1319.86 886.779 1319.8 884.78 1327.8 884.552ZM1313.86 886.95 1310.83 887.036 1305.84 887.085 1305.82 885.085 1310.8 885.037 1310.78 885.037 1313.8 884.951ZM1299.85 887.143 1291.85 887.22 1291.83 885.221 1299.83 885.144ZM1288.94 892.914 1275.54 886.379 1288.81 879.585Z" transform="matrix(1 0 0 1.00043 0.518363 -0.333351)"/><path d="M0-27.99 202.928-27.99 202.928 6.9975 0 6.9975Z" fill="#FFFFFF" fill-rule="evenodd" transform="matrix(1 0 0 1.00044 1326.77 877.515)"/><text font-family="Arial,Arial_MSFontService,sans-serif" font-weight="400" font-size="32" transform="matrix(0.999643 0 0 1.00008 1326.77 878)">dica</text><text font-family="Arial,Arial_MSFontService,sans-serif" font-weight="400" font-size="32" transform="matrix(0.999643 0 0 1.00008 1383.75 878)">:</text><text font-family="Arial,Arial_MSFontService,sans-serif" font-weight="400" font-size="32" transform="matrix(0.999643 0 0 1.00008 1392.75 878)">hasAgent</text><path d="M0-27.99 210.092-27.99 210.092 6.9975 5.08444e-06 6.9975Z" fill="#FFFFFF" fill-rule="evenodd" transform="matrix(1 0 0 1.00044 1779.64 630.906)"/><text font-family="Arial,Arial_MSFontService,sans-serif" font-weight="400" font-size="32" transform="matrix(0.999643 0 0 1.00008 1779.64 631)">unocs</text><text font-family="Arial,Arial_MSFontService,sans-serif" font-weight="400" font-size="32" transform="matrix(0.999643 0 0 1.00008 1864.61 631)">:</text><text font-family="Arial,Arial_MSFontService,sans-serif" font-weight="400" font-size="32" transform="matrix(0.999643 0 0 1.00008 1873.61 631)">requires</text><path d="M2354.16 1039.65 2569.08 1039.65 2569.08 1166.61 2354.16 1166.61Z" stroke="#042433" stroke-width="1.99955" stroke-miterlimit="8" fill="none" transform="matrix(1 0 0 1.00043 0.518363 -0.333351)"/><text font-family="Arial,Arial_MSFontService,sans-serif" font-weight="400" font-size="24" transform="matrix(0.999643 0 0 1.00008 2382.98 1069)">Compared</text><text font-family="Arial,Arial_MSFontService,sans-serif" font-weight="400" font-size="24" transform="matrix(0.999643 0 0 1.00008 2501.61 1069)">and</text><text font-family="Arial,Arial_MSFontService,sans-serif" font-weight="400" font-size="24" transform="matrix(0.999643 0 0 1.00008 2378.31 1098)">evaluated</text><text font-family="Arial,Arial_MSFontService,sans-serif" font-weight="400" font-size="24" transform="matrix(0.999643 0 0 1.00008 2488.95 1098)">using</text><text font-family="Arial,Arial_MSFontService,sans-serif" font-weight="400" font-size="24" transform="matrix(0.999643 0 0 1.00008 2408.75 1127)">SHACL</text><text font-family="Arial,Arial_MSFontService,sans-serif" font-weight="400" font-size="24" transform="matrix(0.999643 0 0 1.00008 2494.51 1127)">or</text><text font-family="Arial,Arial_MSFontService,sans-serif" font-weight="400" font-size="24" transform="matrix(0.999643 0 0 1.00008 2414.53 1155)">SPARQL</text><text font-family="Arial,Arial_MSFontService,sans-serif" font-weight="400" font-size="32" transform="matrix(0.999643 0 0 1.00008 1684.98 858)">unocs</text><text font-family="Arial,Arial_MSFontService,sans-serif" font-weight="400" font-size="32" transform="matrix(0.999643 0 0 1.00008 1769.95 858)">:</text><text font-family="Arial,Arial_MSFontService,sans-serif" font-weight="400" font-size="32" transform="matrix(0.999643 0 0 1.00008 1778.94 858)">hasAssigned</text><text font-family="Arial,Arial_MSFontService,sans-serif" font-weight="400" font-size="32" transform="matrix(0.999643 0 0 1.00008 1766.96 897)">Characteristic</text><path d="M2141.73 1057.14 2230.7 1057.14 2230.7 1100.13 2141.73 1100.13Z" stroke="#042433" stroke-width="2.99933" stroke-miterlimit="8" fill="#D1D1D1" transform="matrix(1 0 0 1.00043 0.518363 -0.333351)"/><path d="M2254.69 1057.14 2343.66 1057.14 2343.66 1100.13 2254.69 1100.13Z" stroke="#042433" stroke-width="2.99933" stroke-miterlimit="8" fill="#D1D1D1" transform="matrix(1 0 0 1.00043 0.518363 -0.333351)"/><path d="M170.94 110.431 155.724 45.7644 161.17 45.7644C162.269 45.7644 163.16 44.8735 163.16 43.7746 163.16 42.6756 162.269 41.7849 161.17 41.7849L103.184 41.7849C102.456 39.0006 100.282 36.8261 97.4979 36.0981L97.4979 17.9078C97.4979 16.8089 96.6072 15.918 95.5082 15.918 94.4092 15.918 93.5184 16.8089 93.5184 17.9078L93.5184 36.0981C90.7341 36.8261 88.5598 39.0006 87.8317 41.7849L29.8463 41.7849C28.7473 41.7849 27.8566 42.6756 27.8566 43.7746 27.8566 44.8735 28.7473 45.7644 29.8463 45.7644L35.2922 45.7644 20.0766 110.431 13.9283 110.431 13.9283 112.421C13.9283 120.488 24.8521 126.805 38.8002 126.805 52.7483 126.805 63.6721 120.488 63.6721 112.421L63.6721 110.431 57.5238 110.431 42.3081 45.7644 87.8317 45.7644C88.5598 48.5485 90.7341 50.723 93.5184 51.4511L93.5184 161.17 79.5902 161.17C75.1945 161.17 71.6311 164.734 71.6311 169.129L75.6107 169.129C75.6107 166.931 77.3923 165.15 79.5902 165.15L111.426 165.15C113.624 165.15 115.406 166.931 115.406 169.129L119.385 169.129C119.385 164.734 115.822 161.17 111.426 161.17L97.4979 161.17 97.4979 51.4511C100.282 50.723 102.456 48.5485 103.184 45.7644L148.709 45.7644 133.492 110.431 127.344 110.431 127.344 112.421C127.344 120.488 138.268 126.805 152.216 126.805 166.165 126.805 177.088 120.488 177.088 112.421L177.088 110.431ZM166.851 110.431 137.582 110.431 152.196 48.3172C152.196 48.3062 152.205 48.2973 152.216 48.2973 152.227 48.2973 152.236 48.3062 152.236 48.3172ZM38.8201 48.3172 53.4348 110.431 24.1655 110.431 38.7803 48.3172C38.7803 48.3062 38.7893 48.2973 38.8002 48.2973 38.8112 48.2973 38.8201 48.3062 38.8201 48.3172ZM38.8002 122.826C28.8374 122.826 20.2338 119.138 18.3057 114.411L59.2946 114.411C57.3666 119.138 48.7629 122.826 38.8002 122.826ZM95.5082 47.7541C93.3103 47.7541 91.5287 45.9725 91.5287 43.7746 91.5287 41.5767 93.3103 39.795 95.5082 39.795 97.706 39.795 99.4877 41.5767 99.4877 43.7746 99.4877 45.9725 97.706 47.7541 95.5082 47.7541ZM152.216 122.826C142.253 122.826 133.649 119.138 131.721 114.411L172.71 114.411C170.782 119.138 162.179 122.826 152.216 122.826Z" fill="#AEAEAE" transform="matrix(1.00479 0 0 1 2144.75 989.752)"/><path d="M47.7541 171.119 143.262 171.119 143.262 175.098 47.7541 175.098Z" fill="#AEAEAE" transform="matrix(1.00479 0 0 1 2144.75 989.752)"/><path d="M2141.73 1058.14 2230.7 1058.14 2230.7 1100.13 2141.73 1100.13Z" stroke="#042433" stroke-width="2.99933" stroke-miterlimit="8" fill="none" transform="matrix(1 0 0 1.00043 0.518363 -0.333351)"/><text font-family="Arial,Arial_MSFontService,sans-serif" font-weight="400" font-size="24" transform="matrix(0.999643 0 0 1.00008 2154.28 1088)">object</text><path d="M2254.69 1058.14 2343.66 1058.14 2343.66 1100.13 2254.69 1100.13Z" stroke="#042433" stroke-width="2.99933" stroke-miterlimit="8" fill="none" transform="matrix(1 0 0 1.00043 0.518363 -0.333351)"/><text font-family="Arial,Arial_MSFontService,sans-serif" font-weight="400" font-size="24" transform="matrix(0.999643 0 0 1.00008 2267.23 1088)">object</text><path d="M2254.32 863.713 2256.52 864.009 2258.8 864.919 2261.01 866.375 2261.96 867.246 2260.62 868.723 2259.72 867.905 2259.84 868.002 2257.78 866.645 2257.96 866.738 2255.89 865.912 2256.13 865.975 2254.06 865.695ZM2266.06 871.9 2267.21 873.532 2265.58 874.688 2264.42 873.056ZM2270.28 878.836 2271.33 880.833 2273.28 885.038 2273.74 886.148 2271.89 886.912 2271.44 885.822 2271.45 885.859 2269.53 881.695 2269.55 881.74 2268.51 879.764ZM2275.97 891.752 2276.67 893.626 2274.79 894.326 2274.1 892.451ZM2278.63 899.326 2278.86 899.993 2280.94 907.025 2279.02 907.592 2276.95 900.579 2276.96 900.616 2276.74 899.967ZM2282.6 912.832 2283.08 914.771 2281.15 915.255 2280.67 913.315ZM2284.53 920.592 2285.57 924.742 2286.34 928.419 2284.39 928.832 2283.61 925.171 2283.62 925.207 2282.59 921.076ZM2287.58 934.288 2287.99 936.246 2286.04 936.657 2285.62 934.701ZM2289.14 942.166 2290.54 950.042 2288.57 950.391 2287.17 942.516ZM2291.53 955.985 2291.83 957.963 2289.85 958.256 2289.56 956.278ZM2292.71 963.898 2293.6 969.957 2293.83 971.843 2291.84 972.082 2291.62 970.21 2291.62 970.237 2290.73 964.19ZM2294.55 977.799 2294.79 979.784 2292.8 980.023 2292.56 978.038ZM2295.5 985.74 2295.61 986.627 2296.28 993.727 2294.28 993.914 2293.62 986.826 2293.62 986.852 2293.52 985.979ZM2296.84 999.703 2297.02 1001.69 2295.03 1001.87 2294.84 999.883ZM2297.49 1007.7 2298.03 1015.68 2296.03 1015.81 2295.49 1007.83ZM2298.43 1021.68 2298.51 1023.68 2296.51 1023.76 2296.43 1021.77ZM2298.76 1029.68 2299.09 1037.67 2297.09 1037.75 2296.76 1029.76ZM2299.22 1043.7 2299.25 1045.7 2297.25 1045.73 2297.22 1043.73ZM2304.97 1049.44 2298.42 1057.54 2291.64 1049.64Z" transform="matrix(1 0 0 1.00043 0.518363 -0.333351)"/><path d="M1860.32 1237.28 1860.56 1238.4 1860.43 1238.08 1861.12 1239.2 1860.97 1239.02 1862.11 1240.13 1861.99 1240.03 1863.57 1241.14 1863.48 1241.09 1865.22 1242.05 1864.26 1243.8 1862.46 1242.81 1860.78 1241.62 1859.49 1240.36 1858.63 1238.99 1858.36 1237.69ZM1870.58 1244.31 1872.48 1244.95 1871.84 1246.84 1869.95 1246.2ZM1878.19 1246.61 1881.01 1247.4 1880.96 1247.39 1885.91 1248.51 1885.46 1250.46 1880.5 1249.33 1877.65 1248.53ZM1891.73 1249.76 1893.69 1250.13 1893.32 1252.1 1891.36 1251.73ZM1899.56 1251.25 1907.46 1252.51 1907.15 1254.48 1899.24 1253.22ZM1913.37 1253.38 1915.36 1253.65 1915.09 1255.63 1913.11 1255.37ZM1921.29 1254.46 1922.36 1254.6 1922.34 1254.6 1929.22 1255.38 1928.99 1257.37 1922.11 1256.58 1921.02 1256.44ZM1935.16 1256.06 1937.15 1256.25 1936.96 1258.24 1934.97 1258.05ZM1943.13 1256.82 1948.57 1257.33 1948.55 1257.33 1951.07 1257.53 1950.91 1259.52 1948.39 1259.33 1942.94 1258.81ZM1957.05 1257.99 1959.05 1258.14 1958.89 1260.14 1956.9 1259.98ZM1965.01 1258.56 1972.99 1259.04 1972.88 1261.04 1964.89 1260.56ZM1978.97 1259.37 1980.96 1259.46 1980.88 1261.46 1978.88 1261.37ZM1986.96 1259.72 1992.07 1259.94 1992.04 1259.94 1994.93 1259.99 1994.89 1261.99 1991.99 1261.94 1986.87 1261.72ZM2000.93 1260.1 2002.92 1260.13 2002.88 1262.13 2000.89 1262.1ZM2008.92 1260.24 2016.92 1260.38 2016.88 1262.38 2008.88 1262.24ZM2022.87 1260.46 2024.87 1260.4 2024.93 1262.4 2022.93 1262.46ZM2030.79 1260.17 2037.62 1259.55 2037.57 1259.56 2038.7 1259.39 2038.99 1261.37 2037.83 1261.54 2030.98 1262.17ZM2044.63 1258.5 2045.17 1258.42 2045.11 1258.43 2046.54 1258.13 2046.95 1260.09 2045.49 1260.4 2044.93 1260.48ZM2052.42 1256.91 2052.67 1256.86 2052.62 1256.87 2060.09 1254.89 2060.6 1256.83 2053.1 1258.82 2052.82 1258.87ZM2065.76 1253.07 2067.47 1252.52 2067.43 1252.54 2067.61 1252.47 2068.32 1254.34 2068.11 1254.42 2066.37 1254.98ZM2073.22 1250.35 2074.76 1249.77 2074.71 1249.79 2080.55 1247.25 2081.34 1249.09 2075.49 1251.63 2073.93 1252.22ZM2085.84 1244.62 2087.61 1243.69 2088.54 1245.47 2086.76 1246.38ZM2092.94 1240.92 2095.95 1239.35 2095.87 1239.4 2099.75 1236.92 2100.83 1238.6 2096.91 1241.11 2093.86 1242.7ZM2104.8 1233.68 2106.49 1232.6 2107.57 1234.28 2105.88 1235.36ZM2111.34 1229.23 2117.67 1224.35 2118.89 1225.94 2112.56 1230.82ZM2122.34 1220.72 2123.82 1219.37 2125.16 1220.84 2123.69 1222.19ZM2128.25 1215.33 2133.91 1210.16 2133.85 1210.22 2134.08 1209.98 2135.55 1211.34 2135.29 1211.61 2129.6 1216.81ZM2138.16 1205.58 2139.52 1204.11 2140.98 1205.47 2139.63 1206.93ZM2143.59 1199.71 2144.82 1198.38 2144.76 1198.45 2148.58 1193.57 2150.15 1194.8 2146.31 1199.71 2145.05 1201.07ZM2152.27 1188.85 2153.5 1187.27 2155.08 1188.5 2153.85 1190.07ZM2156.86 1182.41 2161.22 1175.7 2162.9 1176.79 2158.53 1183.5ZM2164.28 1170.65 2165.21 1168.88 2166.98 1169.81 2166.05 1171.58ZM2168.02 1163.57 2170.65 1158.59 2170.62 1158.65 2171.57 1156.5 2173.4 1157.31 2172.43 1159.49 2169.78 1164.51ZM2173.95 1151.05 2174.66 1149.18 2176.53 1149.9 2175.81 1151.76ZM2176.76 1143.61 2178.94 1136.94 2178.92 1136.99 2179.18 1136.04 2181.11 1136.56 2180.85 1137.53 2178.66 1144.23ZM2180.74 1130.26 2180.92 1129.56 2180.91 1129.61 2181.17 1128.36 2183.13 1128.78 2182.86 1130.05 2182.67 1130.78ZM2182.41 1122.49 2182.49 1122.11 2182.48 1122.17 2183.63 1114.64 2185.6 1114.94 2184.46 1122.5 2184.37 1122.9ZM2184.12 1108.73 2184.28 1106.73 2186.28 1106.9 2186.11 1108.89ZM2178.62 1107.38 2185.55 1099.63 2191.94 1107.84Z" transform="matrix(1 0 0 1.00043 0.518363 -0.333351)"/><path d="M0-27.99 197.057-27.99 197.057 6.9975-3.45742e-06 6.9975Z" fill="#FFFFFF" fill-rule="evenodd" transform="matrix(1 0 0 1.00044 2062.47 1219.32)"/><text font-family="Arial,Arial_MSFontService,sans-serif" font-weight="400" font-size="32" transform="matrix(0.999643 0 0 1.00008 2062.47 1220)">dicv</text><text font-family="Arial,Arial_MSFontService,sans-serif" font-weight="400" font-size="32" transform="matrix(0.999643 0 0 1.00008 2117.45 1220)">:</text><text font-family="Arial,Arial_MSFontService,sans-serif" font-weight="400" font-size="32" transform="matrix(0.999643 0 0 1.00008 2126.45 1220)">hasValue</text></g></svg>